<svg width="393" height="652" viewBox="0 0 393 652" fill="none" xmlns="http://www.w3.org/2000/svg">
<path d="M1125.18 5.75423L1110.27 1M1125.18 5.75423H1080.98M1125.18 5.75423L1140.59 10.6655M1125.18 5.75423H1156.48M1110.27 1L1115.69 1.00185L1121.06 1.01215L1126.32 1.04109L1131.42 1.09809L1136.29 1.1906L1140.89 1.32984L1145.16 1.52326L1149.13 1.76992L1152.53 2.111L1155.63 2.50626L1156.48 2.6447V5.75423M1110.27 1H1066.78M1066.78 1H1023.29M1066.78 1L1080.98 5.75423M1023.29 1H979.8M1023.29 1L1036.78 5.75423M979.8 1H936.311M979.8 1L992.584 5.75423M936.311 1H892.822M936.311 1L948.385 5.75423M892.822 1H849.333M892.822 1L904.186 5.75423M849.333 1H805.844M849.333 1L859.987 5.75423M805.844 1H762.356M805.844 1L815.788 5.75423M762.356 1H718.866M762.356 1L771.589 5.75423M718.866 1H675.378M718.866 1L727.389 5.75423M675.378 1H631.889M675.378 1L683.19 5.75423M631.889 1H588.4M631.889 1L638.991 5.75423M588.4 1H544.911M588.4 1L589.978 2.17453L592.371 3.95272L594.792 5.75423M544.911 1H501.422M544.911 1L546.314 2.17453L550.593 5.75423M501.422 1H457.934M501.422 1L506.393 5.75423M457.934 1H414.444M457.934 1L459.515 2.76507L461.117 4.55072L461.654 5.15155L462.195 5.75423M414.444 1H370.955M414.444 1L415.762 2.76507L416.206 3.35748L416.651 3.95272L417.996 5.75423M370.955 1H327.467M370.955 1L373.797 5.75423M327.467 1L327.73 1.58586L327.992 2.17453L329.327 5.15155L329.598 5.75423M327.467 1H283.978M283.978 1H240.489M283.978 1L285.399 5.75423M240.489 1H197M240.489 1L240.752 2.76507L241.199 5.75423M197 1H153.511M197 1V5.75423M153.511 1H110.022M153.511 1L153.248 2.76507L152.801 5.75423M110.022 1H66.5333M110.022 1L108.602 5.75423M66.5333 1L66.2705 1.58586L66.0076 2.17453L64.6733 5.15155L64.4024 5.75423M66.5333 1H23.0447M23.0447 1H-20.4449M23.0447 1L20.5641 5.15155L20.2032 5.75423M-20.4449 1H-63.9335M-20.4449 1L-21.7621 2.76507L-22.2059 3.35748L-23.0974 4.55072L-23.5452 5.15155L-23.9959 5.75423M-63.9335 1H-107.422M-63.9335 1L-65.5146 2.76507L-67.1167 4.55072L-67.6544 5.15155L-68.1952 5.75423M-107.422 1H-150.911M-107.422 1L-112.393 5.75423M-150.911 1H-194.4M-150.911 1L-152.314 2.17453L-156.593 5.75423M-194.4 1H-237.889M-194.4 1L-200.792 5.75423M-237.889 1H-281.377M-237.889 1L-244.991 5.75423M-281.377 1H-324.867M-281.377 1L-289.19 5.75423M-324.867 1H-368.356M-324.867 1L-333.389 5.75423M-368.356 1H-411.844M-368.356 1L-377.589 5.75423M-411.844 1H-455.333M-411.844 1L-421.788 5.75423M-455.333 1H-498.822M-455.333 1L-465.987 5.75423M-498.822 1H-542.311M-498.822 1L-510.186 5.75423M-542.311 1H-585.799M-542.311 1L-554.385 5.75423M-585.799 1H-629.289M-585.799 1L-598.585 5.75423M-629.289 1H-672.778M-629.289 1L-642.783 5.75423M-672.778 1H-716.266M-672.778 1L-686.982 5.75423M-716.266 1L-721.693 1.00185L-727.064 1.01215L-732.324 1.04109L-737.418 1.09809L-742.291 1.1906L-746.892 1.32984L-751.164 1.52326L-755.13 1.76992L-758.533 2.111L-761.632 2.50626L-762.483 2.64473V5.75423M-716.266 1L-731.181 5.75423M-642.783 5.75423H-598.585M-642.783 5.75423H-686.982M-642.783 5.75423L-656.726 10.6655M-598.585 5.75423L-611.793 10.6655M-598.585 5.75423H-554.385M-465.987 5.75423H-421.788M-465.987 5.75423H-510.186M-465.987 5.75423L-468.704 6.96709L-476.994 10.6655M-421.788 5.75423L-432.061 10.6655M-421.788 5.75423H-377.589M-289.19 5.75423H-244.991M-289.19 5.75423H-333.389M-289.19 5.75423L-291.183 6.96709L-292.187 7.57633L-297.263 10.6655M-244.991 5.75423L-245.895 6.35879L-246.803 6.96709L-252.329 10.6655M-244.991 5.75423H-200.792M-112.393 5.75423L-113.027 6.35879L-117.531 10.6655M-112.393 5.75423H-68.1952M-112.393 5.75423H-156.593M-68.1952 5.75423L-69.2815 6.96709L-69.8293 7.57633L-70.3779 8.1893L-72.5977 10.6655M-68.1952 5.75423H-23.9959M64.4024 5.75423H108.602M64.4024 5.75423H20.2032M64.4024 5.75423L62.2017 10.6655M108.602 5.75423L108.421 6.35879L108.24 6.96709L108.057 7.57633L107.505 9.42178L107.134 10.6655M108.602 5.75423H152.801M241.199 5.75423H285.399M241.199 5.75423H197M241.199 5.75423L241.933 10.6655M285.399 5.75423L285.579 6.35879L285.76 6.96709L285.943 7.57633L286.866 10.6655M285.399 5.75423H329.598M417.996 5.75423H462.195M417.996 5.75423H373.797M417.996 5.75423L418.901 6.96709L420.737 9.42178L421.199 10.0422L421.665 10.6655M462.195 5.75423L463.282 6.96709L463.829 7.57633L464.378 8.1893L466.598 10.6655M462.195 5.75423H506.393M594.792 5.75423H638.991M594.792 5.75423H550.593M594.792 5.75423L596.423 6.96709L597.243 7.57633L601.396 10.6655M638.991 5.75423L639.896 6.35879L640.803 6.96709L646.329 10.6655M638.991 5.75423H683.19M771.589 5.75423H815.788M771.589 5.75423H727.389M771.589 5.75423L773.944 6.96709L775.13 7.57633L781.128 10.6655M815.788 5.75423L826.061 10.6655M815.788 5.75423H859.987M948.385 5.75423H992.584M948.385 5.75423H904.186M948.385 5.75423L960.86 10.6655M992.584 5.75423L1005.79 10.6655M992.584 5.75423H1036.78M-762.638 50.2132H-762.483M-718.151 50.2132L-701.276 43.9387M-718.151 50.2132L-735.673 56.7278M-718.151 50.2132H-667.31M-718.151 50.2132H-762.483M-701.276 43.9387H-751.18M-701.276 43.9387L-685.012 37.8912M-701.276 43.9387H-651.372M-751.18 43.9387L-734.013 37.8912M-751.18 43.9387H-762.483M-751.18 43.9387L-762.483 47.9193M-701.478 26.4298H-654.19M-701.478 26.4298L-686.048 20.9944M-701.478 26.4298H-748.766M-701.478 26.4298L-717.457 32.0586M-654.19 26.4298L-639.571 20.9944M-654.19 26.4298L-669.326 32.0586M-654.19 26.4298H-606.901M-686.048 20.9944H-639.571M-686.048 20.9944L-671.139 15.743M-686.048 20.9944H-732.524M-639.571 20.9944H-593.095M-639.571 20.9944L-625.448 15.743M-762.97 149.251H-762.483M-721.946 149.251L-700.186 138.848M-721.946 149.251L-744.788 160.171M-721.946 149.251H-656.306M-721.946 149.251H-762.483M-700.186 138.848L-679.432 128.926M-700.186 138.848H-636.101M-700.186 138.848H-762.483M-742.034 128.926H-679.432M-742.034 128.926L-720.804 119.453M-742.034 128.926H-762.483M-742.034 128.926L-762.483 138.051M-700.513 110.399H-640.679M-700.513 110.399L-681.099 101.737M-700.513 110.399H-760.346M-700.513 110.399L-720.804 119.453M-640.679 110.399L-622.559 101.737M-640.679 110.399L-659.618 119.453M-640.679 110.399H-580.844M-681.099 101.737H-622.559M-681.099 101.737H-739.639M-681.099 101.737L-662.507 93.4415M-622.559 101.737L-605.207 93.4415M-622.559 101.737H-564.019M-627.59 77.8612H-572.618M-627.59 77.8612L-611.174 70.5365M-627.59 77.8612H-682.562M-627.59 77.8612L-644.687 85.4897M-572.618 77.8612L-557.296 70.5365M-572.618 77.8612L-588.574 85.4897M-572.618 77.8612H-517.644M-611.174 70.5365H-557.296M-611.174 70.5365H-665.052M-611.174 70.5365L-595.398 63.4976M-557.296 70.5365L-542.572 63.4976M-557.296 70.5365H-503.417M-565.626 50.2132H-514.785M-565.626 50.2132L-551.564 43.9387M-565.626 50.2132H-616.468M-565.626 50.2132L-580.227 56.7278M-514.785 50.2132L-501.66 43.9387M-514.785 50.2132L-528.412 56.7278M-514.785 50.2132H-463.943M-551.564 43.9387H-501.66M-551.564 43.9387H-601.468M-551.564 43.9387L-538.01 37.8912M-501.66 43.9387L-489.01 37.8912M-501.66 43.9387H-451.756M-512.325 26.4298H-465.036M-512.325 26.4298L-500.144 20.9944M-512.325 26.4298H-559.613M-512.325 26.4298L-524.939 32.0586M-465.036 26.4298L-453.668 20.9944M-465.036 26.4298L-476.81 32.0586M-465.036 26.4298H-417.748M-500.144 20.9944H-453.668M-500.144 20.9944L-488.373 15.743M-500.144 20.9944H-546.62M-453.668 20.9944H-407.191M-453.668 20.9944L-442.682 15.743M-728.854 329.604L-698.229 309.106M-728.854 329.604L-761.651 351.554M-728.854 329.604H-636.269M-728.854 329.604H-762.483M-698.229 309.106L-669.563 289.92M-698.229 309.106H-608.706M-698.229 309.106H-762.483M-698.851 255.013H-617.409M-698.851 255.013L-672.68 239.09M-698.851 255.013L-726.646 271.926M-698.851 255.013H-762.483M-617.409 255.013L-593.618 239.09M-617.409 255.013L-642.678 271.926M-617.409 255.013H-535.968M-672.68 239.09H-593.618M-672.68 239.09H-751.741M-672.68 239.09L-647.994 224.069M-593.618 239.09L-571.176 224.069M-593.618 239.09H-514.556M-602.602 196.45H-529.911M-602.602 196.45L-581.687 183.725M-602.602 196.45H-675.293M-602.602 196.45L-624.671 209.879M-529.911 196.45L-510.897 183.725M-529.911 196.45L-549.975 209.879M-529.911 196.45H-457.22M-581.687 183.725H-510.897M-581.687 183.725H-652.477M-581.687 183.725L-561.838 171.647M-510.897 183.725L-492.852 171.647M-510.897 183.725H-440.108M-525.029 149.251H-459.39M-525.029 149.251L-507.931 138.848M-525.029 149.251H-590.668M-525.029 149.251L-542.975 160.171M-459.39 149.251L-443.847 138.848M-459.39 149.251L-475.706 160.171M-459.39 149.251H-393.751M-507.931 138.848H-443.847M-507.931 138.848H-572.016M-507.931 138.848L-491.625 128.926M-443.847 138.848L-429.023 128.926M-443.847 138.848H-379.762M-461.176 110.399H-401.342M-461.176 110.399L-446.939 101.737M-461.176 110.399H-521.01M-461.176 110.399L-476.057 119.453M-401.342 110.399L-388.399 101.737M-401.342 110.399L-414.869 119.453M-401.342 110.399H-341.508M-446.939 101.737H-388.399M-446.939 101.737H-505.479M-446.939 101.737L-433.306 93.4415M-388.399 101.737L-376.004 93.4415M-388.399 101.737H-329.859M-407.699 77.8612H-352.727M-407.699 77.8612L-395.661 70.5365M-407.699 77.8612H-462.672M-407.699 77.8612L-420.237 85.4897M-352.727 77.8612L-351.334 76.9296L-341.783 70.5365M-352.727 77.8612L-364.124 85.4897M-352.727 77.8612H-297.754M-395.661 70.5365H-341.783M-395.661 70.5365H-449.539M-395.661 70.5365L-384.092 63.4976M-341.783 70.5365L-331.265 63.4976M-341.783 70.5365H-287.904M-362.26 50.2132H-311.417M-362.26 50.2132L-351.946 43.9387M-362.26 50.2132H-413.101M-362.26 50.2132L-372.967 56.7278M-311.417 50.2132L-302.042 43.9387M-311.417 50.2132L-315.024 52.6277L-321.152 56.7278M-311.417 50.2132H-260.576M-351.946 43.9387H-302.042M-351.946 43.9387H-401.85M-351.946 43.9387L-342.008 37.8912M-302.042 43.9387L-293.007 37.8912M-302.042 43.9387H-252.138M-323.172 26.4298H-275.883M-323.172 26.4298L-314.239 20.9944M-323.172 26.4298H-370.459M-323.172 26.4298L-332.422 32.0586M-275.883 26.4298L-269.766 22.3362L-268.762 21.6634L-267.762 20.9944M-275.883 26.4298L-284.293 32.0586M-275.883 26.4298H-228.595M-314.239 20.9944H-267.762M-314.239 20.9944L-305.607 15.743M-314.239 20.9944H-360.715M-267.762 20.9944H-221.286M-267.762 20.9944L-259.916 15.743M-695.309 563.104H-567.836M-695.309 563.104L-655.171 524.726M-695.309 563.104L-739.416 605.276M-695.309 563.104L-762.483 563.104M-567.836 563.104L-533.432 524.726M-567.836 563.104L-605.642 605.276M-567.836 563.104H-440.364M-655.171 524.726H-533.432M-655.171 524.726L-618.488 489.652M-655.171 524.726H-762.483M-533.432 524.726L-501.99 489.652M-533.432 524.726H-411.693M-553.846 427.845H-446.581M-553.846 427.845L-525.221 400.475M-553.846 427.845H-661.109M-553.846 427.845L-584.833 457.473M-446.581 427.845L-422.047 400.475M-446.581 427.845L-473.142 457.473M-446.581 427.845H-339.318M-525.221 400.475H-422.047M-525.221 400.475H-628.395M-525.221 400.475L-498.698 375.117M-422.047 400.475L-399.313 375.117M-422.047 400.475H-318.872M-451.098 329.604H-358.513M-451.098 329.604L-429.66 309.106M-451.098 329.604H-543.684M-451.098 329.604L-474.056 351.554M-358.513 329.604L-340.137 309.106M-358.513 329.604L-378.19 351.554M-358.513 329.604H-265.928M-429.66 309.106H-340.137M-429.66 309.106H-519.183M-429.66 309.106L-409.594 289.92M-340.137 309.106L-322.938 289.92M-340.137 309.106H-250.614M-373.087 255.013H-291.646M-373.087 255.013L-356.432 239.09M-373.087 255.013H-454.527M-373.087 255.013L-390.774 271.926M-291.646 255.013L-277.371 239.09M-291.646 255.013L-306.807 271.926M-291.646 255.013H-210.205M-356.432 239.09H-277.371M-356.432 239.09H-435.494M-356.432 239.09L-340.723 224.069M-277.371 239.09L-263.906 224.069M-277.371 239.09H-198.309M-311.838 196.45H-239.146M-311.838 196.45L-298.528 183.725M-311.838 196.45H-384.529M-311.838 196.45L-325.882 209.879M-239.146 196.45L-227.738 183.725M-239.146 196.45L-251.185 209.879M-239.146 196.45H-166.455M-298.528 183.725H-227.738M-298.528 183.725H-369.318M-298.528 183.725L-285.897 171.647M-227.738 183.725L-216.912 171.647M-227.738 183.725H-156.948M-262.473 149.251H-196.834M-262.473 149.251L-251.592 138.848M-262.473 149.251H-328.112M-262.473 149.251L-273.893 160.171M-196.834 149.251L-187.508 138.848M-196.834 149.251L-206.624 160.171M-196.834 149.251H-131.195M-251.592 138.848H-187.508M-251.592 138.848H-315.678M-251.592 138.848L-241.216 128.926M-187.508 138.848L-178.614 128.926M-187.508 138.848H-123.423M-221.839 110.399H-162.005M-221.839 110.399L-212.779 101.737M-221.839 110.399H-281.673M-221.839 110.399L-231.308 119.453M-162.005 110.399L-154.24 101.737M-162.005 110.399L-170.121 119.453M-162.005 110.399H-102.171M-212.779 101.737H-154.24M-212.779 101.737H-271.32M-212.779 101.737L-204.103 93.4415M-154.24 101.737L-146.803 93.4415M-154.24 101.737H-95.6993M-187.809 77.8612H-132.835M-187.809 77.8612L-180.148 70.5365M-187.809 77.8612H-242.781M-187.809 77.8612L-195.787 85.4897M-132.835 77.8612L-133.676 78.7975L-139.675 85.4897M-132.835 77.8612L-126.27 70.5365M-132.835 77.8612H-77.8629M-180.148 70.5365H-126.27M-180.148 70.5365H-234.026M-180.148 70.5365L-172.786 63.4976M-126.27 70.5365L-119.959 63.4976M-126.27 70.5365H-72.3909M-158.892 50.2132H-108.051M-158.892 50.2132L-152.33 43.9387M-158.892 50.2132H-209.734M-158.892 50.2132L-165.706 56.7278M-108.051 50.2132L-102.426 43.9387M-108.051 50.2132L-110.215 52.6277L-111.675 54.2563L-113.891 56.7278M-108.051 50.2132H-57.2091M-152.33 43.9387H-102.426M-152.33 43.9387H-202.234M-152.33 43.9387L-146.005 37.8912M-102.426 43.9387L-100.369 41.6447L-99.0135 40.1328L-97.0036 37.8912M-102.426 43.9387H-52.5216M-134.018 26.4298H-86.7302M-134.018 26.4298L-129.736 22.3362L-128.334 20.9944M-134.018 26.4298H-181.306M-134.018 26.4298L-139.158 31.3438L-139.905 32.0586M-86.7302 26.4298L-83.0592 22.3362L-82.4574 21.6634L-81.8568 20.9944M-86.7302 26.4298L-89.2308 29.219L-91.7755 32.0586M-86.7302 26.4298H-39.4416M-128.334 20.9944H-81.8568M-128.334 20.9944L-122.841 15.743M-128.334 20.9944H-174.81M-81.8568 20.9944H-35.3808M-81.8568 20.9944L-77.1493 15.743M-185.418 563.104H-57.9457M-185.418 563.104L-168.216 524.726M-185.418 563.104H-312.89M-185.418 563.104L-204.321 605.276M-57.9457 563.104L-46.4768 524.726M-57.9457 563.104L-70.5468 605.276M-57.9457 563.104H69.5277M-168.216 524.726H-46.4768M-168.216 524.726H-289.955M-168.216 524.726L-152.495 489.652M-46.4768 524.726L-35.9965 489.652M-46.4768 524.726H75.2616M-124.791 427.845H-17.5274M-124.791 427.845L-112.523 400.475M-124.791 427.845H-232.055M-124.791 427.845L-138.072 457.473M-17.5274 427.845L-9.34885 400.475M-17.5274 427.845L-26.3806 457.473M-17.5274 427.845H89.7368M-112.523 400.475H-9.34885M-112.523 400.475H-215.698M-112.523 400.475L-101.156 375.117M-9.34885 400.475L-1.7709 375.117M-9.34885 400.475H93.8256M-80.7564 329.604H11.8288M-80.7564 329.604L-71.5683 309.106M-80.7564 329.604H-173.342M-80.7564 329.604L-90.5951 351.554M11.8288 329.604L17.9544 309.106M11.8288 329.604L5.27029 351.554M11.8288 329.604H104.415M-71.5683 309.106H17.9544M-71.5683 309.106H-161.091M-71.5683 309.106L-62.969 289.92M17.9544 309.106L23.6874 289.92M17.9544 309.106H107.477M-47.3224 255.013H34.1178M-47.3224 255.013L-40.1852 239.09M-47.3224 255.013H-128.764M-47.3224 255.013L-54.9033 271.926M34.1178 255.013L38.8762 239.09M34.1178 255.013L29.0645 271.926M34.1178 255.013H115.559M-40.1852 239.09H38.8762M-40.1852 239.09H-119.247M-40.1852 239.09L-33.4529 224.069M38.8762 239.09L43.3648 224.069M38.8762 239.09H117.939M-21.0735 196.45H51.6183M-21.0735 196.45L-15.3696 183.725M-21.0735 196.45H-93.7644M-21.0735 196.45L-27.0923 209.879M51.6183 196.45L55.4203 183.725M51.6183 196.45L47.6055 209.879M51.6183 196.45H124.309M-15.3696 183.725H55.4203M-15.3696 183.725H-86.1584M-15.3696 183.725L-9.95552 171.647M55.4203 183.725L59.0294 171.647M55.4203 183.725H126.21M0.0830832 149.251H65.7217M0.0830832 149.251L4.74561 138.848M0.0830832 149.251H-65.5556M0.0830832 149.251L-4.81125 160.171M65.7217 149.251L68.8311 138.848M65.7217 149.251L62.4585 160.171M65.7217 149.251H131.361M4.74561 138.848H68.8311M4.74561 138.848H-59.3389M4.74561 138.848L6.43867 135.073L9.19317 128.926M68.8311 138.848L71.7955 128.926M68.8311 138.848H132.916M17.4977 110.399H77.3315M17.4977 110.399L21.3806 101.737M17.4977 110.399H-42.3371M17.4977 110.399L14.4713 117.152L13.4389 119.453M77.3315 110.399L78.316 107.106L79.9201 101.737M77.3315 110.399L74.6259 119.453M77.3315 110.399H137.166M21.3806 101.737L21.8533 100.68L25.0986 93.4415M21.3806 101.737H79.9201M21.3806 101.737H-37.1599M79.9201 101.737L80.8626 98.5844L81.1724 97.5445L81.4822 96.511L82.3987 93.4415M79.9201 101.737H138.461M32.0818 77.8612H87.0543M32.0818 77.8612L33.7399 74.1619L34.1498 73.249L34.5565 72.3398L34.9623 71.4363L35.3651 70.5365M32.0818 77.8612H-22.8905M32.0818 77.8612L28.6627 85.4897M87.0543 77.8612L88.7044 72.3398L88.9752 71.4363L89.2431 70.5365M87.0543 77.8612L84.7755 85.4897M87.0543 77.8612H142.028M35.3651 70.5365H89.2431M35.3651 70.5365H-18.5129M35.3651 70.5365L37.352 66.1046L37.7428 65.2309L38.5204 63.4976M89.2431 70.5365L90.5674 66.1046L90.8292 65.2309L91.0881 64.3619L91.3469 63.4976M89.2431 70.5365H143.122M44.4752 50.2132H95.3168M44.4752 50.2132L47.2876 43.9387M44.4752 50.2132H-6.36742M44.4752 50.2132L43.7546 51.8185L42.6621 54.2563L41.5548 56.7278M95.3168 50.2132L95.0769 51.014L93.6167 55.9L93.3699 56.7278M95.3168 50.2132L97.1918 43.9387M95.3168 50.2132H146.158M47.2876 43.9387H97.1918M47.2876 43.9387H-2.61645M47.2876 43.9387L49.9982 37.8912M97.1918 43.9387L97.8774 41.6447L98.1033 40.8869L98.3292 40.1328L98.9988 37.8912M97.1918 43.9387H147.096M55.1355 26.4298H102.423M55.1355 26.4298L56.9705 22.3362L57.5711 20.9944M55.1355 26.4298H7.84691M55.1355 26.4298L54.199 28.5172L53.8851 29.219L53.5683 29.9245L52.6118 32.0586M102.423 26.4298L102.63 25.7402L103.039 24.3694L103.445 23.0108L104.047 20.9944M102.423 26.4298L101.589 29.219L101.38 29.9245L100.955 31.3438L100.742 32.0586M102.423 26.4298H149.711M57.5711 20.9944H104.047M57.5711 20.9944L59.635 16.3896L59.9259 15.743M57.5711 20.9944H11.0952M104.047 20.9944L104.247 20.3281L104.445 19.6647L104.643 19.0041L104.839 18.3463L105.423 16.3896L105.617 15.743M104.047 20.9944H150.524M324.472 563.104H451.946M324.472 563.104L318.738 524.726M324.472 563.104H197M324.472 563.104L330.774 605.276M451.946 563.104L440.478 524.726M451.946 563.104L464.547 605.276M451.946 563.104H579.418M318.738 524.726H440.478M318.738 524.726H197M318.738 524.726L313.498 489.652M440.478 524.726L429.996 489.652M440.478 524.726H562.216M304.263 427.845H411.527M304.263 427.845L300.174 400.475M304.263 427.845H197M304.263 427.845L308.691 457.473M411.527 427.845L403.349 400.475M411.527 427.845L420.381 457.473M411.527 427.845H518.791M300.174 400.475H403.349M300.174 400.475H197M300.174 400.475L296.385 375.117M403.349 400.475L395.771 375.117M403.349 400.475H506.523M289.585 329.604H382.171M289.585 329.604L286.523 309.106M289.585 329.604H197M289.585 329.604L292.865 351.554M382.171 329.604L376.046 309.106M382.171 329.604L388.73 351.554M382.171 329.604H474.756M286.523 309.106H376.046M286.523 309.106H197M286.523 309.106L283.656 289.92M376.046 309.106L370.313 289.92M376.046 309.106H465.568M278.441 255.013H359.882M278.441 255.013L276.061 239.09M278.441 255.013H197M278.441 255.013L280.968 271.926M359.882 255.013L355.124 239.09M359.882 255.013L364.936 271.926M359.882 255.013H441.322M276.061 239.09H355.124M276.061 239.09H197M276.061 239.09L273.818 224.069M355.124 239.09L350.635 224.069M355.124 239.09H434.185M269.691 196.45H342.382M269.691 196.45L267.79 183.725M269.691 196.45H197M269.691 196.45L271.698 209.879M342.382 196.45L338.58 183.725M342.382 196.45L346.395 209.879M342.382 196.45H415.074M267.79 183.725H338.58M267.79 183.725H197M267.79 183.725L265.985 171.647M338.58 183.725L334.971 171.647M338.58 183.725H409.37M262.639 149.251H328.278M262.639 149.251L261.084 138.848M262.639 149.251H197M262.639 149.251L264.271 160.171M328.278 149.251L325.169 138.848M328.278 149.251L331.542 160.171M328.278 149.251H393.917M261.084 138.848H325.169M261.084 138.848H197M261.084 138.848L259.602 128.926M325.169 138.848L322.205 128.926M325.169 138.848H389.254M256.834 110.399H316.669M256.834 110.399L255.54 101.737M256.834 110.399H197M256.834 110.399L258.187 119.453M316.669 110.399L314.397 102.8L314.08 101.737M316.669 110.399L319.374 119.453M316.669 110.399H376.502M255.54 101.737L255.383 100.68L254.3 93.4415M255.54 101.737H314.08M255.54 101.737H197M314.08 101.737L313.137 98.5844L312.828 97.5445L312.518 96.511L311.601 93.4415M314.08 101.737H372.619M251.973 77.8612H306.946M251.973 77.8612L250.878 70.5365M251.973 77.8612H197M251.973 77.8612L252.394 80.685L252.537 81.6362L252.679 82.5921L252.967 84.5189L253.113 85.4897M306.946 77.8612L305.296 72.3398L304.756 70.5365M306.946 77.8612L309.225 85.4897M306.946 77.8612H361.918M250.878 70.5365H304.756M250.878 70.5365H197M250.878 70.5365L249.827 63.4976M304.756 70.5365L303.433 66.1046L303.171 65.2309L302.912 64.3619L302.653 63.4976M304.756 70.5365H358.635M247.842 50.2132H298.683M247.842 50.2132L246.904 43.9387M247.842 50.2132H197M247.842 50.2132L248.815 56.7278M298.683 50.2132L298.923 51.014L300.383 55.9L300.63 56.7278M298.683 50.2132L296.808 43.9387M298.683 50.2132H349.525M246.904 43.9387H296.808M246.904 43.9387H197M246.904 43.9387L246.001 37.8912M296.808 43.9387L296.123 41.6447L295.897 40.8869L295.671 40.1328L295.001 37.8912M296.808 43.9387H346.712M244.289 26.4298H291.577M244.289 26.4298L243.476 20.9944M244.289 26.4298H197M244.289 26.4298L245.129 32.0586M291.577 26.4298L291.37 25.7402L290.96 24.3694L290.757 23.6882L290.353 22.3362L290.153 21.6634L289.952 20.9944M291.577 26.4298L292.411 29.219L292.62 29.9245L293.045 31.3438L293.258 32.0586M291.577 26.4298H338.865M243.476 20.9944L243.377 20.3281L243.277 19.6647L243.179 19.0041L242.692 15.743M243.476 20.9944H289.952M243.476 20.9944H197M289.952 20.9944H336.429M289.952 20.9944L289.555 19.6647L289.357 19.0041L289.161 18.3463L288.577 16.3896L288.383 15.743M834.364 563.104H961.836M834.364 563.104L805.693 524.726M834.364 563.104H706.891M834.364 563.104L865.869 605.276M961.836 563.104L927.432 524.726M961.836 563.104L999.642 605.276M961.836 563.104H1089.31M805.693 524.726H927.432M805.693 524.726H683.955M805.693 524.726L779.491 489.652M927.432 524.726L895.99 489.652M927.432 524.726H1049.17M733.318 427.845H840.582M733.318 427.845L712.872 400.475M733.318 427.845H626.055M733.318 427.845L755.452 457.473M840.582 427.845L816.047 400.475M840.582 427.845L867.142 457.473M840.582 427.845H947.846M712.872 400.475H816.047M712.872 400.475H609.698M712.872 400.475L693.927 375.117M816.047 400.475L793.313 375.117M816.047 400.475H919.221M659.928 329.604H752.513M659.928 329.604L644.614 309.106M659.928 329.604H567.342M659.928 329.604L676.326 351.554M752.513 329.604L734.138 309.106M752.513 329.604L772.19 351.554M752.513 329.604H845.098M644.614 309.106H734.138M644.614 309.106H555.091M644.614 309.106L630.282 289.92M734.138 309.106L716.938 289.92M734.138 309.106H823.659M604.205 255.013H685.646M604.205 255.013L592.309 239.09M604.205 255.013H522.764M604.205 255.013L616.839 271.926M685.646 255.013L671.371 239.09M685.646 255.013L700.807 271.926M685.646 255.013H767.087M592.309 239.09H671.371M592.309 239.09H513.247M592.309 239.09L581.088 224.069M671.371 239.09L657.906 224.069M671.371 239.09H750.432M560.455 196.45H633.146M560.455 196.45L550.948 183.725M560.455 196.45H487.764M560.455 196.45L570.487 209.879M633.146 196.45L621.738 183.725M633.146 196.45L645.185 209.879M633.146 196.45H705.838M550.948 183.725H621.738M550.948 183.725H480.159M550.948 183.725L541.926 171.647M621.738 183.725L610.912 171.647M621.738 183.725H692.528M525.195 149.251H590.834M525.195 149.251L517.423 138.848M525.195 149.251H459.556M525.195 149.251L533.353 160.171M590.834 149.251L581.508 138.848M590.834 149.251L600.624 160.171M590.834 149.251H656.473M517.423 138.848H581.508M517.423 138.848H453.339M517.423 138.848L510.011 128.926M581.508 138.848L572.614 128.926M581.508 138.848H645.592M496.171 110.399L496.999 111.509L497.834 112.625L502.934 119.453M496.171 110.399H556.005M496.171 110.399L489.699 101.737M496.171 110.399H436.337M556.005 110.399L548.24 101.737M556.005 110.399L564.121 119.453M556.005 110.399H615.839M489.699 101.737H548.24M489.699 101.737H431.16M489.699 101.737L483.503 93.4415M548.24 101.737L540.803 93.4415M548.24 101.737H606.779M471.863 77.8612H526.836M471.863 77.8612L466.391 70.5365M471.863 77.8612H416.891M471.863 77.8612L477.562 85.4897M526.836 77.8612L522.701 73.249L520.27 70.5365M526.836 77.8612L533.675 85.4897M526.836 77.8612H581.809M466.391 70.5365H520.27M466.391 70.5365H412.513M466.391 70.5365L461.779 64.3619L461.133 63.4976M520.27 70.5365L513.959 63.4976M520.27 70.5365H574.148M451.209 50.2132H502.051M451.209 50.2132L450.021 48.6219L446.522 43.9387M451.209 50.2132H400.368M451.209 50.2132L452.408 51.8185L454.842 55.0758L456.075 56.7278M502.051 50.2132L496.426 43.9387M502.051 50.2132L504.215 52.6277L505.675 54.2563L507.891 56.7278M502.051 50.2132H552.892M446.522 43.9387H496.426M446.522 43.9387H396.616M446.522 43.9387L443.117 39.3816L442.003 37.8912M496.426 43.9387L494.369 41.6447L493.014 40.1328L491.004 37.8912M496.426 43.9387H546.33M433.442 26.4298H480.73M433.442 26.4298L430.887 23.0108L429.381 20.9944M433.442 26.4298H386.153M433.442 26.4298L437.646 32.0586M480.73 26.4298L477.059 22.3362L476.458 21.6634L475.857 20.9944M480.73 26.4298L483.231 29.219L485.776 32.0586M480.73 26.4298H528.018M429.381 20.9944H475.857M429.381 20.9944L427.403 18.3463L426.426 17.039L425.941 16.3896L425.458 15.743M429.381 20.9944H382.905M475.857 20.9944H522.334M475.857 20.9944L471.149 15.743M1125.57 400.475H1022.4M1125.57 400.475L1091.47 375.117M1125.57 400.475H1156.48M1125.57 400.475L1156.48 423.465M1030.27 329.604H1122.85M1030.27 329.604L1002.71 309.106M1030.27 329.604H937.684M1030.27 329.604L1059.79 351.554M1122.85 329.604L1092.23 309.106M1122.85 329.604L1155.65 351.554M1122.85 329.604H1156.48M1002.71 309.106H1092.23M1002.71 309.106H913.183M1002.71 309.106L976.907 289.92M1092.23 309.106L1063.56 289.92M1092.23 309.106H1156.48M929.968 255.013H1011.41M929.968 255.013L908.556 239.09M929.968 255.013H848.527M929.968 255.013L952.71 271.926M1011.41 255.013L987.618 239.09M1011.41 255.013L1036.68 271.926M1011.41 255.013H1092.85M908.556 239.09H987.618M908.556 239.09H829.494M908.556 239.09L888.359 224.069M987.618 239.09L965.176 224.069M987.618 239.09H1066.68M851.22 196.45H923.911M851.22 196.45L834.108 183.725M851.22 196.45H778.529M851.22 196.45L869.277 209.879M923.911 196.45L904.897 183.725M923.911 196.45L943.975 209.879M923.911 196.45H996.602M834.108 183.725H904.897M834.108 183.725H763.318M834.108 183.725L817.868 171.647M904.897 183.725L886.852 171.647M904.897 183.725H975.687M787.751 149.251H853.39M787.751 149.251L773.762 138.848M787.751 149.251H722.112M787.751 149.251L802.435 160.171M853.39 149.251L837.847 138.848M853.39 149.251L869.706 160.171M853.39 149.251H919.028M773.762 138.848H837.847M773.762 138.848H709.678M773.762 138.848L760.421 128.926M837.847 138.848L823.023 128.926M837.847 138.848H901.931M735.508 110.399H795.342M735.508 110.399L723.859 101.737M735.508 110.399H675.673M735.508 110.399L747.682 119.453M795.342 110.399L782.399 101.737M795.342 110.399L808.869 119.453M795.342 110.399H855.176M723.859 101.737H782.399M723.859 101.737H665.32M723.859 101.737L712.704 93.4415M782.399 101.737L770.004 93.4415M782.399 101.737H840.939M691.754 77.8612H746.726M691.754 77.8612L681.904 70.5365M691.754 77.8612H636.781M691.754 77.8612L702.012 85.4897M746.726 77.8612L735.783 70.5365M746.726 77.8612L758.125 85.4897M746.726 77.8612H801.699M681.904 70.5365H735.783M681.904 70.5365H628.026M681.904 70.5365L672.439 63.4976M735.783 70.5365L725.266 63.4976M735.783 70.5365H789.661M654.576 50.2132H705.417M654.576 50.2132L646.138 43.9387M654.576 50.2132H603.734M654.576 50.2132L656.735 51.8185L657.822 52.6277L663.337 56.7278M705.417 50.2132L696.042 43.9387M705.417 50.2132L715.152 56.7278M705.417 50.2132H756.259M646.138 43.9387H696.042M646.138 43.9387H596.234M646.138 43.9387L638.007 37.8912M696.042 43.9387L687.007 37.8912M696.042 43.9387H745.946M622.595 26.4298H669.883M622.595 26.4298L615.286 20.9944M622.595 26.4298H575.306M622.595 26.4298L630.164 32.0586M669.883 26.4298L663.766 22.3362L662.762 21.6634L661.762 20.9944M669.883 26.4298L678.293 32.0586M669.883 26.4298H717.171M615.286 20.9944H661.762M615.286 20.9944L609.094 16.3896L608.223 15.743M615.286 20.9944H568.81M661.762 20.9944H708.239M661.762 20.9944L653.916 15.743M1141.98 196.45L1117.27 183.725M1141.98 196.45H1069.29M1141.98 196.45L1156.48 203.915M1141.98 196.45H1156.48M1117.27 183.725H1046.48M1117.27 183.725L1093.81 171.647M1117.27 183.725H1156.48M1050.31 149.251H1115.95M1050.31 149.251L1030.1 138.848M1050.31 149.251H984.668M1050.31 149.251L1071.52 160.171M1115.95 149.251L1094.19 138.848M1115.95 149.251L1138.79 160.171M1115.95 149.251H1156.48M1030.1 138.848H1094.19M1030.1 138.848H966.016M1030.1 138.848L1010.83 128.926M1094.19 138.848L1073.43 128.926M1094.19 138.848H1156.48M974.844 110.399H1034.68M974.844 110.399L958.019 101.737M974.844 110.399H915.01M974.844 110.399L992.431 119.453M1034.68 110.399L1016.56 101.737M1034.68 110.399L1053.62 119.453M1034.68 110.399H1094.51M958.019 101.737H1016.56M958.019 101.737H899.479M958.019 101.737L941.906 93.4415M1016.56 101.737L999.207 93.4415M1016.56 101.737H1075.1M911.644 77.8612H966.617M911.644 77.8612L897.417 70.5365M911.644 77.8612H856.672M911.644 77.8612L926.461 85.4897M966.617 77.8612L951.296 70.5365M966.617 77.8612L982.574 85.4897M966.617 77.8612H1021.59M897.417 70.5365H951.296M897.417 70.5365H843.539M897.417 70.5365L883.745 63.4976M951.296 70.5365L936.572 63.4976M951.296 70.5365H1005.17M857.943 50.2132H908.785M857.943 50.2132L845.756 43.9387M857.943 50.2132H807.101M857.943 50.2132L870.597 56.7278M908.785 50.2132L895.66 43.9387M908.785 50.2132L922.412 56.7278M908.785 50.2132H959.626M845.756 43.9387H895.66M845.756 43.9387H795.85M845.756 43.9387L834.009 37.8912M895.66 43.9387L883.01 37.8912M895.66 43.9387H945.564M811.748 26.4298H859.036M811.748 26.4298L801.191 20.9944M811.748 26.4298H764.459M811.748 26.4298L822.68 32.0586M859.036 26.4298L847.667 20.9944M859.036 26.4298L870.81 32.0586M859.036 26.4298H906.325M801.191 20.9944H847.667M801.191 20.9944L790.99 15.743M801.191 20.9944H754.715M847.667 20.9944H894.144M847.667 20.9944L836.682 15.743M1131.53 77.8612L1112.93 70.5365M1131.53 77.8612H1076.56M1131.53 77.8612L1150.91 85.4897M1131.53 77.8612H1156.48M1112.93 70.5365H1059.05M1112.93 70.5365L1095.05 63.4976M1112.93 70.5365H1156.48M1061.31 50.2132H1112.15M1061.31 50.2132L1045.37 43.9387M1061.31 50.2132H1010.47M1061.31 50.2132L1077.86 56.7278M1112.15 50.2132L1095.28 43.9387M1112.15 50.2132L1129.67 56.7278M1112.15 50.2132H1156.48M1045.37 43.9387H1095.28M1045.37 43.9387H995.468M1045.37 43.9387L1030.01 37.8912M1095.28 43.9387L1079.01 37.8912M1095.28 43.9387H1145.18M1000.9 26.4298H1048.19M1000.9 26.4298L987.096 20.9944M1000.9 26.4298H953.613M1000.9 26.4298L1015.2 32.0586M1048.19 26.4298L1033.57 20.9944M1048.19 26.4298L1063.33 32.0586M1048.19 26.4298H1095.48M987.096 20.9944H1033.57M987.096 20.9944L973.757 15.743M987.096 20.9944H940.62M1033.57 20.9944H1080.05M1033.57 20.9944L1019.45 15.743M1063.33 32.0586L1079.01 37.8912M1063.33 32.0586H1111.46M1063.33 32.0586H1015.2M1095.48 26.4298L1080.05 20.9944M1095.48 26.4298L1111.46 32.0586M1095.48 26.4298H1142.77M1080.05 20.9944H1126.52M1080.05 20.9944L1065.14 15.743M1019.45 15.743H973.757M1019.45 15.743H1065.14M1019.45 15.743L1005.79 10.6655M1111.46 32.0586L1128.01 37.8912M1111.46 32.0586H1156.48M1142.77 26.4298L1126.52 20.9944M1142.77 26.4298L1156.48 31.0201M1142.77 26.4298H1156.48M1126.52 20.9944L1110.83 15.743M1126.52 20.9944H1156.48M1065.14 15.743H1110.83M1065.14 15.743L1050.73 10.6655M1110.83 15.743L1095.66 10.6655M1110.83 15.743H1156.48M1079.01 37.8912H1128.01M1079.01 37.8912H1030.01M1145.18 43.9387L1128.01 37.8912M1145.18 43.9387L1156.48 47.9193M1145.18 43.9387H1156.48M1128.01 37.8912H1156.48M1030.01 37.8912H981.011M1030.01 37.8912L1015.2 32.0586M1015.2 32.0586H967.068M1129.67 56.7278L1147.88 63.4976M1129.67 56.7278H1077.86M1129.67 56.7278H1156.48M1156.64 50.2132H1156.48M1147.88 63.4976H1095.05M1147.88 63.4976L1156.48 66.697M1147.88 63.4976H1156.48M1095.05 63.4976H1042.22M1095.05 63.4976L1077.86 56.7278M1077.86 56.7278H1026.04M870.81 32.0586L883.01 37.8912M870.81 32.0586H918.939M870.81 32.0586H822.68M906.325 26.4298L894.144 20.9944M906.325 26.4298L918.939 32.0586M906.325 26.4298H953.613M894.144 20.9944H940.62M894.144 20.9944L882.373 15.743M836.682 15.743H882.373M836.682 15.743L826.061 10.6655M836.682 15.743H790.99M918.939 32.0586L932.01 37.8912M918.939 32.0586H967.068M953.613 26.4298L940.62 20.9944M953.613 26.4298L967.068 32.0586M940.62 20.9944L928.065 15.743M882.373 15.743H928.065M882.373 15.743L870.994 10.6655M967.068 32.0586L981.011 37.8912M973.757 15.743H928.065M973.757 15.743L960.86 10.6655M928.065 15.743L915.927 10.6655M883.01 37.8912H932.01M883.01 37.8912H834.009M945.564 43.9387L932.01 37.8912M945.564 43.9387L959.626 50.2132M945.564 43.9387H995.468M932.01 37.8912H981.011M834.009 37.8912H785.008M834.009 37.8912L822.68 32.0586M981.011 37.8912L995.468 43.9387M822.68 32.0586H774.551M959.626 50.2132L974.227 56.7278M959.626 50.2132H1010.47M995.468 43.9387L1010.47 50.2132M1010.47 50.2132L1026.04 56.7278M922.412 56.7278L936.572 63.4976M922.412 56.7278H974.227M922.412 56.7278H870.597M974.227 56.7278L989.398 63.4976M974.227 56.7278H1026.04M1026.04 56.7278L1042.22 63.4976M936.572 63.4976H989.398M936.572 63.4976H883.745M1005.17 70.5365L989.398 63.4976M1005.17 70.5365L1021.59 77.8612M1005.17 70.5365H1059.05M989.398 63.4976H1042.22M883.745 63.4976H830.919M883.745 63.4976L870.597 56.7278M1042.22 63.4976L1059.05 70.5365M870.597 56.7278H818.782M1021.59 77.8612L1038.69 85.4897M1021.59 77.8612H1076.56M1059.05 70.5365L1076.56 77.8612M1076.56 77.8612L1094.8 85.4897M982.574 85.4897L999.207 93.4415M982.574 85.4897H1038.69M982.574 85.4897H926.461M1038.69 85.4897L1056.51 93.4415M1038.69 85.4897H1094.8M1094.8 85.4897L1113.81 93.4415M1094.8 85.4897H1150.91M1150.91 85.4897H1156.48M1150.91 85.4897L1156.48 87.683M999.207 93.4415H1056.51M999.207 93.4415H941.906M1075.1 101.737L1056.51 93.4415M1075.1 101.737L1094.51 110.399M1075.1 101.737H1133.64M1056.51 93.4415H1113.81M941.906 93.4415H884.606M941.906 93.4415L926.461 85.4897M1113.81 93.4415L1133.64 101.737M1113.81 93.4415H1156.48M926.461 85.4897H870.349M1094.51 110.399L1114.8 119.453M1094.51 110.399H1154.35M1133.64 101.737L1154.35 110.399M1133.64 101.737H1156.48M1156.78 93.4415H1156.48M1154.35 110.399L1156.48 111.293M1154.35 110.399H1156.48M1053.62 119.453L1073.43 128.926M1053.62 119.453H1114.8M1053.62 119.453H992.431M1114.8 119.453L1136.03 128.926M1114.8 119.453H1156.48M1157 111.509L1156.48 111.293M1073.43 128.926H1136.03M1073.43 128.926H1010.83M1136.03 128.926H1156.48M1136.03 128.926L1156.48 138.051M1010.83 128.926H948.227M1010.83 128.926L992.431 119.453M992.431 119.453H931.244M1138.79 160.171H1071.52M1138.79 160.171L1156.48 168.63M1138.79 160.171H1156.48M1156.97 149.251H1156.48M1071.52 160.171H1004.25M1071.52 160.171L1093.81 171.647M1156.68 168.724L1156.48 168.63M678.293 32.0586L687.007 37.8912M678.293 32.0586H726.422M678.293 32.0586H630.164M717.171 26.4298L708.239 20.9944M717.171 26.4298L726.422 32.0586M717.171 26.4298H764.459M708.239 20.9944H754.715M708.239 20.9944L699.607 15.743M653.916 15.743H699.607M653.916 15.743L651.041 13.8191L646.329 10.6655M653.916 15.743H608.223M726.422 32.0586L736.008 37.8912M726.422 32.0586H774.551M764.459 26.4298L754.715 20.9944M764.459 26.4298L774.551 32.0586M754.715 20.9944L745.299 15.743M699.607 15.743H745.299M699.607 15.743L691.263 10.6655M774.551 32.0586L785.008 37.8912M790.99 15.743L781.128 10.6655M790.99 15.743H745.299M745.299 15.743L744.144 15.0983L741.849 13.8191L736.196 10.6655M687.007 37.8912H736.008M687.007 37.8912H638.007M745.946 43.9387L736.008 37.8912M745.946 43.9387L756.259 50.2132M745.946 43.9387H795.85M736.008 37.8912H785.008M638.007 37.8912H589.006M638.007 37.8912L630.164 32.0586M785.008 37.8912L795.85 43.9387M630.164 32.0586H582.034M756.259 50.2132L766.967 56.7278M756.259 50.2132H807.101M795.85 43.9387L797.235 44.7095L807.101 50.2132M807.101 50.2132L818.782 56.7278M715.152 56.7278L716.394 57.5604L725.266 63.4976M715.152 56.7278H766.967M715.152 56.7278H663.337M766.967 56.7278L778.092 63.4976M766.967 56.7278H818.782M818.782 56.7278L830.919 63.4976M725.266 63.4976H778.092M725.266 63.4976H672.439M789.661 70.5365L778.092 63.4976M789.661 70.5365L801.699 77.8612M789.661 70.5365H843.539M778.092 63.4976H830.919M672.439 63.4976H619.612M672.439 63.4976L663.337 56.7278M830.919 63.4976L843.539 70.5365M663.337 56.7278H611.522M801.699 77.8612L814.237 85.4897M801.699 77.8612H856.672M843.539 70.5365L856.672 77.8612M856.672 77.8612L870.349 85.4897M758.125 85.4897L770.004 93.4415M758.125 85.4897H814.237M758.125 85.4897H702.012M814.237 85.4897L827.306 93.4415M814.237 85.4897H870.349M870.349 85.4897L884.606 93.4415M770.004 93.4415H827.306M770.004 93.4415H712.704M840.939 101.737L827.306 93.4415M840.939 101.737L855.176 110.399M840.939 101.737H899.479M827.306 93.4415H884.606M712.704 93.4415H655.404M712.704 93.4415L702.012 85.4897M884.606 93.4415L899.479 101.737M702.012 85.4897H645.899M855.176 110.399L870.056 119.453M855.176 110.399H915.01M899.479 101.737L915.01 110.399M915.01 110.399L931.244 119.453M808.869 119.453L823.023 128.926M808.869 119.453H870.056M808.869 119.453H747.682M870.056 119.453L885.625 128.926M870.056 119.453H931.244M931.244 119.453L948.227 128.926M823.023 128.926H885.625M823.023 128.926H760.421M901.931 138.848L885.625 128.926M901.931 138.848L919.028 149.251M901.931 138.848H966.016M885.625 128.926H948.227M760.421 128.926H697.818M760.421 128.926L747.682 119.453M948.227 128.926L966.016 138.848M747.682 119.453H686.495M919.028 149.251L936.976 160.171M919.028 149.251H984.668M966.016 138.848L984.668 149.251M984.668 149.251L1004.25 160.171M869.706 160.171L886.852 171.647M869.706 160.171H936.976M869.706 160.171H802.435M936.976 160.171L955.838 171.647M936.976 160.171H1004.25M1004.25 160.171L1024.82 171.647M886.852 171.647H955.838M886.852 171.647H817.868M975.687 183.725L955.838 171.647M975.687 183.725L996.602 196.45M975.687 183.725H1046.48M955.838 171.647H1024.82M817.868 171.647H748.882M817.868 171.647L802.435 160.171M1024.82 171.647L1046.48 183.725M1024.82 171.647H1093.81M802.435 160.171H735.164M996.602 196.45L1018.67 209.879M996.602 196.45H1069.29M1046.48 183.725L1069.29 196.45M1093.81 171.647H1156.48M1069.29 196.45L1093.37 209.879M943.975 209.879L965.176 224.069M943.975 209.879H1018.67M943.975 209.879H869.277M1018.67 209.879L1041.99 224.069M1018.67 209.879H1093.37M1093.37 209.879L1118.81 224.069M1093.37 209.879H1156.48M965.176 224.069H1041.99M965.176 224.069H888.359M1066.68 239.09L1041.99 224.069M1066.68 239.09L1092.85 255.013M1066.68 239.09H1145.74M1041.99 224.069H1118.81M888.359 224.069H811.541M888.359 224.069L869.277 209.879M1118.81 224.069L1145.74 239.09M1118.81 224.069H1156.48M869.277 209.879H794.579M1092.85 255.013L1120.65 271.926M1092.85 255.013H1156.48M1145.74 239.09H1156.48M1145.74 239.09L1156.48 245.081M1036.68 271.926L1063.56 289.92M1036.68 271.926H1120.65M1036.68 271.926H952.71M1120.65 271.926L1150.22 289.92M1120.65 271.926H1156.48M1063.56 289.92H1150.22M1063.56 289.92H976.907M1150.22 289.92L1156.48 293.731M1150.22 289.92H1156.48M976.907 289.92H890.251M976.907 289.92L952.71 271.926M952.71 271.926H868.742M1155.65 351.554H1059.79M1155.65 351.554H1156.48M1155.65 351.554L1156.48 352.111M1059.79 351.554H963.921M1059.79 351.554L1091.47 375.117M485.776 32.0586L487.714 34.2208L488.366 34.9488L491.004 37.8912M485.776 32.0586H533.905M485.776 32.0586H437.646M528.018 26.4298L523.736 22.3362L522.334 20.9944M528.018 26.4298L533.158 31.3438L533.905 32.0586M528.018 26.4298H575.306M522.334 20.9944H568.81M522.334 20.9944L516.841 15.743M471.149 15.743H516.841M471.149 15.743L469.424 13.8191L466.598 10.6655M471.149 15.743H425.458M533.905 32.0586L535.41 33.4967L540.005 37.8912M533.905 32.0586H582.034M575.306 26.4298L568.81 20.9944M575.306 26.4298L582.034 32.0586M568.81 20.9944L564.081 17.039L562.532 15.743M516.841 15.743H562.532M516.841 15.743L511.531 10.6655M582.034 32.0586L589.006 37.8912M608.223 15.743L607.358 15.0983L601.396 10.6655M608.223 15.743H562.532M562.532 15.743L560.232 13.8191L556.463 10.6655M491.004 37.8912H540.005M491.004 37.8912H442.003M546.33 43.9387L540.005 37.8912M546.33 43.9387L552.892 50.2132M546.33 43.9387H596.234M540.005 37.8912H589.006M442.003 37.8912H393.002M442.003 37.8912L437.646 32.0586M589.006 37.8912L596.234 43.9387M437.646 32.0586H389.517M552.892 50.2132L557.12 54.2563L557.979 55.0758L559.706 56.7278M552.892 50.2132H603.734M596.234 43.9387L603.734 50.2132M603.734 50.2132L611.522 56.7278M507.891 56.7278L513.959 63.4976M507.891 56.7278H559.706M507.891 56.7278H456.075M559.706 56.7278L566.786 63.4976M559.706 56.7278H611.522M611.522 56.7278L619.612 63.4976M513.959 63.4976H566.786M513.959 63.4976H461.133M574.148 70.5365L569.512 66.1046L568.6 65.2309L566.786 63.4976M574.148 70.5365L581.809 77.8612M574.148 70.5365H628.026M566.786 63.4976H619.612M461.133 63.4976H408.306M461.133 63.4976L456.075 56.7278M619.612 63.4976L628.026 70.5365M456.075 56.7278H404.26M581.809 77.8612L589.787 85.4897M581.809 77.8612H636.781M628.026 70.5365L636.781 77.8612M636.781 77.8612L645.899 85.4897M533.675 85.4897L537.202 89.4235L538.094 90.4206L540.803 93.4415M533.675 85.4897H589.787M533.675 85.4897H477.562M589.787 85.4897L598.103 93.4415M589.787 85.4897H645.899M645.899 85.4897L655.404 93.4415M540.803 93.4415H598.103M540.803 93.4415H483.503M606.779 101.737L598.103 93.4415M606.779 101.737L615.839 110.399M606.779 101.737H665.32M598.103 93.4415H655.404M483.503 93.4415H426.202M483.503 93.4415L481.993 91.4222L477.562 85.4897M655.404 93.4415L665.32 101.737M477.562 85.4897H421.45M615.839 110.399L625.308 119.453M615.839 110.399H675.673M665.32 101.737L675.673 110.399M675.673 110.399L686.495 119.453M564.121 119.453L572.614 128.926M564.121 119.453H625.308M564.121 119.453H502.934M625.308 119.453L635.216 128.926M625.308 119.453H686.495M686.495 119.453L697.818 128.926M572.614 128.926H635.216M572.614 128.926H510.011M645.592 138.848L635.216 128.926M645.592 138.848L656.473 149.251M645.592 138.848H709.678M635.216 128.926H697.818M510.011 128.926H447.409M510.011 128.926L502.934 119.453M697.818 128.926L709.678 138.848M502.934 119.453H441.748M656.473 149.251L667.893 160.171M656.473 149.251H722.112M709.678 138.848L722.112 149.251M722.112 149.251L735.164 160.171M600.624 160.171L610.912 171.647M600.624 160.171H667.893M600.624 160.171H533.353M667.893 160.171L679.897 171.647M667.893 160.171H735.164M735.164 160.171L748.882 171.647M610.912 171.647H679.897M610.912 171.647H541.926M692.528 183.725L679.897 171.647M692.528 183.725L705.838 196.45M692.528 183.725H763.318M679.897 171.647H748.882M541.926 171.647H472.941M541.926 171.647L533.353 160.171M748.882 171.647L763.318 183.725M533.353 160.171H466.082M705.838 196.45L719.882 209.879M705.838 196.45H778.529M763.318 183.725L778.529 196.45M778.529 196.45L794.579 209.879M645.185 209.879L657.906 224.069M645.185 209.879H719.882M645.185 209.879H570.487M719.882 209.879L734.723 224.069M719.882 209.879H794.579M794.579 209.879L811.541 224.069M657.906 224.069H734.723M657.906 224.069H581.088M750.432 239.09L734.723 224.069M750.432 239.09L767.087 255.013M750.432 239.09H829.494M734.723 224.069H811.541M581.088 224.069H504.271M581.088 224.069L570.487 209.879M811.541 224.069L829.494 239.09M570.487 209.879H495.79M767.087 255.013L784.774 271.926M767.087 255.013H848.527M829.494 239.09L848.527 255.013M848.527 255.013L868.742 271.926M700.807 271.926L716.938 289.92M700.807 271.926H784.774M700.807 271.926H616.839M784.774 271.926L803.594 289.92M784.774 271.926H868.742M868.742 271.926L890.251 289.92M716.938 289.92H803.594M716.938 289.92H630.282M823.659 309.106L803.594 289.92M823.659 309.106L845.098 329.604M823.659 309.106H913.183M803.594 289.92H890.251M630.282 289.92H543.625M630.282 289.92L616.839 271.926M890.251 289.92L913.183 309.106M616.839 271.926H532.871M845.098 329.604L868.056 351.554M845.098 329.604H937.684M913.183 309.106L937.684 329.604M937.684 329.604L963.921 351.554M772.19 351.554L793.313 375.117M772.19 351.554H868.056M772.19 351.554H676.326M868.056 351.554L892.698 375.117M868.056 351.554H963.921M963.921 351.554L992.085 375.117M793.313 375.117H892.698M793.313 375.117H693.927M919.221 400.475L892.698 375.117M919.221 400.475L947.846 427.845M919.221 400.475H1022.4M892.698 375.117H992.085M693.927 375.117H594.542M693.927 375.117L676.326 351.554M992.085 375.117L1022.4 400.475M992.085 375.117H1091.47M676.326 351.554H580.46M947.846 427.845L978.833 457.473M947.846 427.845H1055.11M1022.4 400.475L1055.11 427.845M1091.47 375.117H1156.48M1055.11 427.845L1090.52 457.473M1055.11 427.845H1156.48M867.142 457.473L895.99 489.652M867.142 457.473H978.833M867.142 457.473H755.452M978.833 457.473L1012.49 489.652M978.833 457.473H1090.52M1090.52 457.473L1128.99 489.652M1090.52 457.473H1156.48M895.99 489.652H1012.49M895.99 489.652H779.491M1049.17 524.726L1012.49 489.652M1049.17 524.726L1089.31 563.104M1049.17 524.726H1156.48M1012.49 489.652H1128.99M779.491 489.652H662.993M779.491 489.652L755.452 457.473M1128.99 489.652H1156.48M1128.99 489.652L1156.48 512.657M755.452 457.473H643.761M1089.31 563.104L1133.42 605.276M1089.31 563.104H1156.48M999.642 605.276L1041.38 651.835M999.642 605.276H1133.42M999.642 605.276H865.869M1133.42 605.276L1156.48 627.333M1133.42 605.276H1156.48M1041.38 651.835H900.649M1041.38 651.835L1156.48 651.834M900.649 651.835H759.92M900.649 651.835L865.869 605.276M865.869 605.276H732.095M293.258 32.0586L293.473 32.7763L293.688 33.4967L293.905 34.2208L294.122 34.9488L294.78 37.1502L295.001 37.8912M293.258 32.0586H341.388M293.258 32.0586H245.129M338.865 26.4298L337.03 22.3362L336.429 20.9944M338.865 26.4298L340.432 29.9245L341.388 32.0586M338.865 26.4298H386.153M336.429 20.9944H382.905M336.429 20.9944L334.656 17.039L334.074 15.743M288.383 15.743L288.191 15.0983L287.429 12.5492L286.866 10.6655M288.383 15.743H334.074M288.383 15.743H242.692M341.388 32.0586L341.709 32.7763L342.033 33.4967L342.357 34.2208L342.683 34.9488L344.002 37.8912M341.388 32.0586H389.517M386.153 26.4298L383.706 22.3362L382.905 20.9944M386.153 26.4298L389.517 32.0586M382.905 20.9944L381.322 18.3463L380.152 16.3896L379.767 15.743M334.074 15.743L333.786 15.0983L333.213 13.8191L332.643 12.5492L332.361 11.9185L331.798 10.6655M334.074 15.743H379.767M389.517 32.0586L392.12 36.413L393.002 37.8912M425.458 15.743L422.602 11.9185L421.665 10.6655M425.458 15.743H379.767M379.767 15.743L377.106 11.2906L376.731 10.6655M295.001 37.8912H344.002M295.001 37.8912H246.001M346.712 43.9387L344.002 37.8912M346.712 43.9387L349.525 50.2132M346.712 43.9387H396.616M344.002 37.8912H393.002M246.001 37.8912H197M246.001 37.8912L245.129 32.0586M393.002 37.8912L396.616 43.9387M245.129 32.0586H197M349.525 50.2132L350.245 51.8185L351.338 54.2563L352.445 56.7278M349.525 50.2132H400.368M396.616 43.9387L397.078 44.7095L400.368 50.2132M400.368 50.2132L400.845 51.014L401.327 51.8185L401.81 52.6277L404.26 56.7278M300.63 56.7278L302.653 63.4976M300.63 56.7278H352.445M300.63 56.7278H248.815M352.445 56.7278L355.48 63.4976M352.445 56.7278H404.26M404.26 56.7278L407.28 61.7802L407.792 62.637L408.306 63.4976M302.653 63.4976H355.48M302.653 63.4976H249.827M358.635 70.5365L359.038 71.4363L359.444 72.3398L359.85 73.249L361.918 77.8612M358.635 70.5365L357.042 66.982L356.648 66.1046L356.257 65.2309L355.48 63.4976M358.635 70.5365H412.513M355.48 63.4976H408.306M249.827 63.4976H197M249.827 63.4976L248.815 56.7278M408.306 63.4976L412.513 70.5365M248.815 56.7278H197M361.918 77.8612L364.903 84.5189L365.337 85.4897M361.918 77.8612H416.891M412.513 70.5365L413.591 72.3398L416.891 77.8612M416.891 77.8612L418.579 80.685L421.45 85.4897M309.225 85.4897L310.401 89.4235L310.698 90.4206L311.601 93.4415M309.225 85.4897H365.337M309.225 85.4897H253.113M365.337 85.4897L368.901 93.4415M365.337 85.4897H421.45M421.45 85.4897L426.202 93.4415M311.601 93.4415H368.901M311.601 93.4415H254.3M372.619 101.737L368.901 93.4415M372.619 101.737L376.502 110.399M372.619 101.737H431.16M368.901 93.4415H426.202M254.3 93.4415H197M254.3 93.4415L253.998 91.4222L253.405 87.4463L253.113 85.4897M426.202 93.4415L431.16 101.737M253.113 85.4897H197M376.502 110.399L379.529 117.152L380.561 119.453M376.502 110.399H436.337M431.16 101.737L436.337 110.399M436.337 110.399L439.012 114.876L441.748 119.453M319.374 119.453L322.205 128.926M319.374 119.453H380.561M319.374 119.453H258.187M380.561 119.453L384.807 128.926M380.561 119.453H441.748M441.748 119.453L447.409 128.926M322.205 128.926H384.807M322.205 128.926H259.602M389.254 138.848L388.122 136.324L384.807 128.926M389.254 138.848L393.917 149.251M389.254 138.848H453.339M384.807 128.926H447.409M259.602 128.926H197M259.602 128.926L258.187 119.453M447.409 128.926L453.339 138.848M258.187 119.453H197M393.917 149.251L398.811 160.171M393.917 149.251H459.556M453.339 138.848L459.556 149.251M459.556 149.251L466.082 160.171M331.542 160.171L334.971 171.647M331.542 160.171H398.811M331.542 160.171H264.271M398.811 160.171L403.956 171.647M398.811 160.171H466.082M466.082 160.171L472.941 171.647M334.971 171.647H403.956M334.971 171.647H265.985M409.37 183.725L403.956 171.647M409.37 183.725L415.074 196.45M409.37 183.725H480.159M403.956 171.647H472.941M265.985 171.647H197M265.985 171.647L264.48 161.574L264.271 160.171M472.941 171.647L480.159 183.725M264.271 160.171H197M415.074 196.45L421.092 209.879M415.074 196.45H487.764M480.159 183.725L485.824 193.206L487.764 196.45M487.764 196.45L495.79 209.879M346.395 209.879L350.635 224.069M346.395 209.879H421.092M346.395 209.879H271.698M421.092 209.879L427.453 224.069M421.092 209.879H495.79M495.79 209.879L504.271 224.069M350.635 224.069H427.453M350.635 224.069H273.818M434.185 239.09L427.453 224.069M434.185 239.09L441.322 255.013M434.185 239.09H513.247M427.453 224.069H504.271M273.818 224.069H197M273.818 224.069L271.698 209.879M504.271 224.069L513.247 239.09M271.698 209.879H197M441.322 255.013L448.903 271.926M441.322 255.013H522.764M513.247 239.09L522.764 255.013M522.764 255.013L532.871 271.926M364.936 271.926L370.313 289.92M364.936 271.926H448.903M364.936 271.926H280.968M448.903 271.926L456.969 289.92M448.903 271.926H532.871M532.871 271.926L543.625 289.92M370.313 289.92H456.969M370.313 289.92H283.656M465.568 309.106L456.969 289.92M465.568 309.106L474.756 329.604M465.568 309.106H555.091M456.969 289.92H543.625M283.656 289.92H197M283.656 289.92L280.968 271.926M543.625 289.92L555.091 309.106M280.968 271.926H197M474.756 329.604L484.595 351.554M474.756 329.604H567.342M555.091 309.106L567.342 329.604M567.342 329.604L580.46 351.554M388.73 351.554L395.771 375.117M388.73 351.554H484.595M388.73 351.554H292.865M484.595 351.554L495.156 375.117M484.595 351.554H580.46M580.46 351.554L594.542 375.117M395.771 375.117H495.156M395.771 375.117H296.385M506.523 400.475L495.156 375.117M506.523 400.475L518.791 427.845M506.523 400.475H609.698M495.156 375.117H594.542M296.385 375.117H197M296.385 375.117L292.865 351.554M594.542 375.117L609.698 400.475M292.865 351.554H197M518.791 427.845L532.071 457.473M518.791 427.845H626.055M609.698 400.475L626.055 427.845M626.055 427.845L643.761 457.473M420.381 457.473L429.996 489.652M420.381 457.473H532.071M420.381 457.473H308.691M532.071 457.473L546.495 489.652M532.071 457.473H643.761M643.761 457.473L662.993 489.652M429.996 489.652H546.495M429.996 489.652H313.498M562.216 524.726L546.495 489.652M562.216 524.726L579.418 563.104M562.216 524.726H683.955M546.495 489.652H662.993M313.498 489.652H197M313.498 489.652L308.691 457.473M662.993 489.652L683.955 524.726M308.691 457.473H197M579.418 563.104L598.321 605.276M579.418 563.104H706.891M683.955 524.726L706.891 563.104M706.891 563.104L732.095 605.276M464.547 605.276L478.459 651.835M464.547 605.276H598.321M464.547 605.276H330.774M598.321 605.276L619.19 651.835M598.321 605.276H732.095M732.095 605.276L759.92 651.835M619.19 651.835H478.459M619.19 651.835H759.92M478.459 651.835H337.73M337.73 651.835H197M337.73 651.835L330.774 605.276M330.774 605.276H197M100.742 32.0586L100.527 32.7763L100.312 33.4967L100.095 34.2208L99.8783 34.9488L99.4406 36.413L99.2197 37.1502L98.9988 37.8912M100.742 32.0586H148.871M100.742 32.0586H52.6118M149.711 26.4298L150.524 20.9944M149.711 26.4298L148.871 32.0586M149.711 26.4298H197M150.524 20.9944L150.623 20.3281L150.723 19.6647L150.821 19.0041L151.309 15.743M150.524 20.9944H197M105.617 15.743L105.809 15.0983L106.571 12.5492L107.134 10.6655M105.617 15.743H151.309M105.617 15.743H59.9259M148.871 32.0586L148.763 32.7763L148.656 33.4967L148.547 34.2208L147.999 37.8912M148.871 32.0586H197M197 26.4298V20.9944M197 26.4298V32.0586M197 20.9944V15.743M151.309 15.743H197M151.309 15.743L151.595 13.8191L151.691 13.1828L152.067 10.6655M197 32.0586V37.8912M242.692 15.743L242.405 13.8191L242.309 13.1828L242.215 12.5492L242.12 11.9185L242.027 11.2906L241.933 10.6655M242.692 15.743H197M197 15.743V10.6655M98.9988 37.8912H147.999M98.9988 37.8912H49.9982M147.096 43.9387L146.98 44.7095L146.865 45.4851L146.158 50.2132M147.096 43.9387L147.999 37.8912M147.096 43.9387H197M147.999 37.8912H197M49.9982 37.8912H0.99763M49.9982 37.8912L50.6599 36.413L50.9897 35.6794L51.3165 34.9488L51.6433 34.2208L51.9671 33.4967L52.291 32.7763L52.6118 32.0586M197 37.8912V43.9387M52.6118 32.0586H4.48275M146.158 50.2132L145.185 56.7278M146.158 50.2132H197M197 43.9387V50.2132M197 50.2132V56.7278M93.3699 56.7278L91.3469 63.4976M93.3699 56.7278H145.185M93.3699 56.7278H41.5548M145.185 56.7278L144.174 63.4976M145.185 56.7278H197M197 56.7278V63.4976M91.3469 63.4976H144.174M91.3469 63.4976H38.5204M143.122 70.5365L144.174 63.4976M143.122 70.5365L142.028 77.8612M143.122 70.5365H197M144.174 63.4976H197M38.5204 63.4976H-14.3061M38.5204 63.4976L41.5548 56.7278M197 63.4976V70.5365M41.5548 56.7278H-10.2603M142.028 77.8612L141.606 80.685L141.177 83.5527L140.887 85.4897M142.028 77.8612H197M197 70.5365V77.8612M197 77.8612V85.4897M84.7755 85.4897L83.5991 89.4235L83.3023 90.4206L82.3987 93.4415M84.7755 85.4897H140.887M84.7755 85.4897H28.6627M140.887 85.4897L140.595 87.4463L140.002 91.4222L139.7 93.4415M140.887 85.4897H197M197 85.4897V93.4415M82.3987 93.4415H139.7M82.3987 93.4415H25.0986M138.461 101.737L138.617 100.68L139.7 93.4415M138.461 101.737L137.166 110.399M138.461 101.737H197M139.7 93.4415H197M25.0986 93.4415H-32.2015M25.0986 93.4415L28.6627 85.4897M197 93.4415V101.737M28.6627 85.4897H-27.4501M137.166 110.399L135.813 119.453M137.166 110.399H197M197 101.737V110.399M197 110.399V119.453M74.6259 119.453L71.7955 128.926M74.6259 119.453H135.813M74.6259 119.453H13.4389M135.813 119.453L134.398 128.926M135.813 119.453H197M197 119.453V128.926M71.7955 128.926H134.398M71.7955 128.926H9.19317M132.916 138.848L134.398 128.926M132.916 138.848L131.361 149.251M132.916 138.848H197M134.398 128.926H197M9.19317 128.926H-53.4091M9.19317 128.926L13.4389 119.453M197 128.926V138.848M13.4389 119.453H-47.7482M131.361 149.251L129.729 160.171M131.361 149.251H197M197 138.848V149.251M197 149.251V160.171M62.4585 160.171L59.0294 171.647M62.4585 160.171H129.729M62.4585 160.171H-4.81125M129.729 160.171L128.015 171.647M129.729 160.171H197M197 160.171V171.647M59.0294 171.647H128.015M59.0294 171.647H-9.95552M126.21 183.725L128.015 171.647M126.21 183.725L124.309 196.45M126.21 183.725H197M128.015 171.647H197M-9.95552 171.647H-78.9414M-9.95552 171.647L-4.81125 160.171M197 171.647V183.725M-4.81125 160.171H-72.082M124.309 196.45L122.302 209.879M124.309 196.45H197M197 183.725V196.45M197 196.45V209.879M47.6055 209.879L43.3648 224.069M47.6055 209.879H122.302M47.6055 209.879H-27.0923M122.302 209.879L120.182 224.069M122.302 209.879H197M197 209.879V224.069M43.3648 224.069H120.182M43.3648 224.069H-33.4529M117.939 239.09L120.182 224.069M117.939 239.09L115.559 255.013M117.939 239.09H197M120.182 224.069H197M-33.4529 224.069H-110.27M-33.4529 224.069L-27.0923 209.879M197 224.069V239.09M-27.0923 209.879H-101.79M115.559 255.013L113.032 271.926M115.559 255.013H197M197 239.09V255.013M197 255.013V271.926M29.0645 271.926L23.6874 289.92M29.0645 271.926H113.032M29.0645 271.926H-54.9033M113.032 271.926L110.344 289.92M113.032 271.926H197M197 271.926V289.92M23.6874 289.92H110.344M23.6874 289.92H-62.969M107.477 309.106L110.344 289.92M107.477 309.106L104.415 329.604M107.477 309.106H197M110.344 289.92H197M-62.969 289.92H-149.625M-62.969 289.92L-54.9033 271.926M197 289.92V309.106M-54.9033 271.926H-138.871M104.415 329.604L101.135 351.554M104.415 329.604H197M197 309.106V329.604M197 329.604V351.554M5.27029 351.554L-1.7709 375.117M5.27029 351.554H101.135M5.27029 351.554H-90.5951M101.135 351.554L97.6145 375.117M101.135 351.554H197M197 351.554V375.117M-1.7709 375.117H97.6145M-1.7709 375.117H-101.156M93.8256 400.475L97.6145 375.117M93.8256 400.475L89.7368 427.845M93.8256 400.475H197M97.6145 375.117H197M-101.156 375.117H-200.542M-101.156 375.117L-90.5951 351.554M197 375.117V400.475M-90.5951 351.554H-186.46M89.7368 427.845L85.3092 457.473M89.7368 427.845H197M197 400.475V427.845M197 427.845V457.473M-26.3806 457.473L-35.9965 489.652M-26.3806 457.473H85.3092M-26.3806 457.473H-138.072M85.3092 457.473L80.5018 489.652M85.3092 457.473H197M197 457.473V489.652M-35.9965 489.652H80.5018M-35.9965 489.652H-152.495M75.2616 524.726L80.5018 489.652M75.2616 524.726L69.5277 563.104M75.2616 524.726H197M80.5018 489.652H197M-152.495 489.652H-268.993M-152.495 489.652L-138.072 457.473M197 489.652V524.726M-138.072 457.473H-249.761M69.5277 563.104L63.2261 605.276M69.5277 563.104H197M197 524.726V563.104M197 563.104V605.276M-70.5468 605.276L-84.4594 651.835M-70.5468 605.276H63.2261M-70.5468 605.276H-204.321M63.2261 605.276L56.2698 651.835M63.2261 605.276H197M197 605.276V651.835M56.2698 651.835H-84.4594M56.2698 651.835H197M-84.4594 651.835H-225.19M-225.19 651.835H-365.92M-225.19 651.835L-204.321 605.276M-204.321 605.276H-338.095M-91.7755 32.0586L-94.3661 34.9488L-97.0036 37.8912M-91.7755 32.0586H-43.6464M-91.7755 32.0586H-139.905M-39.4416 26.4298L-35.3808 20.9944M-39.4416 26.4298L-43.6464 32.0586M-39.4416 26.4298H7.84691M-35.3808 20.9944H11.0952M-35.3808 20.9944L-32.4264 17.039L-31.4579 15.743M-77.1493 15.743H-31.4579M-77.1493 15.743L-75.4242 13.8191L-72.5977 10.6655M-77.1493 15.743H-122.841M-43.6464 32.0586L-48.003 37.8912M-43.6464 32.0586H4.48275M7.84691 26.4298L11.0952 20.9944M7.84691 26.4298L4.48275 32.0586M11.0952 20.9944L12.6783 18.3463L13.8477 16.3896L14.2335 15.743M-31.4579 15.743H14.2335M-31.4579 15.743L-28.6015 11.9185L-27.665 10.6655M4.48275 32.0586L1.88015 36.413L0.99763 37.8912M59.9259 15.743L60.2137 15.0983L60.7874 13.8191L61.6389 11.9185L62.2017 10.6655M59.9259 15.743H14.2335M14.2335 15.743L14.6183 15.0983L15.3839 13.8191L17.2679 10.6655M-97.0036 37.8912H-48.003M-97.0036 37.8912H-146.005M-52.5216 43.9387L-51.9469 43.1706L-51.3762 42.4053L-49.1174 39.3816L-48.003 37.8912M-52.5216 43.9387L-56.0207 48.6219L-57.2091 50.2132M-52.5216 43.9387H-2.61645M-48.003 37.8912H0.99763M-146.005 37.8912H-195.006M-146.005 37.8912L-141.41 33.4967L-139.905 32.0586M0.99763 37.8912L-2.61645 43.9387M-139.905 32.0586H-188.035M-57.2091 50.2132L-57.8067 51.014L-58.4084 51.8185L-60.2284 54.2563L-60.8421 55.0758L-62.0755 56.7278M-57.2091 50.2132H-6.36742M-2.61645 43.9387L-3.07818 44.7095L-6.36742 50.2132M-6.36742 50.2132L-6.84519 51.014L-7.32693 51.8185L-7.80964 52.6277L-10.2603 56.7278M-113.891 56.7278L-119.959 63.4976M-113.891 56.7278H-62.0755M-113.891 56.7278H-165.706M-62.0755 56.7278L-67.1327 63.4976M-62.0755 56.7278H-10.2603M-10.2603 56.7278L-14.3061 63.4976M-119.959 63.4976H-67.1327M-119.959 63.4976H-172.786M-72.3909 70.5365L-67.1327 63.4976M-72.3909 70.5365L-77.8629 77.8612M-72.3909 70.5365H-18.5129M-67.1327 63.4976H-14.3061M-172.786 63.4976H-225.612M-172.786 63.4976L-165.706 56.7278M-14.3061 63.4976L-18.5129 70.5365M-165.706 56.7278H-217.522M-77.8629 77.8612L-83.5619 85.4897M-77.8629 77.8612H-22.8905M-18.5129 70.5365L-19.5913 72.3398L-22.8905 77.8612M-22.8905 77.8612L-24.5786 80.685L-26.2927 83.5527L-27.4501 85.4897M-139.675 85.4897L-143.202 89.4235L-146.803 93.4415M-139.675 85.4897H-83.5619M-139.675 85.4897H-195.787M-83.5619 85.4897L-89.5026 93.4415M-83.5619 85.4897H-27.4501M-27.4501 85.4897L-32.2015 93.4415M-146.803 93.4415H-89.5026M-146.803 93.4415H-204.103M-95.6993 101.737L-89.5026 93.4415M-95.6993 101.737L-102.171 110.399M-95.6993 101.737H-37.1599M-89.5026 93.4415H-32.2015M-204.103 93.4415H-261.404M-204.103 93.4415L-195.787 85.4897M-32.2015 93.4415L-37.1599 101.737M-195.787 85.4897H-251.899M-102.171 110.399L-103.834 112.625L-108.934 119.453M-102.171 110.399H-42.3371M-37.1599 101.737L-42.3371 110.399M-42.3371 110.399L-42.9997 111.509L-45.0117 114.876L-47.7482 119.453M-170.121 119.453L-178.614 128.926M-170.121 119.453H-108.934M-170.121 119.453H-231.308M-108.934 119.453L-116.011 128.926M-108.934 119.453H-47.7482M-47.7482 119.453L-53.4091 128.926M-178.614 128.926H-116.011M-178.614 128.926H-241.216M-123.423 138.848L-118.75 132.593L-116.011 128.926M-123.423 138.848L-131.195 149.251M-123.423 138.848H-59.3389M-116.011 128.926H-53.4091M-241.216 128.926H-303.818M-241.216 128.926L-231.308 119.453M-53.4091 128.926L-59.3389 138.848M-231.308 119.453H-292.495M-131.195 149.251L-139.353 160.171M-131.195 149.251H-65.5556M-59.3389 138.848L-65.5556 149.251M-65.5556 149.251L-72.082 160.171M-206.624 160.171L-216.912 171.647M-206.624 160.171H-139.353M-206.624 160.171H-273.893M-139.353 160.171L-147.926 171.647M-139.353 160.171H-72.082M-72.082 160.171L-78.9414 171.647M-216.912 171.647H-147.926M-216.912 171.647H-285.897M-156.948 183.725L-147.926 171.647M-156.948 183.725L-166.455 196.45M-156.948 183.725H-86.1584M-147.926 171.647H-78.9414M-285.897 171.647H-354.882M-285.897 171.647L-273.893 160.171M-78.9414 171.647L-86.1584 183.725M-273.893 160.171H-341.164M-166.455 196.45L-176.487 209.879M-166.455 196.45H-93.7644M-86.1584 183.725L-93.7644 196.45M-93.7644 196.45L-101.79 209.879M-251.185 209.879L-263.906 224.069M-251.185 209.879H-176.487M-251.185 209.879H-325.882M-176.487 209.879L-187.088 224.069M-176.487 209.879H-101.79M-101.79 209.879L-110.27 224.069M-263.906 224.069H-187.088M-263.906 224.069H-340.723M-198.309 239.09L-187.088 224.069M-198.309 239.09L-210.205 255.013M-198.309 239.09H-119.247M-187.088 224.069H-110.27M-340.723 224.069H-417.541M-340.723 224.069L-325.882 209.879M-110.27 224.069L-119.247 239.09M-325.882 209.879H-400.579M-210.205 255.013L-222.839 271.926M-210.205 255.013H-128.764M-119.247 239.09L-128.764 255.013M-128.764 255.013L-138.871 271.926M-306.807 271.926L-322.938 289.92M-306.807 271.926H-222.839M-306.807 271.926H-390.774M-222.839 271.926L-236.282 289.92M-222.839 271.926H-138.871M-138.871 271.926L-149.625 289.92M-322.938 289.92H-236.282M-322.938 289.92H-409.594M-250.614 309.106L-236.282 289.92M-250.614 309.106L-265.928 329.604M-250.614 309.106H-161.091M-236.282 289.92H-149.625M-409.594 289.92H-496.251M-409.594 289.92L-390.774 271.926M-149.625 289.92L-161.091 309.106M-390.774 271.926H-474.742M-265.928 329.604L-282.325 351.554M-265.928 329.604H-173.342M-161.091 309.106L-173.342 329.604M-173.342 329.604L-186.46 351.554M-378.19 351.554L-399.313 375.117M-378.19 351.554H-282.325M-378.19 351.554H-474.056M-282.325 351.554L-299.927 375.117M-282.325 351.554H-186.46M-186.46 351.554L-200.542 375.117M-399.313 375.117H-299.927M-399.313 375.117H-498.698M-318.872 400.475L-299.927 375.117M-318.872 400.475L-339.318 427.845M-318.872 400.475H-215.698M-299.927 375.117H-200.542M-498.698 375.117H-598.084M-498.698 375.117L-474.056 351.554M-200.542 375.117L-215.698 400.475M-474.056 351.554H-569.921M-339.318 427.845L-361.452 457.473M-339.318 427.845H-232.055M-215.698 400.475L-232.055 427.845M-232.055 427.845L-249.761 457.473M-473.142 457.473L-501.99 489.652M-473.142 457.473H-361.452M-473.142 457.473H-584.833M-361.452 457.473L-385.491 489.652M-361.452 457.473H-249.761M-249.761 457.473L-268.993 489.652M-501.99 489.652H-385.491M-501.99 489.652H-618.488M-411.693 524.726L-385.491 489.652M-411.693 524.726L-440.364 563.104M-411.693 524.726H-289.955M-385.491 489.652H-268.993M-618.488 489.652H-734.986M-618.488 489.652L-584.833 457.473M-268.993 489.652L-289.955 524.726M-584.833 457.473H-696.523M-440.364 563.104L-471.868 605.276M-440.364 563.104H-312.89M-289.955 524.726L-312.89 563.104M-312.89 563.104L-338.095 605.276M-605.642 605.276L-647.379 651.835M-605.642 605.276H-471.868M-605.642 605.276H-739.416M-471.868 605.276L-506.649 651.835M-471.868 605.276H-338.095M-338.095 605.276L-365.92 651.835M-506.649 651.835H-647.379M-506.649 651.835H-365.92M-647.379 651.835L-762.483 651.834M-739.416 605.276L-762.483 627.333M-739.416 605.276H-762.483M-284.293 32.0586L-293.007 37.8912M-284.293 32.0586H-236.164M-284.293 32.0586H-332.422M-228.595 26.4298L-221.286 20.9944M-228.595 26.4298L-236.164 32.0586M-228.595 26.4298H-181.306M-221.286 20.9944H-174.81M-221.286 20.9944L-214.224 15.743M-259.916 15.743H-214.224M-259.916 15.743L-257.041 13.8191L-252.329 10.6655M-259.916 15.743H-305.607M-236.164 32.0586L-244.006 37.8912M-236.164 32.0586H-188.035M-181.306 26.4298L-174.81 20.9944M-181.306 26.4298L-188.035 32.0586M-174.81 20.9944L-170.081 17.039L-168.532 15.743M-214.224 15.743L-213.358 15.0983L-207.396 10.6655M-214.224 15.743H-168.532M-188.035 32.0586L-195.006 37.8912M-122.841 15.743L-117.531 10.6655M-122.841 15.743H-168.532M-168.532 15.743L-166.232 13.8191L-162.463 10.6655M-293.007 37.8912H-244.006M-293.007 37.8912H-342.008M-252.138 43.9387L-244.006 37.8912M-252.138 43.9387L-260.576 50.2132M-252.138 43.9387H-202.234M-244.006 37.8912H-195.006M-342.008 37.8912H-391.008M-342.008 37.8912L-332.422 32.0586M-195.006 37.8912L-202.234 43.9387M-332.422 32.0586H-380.551M-260.576 50.2132L-262.735 51.8185L-269.337 56.7278M-260.576 50.2132H-209.734M-202.234 43.9387L-209.734 50.2132M-209.734 50.2132L-217.522 56.7278M-321.152 56.7278L-322.394 57.5604L-331.265 63.4976M-321.152 56.7278H-269.337M-321.152 56.7278H-372.967M-269.337 56.7278L-278.439 63.4976M-269.337 56.7278H-217.522M-217.522 56.7278L-218.515 57.5604L-225.612 63.4976M-331.265 63.4976H-278.439M-331.265 63.4976H-384.092M-287.904 70.5365L-278.439 63.4976M-287.904 70.5365L-297.754 77.8612M-287.904 70.5365H-234.026M-278.439 63.4976H-225.612M-384.092 63.4976H-436.919M-384.092 63.4976L-372.967 56.7278M-225.612 63.4976L-234.026 70.5365M-372.967 56.7278H-424.782M-297.754 77.8612L-308.012 85.4897M-297.754 77.8612H-242.781M-234.026 70.5365L-242.781 77.8612M-242.781 77.8612L-251.899 85.4897M-364.124 85.4897L-376.004 93.4415M-364.124 85.4897H-308.012M-364.124 85.4897H-420.237M-308.012 85.4897L-318.704 93.4415M-308.012 85.4897H-251.899M-251.899 85.4897L-261.404 93.4415M-376.004 93.4415H-318.704M-376.004 93.4415H-433.306M-329.859 101.737L-318.704 93.4415M-329.859 101.737L-341.508 110.399M-329.859 101.737H-271.32M-318.704 93.4415H-261.404M-433.306 93.4415H-490.606M-433.306 93.4415L-420.237 85.4897M-261.404 93.4415L-271.32 101.737M-420.237 85.4897H-476.349M-341.508 110.399L-353.682 119.453M-341.508 110.399H-281.673M-271.32 101.737L-281.673 110.399M-281.673 110.399L-292.495 119.453M-414.869 119.453L-429.023 128.926M-414.869 119.453H-353.682M-414.869 119.453H-476.057M-353.682 119.453L-366.421 128.926M-353.682 119.453H-292.495M-292.495 119.453L-303.818 128.926M-429.023 128.926H-366.421M-429.023 128.926H-491.625M-379.762 138.848L-366.421 128.926M-379.762 138.848L-393.751 149.251M-379.762 138.848H-315.678M-366.421 128.926H-303.818M-491.625 128.926H-554.227M-491.625 128.926L-476.057 119.453M-303.818 128.926L-315.678 138.848M-476.057 119.453H-537.244M-393.751 149.251L-408.435 160.171M-393.751 149.251H-328.112M-315.678 138.848L-328.112 149.251M-328.112 149.251L-341.164 160.171M-475.706 160.171L-492.852 171.647M-475.706 160.171H-408.435M-475.706 160.171H-542.975M-408.435 160.171L-423.868 171.647M-408.435 160.171H-341.164M-341.164 160.171L-354.882 171.647M-492.852 171.647H-423.868M-492.852 171.647H-561.838M-440.108 183.725L-423.868 171.647M-440.108 183.725L-457.22 196.45M-440.108 183.725H-369.318M-423.868 171.647H-354.882M-561.838 171.647H-630.823M-561.838 171.647L-542.975 160.171M-354.882 171.647L-369.318 183.725M-542.975 160.171H-610.246M-457.22 196.45L-475.277 209.879M-457.22 196.45H-384.529M-369.318 183.725L-384.529 196.45M-384.529 196.45L-400.579 209.879M-549.975 209.879L-571.176 224.069M-549.975 209.879H-475.277M-549.975 209.879H-624.671M-475.277 209.879L-494.359 224.069M-475.277 209.879H-400.579M-400.579 209.879L-417.541 224.069M-571.176 224.069H-494.359M-571.176 224.069H-647.994M-514.556 239.09L-494.359 224.069M-514.556 239.09L-535.968 255.013M-514.556 239.09H-435.494M-494.359 224.069H-417.541M-647.994 224.069H-724.812M-647.994 224.069L-624.671 209.879M-417.541 224.069L-435.494 239.09M-624.671 209.879H-699.369M-535.968 255.013L-558.71 271.926M-535.968 255.013H-454.527M-435.494 239.09L-454.527 255.013M-454.527 255.013L-474.742 271.926M-642.678 271.926L-669.563 289.92M-642.678 271.926H-558.71M-642.678 271.926H-726.646M-558.71 271.926L-582.907 289.92M-558.71 271.926H-474.742M-474.742 271.926L-496.251 289.92M-669.563 289.92H-582.907M-669.563 289.92H-756.22M-608.706 309.106L-582.907 289.92M-608.706 309.106L-636.269 329.604M-608.706 309.106H-519.183M-582.907 289.92H-496.251M-756.22 289.92L-726.646 271.926M-756.22 289.92H-762.483M-756.22 289.92L-762.483 293.731M-496.251 289.92L-519.183 309.106M-726.646 271.926H-762.483M-636.269 329.604L-665.785 351.554M-636.269 329.604H-543.684M-519.183 309.106L-543.684 329.604M-543.684 329.604L-569.921 351.554M-761.651 351.554H-665.785M-761.651 351.554H-762.483M-761.651 351.554L-762.483 352.111M-665.785 351.554L-697.47 375.117M-665.785 351.554H-569.921M-569.921 351.554L-598.084 375.117M-731.57 400.475L-697.47 375.117M-731.57 400.475H-628.395M-731.57 400.475H-762.483M-731.57 400.475L-762.483 423.465M-697.47 375.117H-598.084M-697.47 375.117H-762.483M-598.084 375.117L-628.395 400.475M-628.395 400.475L-661.109 427.845M-661.109 427.845L-696.523 457.473M-661.109 427.845H-762.483M-696.523 457.473L-734.986 489.652M-696.523 457.473H-762.483M-734.986 489.652H-762.483M-734.986 489.652L-762.483 512.657M-476.81 32.0586L-489.01 37.8912M-476.81 32.0586H-428.68M-476.81 32.0586H-524.939M-417.748 26.4298L-407.191 20.9944M-417.748 26.4298L-428.68 32.0586M-417.748 26.4298H-370.459M-407.191 20.9944H-360.715M-407.191 20.9944L-396.99 15.743M-442.682 15.743H-396.99M-442.682 15.743L-432.061 10.6655M-442.682 15.743H-488.373M-428.68 32.0586L-440.009 37.8912M-428.68 32.0586H-380.551M-370.459 26.4298L-360.715 20.9944M-370.459 26.4298L-380.551 32.0586M-360.715 20.9944L-351.299 15.743M-396.99 15.743L-395.74 15.0983L-387.128 10.6655M-396.99 15.743H-351.299M-380.551 32.0586L-391.008 37.8912M-305.607 15.743L-297.263 10.6655M-305.607 15.743H-351.299M-351.299 15.743L-350.144 15.0983L-342.196 10.6655M-489.01 37.8912H-440.009M-489.01 37.8912H-538.01M-451.756 43.9387L-440.009 37.8912M-451.756 43.9387L-463.943 50.2132M-451.756 43.9387H-401.85M-440.009 37.8912H-391.008M-538.01 37.8912H-587.011M-538.01 37.8912L-524.939 32.0586M-391.008 37.8912L-401.85 43.9387M-524.939 32.0586H-573.068M-463.943 50.2132L-476.597 56.7278M-463.943 50.2132H-413.101M-401.85 43.9387L-403.235 44.7095L-413.101 50.2132M-413.101 50.2132L-424.782 56.7278M-528.412 56.7278L-542.572 63.4976M-528.412 56.7278H-476.597M-528.412 56.7278H-580.227M-476.597 56.7278L-489.745 63.4976M-476.597 56.7278H-424.782M-424.782 56.7278L-436.919 63.4976M-542.572 63.4976H-489.745M-542.572 63.4976H-595.398M-503.417 70.5365L-489.745 63.4976M-503.417 70.5365L-517.644 77.8612M-503.417 70.5365H-449.539M-489.745 63.4976H-436.919M-595.398 63.4976H-648.225M-595.398 63.4976L-580.227 56.7278M-436.919 63.4976L-449.539 70.5365M-580.227 56.7278H-632.043M-517.644 77.8612L-532.461 85.4897M-517.644 77.8612H-462.672M-449.539 70.5365L-462.672 77.8612M-462.672 77.8612L-476.349 85.4897M-588.574 85.4897L-605.207 93.4415M-588.574 85.4897H-532.461M-588.574 85.4897H-644.687M-532.461 85.4897L-547.906 93.4415M-532.461 85.4897H-476.349M-476.349 85.4897L-490.606 93.4415M-605.207 93.4415H-547.906M-605.207 93.4415H-662.507M-564.019 101.737L-547.906 93.4415M-564.019 101.737L-580.844 110.399M-564.019 101.737H-505.479M-547.906 93.4415H-490.606M-662.507 93.4415H-719.807M-662.507 93.4415L-644.687 85.4897M-490.606 93.4415L-505.479 101.737M-644.687 85.4897H-700.798M-580.844 110.399L-598.431 119.453M-580.844 110.399H-521.01M-505.479 101.737L-521.01 110.399M-521.01 110.399L-537.244 119.453M-659.618 119.453L-679.432 128.926M-659.618 119.453H-598.431M-659.618 119.453H-720.804M-598.431 119.453L-616.83 128.926M-598.431 119.453H-537.244M-537.244 119.453L-554.227 128.926M-679.432 128.926H-616.83M-636.101 138.848L-616.83 128.926M-636.101 138.848L-656.306 149.251M-636.101 138.848H-572.016M-616.83 128.926H-554.227M-554.227 128.926L-572.016 138.848M-720.804 119.453H-762.483M-656.306 149.251L-677.517 160.171M-656.306 149.251H-590.668M-572.016 138.848L-590.668 149.251M-590.668 149.251L-610.246 160.171M-744.788 160.171H-677.517M-744.788 160.171H-762.483M-744.788 160.171L-762.483 168.63M-677.517 160.171L-699.809 171.647M-677.517 160.171H-610.246M-610.246 160.171L-630.823 171.647M-723.266 183.725L-699.809 171.647M-723.266 183.725L-747.984 196.45M-723.266 183.725H-652.477M-723.266 183.725H-762.483M-699.809 171.647H-630.823M-699.809 171.647H-762.483M-630.823 171.647L-652.477 183.725M-762.678 168.724L-762.483 168.63M-747.984 196.45H-675.293M-747.984 196.45H-762.483M-747.984 196.45L-762.483 203.915M-652.477 183.725L-675.293 196.45M-675.293 196.45L-699.369 209.879M-699.369 209.879L-724.812 224.069M-699.369 209.879H-762.483M-751.741 239.09L-724.812 224.069M-751.741 239.09H-762.483M-751.741 239.09L-762.483 245.081M-724.812 224.069H-762.483M-669.326 32.0586L-685.012 37.8912M-669.326 32.0586H-621.197M-669.326 32.0586H-717.457M-606.901 26.4298L-593.095 20.9944M-606.901 26.4298L-621.197 32.0586M-606.901 26.4298H-559.613M-593.095 20.9944H-546.62M-593.095 20.9944L-579.757 15.743M-625.448 15.743H-579.757M-625.448 15.743L-611.793 10.6655M-625.448 15.743H-671.139M-621.197 32.0586L-636.011 37.8912M-621.197 32.0586H-573.068M-559.613 26.4298L-546.62 20.9944M-559.613 26.4298L-573.068 32.0586M-546.62 20.9944L-534.065 15.743M-579.757 15.743H-534.065M-579.757 15.743L-566.86 10.6655M-573.068 32.0586L-587.011 37.8912M-488.373 15.743L-476.994 10.6655M-488.373 15.743H-534.065M-534.065 15.743L-521.927 10.6655M-685.012 37.8912H-636.011M-685.012 37.8912H-734.013M-651.372 43.9387L-636.011 37.8912M-651.372 43.9387L-667.31 50.2132M-651.372 43.9387H-601.468M-636.011 37.8912H-587.011M-734.013 37.8912L-717.457 32.0586M-734.013 37.8912H-762.483M-587.011 37.8912L-601.468 43.9387M-717.457 32.0586H-762.483M-667.31 50.2132L-683.858 56.7278M-667.31 50.2132H-616.468M-601.468 43.9387L-616.468 50.2132M-616.468 50.2132L-632.043 56.7278M-735.673 56.7278L-753.878 63.4976M-735.673 56.7278H-683.858M-735.673 56.7278H-762.483M-683.858 56.7278L-701.051 63.4976M-683.858 56.7278H-632.043M-632.043 56.7278L-648.225 63.4976M-718.93 70.5365L-701.051 63.4976M-718.93 70.5365L-737.535 77.8612M-718.93 70.5365H-665.052M-718.93 70.5365H-762.483M-701.051 63.4976H-753.878M-701.051 63.4976H-648.225M-753.878 63.4976L-762.483 66.697M-753.878 63.4976H-762.483M-648.225 63.4976L-665.052 70.5365M-737.535 77.8612L-756.911 85.4897M-737.535 77.8612H-682.562M-737.535 77.8612H-762.483M-665.052 70.5365L-682.562 77.8612M-682.562 77.8612L-700.798 85.4897M-756.911 85.4897H-700.798M-756.911 85.4897L-762.483 87.6831M-756.911 85.4897H-762.483M-700.798 85.4897L-719.807 93.4415M-739.639 101.737L-719.807 93.4415M-739.639 101.737L-760.346 110.399M-739.639 101.737H-762.483M-719.807 93.4415H-762.483M-762.783 93.4415H-762.483M-760.346 110.399H-762.483M-760.346 110.399L-762.483 111.293M-763 111.509L-762.483 111.293M-748.766 26.4298L-732.524 20.9944M-748.766 26.4298H-762.483M-748.766 26.4298L-762.483 31.0201M-732.524 20.9944L-716.831 15.743M-732.524 20.9944H-762.483M-671.139 15.743L-656.726 10.6655M-671.139 15.743H-716.831M-716.831 15.743L-701.659 10.6655M-716.831 15.743H-762.483M826.061 10.6655H870.994M826.061 10.6655H781.128M859.987 5.75423L862.704 6.96709L870.994 10.6655M859.987 5.75423H904.186M870.994 10.6655H915.927M904.186 5.75423L907.085 6.96709L908.544 7.57633L915.927 10.6655M915.927 10.6655H960.86M960.86 10.6655H1005.79M781.128 10.6655H736.196M1005.79 10.6655H1050.73M1050.73 10.6655L1036.78 5.75423M1050.73 10.6655H1095.66M1036.78 5.75423H1080.98M646.329 10.6655H691.263M646.329 10.6655H601.396M683.19 5.75423L685.183 6.96709L686.187 7.57633L691.263 10.6655M683.19 5.75423H727.389M691.263 10.6655H736.196M727.389 5.75423L736.196 10.6655M601.396 10.6655H556.463M466.598 10.6655H511.531M466.598 10.6655H421.665M506.393 5.75423L507.027 6.35879L507.662 6.96709L508.3 7.57633L511.531 10.6655M506.393 5.75423H550.593M511.531 10.6655H556.463M550.593 5.75423L556.463 10.6655M421.665 10.6655H376.731M286.866 10.6655H331.798M286.866 10.6655H241.933M329.598 5.75423L331.798 10.6655M329.598 5.75423H373.797M331.798 10.6655H376.731M373.797 5.75423L374.159 6.35879L374.521 6.96709L374.886 7.57633L376.731 10.6655M241.933 10.6655H197M107.134 10.6655H152.067M107.134 10.6655H62.2017M152.801 5.75423L152.067 10.6655M152.801 5.75423H197M152.067 10.6655H197M197 5.75423V10.6655M62.2017 10.6655H17.2679M-72.5977 10.6655H-27.665M-72.5977 10.6655H-117.531M-23.9959 5.75423L-24.9014 6.96709L-26.7365 9.42178L-27.665 10.6655M-23.9959 5.75423H20.2032M-27.665 10.6655H17.2679M20.2032 5.75423L19.8414 6.35879L19.4786 6.96709L19.1139 7.57633L17.2679 10.6655M-117.531 10.6655H-162.463M-252.329 10.6655H-207.396M-252.329 10.6655H-297.263M-200.792 5.75423L-202.423 6.96709L-203.243 7.57633L-207.396 10.6655M-200.792 5.75423H-156.593M-207.396 10.6655H-162.463M-156.593 5.75423L-157.316 6.35879L-162.463 10.6655M-297.263 10.6655H-342.196M-432.061 10.6655H-387.128M-432.061 10.6655H-476.994M-377.589 5.75423L-379.944 6.96709L-381.13 7.57633L-387.128 10.6655M-377.589 5.75423H-333.389M-387.128 10.6655H-342.196M-333.389 5.75423L-334.475 6.35879L-342.196 10.6655M-476.994 10.6655H-521.927M-611.793 10.6655H-566.86M-611.793 10.6655H-656.726M-554.385 5.75423L-566.86 10.6655M-554.385 5.75423H-510.186M-566.86 10.6655H-521.927M-510.186 5.75423L-513.085 6.96709L-514.544 7.57633L-521.927 10.6655M-656.726 10.6655H-701.659M-731.181 5.75423L-746.592 10.6655M-731.181 5.75423H-686.982M-731.181 5.75423H-762.483M-746.592 10.6655H-701.659M-746.592 10.6655L-762.483 15.7306M-746.592 10.6655H-762.483M-686.982 5.75423L-690.606 6.96709L-701.659 10.6655M1080.98 5.75423L1084.61 6.96709L1095.66 10.6655M1095.66 10.6655H1140.59M1140.59 10.6655L1156.48 15.7306M1140.59 10.6655H1156.48M1156.48 245.081V239.09M1156.48 245.081V255.013M1156.48 239.09V224.069M1156.48 255.013V257.981V271.926M1156.48 271.926V289.92M1156.48 128.926V119.453M1156.48 128.926V138.051M1156.48 5.75423V10.6655M1156.48 10.6655V15.7306M1156.48 15.7306L1156.52 15.743H1156.48M1156.48 15.7306V15.743M1156.48 15.743V20.9944M1156.48 20.9944V26.4298M1156.48 26.4298V31.0201M1156.48 31.0201V32.0586M1156.48 32.0586V37.8912M1156.48 37.8912V43.9387M1156.48 43.9387V47.9193M1156.48 47.9193V50.2132M1156.48 50.2132V56.7278M1156.48 56.7278V63.4976M1156.48 63.4976V66.697M1156.48 66.697V70.5365M1156.48 70.5365V77.8612M1156.48 77.8612V85.4897M1156.48 85.4897V87.683M1156.48 87.683V93.4415M1156.48 93.4415V101.737M1156.48 101.737V110.399M1156.48 110.399V111.293M1156.48 111.293V119.453M1156.48 138.848V149.251M1156.48 138.848V138.051M1156.48 149.251V160.171M1156.48 160.171V168.63M1156.48 168.63V171.647M1156.48 171.647V183.725M1156.48 183.725V196.45M1156.48 196.45V203.915M1156.48 203.915V209.879M1156.48 209.879V224.069M1156.48 289.92V293.731M1156.48 293.731V309.106M1156.48 309.106V329.604M1156.48 329.604V351.554M1156.48 351.554V352.111M1156.48 352.111V375.117M1156.48 375.117V400.475M1156.48 400.475V423.465M1156.48 423.465V427.845M1156.48 427.845V457.473M1156.48 457.473V489.652M1156.48 489.652V512.657M1156.48 512.657V524.726M1156.48 524.726V563.104M1156.48 563.104V605.276M1156.48 605.276V627.333M1156.48 627.333V651.834M1156.48 651.834V652H-762.483V651.834M-762.483 138.848V149.251M-762.483 138.848V138.051M-762.483 138.051V128.926M-762.483 128.926V119.453M-762.483 119.453V111.293M-762.483 111.293V110.399M-762.483 110.399V101.737M-762.483 101.737V93.4415M-762.483 93.4415V87.6831M-762.483 87.6831V85.4897M-762.483 85.4897V77.8612M-762.483 77.8612V70.5365M-762.483 70.5365V66.697M-762.483 66.697V63.4976M-762.483 63.4976V56.7278M-762.483 56.7278V50.2132M-762.483 50.2132V47.9193M-762.483 47.9193V43.9387M-762.483 43.9387V37.8912M-762.483 37.8912V32.0586M-762.483 32.0586V31.0201M-762.483 31.0201V26.4298M-762.483 26.4298V20.9944M-762.483 20.9944V15.743M-762.483 15.743H-762.522L-762.483 15.7306M-762.483 15.743V15.7306M-762.483 15.7306V10.6655M-762.483 10.6655V5.75423M-762.483 651.834V627.333M-762.483 627.333V605.276M-762.483 605.276V563.104M-762.483 563.104V524.726M-762.483 524.726V512.657M-762.483 512.657V489.652M-762.483 489.652V457.473M-762.483 457.473V427.845M-762.483 427.845V423.465M-762.483 423.465V400.475M-762.483 400.475V375.117M-762.483 375.117V352.111M-762.483 352.111V351.554M-762.483 351.554V329.604M-762.483 329.604V309.106M-762.483 309.106V293.731M-762.483 293.731V289.92M-762.483 289.92V271.926M-762.483 271.926V255.013M-762.483 255.013V245.081M-762.483 245.081V239.09M-762.483 239.09V224.069M-762.483 224.069V209.879M-762.483 209.879V203.915M-762.483 203.915V196.45M-762.483 196.45V183.725M-762.483 183.725V171.647M-762.483 171.647V168.63M-762.483 168.63V160.171M-762.483 160.171V149.251" stroke="url(#paint0_linear_2008_8190)" stroke-miterlimit="10" stroke-linecap="round" stroke-linejoin="round"/>
<defs>
<linearGradient id="paint0_linear_2008_8190" x1="197" y1="1" x2="197" y2="652" gradientUnits="userSpaceOnUse">
<stop offset="0.689184" stop-color="#101010"/>
<stop offset="1" stop-color="#393939"/>
</linearGradient>
</defs>
</svg>
