<svg width="1920" height="633" viewBox="0 0 1920 633" fill="none" xmlns="http://www.w3.org/2000/svg">
<path d="M1888.18 -13.2458L1873.27 -18M1888.18 -13.2458H1843.98M1888.18 -13.2458L1903.59 -8.33453M1888.18 -13.2458H1919.48M1873.27 -18L1878.69 -17.9981L1884.06 -17.9879L1889.32 -17.9589L1894.42 -17.9019L1899.29 -17.8094L1903.89 -17.6702L1908.16 -17.4767L1912.13 -17.2301L1915.53 -16.889L1918.63 -16.4937L1919.48 -16.3553V-13.2458M1873.27 -18H1829.78M1829.78 -18H1786.29M1829.78 -18L1843.98 -13.2458M1786.29 -18H1742.8M1786.29 -18L1799.78 -13.2458M1742.8 -18H1699.31M1742.8 -18L1755.58 -13.2458M1699.31 -18H1655.82M1699.31 -18L1711.39 -13.2458M1655.82 -18H1612.33M1655.82 -18L1667.19 -13.2458M1612.33 -18H1568.84M1612.33 -18L1622.99 -13.2458M1568.84 -18H1525.36M1568.84 -18L1578.79 -13.2458M1525.36 -18H1481.87M1525.36 -18L1534.59 -13.2458M1481.87 -18H1438.38M1481.87 -18L1490.39 -13.2458M1438.38 -18H1394.89M1438.38 -18L1446.19 -13.2458M1394.89 -18H1351.4M1394.89 -18L1401.99 -13.2458M1351.4 -18H1307.91M1351.4 -18L1352.98 -16.8255L1355.37 -15.0473L1357.79 -13.2458M1307.91 -18H1264.42M1307.91 -18L1309.31 -16.8255L1313.59 -13.2458M1264.42 -18H1220.93M1264.42 -18L1269.39 -13.2458M1220.93 -18H1177.44M1220.93 -18L1222.51 -16.2349L1224.12 -14.4493L1224.65 -13.8485L1225.2 -13.2458M1177.44 -18H1133.96M1177.44 -18L1178.76 -16.2349L1179.21 -15.6425L1179.65 -15.0473L1181 -13.2458M1133.96 -18H1090.47M1133.96 -18L1136.8 -13.2458M1090.47 -18L1090.73 -17.4141L1090.99 -16.8255L1092.33 -13.8485L1092.6 -13.2458M1090.47 -18H1046.98M1046.98 -18H1003.49M1046.98 -18L1048.4 -13.2458M1003.49 -18H960M1003.49 -18L1003.75 -16.2349L1004.2 -13.2458M960 -18H916.511M960 -18V-13.2458M916.511 -18H873.022M916.511 -18L916.248 -16.2349L915.801 -13.2458M873.022 -18H829.533M873.022 -18L871.602 -13.2458M829.533 -18L829.27 -17.4141L829.008 -16.8255L827.673 -13.8485L827.402 -13.2458M829.533 -18H786.045M786.045 -18H742.555M786.045 -18L783.564 -13.8485L783.203 -13.2458M742.555 -18H699.067M742.555 -18L741.238 -16.2349L740.794 -15.6425L739.903 -14.4493L739.455 -13.8485L739.004 -13.2458M699.067 -18H655.578M699.067 -18L697.485 -16.2349L695.883 -14.4493L695.346 -13.8485L694.805 -13.2458M655.578 -18H612.089M655.578 -18L650.607 -13.2458M612.089 -18H568.6M612.089 -18L610.686 -16.8255L606.407 -13.2458M568.6 -18H525.111M568.6 -18L562.208 -13.2458M525.111 -18H481.623M525.111 -18L518.009 -13.2458M481.623 -18H438.133M481.623 -18L473.81 -13.2458M438.133 -18H394.644M438.133 -18L429.611 -13.2458M394.644 -18H351.156M394.644 -18L385.411 -13.2458M351.156 -18H307.667M351.156 -18L341.212 -13.2458M307.667 -18H264.178M307.667 -18L297.013 -13.2458M264.178 -18H220.689M264.178 -18L252.814 -13.2458M220.689 -18H177.201M220.689 -18L208.615 -13.2458M177.201 -18H133.711M177.201 -18L164.415 -13.2458M133.711 -18H90.2224M133.711 -18L120.217 -13.2458M90.2224 -18H46.7338M90.2224 -18L76.0181 -13.2458M46.7338 -18L41.3068 -17.9981L35.9356 -17.9879L30.6765 -17.9589L25.5822 -17.9019L20.7088 -17.8094L16.1083 -17.6702L11.8356 -17.4767L7.86976 -17.2301L4.4666 -16.889L1.36827 -16.4937L0.516728 -16.3553V-13.2458M46.7338 -18L31.8189 -13.2458M120.217 -13.2458H164.415M120.217 -13.2458H76.0181M120.217 -13.2458L106.274 -8.33453M164.415 -13.2458L151.207 -8.33453M164.415 -13.2458H208.615M297.013 -13.2458H341.212M297.013 -13.2458H252.814M297.013 -13.2458L294.296 -12.0329L286.006 -8.33453M341.212 -13.2458L330.939 -8.33453M341.212 -13.2458H385.411M473.81 -13.2458H518.009M473.81 -13.2458H429.611M473.81 -13.2458L471.817 -12.0329L470.813 -11.4237L465.737 -8.33453M518.009 -13.2458L517.105 -12.6412L516.197 -12.0329L510.671 -8.33453M518.009 -13.2458H562.208M650.607 -13.2458L649.973 -12.6412L645.469 -8.33453M650.607 -13.2458H694.805M650.607 -13.2458H606.407M694.805 -13.2458L693.718 -12.0329L693.171 -11.4237L692.622 -10.8107L690.402 -8.33453M694.805 -13.2458H739.004M827.402 -13.2458H871.602M827.402 -13.2458H783.203M827.402 -13.2458L825.202 -8.33453M871.602 -13.2458L871.421 -12.6412L871.24 -12.0329L871.057 -11.4237L870.505 -9.57822L870.134 -8.33453M871.602 -13.2458H915.801M1004.2 -13.2458H1048.4M1004.2 -13.2458H960M1004.2 -13.2458L1004.93 -8.33453M1048.4 -13.2458L1048.58 -12.6412L1048.76 -12.0329L1048.94 -11.4237L1049.87 -8.33453M1048.4 -13.2458H1092.6M1181 -13.2458H1225.2M1181 -13.2458H1136.8M1181 -13.2458L1181.9 -12.0329L1183.74 -9.57822L1184.2 -8.95777L1184.67 -8.33453M1225.2 -13.2458L1226.28 -12.0329L1226.83 -11.4237L1227.38 -10.8107L1229.6 -8.33453M1225.2 -13.2458H1269.39M1357.79 -13.2458H1401.99M1357.79 -13.2458H1313.59M1357.79 -13.2458L1359.42 -12.0329L1360.24 -11.4237L1364.4 -8.33453M1401.99 -13.2458L1402.9 -12.6412L1403.8 -12.0329L1409.33 -8.33453M1401.99 -13.2458H1446.19M1534.59 -13.2458H1578.79M1534.59 -13.2458H1490.39M1534.59 -13.2458L1536.94 -12.0329L1538.13 -11.4237L1544.13 -8.33453M1578.79 -13.2458L1589.06 -8.33453M1578.79 -13.2458H1622.99M1711.39 -13.2458H1755.58M1711.39 -13.2458H1667.19M1711.39 -13.2458L1723.86 -8.33453M1755.58 -13.2458L1768.79 -8.33453M1755.58 -13.2458H1799.78M0.361812 31.2132H0.516728M44.8488 31.2132L61.7238 24.9387M44.8488 31.2132L27.3273 37.7278M44.8488 31.2132H95.6905M44.8488 31.2132H0.516728M61.7238 24.9387H11.8196M61.7238 24.9387L77.988 18.8912M61.7238 24.9387H111.628M11.8196 24.9387L28.9874 18.8912M11.8196 24.9387H0.516728M11.8196 24.9387L0.516728 28.9193M61.5219 7.42979H108.81M61.5219 7.42979L76.9516 1.99435M61.5219 7.42979H14.2343M61.5219 7.42979L45.5435 13.0586M108.81 7.42979L123.429 1.99435M108.81 7.42979L93.6736 13.0586M108.81 7.42979H156.099M76.9516 1.99435H123.429M76.9516 1.99435L91.8605 -3.25699M76.9516 1.99435H30.4756M123.429 1.99435H169.905M123.429 1.99435L137.552 -3.25699M0.0299903 130.251H0.516728M41.0539 130.251L62.8142 119.848M41.0539 130.251L18.2122 141.171M41.0539 130.251H106.694M41.0539 130.251H0.516728M62.8142 119.848L83.568 109.926M62.8142 119.848H126.899M62.8142 119.848H0.516728M20.9657 109.926H83.568M20.9657 109.926L42.1963 100.453M20.9657 109.926H0.516728M20.9657 109.926L0.516728 119.051M62.4874 91.399H122.321M62.4874 91.399L81.9009 82.7371M62.4874 91.399H2.65358M62.4874 91.399L42.1963 100.453M122.321 91.399L140.441 82.7371M122.321 91.399L103.382 100.453M122.321 91.399H182.156M81.9009 82.7371H140.441M81.9009 82.7371H23.3614M81.9009 82.7371L100.493 74.4415M140.441 82.7371L157.793 74.4415M140.441 82.7371H198.981M135.41 58.8612H190.382M135.41 58.8612L151.826 51.5365M135.41 58.8612H80.4377M135.41 58.8612L118.313 66.4897M190.382 58.8612L205.704 51.5365M190.382 58.8612L174.426 66.4897M190.382 58.8612H245.356M151.826 51.5365H205.704M151.826 51.5365H97.9483M151.826 51.5365L167.602 44.4976M205.704 51.5365L220.428 44.4976M205.704 51.5365H259.583M197.374 31.2132H248.215M197.374 31.2132L211.436 24.9387M197.374 31.2132H146.532M197.374 31.2132L182.773 37.7278M248.215 31.2132L261.34 24.9387M248.215 31.2132L234.588 37.7278M248.215 31.2132H299.057M211.436 24.9387H261.34M211.436 24.9387H161.532M211.436 24.9387L224.99 18.8912M261.34 24.9387L273.99 18.8912M261.34 24.9387H311.244M250.675 7.42979H297.964M250.675 7.42979L262.856 1.99435M250.675 7.42979H203.387M250.675 7.42979L238.061 13.0586M297.964 7.42979L309.332 1.99435M297.964 7.42979L286.19 13.0586M297.964 7.42979H345.252M262.856 1.99435H309.332M262.856 1.99435L274.627 -3.25699M262.856 1.99435H216.38M309.332 1.99435H355.809M309.332 1.99435L320.318 -3.25699M34.1456 310.604L64.7711 290.106M34.1456 310.604L1.34928 332.554M34.1456 310.604H126.731M34.1456 310.604H0.516728M64.7711 290.106L93.4367 270.92M64.7711 290.106H154.294M64.7711 290.106H0.516728M64.1495 236.013H145.591M64.1495 236.013L90.3204 220.09M64.1495 236.013L36.3544 252.926M64.1495 236.013H0.516728M145.591 236.013L169.382 220.09M145.591 236.013L120.322 252.926M145.591 236.013H227.032M90.3204 220.09H169.382M90.3204 220.09H11.2589M90.3204 220.09L115.006 205.069M169.382 220.09L191.824 205.069M169.382 220.09H248.444M160.398 177.45H233.089M160.398 177.45L181.313 164.725M160.398 177.45H87.7068M160.398 177.45L138.329 190.879M233.089 177.45L252.103 164.725M233.089 177.45L213.025 190.879M233.089 177.45H305.78M181.313 164.725H252.103M181.313 164.725H110.523M181.313 164.725L201.162 152.647M252.103 164.725L270.148 152.647M252.103 164.725H322.892M237.971 130.251H303.61M237.971 130.251L255.069 119.848M237.971 130.251H172.332M237.971 130.251L220.025 141.171M303.61 130.251L319.153 119.848M303.61 130.251L287.294 141.171M303.61 130.251H369.249M255.069 119.848H319.153M255.069 119.848H190.984M255.069 119.848L271.375 109.926M319.153 119.848L333.977 109.926M319.153 119.848H383.238M301.824 91.399H361.658M301.824 91.399L316.061 82.7371M301.824 91.399H241.99M301.824 91.399L286.943 100.453M361.658 91.399L374.601 82.7371M361.658 91.399L348.131 100.453M361.658 91.399H421.492M316.061 82.7371H374.601M316.061 82.7371H257.521M316.061 82.7371L329.694 74.4415M374.601 82.7371L386.996 74.4415M374.601 82.7371H433.141M355.301 58.8612H410.273M355.301 58.8612L367.339 51.5365M355.301 58.8612H300.328M355.301 58.8612L342.763 66.4897M410.273 58.8612L411.666 57.9296L421.217 51.5365M410.273 58.8612L398.876 66.4897M410.273 58.8612H465.246M367.339 51.5365H421.217M367.339 51.5365H313.461M367.339 51.5365L378.908 44.4976M421.217 51.5365L431.735 44.4976M421.217 51.5365H475.096M400.74 31.2132H451.583M400.74 31.2132L411.054 24.9387M400.74 31.2132H349.899M400.74 31.2132L390.033 37.7278M451.583 31.2132L460.958 24.9387M451.583 31.2132L447.976 33.6277L441.848 37.7278M451.583 31.2132H502.424M411.054 24.9387H460.958M411.054 24.9387H361.15M411.054 24.9387L420.992 18.8912M460.958 24.9387L469.993 18.8912M460.958 24.9387H510.862M439.828 7.42979H487.117M439.828 7.42979L448.761 1.99435M439.828 7.42979H392.541M439.828 7.42979L430.578 13.0586M487.117 7.42979L493.234 3.33616L494.238 2.66339L495.238 1.99435M487.117 7.42979L478.707 13.0586M487.117 7.42979H534.405M448.761 1.99435H495.238M448.761 1.99435L457.393 -3.25699M448.761 1.99435H402.285M495.238 1.99435H541.714M495.238 1.99435L503.084 -3.25699M67.6906 544.104H195.164M67.6906 544.104L107.829 505.726M67.6906 544.104L23.5843 586.276M67.6906 544.104L0.516728 544.104M195.164 544.104L229.568 505.726M195.164 544.104L157.358 586.276M195.164 544.104H322.636M107.829 505.726H229.568M107.829 505.726L144.512 470.652M107.829 505.726H0.516728M229.568 505.726L261.01 470.652M229.568 505.726H351.307M209.154 408.845H316.419M209.154 408.845L237.779 381.475M209.154 408.845H101.891M209.154 408.845L178.167 438.473M316.419 408.845L340.953 381.475M316.419 408.845L289.858 438.473M316.419 408.845H423.682M237.779 381.475H340.953M237.779 381.475H134.605M237.779 381.475L264.302 356.117M340.953 381.475L363.687 356.117M340.953 381.475H444.128M311.902 310.604H404.487M311.902 310.604L333.34 290.106M311.902 310.604H219.316M311.902 310.604L288.944 332.554M404.487 310.604L422.863 290.106M404.487 310.604L384.81 332.554M404.487 310.604H497.072M333.34 290.106H422.863M333.34 290.106H243.817M333.34 290.106L353.406 270.92M422.863 290.106L440.062 270.92M422.863 290.106H512.386M389.913 236.013H471.354M389.913 236.013L406.568 220.09M389.913 236.013H308.473M389.913 236.013L372.226 252.926M471.354 236.013L485.629 220.09M471.354 236.013L456.193 252.926M471.354 236.013H552.795M406.568 220.09H485.629M406.568 220.09H327.506M406.568 220.09L422.277 205.069M485.629 220.09L499.094 205.069M485.629 220.09H564.691M451.162 177.45H523.854M451.162 177.45L464.472 164.725M451.162 177.45H378.471M451.162 177.45L437.118 190.879M523.854 177.45L535.262 164.725M523.854 177.45L511.815 190.879M523.854 177.45H596.545M464.472 164.725H535.262M464.472 164.725H393.682M464.472 164.725L477.103 152.647M535.262 164.725L546.088 152.647M535.262 164.725H606.052M500.527 130.251H566.166M500.527 130.251L511.408 119.848M500.527 130.251H434.888M500.527 130.251L489.107 141.171M566.166 130.251L575.492 119.848M566.166 130.251L556.376 141.171M566.166 130.251H631.805M511.408 119.848H575.492M511.408 119.848H447.322M511.408 119.848L521.784 109.926M575.492 119.848L584.386 109.926M575.492 119.848H639.577M541.161 91.399H600.995M541.161 91.399L550.221 82.7371M541.161 91.399H481.327M541.161 91.399L531.692 100.453M600.995 91.399L608.76 82.7371M600.995 91.399L592.879 100.453M600.995 91.399H660.829M550.221 82.7371H608.76M550.221 82.7371H491.68M550.221 82.7371L558.897 74.4415M608.76 82.7371L616.197 74.4415M608.76 82.7371H667.301M575.191 58.8612H630.165M575.191 58.8612L582.852 51.5365M575.191 58.8612H520.219M575.191 58.8612L567.213 66.4897M630.165 58.8612L629.324 59.7975L623.325 66.4897M630.165 58.8612L636.73 51.5365M630.165 58.8612H685.137M582.852 51.5365H636.73M582.852 51.5365H528.974M582.852 51.5365L590.214 44.4976M636.73 51.5365L643.041 44.4976M636.73 51.5365H690.609M604.108 31.2132H654.949M604.108 31.2132L610.67 24.9387M604.108 31.2132H553.266M604.108 31.2132L597.294 37.7278M654.949 31.2132L660.574 24.9387M654.949 31.2132L652.785 33.6277L651.325 35.2563L649.109 37.7278M654.949 31.2132H705.791M610.67 24.9387H660.574M610.67 24.9387H560.766M610.67 24.9387L616.995 18.8912M660.574 24.9387L662.631 22.6447L663.986 21.1328L665.996 18.8912M660.574 24.9387H710.478M628.982 7.42979H676.27M628.982 7.42979L633.264 3.33616L634.666 1.99435M628.982 7.42979H581.694M628.982 7.42979L623.842 12.3438L623.095 13.0586M676.27 7.42979L679.941 3.33616L680.543 2.66339L681.143 1.99435M676.27 7.42979L673.769 10.219L671.225 13.0586M676.27 7.42979H723.558M634.666 1.99435H681.143M634.666 1.99435L640.159 -3.25699M634.666 1.99435H588.19M681.143 1.99435H727.619M681.143 1.99435L685.851 -3.25699M577.582 544.104H705.054M577.582 544.104L594.784 505.726M577.582 544.104H450.11M577.582 544.104L558.679 586.276M705.054 544.104L716.523 505.726M705.054 544.104L692.453 586.276M705.054 544.104H832.528M594.784 505.726H716.523M594.784 505.726H473.045M594.784 505.726L610.505 470.652M716.523 505.726L727.004 470.652M716.523 505.726H838.262M638.209 408.845H745.473M638.209 408.845L650.477 381.475M638.209 408.845H530.945M638.209 408.845L624.928 438.473M745.473 408.845L753.651 381.475M745.473 408.845L736.619 438.473M745.473 408.845H852.737M650.477 381.475H753.651M650.477 381.475H547.302M650.477 381.475L661.844 356.117M753.651 381.475L761.229 356.117M753.651 381.475H856.826M682.244 310.604H774.829M682.244 310.604L691.432 290.106M682.244 310.604H589.658M682.244 310.604L672.405 332.554M774.829 310.604L780.954 290.106M774.829 310.604L768.27 332.554M774.829 310.604H867.415M691.432 290.106H780.954M691.432 290.106H601.909M691.432 290.106L700.031 270.92M780.954 290.106L786.687 270.92M780.954 290.106H870.477M715.678 236.013H797.118M715.678 236.013L722.815 220.09M715.678 236.013H634.236M715.678 236.013L708.097 252.926M797.118 236.013L801.876 220.09M797.118 236.013L792.064 252.926M797.118 236.013H878.559M722.815 220.09H801.876M722.815 220.09H643.753M722.815 220.09L729.547 205.069M801.876 220.09L806.365 205.069M801.876 220.09H880.939M741.927 177.45H814.618M741.927 177.45L747.63 164.725M741.927 177.45H669.236M741.927 177.45L735.908 190.879M814.618 177.45L818.42 164.725M814.618 177.45L810.606 190.879M814.618 177.45H887.309M747.63 164.725H818.42M747.63 164.725H676.842M747.63 164.725L753.044 152.647M818.42 164.725L822.029 152.647M818.42 164.725H889.21M763.083 130.251H828.722M763.083 130.251L767.746 119.848M763.083 130.251H697.444M763.083 130.251L758.189 141.171M828.722 130.251L831.831 119.848M828.722 130.251L825.458 141.171M828.722 130.251H894.361M767.746 119.848H831.831M767.746 119.848H703.661M767.746 119.848L769.439 116.073L772.193 109.926M831.831 119.848L834.796 109.926M831.831 119.848H895.916M780.498 91.399H840.332M780.498 91.399L784.381 82.7371M780.498 91.399H720.663M780.498 91.399L777.471 98.152L776.439 100.453M840.332 91.399L841.316 88.1062L842.92 82.7371M840.332 91.399L837.626 100.453M840.332 91.399H900.166M784.381 82.7371L784.853 81.6803L788.099 74.4415M784.381 82.7371H842.92M784.381 82.7371H725.84M842.92 82.7371L843.863 79.5844L844.172 78.5445L844.482 77.511L845.399 74.4415M842.92 82.7371H901.461M795.082 58.8612H850.054M795.082 58.8612L796.74 55.1619L797.15 54.249L797.557 53.3398L797.962 52.4363L798.365 51.5365M795.082 58.8612H740.109M795.082 58.8612L791.663 66.4897M850.054 58.8612L851.704 53.3398L851.975 52.4363L852.243 51.5365M850.054 58.8612L847.776 66.4897M850.054 58.8612H905.028M798.365 51.5365H852.243M798.365 51.5365H744.487M798.365 51.5365L800.352 47.1046L800.743 46.2309L801.52 44.4976M852.243 51.5365L853.567 47.1046L853.829 46.2309L854.088 45.3619L854.347 44.4976M852.243 51.5365H906.122M807.475 31.2132H858.317M807.475 31.2132L810.288 24.9387M807.475 31.2132H756.633M807.475 31.2132L806.755 32.8185L805.662 35.2563L804.555 37.7278M858.317 31.2132L858.077 32.014L856.617 36.9L856.37 37.7278M858.317 31.2132L860.192 24.9387M858.317 31.2132H909.158M810.288 24.9387H860.192M810.288 24.9387H760.384M810.288 24.9387L812.998 18.8912M860.192 24.9387L860.877 22.6447L861.103 21.8869L861.329 21.1328L861.999 18.8912M860.192 24.9387H910.096M818.135 7.42979H865.423M818.135 7.42979L819.97 3.33616L820.571 1.99435M818.135 7.42979H770.847M818.135 7.42979L817.199 9.51723L816.885 10.219L816.568 10.9245L815.612 13.0586M865.423 7.42979L865.63 6.7402L866.039 5.36942L866.445 4.01081L867.047 1.99435M865.423 7.42979L864.589 10.219L864.38 10.9245L863.955 12.3438L863.742 13.0586M865.423 7.42979H912.711M820.571 1.99435H867.047M820.571 1.99435L822.635 -2.61037L822.926 -3.25699M820.571 1.99435H774.095M867.047 1.99435L867.247 1.32814L867.445 0.664691L867.643 0.00406733L867.839 -0.653734L868.423 -2.61037L868.617 -3.25699M867.047 1.99435H913.524M1087.47 544.104H1214.95M1087.47 544.104L1081.74 505.726M1087.47 544.104H960M1087.47 544.104L1093.77 586.276M1214.95 544.104L1203.48 505.726M1214.95 544.104L1227.55 586.276M1214.95 544.104H1342.42M1081.74 505.726H1203.48M1081.74 505.726H960M1081.74 505.726L1076.5 470.652M1203.48 505.726L1193 470.652M1203.48 505.726H1325.22M1067.26 408.845H1174.53M1067.26 408.845L1063.17 381.475M1067.26 408.845H960M1067.26 408.845L1071.69 438.473M1174.53 408.845L1166.35 381.475M1174.53 408.845L1183.38 438.473M1174.53 408.845H1281.79M1063.17 381.475H1166.35M1063.17 381.475H960M1063.17 381.475L1059.39 356.117M1166.35 381.475L1158.77 356.117M1166.35 381.475H1269.52M1052.59 310.604H1145.17M1052.59 310.604L1049.52 290.106M1052.59 310.604H960M1052.59 310.604L1055.87 332.554M1145.17 310.604L1139.05 290.106M1145.17 310.604L1151.73 332.554M1145.17 310.604H1237.76M1049.52 290.106H1139.05M1049.52 290.106H960M1049.52 290.106L1046.66 270.92M1139.05 290.106L1133.31 270.92M1139.05 290.106H1228.57M1041.44 236.013H1122.88M1041.44 236.013L1039.06 220.09M1041.44 236.013H960M1041.44 236.013L1043.97 252.926M1122.88 236.013L1118.12 220.09M1122.88 236.013L1127.94 252.926M1122.88 236.013H1204.32M1039.06 220.09H1118.12M1039.06 220.09H960M1039.06 220.09L1036.82 205.069M1118.12 220.09L1113.64 205.069M1118.12 220.09H1197.19M1032.69 177.45H1105.38M1032.69 177.45L1030.79 164.725M1032.69 177.45H960M1032.69 177.45L1034.7 190.879M1105.38 177.45L1101.58 164.725M1105.38 177.45L1109.39 190.879M1105.38 177.45H1178.07M1030.79 164.725H1101.58M1030.79 164.725H960M1030.79 164.725L1028.98 152.647M1101.58 164.725L1097.97 152.647M1101.58 164.725H1172.37M1025.64 130.251H1091.28M1025.64 130.251L1024.08 119.848M1025.64 130.251H960M1025.64 130.251L1027.27 141.171M1091.28 130.251L1088.17 119.848M1091.28 130.251L1094.54 141.171M1091.28 130.251H1156.92M1024.08 119.848H1088.17M1024.08 119.848H960M1024.08 119.848L1022.6 109.926M1088.17 119.848L1085.2 109.926M1088.17 119.848H1152.25M1019.83 91.399H1079.67M1019.83 91.399L1018.54 82.7371M1019.83 91.399H960M1019.83 91.399L1021.19 100.453M1079.67 91.399L1077.4 83.7995L1077.08 82.7371M1079.67 91.399L1082.37 100.453M1079.67 91.399H1139.5M1018.54 82.7371L1018.38 81.6803L1017.3 74.4415M1018.54 82.7371H1077.08M1018.54 82.7371H960M1077.08 82.7371L1076.14 79.5844L1075.83 78.5445L1075.52 77.511L1074.6 74.4415M1077.08 82.7371H1135.62M1014.97 58.8612H1069.95M1014.97 58.8612L1013.88 51.5365M1014.97 58.8612H960M1014.97 58.8612L1015.39 61.685L1015.54 62.6362L1015.68 63.5921L1015.97 65.5189L1016.11 66.4897M1069.95 58.8612L1068.3 53.3398L1067.76 51.5365M1069.95 58.8612L1072.22 66.4897M1069.95 58.8612H1124.92M1013.88 51.5365H1067.76M1013.88 51.5365H960M1013.88 51.5365L1012.83 44.4976M1067.76 51.5365L1066.43 47.1046L1066.17 46.2309L1065.91 45.3619L1065.65 44.4976M1067.76 51.5365H1121.63M1010.84 31.2132H1061.68M1010.84 31.2132L1009.9 24.9387M1010.84 31.2132H960M1010.84 31.2132L1011.82 37.7278M1061.68 31.2132L1061.92 32.014L1063.38 36.9L1063.63 37.7278M1061.68 31.2132L1059.81 24.9387M1061.68 31.2132H1112.52M1009.9 24.9387H1059.81M1009.9 24.9387H960M1009.9 24.9387L1009 18.8912M1059.81 24.9387L1059.12 22.6447L1058.9 21.8869L1058.67 21.1328L1058 18.8912M1059.81 24.9387H1109.71M1007.29 7.42979H1054.58M1007.29 7.42979L1006.48 1.99435M1007.29 7.42979H960M1007.29 7.42979L1008.13 13.0586M1054.58 7.42979L1054.37 6.7402L1053.96 5.36942L1053.76 4.68823L1053.35 3.33616L1053.15 2.66339L1052.95 1.99435M1054.58 7.42979L1055.41 10.219L1055.62 10.9245L1056.05 12.3438L1056.26 13.0586M1054.58 7.42979H1101.86M1006.48 1.99435L1006.38 1.32814L1006.28 0.664691L1006.18 0.00406733L1005.69 -3.25699M1006.48 1.99435H1052.95M1006.48 1.99435H960M1052.95 1.99435H1099.43M1052.95 1.99435L1052.56 0.664691L1052.36 0.00406733L1052.16 -0.653734L1051.58 -2.61037L1051.38 -3.25699M1597.36 544.104H1724.84M1597.36 544.104L1568.69 505.726M1597.36 544.104H1469.89M1597.36 544.104L1628.87 586.276M1724.84 544.104L1690.43 505.726M1724.84 544.104L1762.64 586.276M1724.84 544.104H1852.31M1568.69 505.726H1690.43M1568.69 505.726H1446.95M1568.69 505.726L1542.49 470.652M1690.43 505.726L1658.99 470.652M1690.43 505.726H1812.17M1496.32 408.845H1603.58M1496.32 408.845L1475.87 381.475M1496.32 408.845H1389.05M1496.32 408.845L1518.45 438.473M1603.58 408.845L1579.05 381.475M1603.58 408.845L1630.14 438.473M1603.58 408.845H1710.85M1475.87 381.475H1579.05M1475.87 381.475H1372.7M1475.87 381.475L1456.93 356.117M1579.05 381.475L1556.31 356.117M1579.05 381.475H1682.22M1422.93 310.604H1515.51M1422.93 310.604L1407.61 290.106M1422.93 310.604H1330.34M1422.93 310.604L1439.33 332.554M1515.51 310.604L1497.14 290.106M1515.51 310.604L1535.19 332.554M1515.51 310.604H1608.1M1407.61 290.106H1497.14M1407.61 290.106H1318.09M1407.61 290.106L1393.28 270.92M1497.14 290.106L1479.94 270.92M1497.14 290.106H1586.66M1367.2 236.013H1448.65M1367.2 236.013L1355.31 220.09M1367.2 236.013H1285.76M1367.2 236.013L1379.84 252.926M1448.65 236.013L1434.37 220.09M1448.65 236.013L1463.81 252.926M1448.65 236.013H1530.09M1355.31 220.09H1434.37M1355.31 220.09H1276.25M1355.31 220.09L1344.09 205.069M1434.37 220.09L1420.91 205.069M1434.37 220.09H1513.43M1323.46 177.45H1396.15M1323.46 177.45L1313.95 164.725M1323.46 177.45H1250.76M1323.46 177.45L1333.49 190.879M1396.15 177.45L1384.74 164.725M1396.15 177.45L1408.18 190.879M1396.15 177.45H1468.84M1313.95 164.725H1384.74M1313.95 164.725H1243.16M1313.95 164.725L1304.93 152.647M1384.74 164.725L1373.91 152.647M1384.74 164.725H1455.53M1288.2 130.251H1353.83M1288.2 130.251L1280.42 119.848M1288.2 130.251H1222.56M1288.2 130.251L1296.35 141.171M1353.83 130.251L1344.51 119.848M1353.83 130.251L1363.62 141.171M1353.83 130.251H1419.47M1280.42 119.848H1344.51M1280.42 119.848H1216.34M1280.42 119.848L1273.01 109.926M1344.51 119.848L1335.61 109.926M1344.51 119.848H1408.59M1259.17 91.399L1260 92.5091L1260.83 93.6248L1265.93 100.453M1259.17 91.399H1319M1259.17 91.399L1252.7 82.7371M1259.17 91.399H1199.34M1319 91.399L1311.24 82.7371M1319 91.399L1327.12 100.453M1319 91.399H1378.84M1252.7 82.7371H1311.24M1252.7 82.7371H1194.16M1252.7 82.7371L1246.5 74.4415M1311.24 82.7371L1303.8 74.4415M1311.24 82.7371H1369.78M1234.86 58.8612H1289.84M1234.86 58.8612L1229.39 51.5365M1234.86 58.8612H1179.89M1234.86 58.8612L1240.56 66.4897M1289.84 58.8612L1285.7 54.249L1283.27 51.5365M1289.84 58.8612L1296.67 66.4897M1289.84 58.8612H1344.81M1229.39 51.5365H1283.27M1229.39 51.5365H1175.51M1229.39 51.5365L1224.78 45.3619L1224.13 44.4976M1283.27 51.5365L1276.96 44.4976M1283.27 51.5365H1337.15M1214.21 31.2132H1265.05M1214.21 31.2132L1213.02 29.6219L1209.52 24.9387M1214.21 31.2132H1163.37M1214.21 31.2132L1215.41 32.8185L1217.84 36.0758L1219.08 37.7278M1265.05 31.2132L1259.43 24.9387M1265.05 31.2132L1267.21 33.6277L1268.67 35.2563L1270.89 37.7278M1265.05 31.2132H1315.89M1209.52 24.9387H1259.43M1209.52 24.9387H1159.62M1209.52 24.9387L1206.12 20.3816L1205 18.8912M1259.43 24.9387L1257.37 22.6447L1256.01 21.1328L1254 18.8912M1259.43 24.9387H1309.33M1196.44 7.42979H1243.73M1196.44 7.42979L1193.89 4.01081L1192.38 1.99435M1196.44 7.42979H1149.15M1196.44 7.42979L1200.65 13.0586M1243.73 7.42979L1240.06 3.33616L1239.46 2.66339L1238.86 1.99435M1243.73 7.42979L1246.23 10.219L1248.78 13.0586M1243.73 7.42979H1291.02M1192.38 1.99435H1238.86M1192.38 1.99435L1190.4 -0.653734L1189.43 -1.96098L1188.94 -2.61037L1188.46 -3.25699M1192.38 1.99435H1145.9M1238.86 1.99435H1285.33M1238.86 1.99435L1234.15 -3.25699M1888.57 381.475H1785.4M1888.57 381.475L1854.47 356.117M1888.57 381.475H1919.48M1888.57 381.475L1919.48 404.465M1793.27 310.604H1885.85M1793.27 310.604L1765.71 290.106M1793.27 310.604H1700.68M1793.27 310.604L1822.79 332.554M1885.85 310.604L1855.23 290.106M1885.85 310.604L1918.65 332.554M1885.85 310.604H1919.48M1765.71 290.106H1855.23M1765.71 290.106H1676.18M1765.71 290.106L1739.91 270.92M1855.23 290.106L1826.56 270.92M1855.23 290.106H1919.48M1692.97 236.013H1774.41M1692.97 236.013L1671.56 220.09M1692.97 236.013H1611.53M1692.97 236.013L1715.71 252.926M1774.41 236.013L1750.62 220.09M1774.41 236.013L1799.68 252.926M1774.41 236.013H1855.85M1671.56 220.09H1750.62M1671.56 220.09H1592.49M1671.56 220.09L1651.36 205.069M1750.62 220.09L1728.18 205.069M1750.62 220.09H1829.68M1614.22 177.45H1686.91M1614.22 177.45L1597.11 164.725M1614.22 177.45H1541.53M1614.22 177.45L1632.28 190.879M1686.91 177.45L1667.9 164.725M1686.91 177.45L1706.97 190.879M1686.91 177.45H1759.6M1597.11 164.725H1667.9M1597.11 164.725H1526.32M1597.11 164.725L1580.87 152.647M1667.9 164.725L1649.85 152.647M1667.9 164.725H1738.69M1550.75 130.251H1616.39M1550.75 130.251L1536.76 119.848M1550.75 130.251H1485.11M1550.75 130.251L1565.43 141.171M1616.39 130.251L1600.85 119.848M1616.39 130.251L1632.71 141.171M1616.39 130.251H1682.03M1536.76 119.848H1600.85M1536.76 119.848H1472.68M1536.76 119.848L1523.42 109.926M1600.85 119.848L1586.02 109.926M1600.85 119.848H1664.93M1498.51 91.399H1558.34M1498.51 91.399L1486.86 82.7371M1498.51 91.399H1438.67M1498.51 91.399L1510.68 100.453M1558.34 91.399L1545.4 82.7371M1558.34 91.399L1571.87 100.453M1558.34 91.399H1618.18M1486.86 82.7371H1545.4M1486.86 82.7371H1428.32M1486.86 82.7371L1475.7 74.4415M1545.4 82.7371L1533 74.4415M1545.4 82.7371H1603.94M1454.75 58.8612H1509.73M1454.75 58.8612L1444.9 51.5365M1454.75 58.8612H1399.78M1454.75 58.8612L1465.01 66.4897M1509.73 58.8612L1498.78 51.5365M1509.73 58.8612L1521.12 66.4897M1509.73 58.8612H1564.7M1444.9 51.5365H1498.78M1444.9 51.5365H1391.03M1444.9 51.5365L1435.44 44.4976M1498.78 51.5365L1488.27 44.4976M1498.78 51.5365H1552.66M1417.58 31.2132H1468.42M1417.58 31.2132L1409.14 24.9387M1417.58 31.2132H1366.73M1417.58 31.2132L1419.74 32.8185L1420.82 33.6277L1426.34 37.7278M1468.42 31.2132L1459.04 24.9387M1468.42 31.2132L1478.15 37.7278M1468.42 31.2132H1519.26M1409.14 24.9387H1459.04M1409.14 24.9387H1359.23M1409.14 24.9387L1401.01 18.8912M1459.04 24.9387L1450.01 18.8912M1459.04 24.9387H1508.95M1385.59 7.42979H1432.88M1385.59 7.42979L1378.29 1.99435M1385.59 7.42979H1338.31M1385.59 7.42979L1393.16 13.0586M1432.88 7.42979L1426.77 3.33616L1425.76 2.66339L1424.76 1.99435M1432.88 7.42979L1441.29 13.0586M1432.88 7.42979H1480.17M1378.29 1.99435H1424.76M1378.29 1.99435L1372.09 -2.61037L1371.22 -3.25699M1378.29 1.99435H1331.81M1424.76 1.99435H1471.24M1424.76 1.99435L1416.92 -3.25699M1904.98 177.45L1880.27 164.725M1904.98 177.45H1832.29M1904.98 177.45L1919.48 184.915M1904.98 177.45H1919.48M1880.27 164.725H1809.48M1880.27 164.725L1856.81 152.647M1880.27 164.725H1919.48M1813.31 130.251H1878.95M1813.31 130.251L1793.1 119.848M1813.31 130.251H1747.67M1813.31 130.251L1834.52 141.171M1878.95 130.251L1857.19 119.848M1878.95 130.251L1901.79 141.171M1878.95 130.251H1919.48M1793.1 119.848H1857.19M1793.1 119.848H1729.02M1793.1 119.848L1773.83 109.926M1857.19 119.848L1836.43 109.926M1857.19 119.848H1919.48M1737.84 91.399H1797.68M1737.84 91.399L1721.02 82.7371M1737.84 91.399H1678.01M1737.84 91.399L1755.43 100.453M1797.68 91.399L1779.56 82.7371M1797.68 91.399L1816.62 100.453M1797.68 91.399H1857.51M1721.02 82.7371H1779.56M1721.02 82.7371H1662.48M1721.02 82.7371L1704.91 74.4415M1779.56 82.7371L1762.21 74.4415M1779.56 82.7371H1838.1M1674.64 58.8612H1729.62M1674.64 58.8612L1660.42 51.5365M1674.64 58.8612H1619.67M1674.64 58.8612L1689.46 66.4897M1729.62 58.8612L1714.3 51.5365M1729.62 58.8612L1745.57 66.4897M1729.62 58.8612H1784.59M1660.42 51.5365H1714.3M1660.42 51.5365H1606.54M1660.42 51.5365L1646.75 44.4976M1714.3 51.5365L1699.57 44.4976M1714.3 51.5365H1768.17M1620.94 31.2132H1671.78M1620.94 31.2132L1608.76 24.9387M1620.94 31.2132H1570.1M1620.94 31.2132L1633.6 37.7278M1671.78 31.2132L1658.66 24.9387M1671.78 31.2132L1685.41 37.7278M1671.78 31.2132H1722.63M1608.76 24.9387H1658.66M1608.76 24.9387H1558.85M1608.76 24.9387L1597.01 18.8912M1658.66 24.9387L1646.01 18.8912M1658.66 24.9387H1708.56M1574.75 7.42979H1622.04M1574.75 7.42979L1564.19 1.99435M1574.75 7.42979H1527.46M1574.75 7.42979L1585.68 13.0586M1622.04 7.42979L1610.67 1.99435M1622.04 7.42979L1633.81 13.0586M1622.04 7.42979H1669.33M1564.19 1.99435H1610.67M1564.19 1.99435L1553.99 -3.25699M1564.19 1.99435H1517.71M1610.67 1.99435H1657.14M1610.67 1.99435L1599.68 -3.25699M1894.53 58.8612L1875.93 51.5365M1894.53 58.8612H1839.56M1894.53 58.8612L1913.91 66.4897M1894.53 58.8612H1919.48M1875.93 51.5365H1822.05M1875.93 51.5365L1858.05 44.4976M1875.93 51.5365H1919.48M1824.31 31.2132H1875.15M1824.31 31.2132L1808.37 24.9387M1824.31 31.2132H1773.47M1824.31 31.2132L1840.86 37.7278M1875.15 31.2132L1858.28 24.9387M1875.15 31.2132L1892.67 37.7278M1875.15 31.2132H1919.48M1808.37 24.9387H1858.28M1808.37 24.9387H1758.47M1808.37 24.9387L1793.01 18.8912M1858.28 24.9387L1842.01 18.8912M1858.28 24.9387H1908.18M1763.9 7.42979H1811.19M1763.9 7.42979L1750.1 1.99435M1763.9 7.42979H1716.61M1763.9 7.42979L1778.2 13.0586M1811.19 7.42979L1796.57 1.99435M1811.19 7.42979L1826.33 13.0586M1811.19 7.42979H1858.48M1750.1 1.99435H1796.57M1750.1 1.99435L1736.76 -3.25699M1750.1 1.99435H1703.62M1796.57 1.99435H1843.05M1796.57 1.99435L1782.45 -3.25699M1826.33 13.0586L1842.01 18.8912M1826.33 13.0586H1874.46M1826.33 13.0586H1778.2M1858.48 7.42979L1843.05 1.99435M1858.48 7.42979L1874.46 13.0586M1858.48 7.42979H1905.77M1843.05 1.99435H1889.52M1843.05 1.99435L1828.14 -3.25699M1782.45 -3.25699H1736.76M1782.45 -3.25699H1828.14M1782.45 -3.25699L1768.79 -8.33453M1874.46 13.0586L1891.01 18.8912M1874.46 13.0586H1919.48M1905.77 7.42979L1889.52 1.99435M1905.77 7.42979L1919.48 12.0201M1905.77 7.42979H1919.48M1889.52 1.99435L1873.83 -3.25699M1889.52 1.99435H1919.48M1828.14 -3.25699H1873.83M1828.14 -3.25699L1813.73 -8.33453M1873.83 -3.25699L1858.66 -8.33453M1873.83 -3.25699H1919.48M1842.01 18.8912H1891.01M1842.01 18.8912H1793.01M1908.18 24.9387L1891.01 18.8912M1908.18 24.9387L1919.48 28.9193M1908.18 24.9387H1919.48M1891.01 18.8912H1919.48M1793.01 18.8912H1744.01M1793.01 18.8912L1778.2 13.0586M1778.2 13.0586H1730.07M1892.67 37.7278L1910.88 44.4976M1892.67 37.7278H1840.86M1892.67 37.7278H1919.48M1919.64 31.2132H1919.48M1910.88 44.4976H1858.05M1910.88 44.4976L1919.48 47.697M1910.88 44.4976H1919.48M1858.05 44.4976H1805.22M1858.05 44.4976L1840.86 37.7278M1840.86 37.7278H1789.04M1633.81 13.0586L1646.01 18.8912M1633.81 13.0586H1681.94M1633.81 13.0586H1585.68M1669.33 7.42979L1657.14 1.99435M1669.33 7.42979L1681.94 13.0586M1669.33 7.42979H1716.61M1657.14 1.99435H1703.62M1657.14 1.99435L1645.37 -3.25699M1599.68 -3.25699H1645.37M1599.68 -3.25699L1589.06 -8.33453M1599.68 -3.25699H1553.99M1681.94 13.0586L1695.01 18.8912M1681.94 13.0586H1730.07M1716.61 7.42979L1703.62 1.99435M1716.61 7.42979L1730.07 13.0586M1703.62 1.99435L1691.07 -3.25699M1645.37 -3.25699H1691.07M1645.37 -3.25699L1633.99 -8.33453M1730.07 13.0586L1744.01 18.8912M1736.76 -3.25699H1691.07M1736.76 -3.25699L1723.86 -8.33453M1691.07 -3.25699L1678.93 -8.33453M1646.01 18.8912H1695.01M1646.01 18.8912H1597.01M1708.56 24.9387L1695.01 18.8912M1708.56 24.9387L1722.63 31.2132M1708.56 24.9387H1758.47M1695.01 18.8912H1744.01M1597.01 18.8912H1548.01M1597.01 18.8912L1585.68 13.0586M1744.01 18.8912L1758.47 24.9387M1585.68 13.0586H1537.55M1722.63 31.2132L1737.23 37.7278M1722.63 31.2132H1773.47M1758.47 24.9387L1773.47 31.2132M1773.47 31.2132L1789.04 37.7278M1685.41 37.7278L1699.57 44.4976M1685.41 37.7278H1737.23M1685.41 37.7278H1633.6M1737.23 37.7278L1752.4 44.4976M1737.23 37.7278H1789.04M1789.04 37.7278L1805.22 44.4976M1699.57 44.4976H1752.4M1699.57 44.4976H1646.75M1768.17 51.5365L1752.4 44.4976M1768.17 51.5365L1784.59 58.8612M1768.17 51.5365H1822.05M1752.4 44.4976H1805.22M1646.75 44.4976H1593.92M1646.75 44.4976L1633.6 37.7278M1805.22 44.4976L1822.05 51.5365M1633.6 37.7278H1581.78M1784.59 58.8612L1801.69 66.4897M1784.59 58.8612H1839.56M1822.05 51.5365L1839.56 58.8612M1839.56 58.8612L1857.8 66.4897M1745.57 66.4897L1762.21 74.4415M1745.57 66.4897H1801.69M1745.57 66.4897H1689.46M1801.69 66.4897L1819.51 74.4415M1801.69 66.4897H1857.8M1857.8 66.4897L1876.81 74.4415M1857.8 66.4897H1913.91M1913.91 66.4897H1919.48M1913.91 66.4897L1919.48 68.683M1762.21 74.4415H1819.51M1762.21 74.4415H1704.91M1838.1 82.7371L1819.51 74.4415M1838.1 82.7371L1857.51 91.399M1838.1 82.7371H1896.64M1819.51 74.4415H1876.81M1704.91 74.4415H1647.61M1704.91 74.4415L1689.46 66.4897M1876.81 74.4415L1896.64 82.7371M1876.81 74.4415H1919.48M1689.46 66.4897H1633.35M1857.51 91.399L1877.8 100.453M1857.51 91.399H1917.35M1896.64 82.7371L1917.35 91.399M1896.64 82.7371H1919.48M1919.78 74.4415H1919.48M1917.35 91.399L1919.48 92.293M1917.35 91.399H1919.48M1816.62 100.453L1836.43 109.926M1816.62 100.453H1877.8M1816.62 100.453H1755.43M1877.8 100.453L1899.03 109.926M1877.8 100.453H1919.48M1920 92.5091L1919.48 92.293M1836.43 109.926H1899.03M1836.43 109.926H1773.83M1899.03 109.926H1919.48M1899.03 109.926L1919.48 119.051M1773.83 109.926H1711.23M1773.83 109.926L1755.43 100.453M1755.43 100.453H1694.24M1901.79 141.171H1834.52M1901.79 141.171L1919.48 149.63M1901.79 141.171H1919.48M1919.97 130.251H1919.48M1834.52 141.171H1767.25M1834.52 141.171L1856.81 152.647M1919.68 149.724L1919.48 149.63M1441.29 13.0586L1450.01 18.8912M1441.29 13.0586H1489.42M1441.29 13.0586H1393.16M1480.17 7.42979L1471.24 1.99435M1480.17 7.42979L1489.42 13.0586M1480.17 7.42979H1527.46M1471.24 1.99435H1517.71M1471.24 1.99435L1462.61 -3.25699M1416.92 -3.25699H1462.61M1416.92 -3.25699L1414.04 -5.18092L1409.33 -8.33453M1416.92 -3.25699H1371.22M1489.42 13.0586L1499.01 18.8912M1489.42 13.0586H1537.55M1527.46 7.42979L1517.71 1.99435M1527.46 7.42979L1537.55 13.0586M1517.71 1.99435L1508.3 -3.25699M1462.61 -3.25699H1508.3M1462.61 -3.25699L1454.26 -8.33453M1537.55 13.0586L1548.01 18.8912M1553.99 -3.25699L1544.13 -8.33453M1553.99 -3.25699H1508.3M1508.3 -3.25699L1507.14 -3.90173L1504.85 -5.18092L1499.2 -8.33453M1450.01 18.8912H1499.01M1450.01 18.8912H1401.01M1508.95 24.9387L1499.01 18.8912M1508.95 24.9387L1519.26 31.2132M1508.95 24.9387H1558.85M1499.01 18.8912H1548.01M1401.01 18.8912H1352.01M1401.01 18.8912L1393.16 13.0586M1548.01 18.8912L1558.85 24.9387M1393.16 13.0586H1345.03M1519.26 31.2132L1529.97 37.7278M1519.26 31.2132H1570.1M1558.85 24.9387L1560.23 25.7095L1570.1 31.2132M1570.1 31.2132L1581.78 37.7278M1478.15 37.7278L1479.39 38.5604L1488.27 44.4976M1478.15 37.7278H1529.97M1478.15 37.7278H1426.34M1529.97 37.7278L1541.09 44.4976M1529.97 37.7278H1581.78M1581.78 37.7278L1593.92 44.4976M1488.27 44.4976H1541.09M1488.27 44.4976H1435.44M1552.66 51.5365L1541.09 44.4976M1552.66 51.5365L1564.7 58.8612M1552.66 51.5365H1606.54M1541.09 44.4976H1593.92M1435.44 44.4976H1382.61M1435.44 44.4976L1426.34 37.7278M1593.92 44.4976L1606.54 51.5365M1426.34 37.7278H1374.52M1564.7 58.8612L1577.24 66.4897M1564.7 58.8612H1619.67M1606.54 51.5365L1619.67 58.8612M1619.67 58.8612L1633.35 66.4897M1521.12 66.4897L1533 74.4415M1521.12 66.4897H1577.24M1521.12 66.4897H1465.01M1577.24 66.4897L1590.31 74.4415M1577.24 66.4897H1633.35M1633.35 66.4897L1647.61 74.4415M1533 74.4415H1590.31M1533 74.4415H1475.7M1603.94 82.7371L1590.31 74.4415M1603.94 82.7371L1618.18 91.399M1603.94 82.7371H1662.48M1590.31 74.4415H1647.61M1475.7 74.4415H1418.4M1475.7 74.4415L1465.01 66.4897M1647.61 74.4415L1662.48 82.7371M1465.01 66.4897H1408.9M1618.18 91.399L1633.06 100.453M1618.18 91.399H1678.01M1662.48 82.7371L1678.01 91.399M1678.01 91.399L1694.24 100.453M1571.87 100.453L1586.02 109.926M1571.87 100.453H1633.06M1571.87 100.453H1510.68M1633.06 100.453L1648.63 109.926M1633.06 100.453H1694.24M1694.24 100.453L1711.23 109.926M1586.02 109.926H1648.63M1586.02 109.926H1523.42M1664.93 119.848L1648.63 109.926M1664.93 119.848L1682.03 130.251M1664.93 119.848H1729.02M1648.63 109.926H1711.23M1523.42 109.926H1460.82M1523.42 109.926L1510.68 100.453M1711.23 109.926L1729.02 119.848M1510.68 100.453H1449.5M1682.03 130.251L1699.98 141.171M1682.03 130.251H1747.67M1729.02 119.848L1747.67 130.251M1747.67 130.251L1767.25 141.171M1632.71 141.171L1649.85 152.647M1632.71 141.171H1699.98M1632.71 141.171H1565.43M1699.98 141.171L1718.84 152.647M1699.98 141.171H1767.25M1767.25 141.171L1787.82 152.647M1649.85 152.647H1718.84M1649.85 152.647H1580.87M1738.69 164.725L1718.84 152.647M1738.69 164.725L1759.6 177.45M1738.69 164.725H1809.48M1718.84 152.647H1787.82M1580.87 152.647H1511.88M1580.87 152.647L1565.43 141.171M1787.82 152.647L1809.48 164.725M1787.82 152.647H1856.81M1565.43 141.171H1498.16M1759.6 177.45L1781.67 190.879M1759.6 177.45H1832.29M1809.48 164.725L1832.29 177.45M1856.81 152.647H1919.48M1832.29 177.45L1856.37 190.879M1706.97 190.879L1728.18 205.069M1706.97 190.879H1781.67M1706.97 190.879H1632.28M1781.67 190.879L1804.99 205.069M1781.67 190.879H1856.37M1856.37 190.879L1881.81 205.069M1856.37 190.879H1919.48M1728.18 205.069H1804.99M1728.18 205.069H1651.36M1829.68 220.09L1804.99 205.069M1829.68 220.09L1855.85 236.013M1829.68 220.09H1908.74M1804.99 205.069H1881.81M1651.36 205.069H1574.54M1651.36 205.069L1632.28 190.879M1881.81 205.069L1908.74 220.09M1881.81 205.069H1919.48M1632.28 190.879H1557.58M1855.85 236.013L1883.65 252.926M1855.85 236.013H1919.48M1908.74 220.09H1919.48M1908.74 220.09L1919.48 226.081M1799.68 252.926L1826.56 270.92M1799.68 252.926H1883.65M1799.68 252.926H1715.71M1883.65 252.926L1913.22 270.92M1883.65 252.926H1919.48M1826.56 270.92H1913.22M1826.56 270.92H1739.91M1913.22 270.92L1919.48 274.731M1913.22 270.92H1919.48M1739.91 270.92H1653.25M1739.91 270.92L1715.71 252.926M1715.71 252.926H1631.74M1918.65 332.554H1822.79M1918.65 332.554H1919.48M1918.65 332.554L1919.48 333.111M1822.79 332.554H1726.92M1822.79 332.554L1854.47 356.117M1248.78 13.0586L1250.71 15.2208L1251.37 15.9488L1254 18.8912M1248.78 13.0586H1296.9M1248.78 13.0586H1200.65M1291.02 7.42979L1286.74 3.33616L1285.33 1.99435M1291.02 7.42979L1296.16 12.3438L1296.9 13.0586M1291.02 7.42979H1338.31M1285.33 1.99435H1331.81M1285.33 1.99435L1279.84 -3.25699M1234.15 -3.25699H1279.84M1234.15 -3.25699L1232.42 -5.18092L1229.6 -8.33453M1234.15 -3.25699H1188.46M1296.9 13.0586L1298.41 14.4967L1303.01 18.8912M1296.9 13.0586H1345.03M1338.31 7.42979L1331.81 1.99435M1338.31 7.42979L1345.03 13.0586M1331.81 1.99435L1327.08 -1.96098L1325.53 -3.25699M1279.84 -3.25699H1325.53M1279.84 -3.25699L1274.53 -8.33453M1345.03 13.0586L1352.01 18.8912M1371.22 -3.25699L1370.36 -3.90173L1364.4 -8.33453M1371.22 -3.25699H1325.53M1325.53 -3.25699L1323.23 -5.18092L1319.46 -8.33453M1254 18.8912H1303.01M1254 18.8912H1205M1309.33 24.9387L1303.01 18.8912M1309.33 24.9387L1315.89 31.2132M1309.33 24.9387H1359.23M1303.01 18.8912H1352.01M1205 18.8912H1156M1205 18.8912L1200.65 13.0586M1352.01 18.8912L1359.23 24.9387M1200.65 13.0586H1152.52M1315.89 31.2132L1320.12 35.2563L1320.98 36.0758L1322.71 37.7278M1315.89 31.2132H1366.73M1359.23 24.9387L1366.73 31.2132M1366.73 31.2132L1374.52 37.7278M1270.89 37.7278L1276.96 44.4976M1270.89 37.7278H1322.71M1270.89 37.7278H1219.08M1322.71 37.7278L1329.79 44.4976M1322.71 37.7278H1374.52M1374.52 37.7278L1382.61 44.4976M1276.96 44.4976H1329.79M1276.96 44.4976H1224.13M1337.15 51.5365L1332.51 47.1046L1331.6 46.2309L1329.79 44.4976M1337.15 51.5365L1344.81 58.8612M1337.15 51.5365H1391.03M1329.79 44.4976H1382.61M1224.13 44.4976H1171.31M1224.13 44.4976L1219.08 37.7278M1382.61 44.4976L1391.03 51.5365M1219.08 37.7278H1167.26M1344.81 58.8612L1352.79 66.4897M1344.81 58.8612H1399.78M1391.03 51.5365L1399.78 58.8612M1399.78 58.8612L1408.9 66.4897M1296.67 66.4897L1300.2 70.4235L1301.09 71.4206L1303.8 74.4415M1296.67 66.4897H1352.79M1296.67 66.4897H1240.56M1352.79 66.4897L1361.1 74.4415M1352.79 66.4897H1408.9M1408.9 66.4897L1418.4 74.4415M1303.8 74.4415H1361.1M1303.8 74.4415H1246.5M1369.78 82.7371L1361.1 74.4415M1369.78 82.7371L1378.84 91.399M1369.78 82.7371H1428.32M1361.1 74.4415H1418.4M1246.5 74.4415H1189.2M1246.5 74.4415L1244.99 72.4222L1240.56 66.4897M1418.4 74.4415L1428.32 82.7371M1240.56 66.4897H1184.45M1378.84 91.399L1388.31 100.453M1378.84 91.399H1438.67M1428.32 82.7371L1438.67 91.399M1438.67 91.399L1449.5 100.453M1327.12 100.453L1335.61 109.926M1327.12 100.453H1388.31M1327.12 100.453H1265.93M1388.31 100.453L1398.22 109.926M1388.31 100.453H1449.5M1449.5 100.453L1460.82 109.926M1335.61 109.926H1398.22M1335.61 109.926H1273.01M1408.59 119.848L1398.22 109.926M1408.59 119.848L1419.47 130.251M1408.59 119.848H1472.68M1398.22 109.926H1460.82M1273.01 109.926H1210.41M1273.01 109.926L1265.93 100.453M1460.82 109.926L1472.68 119.848M1265.93 100.453H1204.75M1419.47 130.251L1430.89 141.171M1419.47 130.251H1485.11M1472.68 119.848L1485.11 130.251M1485.11 130.251L1498.16 141.171M1363.62 141.171L1373.91 152.647M1363.62 141.171H1430.89M1363.62 141.171H1296.35M1430.89 141.171L1442.9 152.647M1430.89 141.171H1498.16M1498.16 141.171L1511.88 152.647M1373.91 152.647H1442.9M1373.91 152.647H1304.93M1455.53 164.725L1442.9 152.647M1455.53 164.725L1468.84 177.45M1455.53 164.725H1526.32M1442.9 152.647H1511.88M1304.93 152.647H1235.94M1304.93 152.647L1296.35 141.171M1511.88 152.647L1526.32 164.725M1296.35 141.171H1229.08M1468.84 177.45L1482.88 190.879M1468.84 177.45H1541.53M1526.32 164.725L1541.53 177.45M1541.53 177.45L1557.58 190.879M1408.18 190.879L1420.91 205.069M1408.18 190.879H1482.88M1408.18 190.879H1333.49M1482.88 190.879L1497.72 205.069M1482.88 190.879H1557.58M1557.58 190.879L1574.54 205.069M1420.91 205.069H1497.72M1420.91 205.069H1344.09M1513.43 220.09L1497.72 205.069M1513.43 220.09L1530.09 236.013M1513.43 220.09H1592.49M1497.72 205.069H1574.54M1344.09 205.069H1267.27M1344.09 205.069L1333.49 190.879M1574.54 205.069L1592.49 220.09M1333.49 190.879H1258.79M1530.09 236.013L1547.77 252.926M1530.09 236.013H1611.53M1592.49 220.09L1611.53 236.013M1611.53 236.013L1631.74 252.926M1463.81 252.926L1479.94 270.92M1463.81 252.926H1547.77M1463.81 252.926H1379.84M1547.77 252.926L1566.59 270.92M1547.77 252.926H1631.74M1631.74 252.926L1653.25 270.92M1479.94 270.92H1566.59M1479.94 270.92H1393.28M1586.66 290.106L1566.59 270.92M1586.66 290.106L1608.1 310.604M1586.66 290.106H1676.18M1566.59 270.92H1653.25M1393.28 270.92H1306.63M1393.28 270.92L1379.84 252.926M1653.25 270.92L1676.18 290.106M1379.84 252.926H1295.87M1608.1 310.604L1631.06 332.554M1608.1 310.604H1700.68M1676.18 290.106L1700.68 310.604M1700.68 310.604L1726.92 332.554M1535.19 332.554L1556.31 356.117M1535.19 332.554H1631.06M1535.19 332.554H1439.33M1631.06 332.554L1655.7 356.117M1631.06 332.554H1726.92M1726.92 332.554L1755.08 356.117M1556.31 356.117H1655.7M1556.31 356.117H1456.93M1682.22 381.475L1655.7 356.117M1682.22 381.475L1710.85 408.845M1682.22 381.475H1785.4M1655.7 356.117H1755.08M1456.93 356.117H1357.54M1456.93 356.117L1439.33 332.554M1755.08 356.117L1785.4 381.475M1755.08 356.117H1854.47M1439.33 332.554H1343.46M1710.85 408.845L1741.83 438.473M1710.85 408.845H1818.11M1785.4 381.475L1818.11 408.845M1854.47 356.117H1919.48M1818.11 408.845L1853.52 438.473M1818.11 408.845H1919.48M1630.14 438.473L1658.99 470.652M1630.14 438.473H1741.83M1630.14 438.473H1518.45M1741.83 438.473L1775.49 470.652M1741.83 438.473H1853.52M1853.52 438.473L1891.99 470.652M1853.52 438.473H1919.48M1658.99 470.652H1775.49M1658.99 470.652H1542.49M1812.17 505.726L1775.49 470.652M1812.17 505.726L1852.31 544.104M1812.17 505.726H1919.48M1775.49 470.652H1891.99M1542.49 470.652H1425.99M1542.49 470.652L1518.45 438.473M1891.99 470.652H1919.48M1891.99 470.652L1919.48 493.657M1518.45 438.473H1406.76M1852.31 544.104L1896.42 586.276M1852.31 544.104H1919.48M1762.64 586.276L1804.38 632.835M1762.64 586.276H1896.42M1762.64 586.276H1628.87M1896.42 586.276L1919.48 608.333M1896.42 586.276H1919.48M1804.38 632.835H1663.65M1804.38 632.835L1919.48 632.834M1663.65 632.835H1522.92M1663.65 632.835L1628.87 586.276M1628.87 586.276H1495.09M1056.26 13.0586L1056.47 13.7763L1056.69 14.4967L1056.9 15.2208L1057.12 15.9488L1057.78 18.1502L1058 18.8912M1056.26 13.0586H1104.39M1056.26 13.0586H1008.13M1101.86 7.42979L1100.03 3.33616L1099.43 1.99435M1101.86 7.42979L1103.43 10.9245L1104.39 13.0586M1101.86 7.42979H1149.15M1099.43 1.99435H1145.9M1099.43 1.99435L1097.66 -1.96098L1097.07 -3.25699M1051.38 -3.25699L1051.19 -3.90173L1050.43 -6.45078L1049.87 -8.33453M1051.38 -3.25699H1097.07M1051.38 -3.25699H1005.69M1104.39 13.0586L1104.71 13.7763L1105.03 14.4967L1105.36 15.2208L1105.68 15.9488L1107 18.8912M1104.39 13.0586H1152.52M1149.15 7.42979L1146.71 3.33616L1145.9 1.99435M1149.15 7.42979L1152.52 13.0586M1145.9 1.99435L1144.32 -0.653734L1143.15 -2.61037L1142.77 -3.25699M1097.07 -3.25699L1096.79 -3.90173L1096.21 -5.18092L1095.64 -6.45078L1095.36 -7.08149L1094.8 -8.33453M1097.07 -3.25699H1142.77M1152.52 13.0586L1155.12 17.413L1156 18.8912M1188.46 -3.25699L1185.6 -7.08149L1184.67 -8.33453M1188.46 -3.25699H1142.77M1142.77 -3.25699L1140.11 -7.70941L1139.73 -8.33453M1058 18.8912H1107M1058 18.8912H1009M1109.71 24.9387L1107 18.8912M1109.71 24.9387L1112.52 31.2132M1109.71 24.9387H1159.62M1107 18.8912H1156M1009 18.8912H960M1009 18.8912L1008.13 13.0586M1156 18.8912L1159.62 24.9387M1008.13 13.0586H960M1112.52 31.2132L1113.25 32.8185L1114.34 35.2563L1115.45 37.7278M1112.52 31.2132H1163.37M1159.62 24.9387L1160.08 25.7095L1163.37 31.2132M1163.37 31.2132L1163.85 32.014L1164.33 32.8185L1164.81 33.6277L1167.26 37.7278M1063.63 37.7278L1065.65 44.4976M1063.63 37.7278H1115.45M1063.63 37.7278H1011.82M1115.45 37.7278L1118.48 44.4976M1115.45 37.7278H1167.26M1167.26 37.7278L1170.28 42.7802L1170.79 43.637L1171.31 44.4976M1065.65 44.4976H1118.48M1065.65 44.4976H1012.83M1121.63 51.5365L1122.04 52.4363L1122.44 53.3398L1122.85 54.249L1124.92 58.8612M1121.63 51.5365L1120.04 47.982L1119.65 47.1046L1119.26 46.2309L1118.48 44.4976M1121.63 51.5365H1175.51M1118.48 44.4976H1171.31M1012.83 44.4976H960M1012.83 44.4976L1011.82 37.7278M1171.31 44.4976L1175.51 51.5365M1011.82 37.7278H960M1124.92 58.8612L1127.9 65.5189L1128.34 66.4897M1124.92 58.8612H1179.89M1175.51 51.5365L1176.59 53.3398L1179.89 58.8612M1179.89 58.8612L1181.58 61.685L1184.45 66.4897M1072.22 66.4897L1073.4 70.4235L1073.7 71.4206L1074.6 74.4415M1072.22 66.4897H1128.34M1072.22 66.4897H1016.11M1128.34 66.4897L1131.9 74.4415M1128.34 66.4897H1184.45M1184.45 66.4897L1189.2 74.4415M1074.6 74.4415H1131.9M1074.6 74.4415H1017.3M1135.62 82.7371L1131.9 74.4415M1135.62 82.7371L1139.5 91.399M1135.62 82.7371H1194.16M1131.9 74.4415H1189.2M1017.3 74.4415H960M1017.3 74.4415L1017 72.4222L1016.4 68.4463L1016.11 66.4897M1189.2 74.4415L1194.16 82.7371M1016.11 66.4897H960M1139.5 91.399L1142.53 98.152L1143.56 100.453M1139.5 91.399H1199.34M1194.16 82.7371L1199.34 91.399M1199.34 91.399L1202.01 95.8758L1204.75 100.453M1082.37 100.453L1085.2 109.926M1082.37 100.453H1143.56M1082.37 100.453H1021.19M1143.56 100.453L1147.81 109.926M1143.56 100.453H1204.75M1204.75 100.453L1210.41 109.926M1085.2 109.926H1147.81M1085.2 109.926H1022.6M1152.25 119.848L1151.12 117.324L1147.81 109.926M1152.25 119.848L1156.92 130.251M1152.25 119.848H1216.34M1147.81 109.926H1210.41M1022.6 109.926H960M1022.6 109.926L1021.19 100.453M1210.41 109.926L1216.34 119.848M1021.19 100.453H960M1156.92 130.251L1161.81 141.171M1156.92 130.251H1222.56M1216.34 119.848L1222.56 130.251M1222.56 130.251L1229.08 141.171M1094.54 141.171L1097.97 152.647M1094.54 141.171H1161.81M1094.54 141.171H1027.27M1161.81 141.171L1166.96 152.647M1161.81 141.171H1229.08M1229.08 141.171L1235.94 152.647M1097.97 152.647H1166.96M1097.97 152.647H1028.98M1172.37 164.725L1166.96 152.647M1172.37 164.725L1178.07 177.45M1172.37 164.725H1243.16M1166.96 152.647H1235.94M1028.98 152.647H960M1028.98 152.647L1027.48 142.574L1027.27 141.171M1235.94 152.647L1243.16 164.725M1027.27 141.171H960M1178.07 177.45L1184.09 190.879M1178.07 177.45H1250.76M1243.16 164.725L1248.82 174.206L1250.76 177.45M1250.76 177.45L1258.79 190.879M1109.39 190.879L1113.64 205.069M1109.39 190.879H1184.09M1109.39 190.879H1034.7M1184.09 190.879L1190.45 205.069M1184.09 190.879H1258.79M1258.79 190.879L1267.27 205.069M1113.64 205.069H1190.45M1113.64 205.069H1036.82M1197.19 220.09L1190.45 205.069M1197.19 220.09L1204.32 236.013M1197.19 220.09H1276.25M1190.45 205.069H1267.27M1036.82 205.069H960M1036.82 205.069L1034.7 190.879M1267.27 205.069L1276.25 220.09M1034.7 190.879H960M1204.32 236.013L1211.9 252.926M1204.32 236.013H1285.76M1276.25 220.09L1285.76 236.013M1285.76 236.013L1295.87 252.926M1127.94 252.926L1133.31 270.92M1127.94 252.926H1211.9M1127.94 252.926H1043.97M1211.9 252.926L1219.97 270.92M1211.9 252.926H1295.87M1295.87 252.926L1306.63 270.92M1133.31 270.92H1219.97M1133.31 270.92H1046.66M1228.57 290.106L1219.97 270.92M1228.57 290.106L1237.76 310.604M1228.57 290.106H1318.09M1219.97 270.92H1306.63M1046.66 270.92H960M1046.66 270.92L1043.97 252.926M1306.63 270.92L1318.09 290.106M1043.97 252.926H960M1237.76 310.604L1247.6 332.554M1237.76 310.604H1330.34M1318.09 290.106L1330.34 310.604M1330.34 310.604L1343.46 332.554M1151.73 332.554L1158.77 356.117M1151.73 332.554H1247.6M1151.73 332.554H1055.87M1247.6 332.554L1258.16 356.117M1247.6 332.554H1343.46M1343.46 332.554L1357.54 356.117M1158.77 356.117H1258.16M1158.77 356.117H1059.39M1269.52 381.475L1258.16 356.117M1269.52 381.475L1281.79 408.845M1269.52 381.475H1372.7M1258.16 356.117H1357.54M1059.39 356.117H960M1059.39 356.117L1055.87 332.554M1357.54 356.117L1372.7 381.475M1055.87 332.554H960M1281.79 408.845L1295.07 438.473M1281.79 408.845H1389.05M1372.7 381.475L1389.05 408.845M1389.05 408.845L1406.76 438.473M1183.38 438.473L1193 470.652M1183.38 438.473H1295.07M1183.38 438.473H1071.69M1295.07 438.473L1309.49 470.652M1295.07 438.473H1406.76M1406.76 438.473L1425.99 470.652M1193 470.652H1309.49M1193 470.652H1076.5M1325.22 505.726L1309.49 470.652M1325.22 505.726L1342.42 544.104M1325.22 505.726H1446.95M1309.49 470.652H1425.99M1076.5 470.652H960M1076.5 470.652L1071.69 438.473M1425.99 470.652L1446.95 505.726M1071.69 438.473H960M1342.42 544.104L1361.32 586.276M1342.42 544.104H1469.89M1446.95 505.726L1469.89 544.104M1469.89 544.104L1495.09 586.276M1227.55 586.276L1241.46 632.835M1227.55 586.276H1361.32M1227.55 586.276H1093.77M1361.32 586.276L1382.19 632.835M1361.32 586.276H1495.09M1495.09 586.276L1522.92 632.835M1382.19 632.835H1241.46M1382.19 632.835H1522.92M1241.46 632.835H1100.73M1100.73 632.835H960M1100.73 632.835L1093.77 586.276M1093.77 586.276H960M863.742 13.0586L863.527 13.7763L863.312 14.4967L863.095 15.2208L862.878 15.9488L862.441 17.413L862.22 18.1502L861.999 18.8912M863.742 13.0586H911.871M863.742 13.0586H815.612M912.711 7.42979L913.524 1.99435M912.711 7.42979L911.871 13.0586M912.711 7.42979H960M913.524 1.99435L913.623 1.32814L913.723 0.664691L913.821 0.00406733L914.309 -3.25699M913.524 1.99435H960M868.617 -3.25699L868.809 -3.90173L869.571 -6.45078L870.134 -8.33453M868.617 -3.25699H914.309M868.617 -3.25699H822.926M911.871 13.0586L911.763 13.7763L911.656 14.4967L911.547 15.2208L910.999 18.8912M911.871 13.0586H960M960 7.42979V1.99435M960 7.42979V13.0586M960 1.99435V-3.25699M914.309 -3.25699H960M914.309 -3.25699L914.595 -5.18092L914.691 -5.81725L915.067 -8.33453M960 13.0586V18.8912M1005.69 -3.25699L1005.4 -5.18092L1005.31 -5.81725L1005.21 -6.45078L1005.12 -7.08149L1005.03 -7.70941L1004.93 -8.33453M1005.69 -3.25699H960M960 -3.25699V-8.33453M861.999 18.8912H910.999M861.999 18.8912H812.998M910.096 24.9387L909.98 25.7095L909.865 26.4851L909.158 31.2132M910.096 24.9387L910.999 18.8912M910.096 24.9387H960M910.999 18.8912H960M812.998 18.8912H763.998M812.998 18.8912L813.66 17.413L813.99 16.6794L814.316 15.9488L814.643 15.2208L814.967 14.4967L815.291 13.7763L815.612 13.0586M960 18.8912V24.9387M815.612 13.0586H767.483M909.158 31.2132L908.185 37.7278M909.158 31.2132H960M960 24.9387V31.2132M960 31.2132V37.7278M856.37 37.7278L854.347 44.4976M856.37 37.7278H908.185M856.37 37.7278H804.555M908.185 37.7278L907.174 44.4976M908.185 37.7278H960M960 37.7278V44.4976M854.347 44.4976H907.174M854.347 44.4976H801.52M906.122 51.5365L907.174 44.4976M906.122 51.5365L905.028 58.8612M906.122 51.5365H960M907.174 44.4976H960M801.52 44.4976H748.694M801.52 44.4976L804.555 37.7278M960 44.4976V51.5365M804.555 37.7278H752.74M905.028 58.8612L904.606 61.685L904.177 64.5527L903.887 66.4897M905.028 58.8612H960M960 51.5365V58.8612M960 58.8612V66.4897M847.776 66.4897L846.599 70.4235L846.302 71.4206L845.399 74.4415M847.776 66.4897H903.887M847.776 66.4897H791.663M903.887 66.4897L903.595 68.4463L903.002 72.4222L902.7 74.4415M903.887 66.4897H960M960 66.4897V74.4415M845.399 74.4415H902.7M845.399 74.4415H788.099M901.461 82.7371L901.617 81.6803L902.7 74.4415M901.461 82.7371L900.166 91.399M901.461 82.7371H960M902.7 74.4415H960M788.099 74.4415H730.798M788.099 74.4415L791.663 66.4897M960 74.4415V82.7371M791.663 66.4897H735.55M900.166 91.399L898.813 100.453M900.166 91.399H960M960 82.7371V91.399M960 91.399V100.453M837.626 100.453L834.796 109.926M837.626 100.453H898.813M837.626 100.453H776.439M898.813 100.453L897.398 109.926M898.813 100.453H960M960 100.453V109.926M834.796 109.926H897.398M834.796 109.926H772.193M895.916 119.848L897.398 109.926M895.916 119.848L894.361 130.251M895.916 119.848H960M897.398 109.926H960M772.193 109.926H709.591M772.193 109.926L776.439 100.453M960 109.926V119.848M776.439 100.453H715.252M894.361 130.251L892.729 141.171M894.361 130.251H960M960 119.848V130.251M960 130.251V141.171M825.458 141.171L822.029 152.647M825.458 141.171H892.729M825.458 141.171H758.189M892.729 141.171L891.015 152.647M892.729 141.171H960M960 141.171V152.647M822.029 152.647H891.015M822.029 152.647H753.044M889.21 164.725L891.015 152.647M889.21 164.725L887.309 177.45M889.21 164.725H960M891.015 152.647H960M753.044 152.647H684.059M753.044 152.647L758.189 141.171M960 152.647V164.725M758.189 141.171H690.918M887.309 177.45L885.302 190.879M887.309 177.45H960M960 164.725V177.45M960 177.45V190.879M810.606 190.879L806.365 205.069M810.606 190.879H885.302M810.606 190.879H735.908M885.302 190.879L883.182 205.069M885.302 190.879H960M960 190.879V205.069M806.365 205.069H883.182M806.365 205.069H729.547M880.939 220.09L883.182 205.069M880.939 220.09L878.559 236.013M880.939 220.09H960M883.182 205.069H960M729.547 205.069H652.73M729.547 205.069L735.908 190.879M960 205.069V220.09M735.908 190.879H661.21M878.559 236.013L876.032 252.926M878.559 236.013H960M960 220.09V236.013M960 236.013V252.926M792.064 252.926L786.687 270.92M792.064 252.926H876.032M792.064 252.926H708.097M876.032 252.926L873.344 270.92M876.032 252.926H960M960 252.926V270.92M786.687 270.92H873.344M786.687 270.92H700.031M870.477 290.106L873.344 270.92M870.477 290.106L867.415 310.604M870.477 290.106H960M873.344 270.92H960M700.031 270.92H613.375M700.031 270.92L708.097 252.926M960 270.92V290.106M708.097 252.926H624.129M867.415 310.604L864.135 332.554M867.415 310.604H960M960 290.106V310.604M960 310.604V332.554M768.27 332.554L761.229 356.117M768.27 332.554H864.135M768.27 332.554H672.405M864.135 332.554L860.615 356.117M864.135 332.554H960M960 332.554V356.117M761.229 356.117H860.615M761.229 356.117H661.844M856.826 381.475L860.615 356.117M856.826 381.475L852.737 408.845M856.826 381.475H960M860.615 356.117H960M661.844 356.117H562.458M661.844 356.117L672.405 332.554M960 356.117V381.475M672.405 332.554H576.54M852.737 408.845L848.309 438.473M852.737 408.845H960M960 381.475V408.845M960 408.845V438.473M736.619 438.473L727.004 470.652M736.619 438.473H848.309M736.619 438.473H624.928M848.309 438.473L843.502 470.652M848.309 438.473H960M960 438.473V470.652M727.004 470.652H843.502M727.004 470.652H610.505M838.262 505.726L843.502 470.652M838.262 505.726L832.528 544.104M838.262 505.726H960M843.502 470.652H960M610.505 470.652H494.007M610.505 470.652L624.928 438.473M960 470.652V505.726M624.928 438.473H513.239M832.528 544.104L826.226 586.276M832.528 544.104H960M960 505.726V544.104M960 544.104V586.276M692.453 586.276L678.541 632.835M692.453 586.276H826.226M692.453 586.276H558.679M826.226 586.276L819.27 632.835M826.226 586.276H960M960 586.276V632.835M819.27 632.835H678.541M819.27 632.835H960M678.541 632.835H537.81M537.81 632.835H397.08M537.81 632.835L558.679 586.276M558.679 586.276H424.905M671.225 13.0586L668.634 15.9488L665.996 18.8912M671.225 13.0586H719.354M671.225 13.0586H623.095M723.558 7.42979L727.619 1.99435M723.558 7.42979L719.354 13.0586M723.558 7.42979H770.847M727.619 1.99435H774.095M727.619 1.99435L730.574 -1.96098L731.542 -3.25699M685.851 -3.25699H731.542M685.851 -3.25699L687.576 -5.18092L690.402 -8.33453M685.851 -3.25699H640.159M719.354 13.0586L714.997 18.8912M719.354 13.0586H767.483M770.847 7.42979L774.095 1.99435M770.847 7.42979L767.483 13.0586M774.095 1.99435L775.678 -0.653734L776.848 -2.61037L777.233 -3.25699M731.542 -3.25699H777.233M731.542 -3.25699L734.399 -7.08149L735.335 -8.33453M767.483 13.0586L764.88 17.413L763.998 18.8912M822.926 -3.25699L823.214 -3.90173L823.787 -5.18092L824.639 -7.08149L825.202 -8.33453M822.926 -3.25699H777.233M777.233 -3.25699L777.618 -3.90173L778.384 -5.18092L780.268 -8.33453M665.996 18.8912H714.997M665.996 18.8912H616.995M710.478 24.9387L711.053 24.1706L711.624 23.4053L713.883 20.3816L714.997 18.8912M710.478 24.9387L706.979 29.6219L705.791 31.2132M710.478 24.9387H760.384M714.997 18.8912H763.998M616.995 18.8912H567.994M616.995 18.8912L621.59 14.4967L623.095 13.0586M763.998 18.8912L760.384 24.9387M623.095 13.0586H574.965M705.791 31.2132L705.193 32.014L704.592 32.8185L702.772 35.2563L702.158 36.0758L700.925 37.7278M705.791 31.2132H756.633M760.384 24.9387L759.922 25.7095L756.633 31.2132M756.633 31.2132L756.155 32.014L755.673 32.8185L755.19 33.6277L752.74 37.7278M649.109 37.7278L643.041 44.4976M649.109 37.7278H700.925M649.109 37.7278H597.294M700.925 37.7278L695.867 44.4976M700.925 37.7278H752.74M752.74 37.7278L748.694 44.4976M643.041 44.4976H695.867M643.041 44.4976H590.214M690.609 51.5365L695.867 44.4976M690.609 51.5365L685.137 58.8612M690.609 51.5365H744.487M695.867 44.4976H748.694M590.214 44.4976H537.388M590.214 44.4976L597.294 37.7278M748.694 44.4976L744.487 51.5365M597.294 37.7278H545.478M685.137 58.8612L679.438 66.4897M685.137 58.8612H740.109M744.487 51.5365L743.409 53.3398L740.109 58.8612M740.109 58.8612L738.421 61.685L736.707 64.5527L735.55 66.4897M623.325 66.4897L619.798 70.4235L616.197 74.4415M623.325 66.4897H679.438M623.325 66.4897H567.213M679.438 66.4897L673.497 74.4415M679.438 66.4897H735.55M735.55 66.4897L730.798 74.4415M616.197 74.4415H673.497M616.197 74.4415H558.897M667.301 82.7371L673.497 74.4415M667.301 82.7371L660.829 91.399M667.301 82.7371H725.84M673.497 74.4415H730.798M558.897 74.4415H501.596M558.897 74.4415L567.213 66.4897M730.798 74.4415L725.84 82.7371M567.213 66.4897H511.101M660.829 91.399L659.166 93.6248L654.066 100.453M660.829 91.399H720.663M725.84 82.7371L720.663 91.399M720.663 91.399L720 92.5091L717.988 95.8758L715.252 100.453M592.879 100.453L584.386 109.926M592.879 100.453H654.066M592.879 100.453H531.692M654.066 100.453L646.989 109.926M654.066 100.453H715.252M715.252 100.453L709.591 109.926M584.386 109.926H646.989M584.386 109.926H521.784M639.577 119.848L644.25 113.593L646.989 109.926M639.577 119.848L631.805 130.251M639.577 119.848H703.661M646.989 109.926H709.591M521.784 109.926H459.182M521.784 109.926L531.692 100.453M709.591 109.926L703.661 119.848M531.692 100.453H470.505M631.805 130.251L623.647 141.171M631.805 130.251H697.444M703.661 119.848L697.444 130.251M697.444 130.251L690.918 141.171M556.376 141.171L546.088 152.647M556.376 141.171H623.647M556.376 141.171H489.107M623.647 141.171L615.074 152.647M623.647 141.171H690.918M690.918 141.171L684.059 152.647M546.088 152.647H615.074M546.088 152.647H477.103M606.052 164.725L615.074 152.647M606.052 164.725L596.545 177.45M606.052 164.725H676.842M615.074 152.647H684.059M477.103 152.647H408.118M477.103 152.647L489.107 141.171M684.059 152.647L676.842 164.725M489.107 141.171H421.836M596.545 177.45L586.513 190.879M596.545 177.45H669.236M676.842 164.725L669.236 177.45M669.236 177.45L661.21 190.879M511.815 190.879L499.094 205.069M511.815 190.879H586.513M511.815 190.879H437.118M586.513 190.879L575.912 205.069M586.513 190.879H661.21M661.21 190.879L652.73 205.069M499.094 205.069H575.912M499.094 205.069H422.277M564.691 220.09L575.912 205.069M564.691 220.09L552.795 236.013M564.691 220.09H643.753M575.912 205.069H652.73M422.277 205.069H345.459M422.277 205.069L437.118 190.879M652.73 205.069L643.753 220.09M437.118 190.879H362.421M552.795 236.013L540.161 252.926M552.795 236.013H634.236M643.753 220.09L634.236 236.013M634.236 236.013L624.129 252.926M456.193 252.926L440.062 270.92M456.193 252.926H540.161M456.193 252.926H372.226M540.161 252.926L526.718 270.92M540.161 252.926H624.129M624.129 252.926L613.375 270.92M440.062 270.92H526.718M440.062 270.92H353.406M512.386 290.106L526.718 270.92M512.386 290.106L497.072 310.604M512.386 290.106H601.909M526.718 270.92H613.375M353.406 270.92H266.749M353.406 270.92L372.226 252.926M613.375 270.92L601.909 290.106M372.226 252.926H288.258M497.072 310.604L480.675 332.554M497.072 310.604H589.658M601.909 290.106L589.658 310.604M589.658 310.604L576.54 332.554M384.81 332.554L363.687 356.117M384.81 332.554H480.675M384.81 332.554H288.944M480.675 332.554L463.073 356.117M480.675 332.554H576.54M576.54 332.554L562.458 356.117M363.687 356.117H463.073M363.687 356.117H264.302M444.128 381.475L463.073 356.117M444.128 381.475L423.682 408.845M444.128 381.475H547.302M463.073 356.117H562.458M264.302 356.117H164.916M264.302 356.117L288.944 332.554M562.458 356.117L547.302 381.475M288.944 332.554H193.079M423.682 408.845L401.548 438.473M423.682 408.845H530.945M547.302 381.475L530.945 408.845M530.945 408.845L513.239 438.473M289.858 438.473L261.01 470.652M289.858 438.473H401.548M289.858 438.473H178.167M401.548 438.473L377.509 470.652M401.548 438.473H513.239M513.239 438.473L494.007 470.652M261.01 470.652H377.509M261.01 470.652H144.512M351.307 505.726L377.509 470.652M351.307 505.726L322.636 544.104M351.307 505.726H473.045M377.509 470.652H494.007M144.512 470.652H28.0139M144.512 470.652L178.167 438.473M494.007 470.652L473.045 505.726M178.167 438.473H66.4772M322.636 544.104L291.132 586.276M322.636 544.104H450.11M473.045 505.726L450.11 544.104M450.11 544.104L424.905 586.276M157.358 586.276L115.621 632.835M157.358 586.276H291.132M157.358 586.276H23.5843M291.132 586.276L256.351 632.835M291.132 586.276H424.905M424.905 586.276L397.08 632.835M256.351 632.835H115.621M256.351 632.835H397.08M115.621 632.835L0.516728 632.834M23.5843 586.276L0.516728 608.333M23.5843 586.276H0.516728M478.707 13.0586L469.993 18.8912M478.707 13.0586H526.836M478.707 13.0586H430.578M534.405 7.42979L541.714 1.99435M534.405 7.42979L526.836 13.0586M534.405 7.42979H581.694M541.714 1.99435H588.19M541.714 1.99435L548.776 -3.25699M503.084 -3.25699H548.776M503.084 -3.25699L505.959 -5.18092L510.671 -8.33453M503.084 -3.25699H457.393M526.836 13.0586L518.994 18.8912M526.836 13.0586H574.965M581.694 7.42979L588.19 1.99435M581.694 7.42979L574.965 13.0586M588.19 1.99435L592.919 -1.96098L594.468 -3.25699M548.776 -3.25699L549.642 -3.90173L555.604 -8.33453M548.776 -3.25699H594.468M574.965 13.0586L567.994 18.8912M640.159 -3.25699L645.469 -8.33453M640.159 -3.25699H594.468M594.468 -3.25699L596.768 -5.18092L600.537 -8.33453M469.993 18.8912H518.994M469.993 18.8912H420.992M510.862 24.9387L518.994 18.8912M510.862 24.9387L502.424 31.2132M510.862 24.9387H560.766M518.994 18.8912H567.994M420.992 18.8912H371.992M420.992 18.8912L430.578 13.0586M567.994 18.8912L560.766 24.9387M430.578 13.0586H382.449M502.424 31.2132L500.265 32.8185L493.663 37.7278M502.424 31.2132H553.266M560.766 24.9387L553.266 31.2132M553.266 31.2132L545.478 37.7278M441.848 37.7278L440.606 38.5604L431.735 44.4976M441.848 37.7278H493.663M441.848 37.7278H390.033M493.663 37.7278L484.561 44.4976M493.663 37.7278H545.478M545.478 37.7278L544.485 38.5604L537.388 44.4976M431.735 44.4976H484.561M431.735 44.4976H378.908M475.096 51.5365L484.561 44.4976M475.096 51.5365L465.246 58.8612M475.096 51.5365H528.974M484.561 44.4976H537.388M378.908 44.4976H326.081M378.908 44.4976L390.033 37.7278M537.388 44.4976L528.974 51.5365M390.033 37.7278H338.218M465.246 58.8612L454.988 66.4897M465.246 58.8612H520.219M528.974 51.5365L520.219 58.8612M520.219 58.8612L511.101 66.4897M398.876 66.4897L386.996 74.4415M398.876 66.4897H454.988M398.876 66.4897H342.763M454.988 66.4897L444.296 74.4415M454.988 66.4897H511.101M511.101 66.4897L501.596 74.4415M386.996 74.4415H444.296M386.996 74.4415H329.694M433.141 82.7371L444.296 74.4415M433.141 82.7371L421.492 91.399M433.141 82.7371H491.68M444.296 74.4415H501.596M329.694 74.4415H272.394M329.694 74.4415L342.763 66.4897M501.596 74.4415L491.68 82.7371M342.763 66.4897H286.651M421.492 91.399L409.318 100.453M421.492 91.399H481.327M491.68 82.7371L481.327 91.399M481.327 91.399L470.505 100.453M348.131 100.453L333.977 109.926M348.131 100.453H409.318M348.131 100.453H286.943M409.318 100.453L396.579 109.926M409.318 100.453H470.505M470.505 100.453L459.182 109.926M333.977 109.926H396.579M333.977 109.926H271.375M383.238 119.848L396.579 109.926M383.238 119.848L369.249 130.251M383.238 119.848H447.322M396.579 109.926H459.182M271.375 109.926H208.773M271.375 109.926L286.943 100.453M459.182 109.926L447.322 119.848M286.943 100.453H225.756M369.249 130.251L354.565 141.171M369.249 130.251H434.888M447.322 119.848L434.888 130.251M434.888 130.251L421.836 141.171M287.294 141.171L270.148 152.647M287.294 141.171H354.565M287.294 141.171H220.025M354.565 141.171L339.132 152.647M354.565 141.171H421.836M421.836 141.171L408.118 152.647M270.148 152.647H339.132M270.148 152.647H201.162M322.892 164.725L339.132 152.647M322.892 164.725L305.78 177.45M322.892 164.725H393.682M339.132 152.647H408.118M201.162 152.647H132.177M201.162 152.647L220.025 141.171M408.118 152.647L393.682 164.725M220.025 141.171H152.754M305.78 177.45L287.723 190.879M305.78 177.45H378.471M393.682 164.725L378.471 177.45M378.471 177.45L362.421 190.879M213.025 190.879L191.824 205.069M213.025 190.879H287.723M213.025 190.879H138.329M287.723 190.879L268.641 205.069M287.723 190.879H362.421M362.421 190.879L345.459 205.069M191.824 205.069H268.641M191.824 205.069H115.006M248.444 220.09L268.641 205.069M248.444 220.09L227.032 236.013M248.444 220.09H327.506M268.641 205.069H345.459M115.006 205.069H38.1884M115.006 205.069L138.329 190.879M345.459 205.069L327.506 220.09M138.329 190.879H63.6307M227.032 236.013L204.29 252.926M227.032 236.013H308.473M327.506 220.09L308.473 236.013M308.473 236.013L288.258 252.926M120.322 252.926L93.4367 270.92M120.322 252.926H204.29M120.322 252.926H36.3544M204.29 252.926L180.093 270.92M204.29 252.926H288.258M288.258 252.926L266.749 270.92M93.4367 270.92H180.093M93.4367 270.92H6.78035M154.294 290.106L180.093 270.92M154.294 290.106L126.731 310.604M154.294 290.106H243.817M180.093 270.92H266.749M6.78035 270.92L36.3544 252.926M6.78035 270.92H0.516728M6.78035 270.92L0.516728 274.731M266.749 270.92L243.817 290.106M36.3544 252.926H0.516728M126.731 310.604L97.2146 332.554M126.731 310.604H219.316M243.817 290.106L219.316 310.604M219.316 310.604L193.079 332.554M1.34928 332.554H97.2146M1.34928 332.554H0.516728M1.34928 332.554L0.516728 333.111M97.2146 332.554L65.5297 356.117M97.2146 332.554H193.079M193.079 332.554L164.916 356.117M31.4301 381.475L65.5297 356.117M31.4301 381.475H134.605M31.4301 381.475H0.516728M31.4301 381.475L0.516728 404.465M65.5297 356.117H164.916M65.5297 356.117H0.516728M164.916 356.117L134.605 381.475M134.605 381.475L101.891 408.845M101.891 408.845L66.4772 438.473M101.891 408.845H0.516728M66.4772 438.473L28.0139 470.652M66.4772 438.473H0.516728M28.0139 470.652H0.516728M28.0139 470.652L0.516728 493.657M286.19 13.0586L273.99 18.8912M286.19 13.0586H334.32M286.19 13.0586H238.061M345.252 7.42979L355.809 1.99435M345.252 7.42979L334.32 13.0586M345.252 7.42979H392.541M355.809 1.99435H402.285M355.809 1.99435L366.01 -3.25699M320.318 -3.25699H366.01M320.318 -3.25699L330.939 -8.33453M320.318 -3.25699H274.627M334.32 13.0586L322.991 18.8912M334.32 13.0586H382.449M392.541 7.42979L402.285 1.99435M392.541 7.42979L382.449 13.0586M402.285 1.99435L411.701 -3.25699M366.01 -3.25699L367.26 -3.90173L375.872 -8.33453M366.01 -3.25699H411.701M382.449 13.0586L371.992 18.8912M457.393 -3.25699L465.737 -8.33453M457.393 -3.25699H411.701M411.701 -3.25699L412.856 -3.90173L420.804 -8.33453M273.99 18.8912H322.991M273.99 18.8912H224.99M311.244 24.9387L322.991 18.8912M311.244 24.9387L299.057 31.2132M311.244 24.9387H361.15M322.991 18.8912H371.992M224.99 18.8912H175.989M224.99 18.8912L238.061 13.0586M371.992 18.8912L361.15 24.9387M238.061 13.0586H189.932M299.057 31.2132L286.403 37.7278M299.057 31.2132H349.899M361.15 24.9387L359.765 25.7095L349.899 31.2132M349.899 31.2132L338.218 37.7278M234.588 37.7278L220.428 44.4976M234.588 37.7278H286.403M234.588 37.7278H182.773M286.403 37.7278L273.255 44.4976M286.403 37.7278H338.218M338.218 37.7278L326.081 44.4976M220.428 44.4976H273.255M220.428 44.4976H167.602M259.583 51.5365L273.255 44.4976M259.583 51.5365L245.356 58.8612M259.583 51.5365H313.461M273.255 44.4976H326.081M167.602 44.4976H114.775M167.602 44.4976L182.773 37.7278M326.081 44.4976L313.461 51.5365M182.773 37.7278H130.957M245.356 58.8612L230.539 66.4897M245.356 58.8612H300.328M313.461 51.5365L300.328 58.8612M300.328 58.8612L286.651 66.4897M174.426 66.4897L157.793 74.4415M174.426 66.4897H230.539M174.426 66.4897H118.313M230.539 66.4897L215.094 74.4415M230.539 66.4897H286.651M286.651 66.4897L272.394 74.4415M157.793 74.4415H215.094M157.793 74.4415H100.493M198.981 82.7371L215.094 74.4415M198.981 82.7371L182.156 91.399M198.981 82.7371H257.521M215.094 74.4415H272.394M100.493 74.4415H43.1927M100.493 74.4415L118.313 66.4897M272.394 74.4415L257.521 82.7371M118.313 66.4897H62.2015M182.156 91.399L164.569 100.453M182.156 91.399H241.99M257.521 82.7371L241.99 91.399M241.99 91.399L225.756 100.453M103.382 100.453L83.568 109.926M103.382 100.453H164.569M103.382 100.453H42.1963M164.569 100.453L146.17 109.926M164.569 100.453H225.756M225.756 100.453L208.773 109.926M83.568 109.926H146.17M126.899 119.848L146.17 109.926M126.899 119.848L106.694 130.251M126.899 119.848H190.984M146.17 109.926H208.773M208.773 109.926L190.984 119.848M42.1963 100.453H0.516728M106.694 130.251L85.483 141.171M106.694 130.251H172.332M190.984 119.848L172.332 130.251M172.332 130.251L152.754 141.171M18.2122 141.171H85.483M18.2122 141.171H0.516728M18.2122 141.171L0.516728 149.63M85.483 141.171L63.191 152.647M85.483 141.171H152.754M152.754 141.171L132.177 152.647M39.7336 164.725L63.191 152.647M39.7336 164.725L15.0159 177.45M39.7336 164.725H110.523M39.7336 164.725H0.516728M63.191 152.647H132.177M63.191 152.647H0.516728M132.177 152.647L110.523 164.725M0.321833 149.724L0.516728 149.63M15.0159 177.45H87.7068M15.0159 177.45H0.516728M15.0159 177.45L0.516728 184.915M110.523 164.725L87.7068 177.45M87.7068 177.45L63.6307 190.879M63.6307 190.879L38.1884 205.069M63.6307 190.879H0.516728M11.2589 220.09L38.1884 205.069M11.2589 220.09H0.516728M11.2589 220.09L0.516728 226.081M38.1884 205.069H0.516728M93.6736 13.0586L77.988 18.8912M93.6736 13.0586H141.803M93.6736 13.0586H45.5435M156.099 7.42979L169.905 1.99435M156.099 7.42979L141.803 13.0586M156.099 7.42979H203.387M169.905 1.99435H216.38M169.905 1.99435L183.243 -3.25699M137.552 -3.25699H183.243M137.552 -3.25699L151.207 -8.33453M137.552 -3.25699H91.8605M141.803 13.0586L126.989 18.8912M141.803 13.0586H189.932M203.387 7.42979L216.38 1.99435M203.387 7.42979L189.932 13.0586M216.38 1.99435L228.935 -3.25699M183.243 -3.25699H228.935M183.243 -3.25699L196.14 -8.33453M189.932 13.0586L175.989 18.8912M274.627 -3.25699L286.006 -8.33453M274.627 -3.25699H228.935M228.935 -3.25699L241.073 -8.33453M77.988 18.8912H126.989M77.988 18.8912H28.9874M111.628 24.9387L126.989 18.8912M111.628 24.9387L95.6905 31.2132M111.628 24.9387H161.532M126.989 18.8912H175.989M28.9874 18.8912L45.5435 13.0586M28.9874 18.8912H0.516728M175.989 18.8912L161.532 24.9387M45.5435 13.0586H0.516728M95.6905 31.2132L79.1424 37.7278M95.6905 31.2132H146.532M161.532 24.9387L146.532 31.2132M146.532 31.2132L130.957 37.7278M27.3273 37.7278L9.12209 44.4976M27.3273 37.7278H79.1424M27.3273 37.7278H0.516728M79.1424 37.7278L61.9486 44.4976M79.1424 37.7278H130.957M130.957 37.7278L114.775 44.4976M44.0703 51.5365L61.9486 44.4976M44.0703 51.5365L25.4653 58.8612M44.0703 51.5365H97.9483M44.0703 51.5365H0.516728M61.9486 44.4976H9.12209M61.9486 44.4976H114.775M9.12209 44.4976L0.516728 47.697M9.12209 44.4976H0.516728M114.775 44.4976L97.9483 51.5365M25.4653 58.8612L6.08872 66.4897M25.4653 58.8612H80.4377M25.4653 58.8612H0.516728M97.9483 51.5365L80.4377 58.8612M80.4377 58.8612L62.2015 66.4897M6.08872 66.4897H62.2015M6.08872 66.4897L0.516728 68.6831M6.08872 66.4897H0.516728M62.2015 66.4897L43.1927 74.4415M23.3614 82.7371L43.1927 74.4415M23.3614 82.7371L2.65358 91.399M23.3614 82.7371H0.516728M43.1927 74.4415H0.516728M0.216886 74.4415H0.516728M2.65358 91.399H0.516728M2.65358 91.399L0.516728 92.293M0 92.5091L0.516728 92.293M14.2343 7.42979L30.4756 1.99435M14.2343 7.42979H0.516728M14.2343 7.42979L0.516728 12.0201M30.4756 1.99435L46.1691 -3.25699M30.4756 1.99435H0.516728M91.8605 -3.25699L106.274 -8.33453M91.8605 -3.25699H46.1691M46.1691 -3.25699L61.341 -8.33453M46.1691 -3.25699H0.516728M1589.06 -8.33453H1633.99M1589.06 -8.33453H1544.13M1622.99 -13.2458L1625.7 -12.0329L1633.99 -8.33453M1622.99 -13.2458H1667.19M1633.99 -8.33453H1678.93M1667.19 -13.2458L1670.08 -12.0329L1671.54 -11.4237L1678.93 -8.33453M1678.93 -8.33453H1723.86M1723.86 -8.33453H1768.79M1544.13 -8.33453H1499.2M1768.79 -8.33453H1813.73M1813.73 -8.33453L1799.78 -13.2458M1813.73 -8.33453H1858.66M1799.78 -13.2458H1843.98M1409.33 -8.33453H1454.26M1409.33 -8.33453H1364.4M1446.19 -13.2458L1448.18 -12.0329L1449.19 -11.4237L1454.26 -8.33453M1446.19 -13.2458H1490.39M1454.26 -8.33453H1499.2M1490.39 -13.2458L1499.2 -8.33453M1364.4 -8.33453H1319.46M1229.6 -8.33453H1274.53M1229.6 -8.33453H1184.67M1269.39 -13.2458L1270.03 -12.6412L1270.66 -12.0329L1271.3 -11.4237L1274.53 -8.33453M1269.39 -13.2458H1313.59M1274.53 -8.33453H1319.46M1313.59 -13.2458L1319.46 -8.33453M1184.67 -8.33453H1139.73M1049.87 -8.33453H1094.8M1049.87 -8.33453H1004.93M1092.6 -13.2458L1094.8 -8.33453M1092.6 -13.2458H1136.8M1094.8 -8.33453H1139.73M1136.8 -13.2458L1137.16 -12.6412L1137.52 -12.0329L1137.89 -11.4237L1139.73 -8.33453M1004.93 -8.33453H960M870.134 -8.33453H915.067M870.134 -8.33453H825.202M915.801 -13.2458L915.067 -8.33453M915.801 -13.2458H960M915.067 -8.33453H960M960 -13.2458V-8.33453M825.202 -8.33453H780.268M690.402 -8.33453H735.335M690.402 -8.33453H645.469M739.004 -13.2458L738.099 -12.0329L736.264 -9.57822L735.335 -8.33453M739.004 -13.2458H783.203M735.335 -8.33453H780.268M783.203 -13.2458L782.841 -12.6412L782.479 -12.0329L782.114 -11.4237L780.268 -8.33453M645.469 -8.33453H600.537M510.671 -8.33453H555.604M510.671 -8.33453H465.737M562.208 -13.2458L560.577 -12.0329L559.757 -11.4237L555.604 -8.33453M562.208 -13.2458H606.407M555.604 -8.33453H600.537M606.407 -13.2458L605.684 -12.6412L600.537 -8.33453M465.737 -8.33453H420.804M330.939 -8.33453H375.872M330.939 -8.33453H286.006M385.411 -13.2458L383.056 -12.0329L381.87 -11.4237L375.872 -8.33453M385.411 -13.2458H429.611M375.872 -8.33453H420.804M429.611 -13.2458L428.525 -12.6412L420.804 -8.33453M286.006 -8.33453H241.073M151.207 -8.33453H196.14M151.207 -8.33453H106.274M208.615 -13.2458L196.14 -8.33453M208.615 -13.2458H252.814M196.14 -8.33453H241.073M252.814 -13.2458L249.915 -12.0329L248.456 -11.4237L241.073 -8.33453M106.274 -8.33453H61.341M31.8189 -13.2458L16.4082 -8.33453M31.8189 -13.2458H76.0181M31.8189 -13.2458H0.516728M16.4082 -8.33453H61.341M16.4082 -8.33453L0.516728 -3.26942M16.4082 -8.33453H0.516728M76.0181 -13.2458L72.394 -12.0329L61.341 -8.33453M1843.98 -13.2458L1847.61 -12.0329L1858.66 -8.33453M1858.66 -8.33453H1903.59M1903.59 -8.33453L1919.48 -3.2694M1903.59 -8.33453H1919.48M1919.48 226.081V220.09M1919.48 226.081V236.013M1919.48 220.09V205.069M1919.48 236.013V238.981V252.926M1919.48 252.926V270.92M1919.48 109.926V100.453M1919.48 109.926V119.051M1919.48 -13.2458V-8.33453M1919.48 -8.33453V-3.2694M1919.48 -3.2694L1919.52 -3.25699H1919.48M1919.48 -3.2694V-3.25699M1919.48 -3.25699V1.99435M1919.48 1.99435V7.42979M1919.48 7.42979V12.0201M1919.48 12.0201V13.0586M1919.48 13.0586V18.8912M1919.48 18.8912V24.9387M1919.48 24.9387V28.9193M1919.48 28.9193V31.2132M1919.48 31.2132V37.7278M1919.48 37.7278V44.4976M1919.48 44.4976V47.697M1919.48 47.697V51.5365M1919.48 51.5365V58.8612M1919.48 58.8612V66.4897M1919.48 66.4897V68.683M1919.48 68.683V74.4415M1919.48 74.4415V82.7371M1919.48 82.7371V91.399M1919.48 91.399V92.293M1919.48 92.293V100.453M1919.48 119.848V130.251M1919.48 119.848V119.051M1919.48 130.251V141.171M1919.48 141.171V149.63M1919.48 149.63V152.647M1919.48 152.647V164.725M1919.48 164.725V177.45M1919.48 177.45V184.915M1919.48 184.915V190.879M1919.48 190.879V205.069M1919.48 270.92V274.731M1919.48 274.731V290.106M1919.48 290.106V310.604M1919.48 310.604V332.554M1919.48 332.554V333.111M1919.48 333.111V356.117M1919.48 356.117V381.475M1919.48 381.475V404.465M1919.48 404.465V408.845M1919.48 408.845V438.473M1919.48 438.473V470.652M1919.48 470.652V493.657M1919.48 493.657V505.726M1919.48 505.726V544.104M1919.48 544.104V586.276M1919.48 586.276V608.333M1919.48 608.333V632.834M1919.48 632.834V633H0.516728V632.834M0.516728 119.848V130.251M0.516728 119.848V119.051M0.516728 119.051V109.926M0.516728 109.926V100.453M0.516728 100.453V92.293M0.516728 92.293V91.399M0.516728 91.399V82.7371M0.516728 82.7371V74.4415M0.516728 74.4415V68.6831M0.516728 68.6831V66.4897M0.516728 66.4897V58.8612M0.516728 58.8612V51.5365M0.516728 51.5365V47.697M0.516728 47.697V44.4976M0.516728 44.4976V37.7278M0.516728 37.7278V31.2132M0.516728 31.2132V28.9193M0.516728 28.9193V24.9387M0.516728 24.9387V18.8912M0.516728 18.8912V13.0586M0.516728 13.0586V12.0201M0.516728 12.0201V7.42979M0.516728 7.42979V1.99435M0.516728 1.99435V-3.25699M0.516728 -3.25699H0.477747L0.516728 -3.26942M0.516728 -3.25699V-3.26942M0.516728 -3.26942V-8.33453M0.516728 -8.33453V-13.2458M0.516728 632.834V608.333M0.516728 608.333V586.276M0.516728 586.276V544.104M0.516728 544.104V505.726M0.516728 505.726V493.657M0.516728 493.657V470.652M0.516728 470.652V438.473M0.516728 438.473V408.845M0.516728 408.845V404.465M0.516728 404.465V381.475M0.516728 381.475V356.117M0.516728 356.117V333.111M0.516728 333.111V332.554M0.516728 332.554V310.604M0.516728 310.604V290.106M0.516728 290.106V274.731M0.516728 274.731V270.92M0.516728 270.92V252.926M0.516728 252.926V236.013M0.516728 236.013V226.081M0.516728 226.081V220.09M0.516728 220.09V205.069M0.516728 205.069V190.879M0.516728 190.879V184.915M0.516728 184.915V177.45M0.516728 177.45V164.725M0.516728 164.725V152.647M0.516728 152.647V149.63M0.516728 149.63V141.171M0.516728 141.171V130.251" stroke="url(#paint0_linear_2008_1110)" stroke-miterlimit="10" stroke-linecap="round" stroke-linejoin="round"/>
<defs>
<linearGradient id="paint0_linear_2008_1110" x1="960" y1="-18" x2="960" y2="633" gradientUnits="userSpaceOnUse">
<stop offset="0.689184" stop-color="#101010"/>
<stop offset="1" stop-color="#393939"/>
</linearGradient>
</defs>
</svg>
