<svg width="48" height="48" viewBox="0 0 48 48" fill="none" xmlns="http://www.w3.org/2000/svg">
<path fill-rule="evenodd" clip-rule="evenodd" d="M44 32.38V15.72H4V32.38C4 39.66 8.34 44 15.62 44H32.38C39.66 44 44 39.66 44 32.38ZM24.72 23.04L28.88 25.44C30.4 26.34 31.26 27.52 31.26 28.86C31.26 30.2 30.42 31.44 28.88 32.32L24.72 34.72C23.84 35.22 22.98 35.48 22.18 35.48C21.6 35.48 21.04 35.34 20.54 35.06C19.38 34.4 18.74 33.04 18.74 31.28V26.48C18.74 24.72 19.38 23.36 20.54 22.7C21.7 22.04 23.18 22.16 24.72 23.04Z" fill="#FF831A"/>
<path d="M4.26 12.72H15.54V4C9.34 4.02 5.28 7.22 4.26 12.72Z" fill="#FF831A"/>
<path d="M18.54 4V12.72H29.46V4H18.54Z" fill="#FF831A"/>
<path d="M32.46 4V12.72H43.74C42.72 7.22 38.66 4.02 32.46 4Z" fill="#FF831A"/>
</svg>
