<svg width="48" height="48" viewBox="0 0 48 48" fill="none" xmlns="http://www.w3.org/2000/svg">
<path d="M29.0004 9C29.0004 11.7614 26.7618 14 24.0004 14C21.239 14 19.0004 11.7614 19.0004 9C19.0004 6.23858 21.239 4 24.0004 4C26.7618 4 29.0004 6.23858 29.0004 9Z" fill="#219499"/>
<path fill-rule="evenodd" clip-rule="evenodd" d="M24.0005 19.5412C23.2881 19.5412 22.6422 19.5822 22.2783 19.6439L20.4952 19.9442C16.4701 20.622 13.5004 24.1472 13.5004 28.3005C13.5004 30.462 12.4314 32.4869 10.6414 33.6927L10.4389 33.8291C9.92935 34.1724 9.3764 34.4457 8.7946 34.6417L6.4792 35.4215C5.69411 35.686 4.84331 35.2639 4.57888 34.4788C4.31444 33.6937 4.73652 32.8429 5.52161 32.5785L7.837 31.7986C8.16395 31.6885 8.47532 31.5347 8.7628 31.341L8.96526 31.2046C9.92047 30.5612 10.5004 29.4727 10.5004 28.3005C10.5004 22.7051 14.5056 17.9106 19.997 16.9858L21.7769 16.6861C22.3857 16.583 23.2267 16.5412 24.0003 16.5412C24.7738 16.5412 25.6141 16.5827 26.2233 16.686L28.0038 16.9858C33.4952 17.9106 37.5004 22.7051 37.5004 28.3005C37.5004 29.4727 38.0803 30.5612 39.0355 31.2046L39.238 31.341C39.5255 31.5347 39.8369 31.6885 40.1638 31.7986L42.4792 32.5785C43.2643 32.8429 43.6864 33.6937 43.4219 34.4788C43.1575 35.2639 42.3067 35.686 41.5216 35.4215L39.2062 34.6417C38.6244 34.4457 38.0715 34.1724 37.5619 33.8291L37.3595 33.6928C35.5694 32.4869 34.5004 30.462 34.5004 28.3005C34.5004 24.1472 31.5307 20.622 27.5056 19.9442L25.7221 19.6438C25.3586 19.5821 24.713 19.5412 24.0005 19.5412ZM17.8004 31.1C18.2975 30.4373 19.2377 30.3029 19.9004 30.8C20.5631 31.2971 20.6975 32.2373 20.2004 32.9L18.3514 35.3653C18.3367 35.3849 18.3222 35.4043 18.3079 35.4234C18.055 35.7607 17.8562 36.026 17.6271 36.2656C17.0634 36.8549 16.3758 37.3114 15.6139 37.6022C15.3042 37.7204 14.9826 37.8008 14.5736 37.9029C14.5504 37.9087 14.5269 37.9145 14.5032 37.9205L10.9163 38.8172C10.0842 39.0252 9.50041 39.7729 9.50041 40.6307C9.50041 41.6631 10.3373 42.5 11.3697 42.5H12.7372C15.8291 42.5 18.8375 41.4972 21.3109 39.6421L25.1004 36.8C25.7631 36.3029 26.7034 36.4373 27.2004 37.1C27.6975 37.7627 27.5632 38.7029 26.9004 39.2L25.0911 40.557L26.0746 40.9258C27.1425 41.3263 27.624 41.5063 28.1079 41.6575C29.5643 42.1128 31.0714 42.386 32.5949 42.4712C33.1011 42.4995 33.6152 42.5 34.7557 42.5H36.6311C37.6635 42.5 38.5004 41.6631 38.5004 40.6307C38.5004 39.7729 37.9166 39.0252 37.0845 38.8172L34.1373 38.0804C34.0821 38.0666 34.0275 38.053 33.9736 38.0396C33.0223 37.8024 32.2717 37.6153 31.601 37.2286C31.4005 37.1129 31.2075 36.9848 31.0231 36.8449C30.4064 36.3768 29.9427 35.7576 29.355 34.9729C29.3217 34.9284 29.288 34.8834 29.2538 34.8379L27.8004 32.9C27.3034 32.2373 27.4377 31.2971 28.1004 30.8C28.7631 30.3029 29.7034 30.4373 30.2004 31.1L31.6538 33.0379C32.3908 34.0205 32.5968 34.2731 32.8369 34.4552C32.9207 34.5188 33.0084 34.5771 33.0995 34.6296C33.3606 34.7802 33.6733 34.8721 34.8649 35.17L37.8121 35.9068C39.9797 36.4487 41.5004 38.3963 41.5004 40.6307C41.5004 43.3199 39.3203 45.5 36.6311 45.5H34.7052C33.6283 45.5 33.0271 45.5 32.4275 45.4665C30.657 45.3676 28.9055 45.05 27.2129 44.5209C26.6397 44.3418 26.0768 44.1307 25.0684 43.7525L22.2036 42.6782C19.3965 44.515 16.1078 45.5 12.7372 45.5H11.3697C8.68048 45.5 6.50041 43.3199 6.50041 40.6307C6.50041 38.3963 8.02108 36.4487 10.1887 35.9068L13.7756 35.01C14.2869 34.8822 14.4235 34.8455 14.5441 34.7995C14.8903 34.6673 15.2029 34.4598 15.4591 34.1919C15.5483 34.0987 15.6351 33.9871 15.9514 33.5653L17.8004 31.1Z" fill="#219499"/>
</svg>
