<svg width="48" height="48" viewBox="0 0 48 48" fill="none" xmlns="http://www.w3.org/2000/svg">
<path fill-rule="evenodd" clip-rule="evenodd" d="M12 4H36C39.32 4 42 6.66 42 9.94V31.76C42 35.04 39.32 37.7 36 37.7H34.5C32.92 37.7 31.38 38.32 30.26 39.44L26.84 42.82C25.28 44.36 22.74 44.36 21.18 42.82L17.76 39.44C16.64 38.32 15.12 37.7 13.52 37.7H12C8.68 37.7 6 35.04 6 31.76V9.94C6 6.66 8.68 4 12 4ZM27.9 14C27.9 11.86 26.16 10.1 24 10.1L23.9949 10.1C23.99 10.1 23.985 10.1 23.98 10.1C21.8205 10.1 20.0809 11.8391 20.08 13.9984L20.08 14C20.08 16.12 21.74 17.82 23.84 17.9H24.14L24.1425 17.8999C25.5752 17.8581 26.8029 17.0435 27.4314 15.8566C27.7301 15.3059 27.9 14.6742 27.9 14ZM16.505 27.1518C16.5028 28.3262 17.1678 29.4986 18.5 30.38C21.52 32.4 26.48 32.4 29.5 30.38C30.7469 29.5456 31.4093 28.4652 31.4872 27.3693C31.4924 27.2962 31.495 27.2231 31.495 27.15C31.495 25.98 30.83 24.8099 29.5 23.9199C29.4976 23.9183 29.4951 23.9167 29.4927 23.9151C26.4957 21.9025 21.55 21.9016 18.5114 23.9124C18.5076 23.9149 18.5038 23.9174 18.5 23.9199C17.1693 24.8104 16.5043 25.9811 16.505 27.1518Z" fill="#7B7BFF"/>
</svg>
