<svg width="48" height="48" viewBox="0 0 48 48" fill="none" xmlns="http://www.w3.org/2000/svg">
<path d="M35.2998 13.1196L8.39979 40.0196C5.59979 38.2396 4.49979 35.0596 4.49979 31.9996V15.9996C4.49979 9.15962 7.15979 6.49962 13.9998 6.49962H25.9998C31.7798 6.49962 34.5798 8.39962 35.2998 13.1196Z" fill="#FF5F33"/>
<path d="M35.4997 18.4996V31.9996C35.4997 32.1596 35.4797 32.2796 35.4797 32.4196C35.4797 32.5596 35.4597 32.6996 35.4597 32.8396H35.4797C35.2597 39.0596 32.5597 41.4996 25.9997 41.4996H13.9997C13.4997 41.4996 13.0397 41.4796 12.5797 41.4196L35.4997 18.4996Z" fill="#FF5F33"/>
<path d="M45.4997 16.7596V31.2396C45.4997 34.0996 44.1197 35.2396 43.2997 35.6596C42.9197 35.8596 42.3397 36.0796 41.5997 36.0796C40.7397 36.0796 39.6597 35.7996 38.4197 34.9196L35.4797 32.8396H35.4597C35.4597 32.6996 35.4797 32.5596 35.4797 32.4196C35.4797 32.2796 35.4997 32.1596 35.4997 31.9996V18.4996L42.0397 11.9596C42.5797 11.9996 42.9997 12.1596 43.2997 12.3396C44.1197 12.7596 45.4997 13.8996 45.4997 16.7596Z" fill="#FF5F33"/>
<path d="M42.0398 4.33965C41.4398 3.73965 40.4598 3.73965 39.8598 4.33965L2.95977 41.2597C2.35977 41.8596 2.35977 42.8397 2.95977 43.4397C3.25977 43.7197 3.63977 43.8797 4.03977 43.8797C4.43977 43.8797 4.81977 43.7197 5.11977 43.4197L42.0398 6.49965C42.6598 5.89965 42.6598 4.93965 42.0398 4.33965Z" fill="#FF5F33"/>
</svg>
