<svg width="24" height="24" viewBox="0 0 24 24" fill="none" xmlns="http://www.w3.org/2000/svg">
<g clip-path="url(#clip0_2085_9388)">
<g clip-path="url(#clip1_2085_9388)">
<path fill-rule="evenodd" clip-rule="evenodd" d="M6.39366 0.5H14.0833L20.6005 7.29311V20.5058C20.6005 22.1609 19.2615 23.5 17.612 23.5H6.39366C4.73849 23.5 3.39941 22.1609 3.39941 20.5058V3.49424C3.39939 1.83908 4.73846 0.5 6.39366 0.5Z" fill="white"/>
<path fill-rule="evenodd" clip-rule="evenodd" d="M14.0776 0.5V7.24138H20.6006L14.0776 0.5Z" fill="#F3F3F3"/>
<path d="M12.0045 8.9025C8.82928 8.9025 6.25 11.4818 6.25 14.6569C6.25 17.8321 8.82928 20.4025 12.0045 20.4025C15.1796 20.4025 17.75 17.8321 17.75 14.6569C17.75 11.4817 15.1707 8.91136 12.0045 8.9025ZM14.4236 14.8348C14.3792 14.9149 14.3169 14.9771 14.2369 15.0216L10.955 16.667C10.7504 16.7648 10.5014 16.6848 10.4036 16.4802C10.368 16.4268 10.3591 16.3646 10.3591 16.2934V13.0115C10.3591 12.7803 10.5458 12.6024 10.7682 12.6024C10.8304 12.6024 10.8927 12.6113 10.955 12.6469L14.2369 14.2834C14.4414 14.3901 14.5214 14.6302 14.4236 14.8348Z" fill="#FF5F33"/>
</g>
</g>
<defs>
<clipPath id="clip0_2085_9388">
<rect width="24" height="24" fill="white"/>
</clipPath>
<clipPath id="clip1_2085_9388">
<rect width="23" height="23" fill="white" transform="translate(0.5 0.5)"/>
</clipPath>
</defs>
</svg>
