<svg width="24" height="24" viewBox="0 0 24 24" fill="none" xmlns="http://www.w3.org/2000/svg">
<g clip-path="url(#clip0_2026_6466)">
<g clip-path="url(#clip1_2026_6466)">
<path d="M6.25 0.5C5.45937 0.5 4.8125 1.14687 4.8125 1.9375V22.0625C4.8125 22.8531 5.45937 23.5 6.25 23.5H20.625C21.4156 23.5 22.0625 22.8531 22.0625 22.0625V6.25L16.3125 0.5H6.25Z" fill="white"/>
<path d="M17.75 6.25H22.0625L16.3125 0.5V4.8125C16.3125 5.60313 16.9594 6.25 17.75 6.25Z" fill="#F3F3F3"/>
<path d="M22.0625 10.5625L17.75 6.25H22.0625V10.5625Z" fill="white"/>
<path d="M19.1875 19.1875C19.1875 19.5828 18.8641 19.9062 18.4688 19.9062H2.65625C2.26094 19.9062 1.9375 19.5828 1.9375 19.1875V12C1.9375 11.6047 2.26094 11.2812 2.65625 11.2812H18.4688C18.8641 11.2812 19.1875 11.6047 19.1875 12V19.1875Z" fill="#F15642"/>
<path d="M5.0708 14.1182C5.0708 13.9284 5.2203 13.7214 5.46108 13.7214H6.7886C7.5361 13.7214 8.20885 14.2217 8.20885 15.1805C8.20885 16.089 7.5361 16.595 6.7886 16.595H5.82908V17.354C5.82908 17.607 5.66808 17.7501 5.46108 17.7501C5.27133 17.7501 5.0708 17.607 5.0708 17.354V14.1182ZM5.82908 14.4452V15.877H6.7886C7.17385 15.877 7.4786 15.537 7.4786 15.1805C7.4786 14.7787 7.17385 14.4452 6.7886 14.4452H5.82908Z" fill="white"/>
<path d="M9.33425 17.7499C9.1445 17.7499 8.9375 17.6464 8.9375 17.3941V14.1296C8.9375 13.9233 9.1445 13.7731 9.33425 13.7731H10.6503C13.2766 13.7731 13.2191 17.7499 10.7021 17.7499H9.33425ZM9.6965 14.4746V17.0491H10.6503C12.2021 17.0491 12.2711 14.4746 10.6503 14.4746H9.6965Z" fill="white"/>
<path d="M14.1507 14.5207V15.4342H15.6163C15.8233 15.4342 16.0303 15.6412 16.0303 15.8417C16.0303 16.0315 15.8233 16.1867 15.6163 16.1867H14.1507V17.3935C14.1507 17.5948 14.0077 17.7493 13.8065 17.7493C13.5535 17.7493 13.3989 17.5948 13.3989 17.3935V14.129C13.3989 13.9227 13.5542 13.7725 13.8065 13.7725H15.824C16.077 13.7725 16.2265 13.9227 16.2265 14.129C16.2265 14.313 16.077 14.52 15.824 14.52H14.1507V14.5207Z" fill="white"/>
<path d="M18.4688 19.9062H4.8125V20.625H18.4688C18.8641 20.625 19.1875 20.3016 19.1875 19.9062V19.1875C19.1875 19.5828 18.8641 19.9062 18.4688 19.9062Z" fill="white"/>
</g>
</g>
<defs>
<clipPath id="clip0_2026_6466">
<rect width="24" height="24" fill="white"/>
</clipPath>
<clipPath id="clip1_2026_6466">
<rect width="23" height="23" fill="white" transform="translate(0.5 0.5)"/>
</clipPath>
</defs>
</svg>
