<svg width="32" height="32" viewBox="0 0 32 32" fill="none" xmlns="http://www.w3.org/2000/svg">
<path opacity="0.5" d="M17.1098 29.0687C21.2778 28.2333 26.6667 25.2351 26.6667 17.4819C26.6667 10.4265 21.5022 5.72823 17.7887 3.56945C16.9647 3.09043 16 3.72041 16 4.67355V7.11152C16 9.034 15.1917 12.5431 12.9458 14.0027C11.7991 14.7479 10.5607 13.6326 10.4213 12.2722L10.3069 11.155C10.1739 9.85637 8.85122 9.068 7.81327 9.85979C5.94862 11.2822 4 13.7731 4 17.4819C4 26.9634 11.0519 29.3337 14.5778 29.3337C14.7829 29.3337 14.9984 29.3276 15.2228 29.3147C15.8173 29.2398 15.2228 29.447 17.1098 29.0687Z" fill="#696969"/>
<path d="M10.6667 24.5923C10.6667 28.0854 13.4818 29.1656 15.2228 29.3144C15.8174 29.2394 15.2228 29.4467 17.1099 29.0684C18.4948 28.5791 20.0001 27.323 20.0001 24.5923C20.0001 22.862 18.9086 21.7945 18.0535 21.2948C17.7919 21.1419 17.4882 21.3344 17.4648 21.6364C17.3906 22.5939 16.4713 23.3565 15.8449 22.6285C15.2914 21.9852 15.0589 21.0454 15.0589 20.4442V19.6585C15.0589 19.1849 14.5821 18.8711 14.1748 19.1128C12.6602 20.0113 10.6667 21.8599 10.6667 24.5923Z" fill="#696969"/>
</svg>
