<svg width="32" height="32" viewBox="0 0 32 32" fill="none" xmlns="http://www.w3.org/2000/svg">
<path opacity="0.5" d="M28 21.3312V13.3312V13.3312C28 9.55994 28 7.67432 26.8284 6.50275C25.8039 5.47824 24.2334 5.34964 21.3333 5.3335H10.6667C7.76663 5.34964 6.19608 5.47824 5.17157 6.50275C4 7.67432 4 9.55994 4 13.3312V21.3312C4 25.1024 4 26.988 5.17157 28.1596C6.34315 29.3312 8.22876 29.3312 12 29.3312H20C23.7712 29.3312 25.6569 29.3312 26.8284 28.1596C28 26.988 28 25.1024 28 21.3312V21.3312Z" fill="#BB55A4"/>
<path d="M10.6667 4.6665C10.6667 3.56193 11.5622 2.6665 12.6667 2.6665H19.3334C20.438 2.6665 21.3334 3.56193 21.3334 4.6665V5.99984C21.3334 7.10441 20.438 7.99984 19.3334 7.99984H12.6667C11.5622 7.99984 10.6667 7.10441 10.6667 5.99984V4.6665Z" fill="#BB55A4"/>
<path fill-rule="evenodd" clip-rule="evenodd" d="M8.33325 14C8.33325 13.4477 8.78097 13 9.33325 13H9.99992C10.5522 13 10.9999 13.4477 10.9999 14C10.9999 14.5523 10.5522 15 9.99992 15H9.33325C8.78097 15 8.33325 14.5523 8.33325 14ZM12.9999 14C12.9999 13.4477 13.4476 13 13.9999 13H22.6666C23.2189 13 23.6666 13.4477 23.6666 14C23.6666 14.5523 23.2189 15 22.6666 15H13.9999C13.4476 15 12.9999 14.5523 12.9999 14ZM8.33325 18.6667C8.33325 18.1144 8.78097 17.6667 9.33325 17.6667H9.99992C10.5522 17.6667 10.9999 18.1144 10.9999 18.6667C10.9999 19.219 10.5522 19.6667 9.99992 19.6667H9.33325C8.78097 19.6667 8.33325 19.219 8.33325 18.6667ZM12.9999 18.6667C12.9999 18.1144 13.4476 17.6667 13.9999 17.6667H22.6666C23.2189 17.6667 23.6666 18.1144 23.6666 18.6667C23.6666 19.219 23.2189 19.6667 22.6666 19.6667H13.9999C13.4476 19.6667 12.9999 19.219 12.9999 18.6667ZM8.33325 23.3333C8.33325 22.781 8.78097 22.3333 9.33325 22.3333H9.99992C10.5522 22.3333 10.9999 22.781 10.9999 23.3333C10.9999 23.8856 10.5522 24.3333 9.99992 24.3333H9.33325C8.78097 24.3333 8.33325 23.8856 8.33325 23.3333ZM12.9999 23.3333C12.9999 22.781 13.4476 22.3333 13.9999 22.3333H22.6666C23.2189 22.3333 23.6666 22.781 23.6666 23.3333C23.6666 23.8856 23.2189 24.3333 22.6666 24.3333H13.9999C13.4476 24.3333 12.9999 23.8856 12.9999 23.3333Z" fill="#BB55A4"/>
</svg>
