<svg width="32" height="32" viewBox="0 0 32 32" fill="none" xmlns="http://www.w3.org/2000/svg">
<path fill-rule="evenodd" clip-rule="evenodd" d="M2.4242 7.03009C2.96 6.89615 3.50293 7.22191 3.63688 7.7577L4.14617 9.79486C4.95926 13.0472 7.5215 15.5688 10.7794 16.3336H21.3334C24.1215 16.3336 26.4682 18.4204 26.7939 21.1893L27.6599 28.5501C27.7244 29.0986 27.3321 29.5955 26.7836 29.6601C26.2351 29.7246 25.7381 29.3322 25.6736 28.7837L24.8076 21.423C24.6004 19.6613 23.1073 18.3336 21.3334 18.3336H10.557L10.4498 18.3098C6.40286 17.4104 3.21136 14.3018 2.20589 10.2799L1.6966 8.24277C1.56265 7.70698 1.88841 7.16404 2.4242 7.03009Z" fill="#FF9B47"/>
<path opacity="0.5" d="M10.6667 18.3335V24.0002C10.6667 26.5143 10.6667 27.7714 11.4478 28.5524C12.2288 29.3335 13.4859 29.3335 16.0001 29.3335C18.5142 29.3335 19.7713 29.3335 20.5524 28.5524C21.3334 27.7714 21.3334 26.5143 21.3334 24.0002V18.3335H10.6667Z" fill="#FF9B47"/>
<ellipse cx="16.0001" cy="7.99984" rx="5.33333" ry="5.33333" fill="#FF9B47"/>
</svg>
