<svg width="18" height="19" viewBox="0 0 18 19" fill="none" xmlns="http://www.w3.org/2000/svg">
<path fill-rule="evenodd" clip-rule="evenodd" d="M15.0159 5.89978H2.9843C2.90509 5.89978 2.83954 5.96137 2.83459 6.04042L2.29669 14.6469C2.23732 15.5968 2.99172 16.3998 3.94348 16.3998H14.0568C15.0085 16.3998 15.7629 15.5968 15.7036 14.6469L15.1657 6.04042C15.1607 5.96137 15.0952 5.89978 15.0159 5.89978ZM2.9843 4.54978C2.19221 4.54978 1.53663 5.16566 1.48722 5.95621L0.949321 14.5626C0.841378 16.2897 2.21301 17.7498 3.94348 17.7498H14.0568C15.7872 17.7498 17.1589 16.2897 17.0509 14.5626L16.513 5.95621C16.4636 5.16566 15.808 4.54978 15.0159 4.54978H2.9843Z" fill="#F3F3F3"/>
<path fill-rule="evenodd" clip-rule="evenodd" d="M6.52512 7.2498C6.89791 7.2498 7.20012 7.55201 7.20012 7.9248C7.20012 8.91891 8.00601 9.7248 9.00012 9.7248C9.99424 9.7248 10.8001 8.91891 10.8001 7.9248C10.8001 7.55201 11.1023 7.2498 11.4751 7.2498C11.8479 7.2498 12.1501 7.55201 12.1501 7.9248C12.1501 9.6645 10.7398 11.0748 9.00012 11.0748C7.26043 11.0748 5.85012 9.6645 5.85012 7.9248C5.85012 7.55201 6.15233 7.2498 6.52512 7.2498Z" fill="#F3F3F3"/>
<path fill-rule="evenodd" clip-rule="evenodd" d="M5.85012 3.72471C5.85012 1.98501 7.26043 0.574707 9.00012 0.574707C10.7398 0.574707 12.1501 1.98501 12.1501 3.72471V4.96221C12.1501 5.335 11.8479 5.63721 11.4751 5.63721C11.1023 5.63721 10.8001 5.335 10.8001 4.96221V3.72471C10.8001 2.73059 9.99424 1.92471 9.00012 1.92471C8.00601 1.92471 7.20012 2.73059 7.20012 3.72471V4.96221C7.20012 5.335 6.89792 5.63721 6.52513 5.63721C6.15233 5.63721 5.85012 5.335 5.85012 4.96221V3.72471Z" fill="#F3F3F3"/>
</svg>
