<svg width="159" height="56" viewBox="0 0 159 56" fill="none" xmlns="http://www.w3.org/2000/svg">
<path d="M12.2586 9.16658C9.19024 10.4332 5.81708 14.0115 4.75172 18.5031C3.40253 24.1941 9.01714 26.6006 9.47765 25.8116C10.0197 24.8844 8.47158 24.5708 8.15292 21.6181C7.74107 17.8044 9.53894 13.5429 11.8016 11.6732C12.2222 11.3258 12.2022 11.8093 12.2022 12.7036C12.2022 14.3029 12.1126 28.6598 12.1126 31.6561C12.1126 35.7105 11.9428 36.9907 11.6378 38.2558C11.3288 39.5379 10.832 40.4041 11.2085 40.7378C11.629 41.1111 13.4247 40.2232 14.4643 38.7924C15.7109 37.0764 16.1472 35.0155 16.2256 32.7774C16.3202 30.0795 16.3162 25.7984 16.3202 23.3566C16.324 21.117 16.3585 14.559 16.2804 10.6166C16.2613 9.64966 13.5418 8.63514 12.2585 9.1654M121.216 28.1407C121.118 30.2485 120.644 31.896 120.057 33.058C118.921 35.3078 116.562 36.0063 115.56 32.7723C115.014 31.0094 114.989 28.0652 115.381 25.6052C115.781 23.0991 116.896 21.2064 118.743 21.3771C120.564 21.5458 121.417 23.8606 121.216 28.1407ZM90.5076 41.2178C90.4829 44.72 89.924 47.7907 88.7254 48.6825C87.0255 49.9471 84.7406 48.9985 85.2137 46.443C85.6323 44.1815 87.6121 41.872 90.5124 39.0501C90.5124 39.0501 90.5184 39.6937 90.5076 41.2178ZM90.0434 28.1203C89.9394 30.0401 89.4347 31.9686 88.8841 33.0583C87.7476 35.308 85.3717 36.0113 84.3871 32.7725C83.7139 30.5597 83.8751 27.6957 84.2082 25.8911C84.6404 23.5497 85.6881 21.3776 87.5697 21.3776C89.3991 21.3776 90.3012 23.3567 90.0434 28.1203ZM72.2537 28.0909C72.1421 30.1242 71.7399 31.8238 71.0945 33.0583C69.9267 35.2925 67.6163 36.0011 66.5974 32.7725C65.8628 30.4445 66.1129 27.2702 66.4185 25.5554C66.8719 23.0107 68.0074 21.2067 69.7801 21.3776C71.6009 21.553 72.4861 23.8606 72.2537 28.0909ZM153.78 30.4658C153.335 30.4658 153.132 30.9183 152.963 31.6799C152.381 34.3281 151.768 34.926 150.978 34.926C150.095 34.926 149.302 33.6148 149.098 30.9899C148.938 28.9258 148.964 25.1259 149.169 21.346C149.21 20.5694 148.993 19.801 146.881 19.0443C145.972 18.7188 144.651 18.2395 143.993 19.8055C142.134 24.2296 141.407 27.742 141.236 29.1688C141.227 29.2427 141.135 29.2578 141.119 29.0852C141.01 27.9424 140.766 25.8657 140.736 21.5026C140.73 20.6513 140.547 19.9266 139.595 19.3334C138.976 18.9485 137.099 18.2676 136.423 19.0776C135.837 19.74 135.159 21.5227 134.454 23.6359C133.882 25.3534 133.483 26.5152 133.483 26.5152C133.483 26.5152 133.49 21.881 133.497 20.1232C133.5 19.4601 133.039 19.2391 132.9 19.199C132.274 19.0199 131.04 18.7205 130.517 18.7205C129.871 18.7205 129.713 19.0766 129.713 19.5954C129.713 19.6634 129.611 25.6968 129.611 29.9156C129.611 30.0989 129.611 30.2988 129.612 30.5112C129.255 32.4502 128.096 35.0824 126.836 35.0824C125.575 35.0824 124.979 33.982 124.979 28.9524C124.979 26.0184 125.069 24.7426 125.113 22.6204C125.138 21.3981 125.187 20.4595 125.185 20.2465C125.175 19.5933 124.03 19.2641 123.497 19.1424C122.962 19.0197 122.496 18.9722 122.133 18.9926C121.619 19.0212 121.255 19.3539 121.255 19.8115C121.255 20.0569 121.258 20.5235 121.258 20.5235C120.595 19.497 119.53 18.7826 118.821 18.5755C116.912 18.0164 114.92 18.5118 113.417 20.5854C112.223 22.233 111.503 24.0991 111.22 26.7801C111.012 28.7401 111.08 30.7277 111.448 32.4086C111.003 34.3053 110.177 35.0824 109.273 35.0824C107.96 35.0824 107.008 32.9691 107.119 29.3143C107.192 26.9103 107.68 25.2233 108.213 22.7827C108.44 21.7423 108.255 21.1976 107.792 20.6755C107.367 20.1967 106.462 19.9521 105.16 20.253C104.233 20.4675 102.908 20.6981 101.695 20.8753C101.695 20.8753 101.768 20.5874 101.828 20.0798C102.144 17.4177 99.2103 17.6337 98.2744 18.484C97.7157 18.9916 97.3355 19.5903 97.1911 20.6668C96.9623 22.3751 98.3751 23.1808 98.3751 23.1808C97.9115 25.2733 96.7753 28.0068 95.6022 29.9831C94.9739 31.042 94.4932 31.8266 93.8727 32.6607C93.8704 32.3501 93.8687 32.0396 93.8676 31.7304C93.8534 27.3312 93.9128 23.8688 93.939 22.6209C93.9645 21.3986 94.0142 20.4848 94.0114 20.2718C94.0044 19.794 93.7215 19.6136 93.133 19.3852C92.6127 19.1831 91.9976 19.0433 91.3594 18.9945C90.554 18.9325 90.0687 19.3538 90.0813 19.852C90.0838 19.9461 90.0838 20.5236 90.0838 20.5236C89.4214 19.4972 88.3561 18.7828 87.6473 18.5757C85.7381 18.0168 83.746 18.5123 82.2433 20.5856C81.0493 22.2332 80.2673 24.5452 80.0457 26.7598C79.8393 28.8239 79.8774 30.578 80.1588 32.0557C79.8552 33.5353 78.9824 35.0826 77.9956 35.0826C76.7339 35.0826 76.016 33.9821 76.016 28.9526C76.016 26.0185 76.1053 24.7427 76.1492 22.6209C76.1747 21.3986 76.2239 20.4597 76.2211 20.2469C76.2119 19.5937 75.0665 19.2645 74.5335 19.1426C73.9759 19.0154 73.4944 18.9686 73.1248 18.9955C72.637 19.0313 72.2941 19.4621 72.2941 19.7833V20.5236C71.6317 19.4972 70.5664 18.7828 69.8576 18.5757C67.9484 18.0168 65.9674 18.5202 64.4536 20.5856C63.4665 21.9323 62.6674 23.4254 62.2561 26.7305C62.1372 27.6856 62.0847 28.58 62.0915 29.416C61.6979 31.79 59.9593 34.5262 58.5372 34.5262C57.705 34.5262 56.9124 32.9344 56.9124 29.5419C56.9124 25.0229 57.196 18.5889 57.244 17.9688C57.244 17.9688 59.0408 17.9387 59.3888 17.9347C60.2851 17.925 61.0969 17.9459 62.2906 17.8857C62.8894 17.8556 63.4662 15.7364 62.8483 15.4742C62.5682 15.3555 60.5886 15.2514 59.8039 15.235C59.1441 15.2203 57.3071 15.0862 57.3071 15.0862C57.3071 15.0862 57.4718 10.8156 57.5102 10.3645C57.5428 9.98845 57.0494 9.79486 56.7666 9.67739C56.0787 9.39049 55.4633 9.25312 54.7338 9.10481C53.726 8.89978 53.2687 9.10033 53.1794 9.93918C53.0449 11.2123 52.9753 14.9411 52.9753 14.9411C52.2357 14.9411 49.7093 14.7986 48.9695 14.7986C48.2822 14.7986 47.5403 17.7137 48.4906 17.7496C49.5839 17.7914 51.4893 17.8274 52.7525 17.865C52.7525 17.865 52.6962 24.4051 52.6962 26.4242C52.6962 26.639 52.6981 26.8458 52.6985 27.0466C52.0033 30.6199 49.5547 32.5502 49.5547 32.5502C50.0805 30.1862 49.0063 28.4109 47.0715 26.9082C46.3586 26.3544 44.9514 25.3061 43.3768 24.1573C43.3768 24.1573 44.2887 23.2709 45.0975 21.4877C45.6705 20.2246 45.6952 18.7791 44.2887 18.4603C41.9647 17.9332 40.0485 19.6164 39.477 21.4133C39.0342 22.8053 39.2704 23.8382 40.1379 24.9112C40.2012 24.9896 40.2698 25.0698 40.3407 25.1504C39.8161 26.1475 39.0955 27.49 38.4851 28.5311C36.7909 31.4217 35.5111 33.708 34.5439 33.708C33.7708 33.708 33.7811 31.3868 33.7811 29.2135C33.7811 27.3399 33.9214 24.523 34.0334 21.6066C34.0705 20.6421 33.5815 20.0927 32.7617 19.595C32.2636 19.2927 31.2005 18.6982 30.5848 18.6982C29.6633 18.6982 27.0045 18.8219 24.4923 25.9882C24.1757 26.8915 23.5537 28.5374 23.5537 28.5374L23.6072 19.9195C23.6072 19.7174 23.4981 19.5221 23.2482 19.3885C22.8249 19.1618 21.6942 18.6982 20.6888 18.6982C20.2098 18.6982 19.9707 18.9179 19.9707 19.3559L19.883 32.8386C19.883 33.863 19.9101 35.0581 20.0128 35.5808C20.1152 36.1042 20.2809 36.5299 20.4863 36.7832C20.6913 37.036 20.9284 37.2289 21.3194 37.3085C21.6834 37.3824 23.6761 37.6347 23.7797 36.8837C23.9038 35.9837 23.9085 35.0102 24.9549 31.3796C26.5839 25.7272 28.7079 22.9693 29.7063 21.9899C29.8809 21.8187 30.0803 21.8084 30.0707 22.0886C30.028 23.3279 29.8781 26.4245 29.7772 29.0552C29.5068 36.0954 30.8055 37.4003 32.6614 37.4003C34.0813 37.4003 36.0828 36.009 38.2283 32.4872C39.566 30.2925 40.8647 28.1405 41.7978 26.5894C42.4481 27.1831 43.1778 27.822 43.9071 28.5045C45.6017 30.0907 46.1581 31.5979 45.789 33.0277C45.5066 34.1208 44.4433 35.2473 42.5508 34.1524C41.9992 33.8329 41.7638 33.5861 41.2091 33.226C40.9111 33.0326 40.4562 32.9747 40.1834 33.1774C39.4749 33.7042 39.0696 34.3744 38.8382 35.204C38.6132 36.0113 39.433 36.438 40.2828 36.8113C41.0146 37.1325 42.5874 37.4236 43.5904 37.4568C47.4985 37.5857 50.6292 35.5959 52.8086 30.4634C53.1987 34.896 54.8591 37.4043 57.7437 37.4043C59.6723 37.4043 61.6059 34.9459 62.4515 32.5275C62.6942 33.5133 63.0536 34.3706 63.5176 35.0955C65.7404 38.5686 70.0525 37.8211 72.2185 34.8719C72.8882 33.9606 72.9902 33.6331 72.9902 33.6331C73.3061 36.4179 75.5801 37.3909 76.8821 37.3909C78.3404 37.3909 79.846 36.711 80.9013 34.3682C81.0249 34.6225 81.1599 34.8653 81.3073 35.0955C83.5301 38.5685 87.8422 37.821 90.0082 34.8718C90.1104 34.7335 90.199 34.608 90.2764 34.4953L90.34 36.3245C90.34 36.3245 89.1043 37.4424 88.3458 38.1281C85.0075 41.1486 82.469 43.4401 82.2823 46.1087C82.0426 49.5113 84.841 50.776 86.958 50.9417C89.2063 51.1176 91.1316 49.8929 92.315 48.1788C93.3559 46.6701 94.0372 43.423 93.9872 40.2159C93.9673 38.9316 93.9345 37.2987 93.9088 35.5484C95.0821 34.2046 96.4041 32.5063 97.6213 30.5183C98.9479 28.3518 100.369 25.4425 101.097 23.1782C101.097 23.1782 102.333 23.1887 103.651 23.1036C104.072 23.0765 104.194 23.1613 104.116 23.4662C104.021 23.8344 102.45 29.8111 103.884 33.7926C104.866 36.5181 107.079 37.395 108.39 37.395C109.926 37.395 111.395 36.2513 112.182 34.553C112.277 34.7424 112.376 34.9256 112.485 35.0947C114.708 38.5678 119.004 37.8158 121.186 34.8711C121.678 34.2067 121.957 33.6323 121.957 33.6323C122.425 36.5144 124.698 37.4047 126 37.4047C127.356 37.4047 128.643 36.8565 129.687 34.4201C129.731 35.4929 129.799 36.37 129.908 36.6466C129.974 36.8157 130.359 37.028 130.64 37.1306C131.88 37.5842 133.145 37.3697 133.613 37.2764C133.938 37.2116 134.19 36.9551 134.225 36.2927C134.316 34.5533 134.26 31.6309 134.795 29.459C135.692 25.814 136.529 24.4001 136.927 23.7001C137.149 23.3079 137.4 23.2432 137.409 23.6583C137.428 24.4981 137.47 26.9644 137.818 30.2779C138.073 32.7149 138.414 34.1554 138.676 34.6112C139.424 35.9149 140.349 35.9767 141.101 35.9767C141.58 35.9767 142.581 35.8462 142.491 35.0166C142.447 34.6122 142.524 32.1131 143.409 28.5221C143.987 26.177 144.95 24.0581 145.298 23.2835C145.426 22.9978 145.485 23.223 145.483 23.2669C145.41 24.8819 145.246 30.1643 145.913 33.0533C146.817 36.9671 149.434 37.405 150.345 37.405C152.291 37.405 153.883 35.945 154.419 32.1035C154.549 31.179 154.357 30.4651 153.784 30.4651" fill="#F3F3F3"/>
</svg>
