<svg width="42" height="28" viewBox="0 0 42 28" fill="none" xmlns="http://www.w3.org/2000/svg">
<rect x="0.916504" y="0.25" width="40.3333" height="27.5" rx="3.25" fill="white" stroke="#D6D6D6" stroke-width="0.5"/>
<path fill-rule="evenodd" clip-rule="evenodd" d="M13.0626 18.9675H10.5889L8.73395 11.8907C8.64591 11.5651 8.45896 11.2773 8.18397 11.1417C7.4977 10.8008 6.74148 10.5295 5.9165 10.3927V10.1203H9.90145C10.4514 10.1203 10.8639 10.5295 10.9327 11.0049L11.8951 16.1096L14.3676 10.1203H16.7726L13.0626 18.9675ZM18.1476 18.9675H15.8114L17.7351 10.1203H20.0713L18.1476 18.9675ZM23.0937 12.5713C23.1625 12.0948 23.5749 11.8224 24.0562 11.8224C24.8124 11.7539 25.6362 11.8908 26.3236 12.2305L26.7361 10.3256C26.0486 10.0531 25.2924 9.91632 24.6062 9.91632C22.3387 9.91632 20.6887 11.1418 20.6887 12.8426C20.6887 14.1365 21.8575 14.8159 22.6824 15.2251C23.5749 15.6332 23.9187 15.9057 23.8499 16.3138C23.8499 16.9259 23.1625 17.1984 22.4762 17.1984C21.6512 17.1984 20.8262 16.9944 20.0712 16.6535L19.6587 18.5595C20.4837 18.8992 21.3762 19.036 22.2012 19.036C24.7436 19.1033 26.3236 17.879 26.3236 16.0413C26.3236 13.7272 23.0937 13.5916 23.0937 12.5713ZM34.4999 18.9675L32.6449 10.1203H30.6524C30.2399 10.1203 29.8275 10.3927 29.69 10.8008L26.255 18.9675H28.6599L29.14 17.6748H32.0949L32.3699 18.9675H34.4999ZM30.9961 12.5032L31.6824 15.8375H29.7587L30.9961 12.5032Z" fill="#172B85"/>
</svg>
