<svg width="100" height="20" viewBox="0 0 100 20" fill="none" xmlns="http://www.w3.org/2000/svg">
<g clip-path="url(#clip0_2053_4530)">
<path d="M3.89498 18.9088V19.8762H3.51123V17.0386H3.89816V17.2804C3.99075 17.1842 4.10001 17.1055 4.22063 17.0482C4.34308 16.9967 4.47469 16.9703 4.60756 16.9709C4.75693 16.9659 4.9057 16.992 5.04446 17.0475C5.18323 17.103 5.30896 17.1867 5.41371 17.2933C5.51951 17.3987 5.60268 17.5245 5.65812 17.6631C5.71356 17.8017 5.74011 17.9502 5.73614 18.0994C5.73719 18.2463 5.70981 18.3919 5.65553 18.5283C5.60372 18.6616 5.5259 18.7832 5.42658 18.8861C5.32897 18.9958 5.20769 19.0818 5.07191 19.1376C4.93382 19.1939 4.78567 19.2213 4.63658 19.2182C4.49738 19.2194 4.35932 19.1931 4.23027 19.1409C4.10209 19.084 3.98605 19.003 3.88847 18.9023M3.88847 18.0768C3.88595 18.1768 3.90348 18.2762 3.94003 18.3692C3.97658 18.4623 4.0314 18.547 4.10126 18.6185C4.16491 18.6906 4.24339 18.7481 4.33132 18.7871C4.41926 18.826 4.51457 18.8455 4.61074 18.8442C4.70771 18.8438 4.80365 18.8243 4.89308 18.7868C4.9825 18.7493 5.06367 18.6945 5.13194 18.6257C5.20021 18.5568 5.25424 18.4752 5.29096 18.3854C5.32768 18.2957 5.34635 18.1995 5.34593 18.1026C5.34774 18.002 5.32958 17.902 5.2925 17.8085C5.25542 17.7149 5.20015 17.6297 5.1299 17.5576C5.06256 17.4871 4.98142 17.4313 4.89154 17.3936C4.80166 17.3559 4.70497 17.3371 4.60751 17.3384C4.51283 17.3386 4.41923 17.3585 4.33264 17.3968C4.24605 17.4351 4.16836 17.491 4.10449 17.5608C4.03525 17.6276 3.98037 17.7078 3.94322 17.7965C3.90608 17.8852 3.88744 17.9806 3.88847 18.0768" fill="#3792D0"/>
<path d="M12.6144 19.1699V18.8926C12.5235 18.9907 12.4139 19.0697 12.292 19.1248C12.1704 19.1795 12.0383 19.207 11.905 19.2054C11.7563 19.2093 11.6083 19.1827 11.4702 19.1273C11.3321 19.0718 11.2068 18.9887 11.1021 18.883C10.9965 18.7768 10.9135 18.6504 10.8581 18.5113C10.8027 18.3722 10.776 18.2233 10.7796 18.0736C10.7783 17.9268 10.8057 17.7811 10.8602 17.6448C10.9106 17.5124 10.9874 17.3917 11.0859 17.29C11.186 17.1832 11.3067 17.0976 11.4406 17.0385C11.5798 16.9822 11.7291 16.9547 11.8792 16.9577C12.0184 16.9566 12.1565 16.9829 12.2855 17.0351C12.4076 17.0913 12.5173 17.1713 12.608 17.2704V17.0124H12.9982V19.1568L12.6144 19.1699ZM11.1733 18.0832C11.1704 18.184 11.188 18.2843 11.2251 18.378C11.2623 18.4717 11.3181 18.5568 11.3893 18.6282C11.4562 18.7003 11.5377 18.7574 11.6283 18.7957C11.7189 18.8341 11.8166 18.8528 11.9149 18.8507C12.0091 18.8504 12.1022 18.8305 12.1883 18.7922C12.2744 18.7539 12.3515 18.698 12.4148 18.6282C12.4845 18.561 12.5399 18.4803 12.5776 18.3911C12.6153 18.3019 12.6345 18.2059 12.634 18.109C12.636 18.0094 12.618 17.9103 12.5808 17.8178C12.5437 17.7252 12.4883 17.6412 12.418 17.5705C12.3536 17.4985 12.2745 17.4411 12.1861 17.4022C12.0976 17.3632 12.0019 17.3437 11.9053 17.3448C11.8086 17.3448 11.7129 17.364 11.6237 17.4011C11.5344 17.4383 11.4535 17.4928 11.3854 17.5615C11.3173 17.6301 11.2636 17.7116 11.2272 17.8011C11.1908 17.8907 11.1725 17.9866 11.1733 18.0832" fill="#3792D0"/>
<path d="M18.0254 17.0256H18.4381L19.0185 18.6218L19.6441 17.0256H20.0601L18.9057 19.8632H18.4994L18.7961 19.1087L18.0254 17.0256Z" fill="#3792D0"/>
<path d="M26.3929 18.0865C26.4064 17.8906 26.3675 17.6947 26.28 17.519C26.2433 17.4598 26.1912 17.4118 26.1293 17.38C26.0674 17.3482 25.998 17.3338 25.9285 17.3384C25.8573 17.3338 25.7861 17.3481 25.7221 17.3798C25.6582 17.4115 25.6037 17.4595 25.5642 17.519C25.4722 17.6876 25.4308 17.8791 25.4449 18.0706V19.1701H25.0771V17.0258H25.4222V17.2804C25.4855 17.1911 25.5682 17.1172 25.664 17.0644C25.7636 17.0132 25.8747 16.9887 25.9865 16.9935C26.1223 16.9885 26.2569 17.0197 26.3767 17.0838C26.4878 17.1497 26.5765 17.2474 26.6314 17.3643C26.688 17.2465 26.7791 17.1487 26.8926 17.0838C27.0171 17.0197 27.1558 16.9887 27.2957 16.9935C27.4037 16.9884 27.5115 17.0069 27.6117 17.0475C27.7119 17.0882 27.8021 17.15 27.8761 17.2289C28.0306 17.407 28.1093 17.6384 28.0954 17.8738V19.1862H27.7085V17.9253C27.7178 17.7735 27.6745 17.6232 27.5859 17.4996C27.5482 17.4502 27.4993 17.4104 27.4433 17.3835C27.3872 17.3566 27.3256 17.3433 27.2634 17.3448C27.1942 17.3388 27.1245 17.3507 27.0612 17.3795C26.998 17.4084 26.9432 17.453 26.9023 17.5093C26.815 17.6769 26.777 17.8659 26.7927 18.0542V19.1764H26.4186L26.3929 18.0865Z" fill="#3792D0"/>
<path d="M33.6126 18.2477C33.6385 18.4171 33.7243 18.5716 33.8544 18.6831C33.9656 18.7764 34.1026 18.8337 34.2471 18.8475C34.3916 18.8613 34.5369 18.831 34.6637 18.7604C34.7691 18.697 34.8558 18.6069 34.9153 18.4993H35.3474C35.2648 18.7176 35.1216 18.9078 34.9346 19.0474C34.7533 19.1739 34.5365 19.2394 34.3155 19.2344C34.1663 19.2356 34.0183 19.2071 33.8802 19.1506C33.7444 19.0932 33.6224 19.0075 33.5224 18.8991C33.4216 18.793 33.3427 18.668 33.2902 18.5314C33.233 18.3967 33.2034 18.252 33.2032 18.1057C33.2021 17.9602 33.2283 17.8159 33.2806 17.6801C33.334 17.5476 33.4116 17.4263 33.5095 17.3223C33.61 17.2111 33.7316 17.1212 33.8673 17.0578C34.006 16.999 34.1552 16.9694 34.3058 16.9708C34.4892 16.9687 34.67 17.0131 34.8315 17.1C34.9931 17.1888 35.1313 17.3149 35.2346 17.4677C35.2952 17.5684 35.3419 17.6769 35.3732 17.7902C35.4032 17.9224 35.4173 18.0577 35.4151 18.1933V18.2479L33.6126 18.2477ZM34.9927 17.8995C34.955 17.7402 34.8681 17.5969 34.7442 17.49C34.6207 17.3938 34.4687 17.3415 34.3121 17.3415C34.1556 17.3415 34.0035 17.3938 33.8801 17.49C33.7527 17.5923 33.6631 17.7341 33.6253 17.893L34.9927 17.8995Z" fill="#3792D0"/>
<path d="M40.9291 19.17H40.5454V17.0257H40.9162V17.2804C40.9876 17.1916 41.0779 17.12 41.1806 17.0708C41.282 17.0254 41.392 17.0023 41.5031 17.0031C41.6222 16.9955 41.7415 17.0137 41.8528 17.0566C41.9641 17.0995 42.0648 17.166 42.148 17.2516C42.3104 17.4497 42.3911 17.7022 42.3737 17.9577V19.1831H41.9965V18.0451C42.0092 17.8668 41.9638 17.6892 41.8673 17.5388C41.8203 17.482 41.7603 17.4374 41.6924 17.4088C41.6244 17.3802 41.5506 17.3684 41.4771 17.3744C41.3965 17.3679 41.3156 17.3823 41.2422 17.4162C41.1688 17.4501 41.1053 17.5023 41.058 17.5678C40.9566 17.7669 40.9119 17.99 40.9288 18.2127L40.9291 19.17Z" fill="#3792D0"/>
<path d="M47.7555 19.1699V17.3738H47.4492V17.0256H47.7555V16.3291H48.1392V17.0256H48.4424V17.3738H48.1392V19.1699H47.7555Z" fill="#3792D0"/>
<path d="M59.7315 18.2478C59.7492 18.3613 59.7941 18.4688 59.8623 18.5612C59.9305 18.6536 60.0201 18.7282 60.1233 18.7785C60.2265 18.8289 60.3404 18.8535 60.4552 18.8504C60.5701 18.8472 60.6824 18.8164 60.7827 18.7605C60.8888 18.6979 60.9757 18.6076 61.0343 18.4993H61.4696C61.3848 18.7172 61.2407 18.9071 61.0536 19.0475C60.8723 19.1739 60.6555 19.2394 60.4345 19.2345C60.2863 19.2359 60.1393 19.2074 60.0024 19.1506C59.8666 19.0932 59.7446 19.0075 59.6446 18.8991C59.5439 18.7923 59.4641 18.6676 59.4092 18.5314C59.3017 18.2578 59.3017 17.9537 59.4092 17.6801C59.4614 17.5478 59.538 17.4264 59.6349 17.3223C59.8005 17.1444 60.0201 17.0261 60.2598 16.9859C60.4994 16.9456 60.7457 16.9857 60.9602 17.0998C61.0929 17.1704 61.2094 17.2679 61.3021 17.3862C61.3949 17.5045 61.4618 17.6409 61.4987 17.7866C61.5299 17.9187 61.545 18.054 61.5439 18.1897V18.2478H59.7315ZM61.1149 17.8995C61.0762 17.7399 60.9882 17.5966 60.8634 17.49C60.7435 17.3921 60.5924 17.3406 60.4377 17.3449C60.2783 17.3427 60.1232 17.3964 59.9992 17.4965C59.8728 17.5996 59.7833 17.7411 59.7445 17.8995L61.1149 17.8995Z" fill="#3792D0"/>
<path d="M67.0446 19.17H66.6577V17.0256H67.0285V17.2804C67.0993 17.1906 67.1901 17.1188 67.2937 17.0706C67.3972 17.0224 67.5107 16.9993 67.6249 17.0031C67.7439 16.9958 67.8631 17.0143 67.9744 17.0571C68.0857 17.1 68.1864 17.1663 68.2698 17.2515C68.4311 17.4502 68.5116 17.7023 68.4955 17.9577V19.183H68.115V18.045C68.1287 17.8671 68.0846 17.6896 67.9892 17.5388C67.9421 17.4822 67.882 17.4377 67.8142 17.4091C67.7463 17.3805 67.6725 17.3686 67.5991 17.3743C67.5185 17.3675 67.4374 17.3818 67.364 17.4157C67.2905 17.4496 67.2271 17.502 67.1799 17.5678C67.0769 17.7663 67.0322 17.9898 67.0507 18.2127L67.0446 19.17Z" fill="#3792D0"/>
<path d="M73.7711 19.3408H74.1807C74.237 19.437 74.3183 19.5162 74.4161 19.5698C74.5154 19.6224 74.6261 19.65 74.7385 19.6504C74.8351 19.6542 74.9315 19.6385 75.0218 19.6042C75.1121 19.5698 75.1946 19.5175 75.2642 19.4504C75.3307 19.3826 75.3825 19.3018 75.4164 19.213C75.4502 19.1242 75.4654 19.0294 75.4609 18.9345V18.8926C75.3702 18.991 75.2605 19.07 75.1384 19.1247C75.0156 19.1792 74.8826 19.2067 74.7482 19.2054C74.5995 19.2093 74.4515 19.1827 74.3134 19.1272C74.1753 19.0718 74.05 18.9886 73.9453 18.8829C73.8397 18.7767 73.7567 18.6503 73.7013 18.5112C73.6459 18.3721 73.6192 18.2232 73.6229 18.0735C73.6216 17.9267 73.649 17.781 73.7035 17.6447C73.7538 17.5115 73.8318 17.3906 73.9324 17.2899C74.0313 17.1831 74.1509 17.0976 74.2839 17.0384C74.4231 16.9821 74.5723 16.9546 74.7224 16.9577C74.8616 16.9566 74.9997 16.9829 75.1287 17.0351C75.2564 17.0898 75.3716 17.17 75.4672 17.2708V17.0128H75.8542V18.8024C75.8727 19.1201 75.7688 19.4328 75.5639 19.6763C75.4621 19.7849 75.3377 19.87 75.1996 19.9256C75.0615 19.9813 74.913 20.0063 74.7642 19.9987C74.5419 20.0053 74.3228 19.9447 74.1354 19.8248C73.9603 19.7077 73.8297 19.535 73.7646 19.3347M74.0226 18.0771C74.0204 18.1777 74.0384 18.2778 74.0755 18.3714C74.1126 18.465 74.1681 18.5502 74.2386 18.622C74.3059 18.6936 74.3874 18.7504 74.4779 18.7887C74.5685 18.8271 74.666 18.846 74.7642 18.8445C74.8589 18.8443 74.9525 18.8244 75.0391 18.7861C75.1257 18.7478 75.2034 18.6919 75.2673 18.622C75.3366 18.5547 75.3915 18.4739 75.4287 18.3847C75.4658 18.2954 75.4844 18.1995 75.4833 18.1029C75.4852 18.0035 75.4674 17.9047 75.4309 17.8123C75.3943 17.7199 75.3398 17.6356 75.2705 17.5644C75.2057 17.4928 75.1265 17.4357 75.0382 17.3969C74.9499 17.358 74.8543 17.3381 74.7578 17.3386C74.6608 17.3382 74.5648 17.357 74.4752 17.394C74.3856 17.431 74.3042 17.4855 74.2358 17.5542C74.1674 17.6229 74.1133 17.7045 74.0767 17.7942C74.0401 17.884 74.0217 17.9801 74.0226 18.0771Z" fill="#3792D0"/>
<path d="M81.4809 16.7739H81.0972V16.3291H81.4809V16.7739ZM81.1004 17.0254H81.4809V19.1667H81.1004V17.0254Z" fill="#3792D0"/>
<path d="M87.1174 19.17H86.7305V17.0257H87.1013V17.2804C87.1726 17.1916 87.263 17.12 87.3657 17.0708C87.467 17.0254 87.577 17.0023 87.6881 17.0031C87.8072 16.9954 87.9265 17.0137 88.0378 17.0566C88.1492 17.0995 88.2499 17.166 88.333 17.2516C88.4954 17.4497 88.5761 17.7022 88.5588 17.9577V19.1831H88.1718V18.0451C88.1856 17.867 88.1414 17.6893 88.0459 17.5384C87.9981 17.4817 87.9374 17.4373 87.869 17.4087C87.8006 17.3801 87.7264 17.3682 87.6525 17.3739C87.5723 17.3671 87.4917 17.3813 87.4187 17.4152C87.3458 17.4492 87.2829 17.5016 87.2365 17.5674C87.1336 17.7659 87.0889 17.9895 87.1076 18.2123L87.1174 19.17Z" fill="#3792D0"/>
<path d="M94.0988 18.2477C94.1234 18.4176 94.2094 18.5725 94.3407 18.683C94.4513 18.7763 94.5877 18.8336 94.7317 18.8474C94.8757 18.8613 95.0205 18.8309 95.1468 18.7604C95.2539 18.6992 95.3412 18.6085 95.3983 18.4992H95.8465C95.764 18.7175 95.6208 18.9077 95.4338 19.0474C95.2525 19.1738 95.0357 19.2393 94.8147 19.2344C94.6654 19.2356 94.5175 19.2071 94.3794 19.1505C94.2436 19.0932 94.1216 19.0074 94.0216 18.899C93.9209 18.7922 93.841 18.6675 93.7862 18.5313C93.6787 18.2577 93.6787 17.9536 93.7862 17.68C93.8384 17.5477 93.915 17.4263 94.0119 17.3222C94.1141 17.2117 94.2368 17.1219 94.373 17.0578C94.5117 16.9989 94.6609 16.9693 94.8115 16.9707C94.9948 16.9686 95.1757 17.0131 95.3372 17.0999C95.4979 17.1888 95.635 17.3149 95.737 17.4677C95.8005 17.5669 95.8473 17.6758 95.8757 17.7901C95.9084 17.9219 95.9236 18.0575 95.9208 18.1932V18.2479L94.0988 18.2477ZM95.4789 17.8995C95.4401 17.7407 95.3533 17.5977 95.2305 17.49C95.107 17.3938 94.9549 17.3415 94.7984 17.3415C94.6418 17.3415 94.4898 17.3938 94.3663 17.49C94.238 17.592 94.1472 17.7338 94.1083 17.8931L95.4789 17.8995Z" fill="#3792D0"/>
<path d="M73.3102 0.0483531H70.0856V12.5371H71.5367V7.62603H73.0071C74.6129 7.62603 75.8468 7.28531 76.7089 6.60385C77.5709 5.9224 78.0009 4.955 77.9987 3.70165C77.9987 1.27248 76.4391 0.0589722 73.3199 0.0611257M75.6319 5.76858C75.058 6.18452 74.1262 6.39091 72.8427 6.39091H71.5333V1.30594H73.1456C74.2903 1.30594 75.1351 1.5091 75.6736 1.91222C75.9494 2.12987 76.1677 2.41176 76.3094 2.73325C76.4511 3.05475 76.5118 3.40606 76.4864 3.75646C76.4864 4.67225 76.1983 5.33866 75.6222 5.7557M83.8222 0L78.8854 12.5371H80.3687L81.8907 8.57407H86.895L88.4492 12.5467H89.9519L85.0443 0H83.8222ZM82.4034 7.25849L83.8738 3.38902C84.0875 2.79894 84.2673 2.19712 84.4123 1.58652C84.5744 2.19699 84.7681 2.79864 84.9927 3.38902L86.4438 7.25849H82.4034ZM98.1779 0.0483531L94.8469 6.2943L91.5418 0.0483531H89.9521L94.1116 7.7615V12.5372H95.582V7.70038L99.7481 0.0549623L98.1779 0.0483531ZM12.2178 7.74535C11.9554 8.7169 11.7509 9.70314 11.6052 10.6989C11.4391 9.68853 11.2075 8.69003 10.9119 7.70972L8.56448 0.0483531H7.02631L4.78843 7.64219C4.48696 8.64322 4.25849 9.6648 4.10483 10.6989C3.95902 9.7097 3.75995 8.72909 3.50848 7.76135L1.53812 0.0483531H0L3.32128 12.5371H4.75623L7.19721 4.22738C7.45096 3.41834 7.65019 2.59321 7.79356 1.75752C7.84937 2.10067 7.92692 2.43993 8.02573 2.77324C8.17407 3.33753 8.30949 3.80512 8.42881 4.17589L10.9474 12.5371H12.3823L15.7197 0.0483531H14.1816L12.2178 7.74535ZM20.8951 0.00646063L15.9583 12.5435H17.4287L18.9668 8.57407H23.9681L25.5223 12.5467H27.0249L22.1172 0.00944222L20.8951 0.00646063ZM19.4763 7.26495L20.9467 3.39548C21.1604 2.80538 21.3402 2.20355 21.4852 1.59293C21.6852 2.30556 21.8754 2.90533 22.0656 3.39543L23.5167 7.2649L19.4763 7.26495ZM31.92 6.29758L28.6148 0.0484031H27.025L31.1845 7.76155V12.5373H32.6452V7.70043L36.8371 0.0485517H35.2667L31.92 6.29758Z" fill="#26304B"/>
<mask id="mask0_2053_4530" style="mask-type:luminance" maskUnits="userSpaceOnUse" x="39" y="0" width="30" height="13">
<path d="M51.5926 10.6571V9.55752C51.3487 9.44537 51.1505 9.25323 51.0308 9.01296C50.9111 8.77268 50.8772 8.49872 50.9346 8.2365C50.992 7.97427 51.1373 7.73955 51.3464 7.57126C51.5555 7.40296 51.8159 7.3112 52.0843 7.3112C52.3527 7.3112 52.6131 7.40296 52.8222 7.57126C53.0314 7.73955 53.1767 7.97427 53.2341 8.2365C53.2915 8.49872 53.2575 8.77268 53.1378 9.01296C53.0181 9.25323 52.8199 9.44537 52.576 9.55752V10.6571C52.5816 10.725 52.573 10.7934 52.5508 10.8579C52.5286 10.9223 52.4933 10.9815 52.4471 11.0316C52.4009 11.0818 52.3448 11.1218 52.2824 11.1491C52.2199 11.1765 52.1525 11.1906 52.0843 11.1906C52.0161 11.1906 51.9487 11.1765 51.8863 11.1491C51.8238 11.1218 51.7677 11.0818 51.7215 11.0316C51.6753 10.9815 51.64 10.9223 51.6178 10.8579C51.5956 10.7934 51.587 10.7251 51.5926 10.6571ZM55.4136 6.31685V6.3652H48.7679V6.31685H47.549V6.3652C47.549 8.31498 47.9488 9.84449 48.7485 10.9538C49.1188 11.4873 49.6174 11.9191 50.1984 12.2093C50.7794 12.4996 51.4241 12.6389 52.0731 12.6144C52.7287 12.6457 53.3817 12.5128 53.9729 12.2279C54.5641 11.943 55.0749 11.515 55.4589 10.9828C56.2522 9.8928 56.6488 8.35899 56.6488 6.38135V6.31675L55.4136 6.31685ZM39.1426 0.0418772V12.5272H40.5937V7.19397H45.769V5.90413H40.5936V1.33495H46.1012V0.0451075L39.1426 0.0418772ZM60.6987 1.3188H62.5851C63.6599 1.3188 64.4413 1.50045 64.9293 1.86375C65.4173 2.22706 65.6613 2.82253 65.6613 3.65015C65.6858 3.98976 65.6339 4.33054 65.5095 4.64748C65.385 4.96442 65.1912 5.24946 64.9422 5.48167C64.4651 5.88798 63.7127 6.09113 62.685 6.09113H60.6986L60.6987 1.3188ZM59.2476 0.0451075V12.5306H60.6987V7.33903H63.3041L66.3256 12.5305H68.0411L64.6518 6.91995C66.3243 6.33951 67.1616 5.22382 67.1638 3.57287C67.1638 2.39266 66.796 1.51236 66.0642 0.925509C65.3324 0.338657 64.2007 0.0452076 62.6688 0.0452076L59.2476 0.0451075ZM48.7324 1.65737C47.9392 2.74406 47.5426 3.91458 47.5426 5.90731V5.97191H48.7679V5.92356C48.7679 4.3113 49.0517 3.41161 49.6224 2.56356C49.8898 2.14881 50.2613 1.81143 50.6998 1.5851C51.1383 1.35877 51.6285 1.25141 52.1214 1.27372C52.6088 1.24836 53.0942 1.3522 53.5285 1.57473C53.9628 1.79726 54.3306 2.13058 54.5947 2.54095C55.1525 3.38577 55.4331 4.27576 55.4331 5.91064V5.95899H56.652V5.91064C56.652 3.9759 56.2521 2.77984 55.4556 1.67357C55.0851 1.13848 54.5857 0.705486 54.0034 0.414654C53.4212 0.123822 52.775 -0.0154502 52.1247 0.00972577C51.4693 -0.0208913 50.8167 0.112612 50.226 0.398125C49.6353 0.683637 49.1252 1.11212 48.7421 1.6447" fill="white"/>
</mask>
<g mask="url(#mask0_2053_4530)">
<path d="M68.0313 0.022522H39.1426V12.6176H68.0313V0.022522Z" fill="url(#paint0_linear_2053_4530)"/>
</g>
</g>
<defs>
<linearGradient id="paint0_linear_2053_4530" x1="-117.983" y1="59.2321" x2="-117.637" y2="59.2321" gradientUnits="userSpaceOnUse">
<stop stop-color="#4EC8EC"/>
<stop offset="0.01" stop-color="#4EC8EC"/>
<stop offset="1" stop-color="#4684C5"/>
</linearGradient>
<clipPath id="clip0_2053_4530">
<rect width="99.7482" height="20" fill="white"/>
</clipPath>
</defs>
</svg>
