<svg width="42" height="28" viewBox="0 0 42 28" fill="none" xmlns="http://www.w3.org/2000/svg">
<rect x="0.583008" y="0.25" width="40.3333" height="27.5" rx="3.25" fill="white" stroke="#D6D6D6" stroke-width="0.5"/>
<path fill-rule="evenodd" clip-rule="evenodd" d="M19.6186 18.3841V14.8596H21.4376C22.183 14.8596 22.8121 14.6099 23.325 14.1173L23.4481 13.9924C24.385 12.9725 24.3235 11.3838 23.325 10.4402C22.8258 9.94068 22.142 9.6701 21.4376 9.68398H18.5176V18.3841H19.6186ZM19.6187 13.791V10.7522H21.4654C21.8621 10.7522 22.2383 10.9048 22.5187 11.1823C23.1138 11.7651 23.1274 12.7364 22.5529 13.34C22.2725 13.6383 21.8758 13.8048 21.4654 13.791H19.6187ZM28.5838 12.8967C28.1119 12.4596 27.4691 12.2376 26.6553 12.2376C25.609 12.2376 24.8226 12.6261 24.3029 13.3962L25.274 14.0137C25.6296 13.4864 26.1151 13.2228 26.7306 13.2228C27.1204 13.2228 27.4965 13.3685 27.7905 13.6321C28.0777 13.8819 28.2419 14.2426 28.2419 14.6242V14.8809C27.8179 14.645 27.2845 14.5202 26.628 14.5202C25.8621 14.5202 25.2466 14.7005 24.7884 15.0682C24.3303 15.436 24.0977 15.9216 24.0977 16.5391C24.0841 17.101 24.3234 17.6353 24.7474 17.996C25.1782 18.3846 25.7253 18.5788 26.3681 18.5788C27.1272 18.5788 27.729 18.2389 28.1872 17.5589H28.235V18.3846H29.2882V14.7144C29.2882 13.9443 29.0556 13.3338 28.5838 12.8967ZM25.5955 17.2883C25.3698 17.1218 25.233 16.8512 25.233 16.5598C25.233 16.2337 25.3835 15.9632 25.6776 15.7481C25.9785 15.533 26.3547 15.422 26.7993 15.422C27.4149 15.4151 27.8936 15.5538 28.2356 15.8313C28.2356 16.3031 28.0509 16.7124 27.6884 17.0593C27.3601 17.3924 26.9156 17.5797 26.4505 17.5797C26.1427 17.5866 25.8418 17.4826 25.5955 17.2883ZM31.6543 21.0001L35.3334 12.4318H34.1366L32.4339 16.7056H32.4133L30.6695 12.4318H29.4728L31.8868 18.003L30.5191 21.0001H31.6543Z" fill="#3C4043"/>
<path d="M15.8172 14.0971C15.8172 13.7571 15.7898 13.4172 15.7351 13.0842H11.0918V15.006H13.752C13.6426 15.6234 13.287 16.1785 12.7672 16.5254V17.7742H14.3538C15.2838 16.9069 15.8172 15.6234 15.8172 14.0971Z" fill="#4285F4"/>
<path d="M11.0925 18.9814C12.4191 18.9814 13.5406 18.5374 14.3544 17.7742L12.7679 16.5254C12.3234 16.8306 11.7558 17.0041 11.0925 17.0041C9.80682 17.0041 8.7195 16.123 8.32971 14.9435H6.69531V16.234C7.52961 17.9199 9.23239 18.9814 11.0925 18.9814Z" fill="#34A853"/>
<path d="M8.32952 14.9438C8.12433 14.3264 8.12433 13.6534 8.32952 13.029V11.7455H6.69486C5.99038 13.1539 5.99038 14.819 6.69486 16.2274L8.32952 14.9438Z" fill="#FBBC04"/>
<path d="M11.0925 10.9682C11.7968 10.9543 12.4738 11.2249 12.9799 11.7175L14.3886 10.2883C13.4928 9.44187 12.3165 8.97703 11.0925 8.9909C9.23239 8.9909 7.52961 10.0593 6.69531 11.7452L8.32971 13.0357C8.7195 11.8493 9.80682 10.9682 11.0925 10.9682Z" fill="#EA4335"/>
</svg>
