<svg width="100" height="20" viewBox="0 0 100 20" fill="none" xmlns="http://www.w3.org/2000/svg">
<g clip-path="url(#clip0_478_13424)">
<path d="M3.89547 18.9088V19.8761H3.51172V17.0385H3.89865V17.2804C3.99124 17.1841 4.10049 17.1055 4.22112 17.0482C4.34357 16.9966 4.47518 16.9703 4.60805 16.9708C4.75742 16.9659 4.90619 16.992 5.04495 17.0475C5.18371 17.103 5.30945 17.1867 5.4142 17.2933C5.52 17.3986 5.60317 17.5244 5.65861 17.6631C5.71405 17.8017 5.7406 17.9501 5.73662 18.0994C5.73767 18.2462 5.7103 18.3918 5.65602 18.5283C5.60421 18.6615 5.52638 18.7832 5.42707 18.8861C5.32946 18.9957 5.20817 19.0817 5.0724 19.1376C4.9343 19.1938 4.78616 19.2213 4.63707 19.2182C4.49787 19.2193 4.35981 19.193 4.23076 19.1408C4.10258 19.0839 3.98654 19.003 3.88896 18.9023M3.88896 18.0768C3.88644 18.1767 3.90397 18.2761 3.94052 18.3692C3.97707 18.4622 4.03189 18.547 4.10175 18.6185C4.1654 18.6906 4.24388 18.7481 4.33181 18.787C4.41974 18.826 4.51506 18.8455 4.61123 18.8442C4.7082 18.8437 4.80414 18.8242 4.89356 18.7867C4.98299 18.7492 5.06416 18.6945 5.13243 18.6256C5.20069 18.5567 5.25473 18.4751 5.29145 18.3853C5.32816 18.2956 5.34684 18.1995 5.34642 18.1025C5.34823 18.0019 5.33007 17.9019 5.29299 17.8084C5.25591 17.7149 5.20064 17.6296 5.13039 17.5576C5.06305 17.4871 4.98191 17.4312 4.89203 17.3935C4.80215 17.3558 4.70546 17.337 4.608 17.3383C4.51332 17.3385 4.41972 17.3584 4.33313 17.3967C4.24654 17.435 4.16885 17.4909 4.10498 17.5608C4.03574 17.6275 3.98086 17.7077 3.94371 17.7965C3.90657 17.8852 3.88793 17.9805 3.88896 18.0767" fill="white"/>
<path d="M12.6144 19.17V18.8927C12.5235 18.9908 12.4139 19.0697 12.292 19.1249C12.1704 19.1796 12.0383 19.2071 11.905 19.2055C11.7563 19.2094 11.6083 19.1828 11.4702 19.1273C11.3321 19.0719 11.2068 18.9888 11.1021 18.883C10.9965 18.7769 10.9135 18.6504 10.8581 18.5114C10.8027 18.3723 10.776 18.2234 10.7796 18.0737C10.7783 17.9269 10.8057 17.7812 10.8602 17.6448C10.9106 17.5125 10.9874 17.3918 11.0859 17.2901C11.186 17.1832 11.3067 17.0977 11.4406 17.0386C11.5798 16.9822 11.7291 16.9547 11.8792 16.9577C12.0184 16.9566 12.1565 16.9829 12.2855 17.0351C12.4076 17.0913 12.5173 17.1713 12.608 17.2705V17.0125H12.9982V19.1569L12.6144 19.17ZM11.1733 18.0833C11.1704 18.184 11.188 18.2843 11.2251 18.378C11.2623 18.4717 11.3181 18.5569 11.3893 18.6282C11.4562 18.7004 11.5377 18.7575 11.6283 18.7958C11.7189 18.8342 11.8166 18.8529 11.9149 18.8507C12.0091 18.8505 12.1022 18.8305 12.1883 18.7922C12.2744 18.7539 12.3515 18.6981 12.4148 18.6282C12.4845 18.5611 12.5399 18.4804 12.5776 18.3912C12.6153 18.3019 12.6345 18.206 12.634 18.1091C12.636 18.0094 12.618 17.9104 12.5808 17.8178C12.5437 17.7253 12.4883 17.6412 12.418 17.5706C12.3536 17.4986 12.2745 17.4412 12.1861 17.4022C12.0976 17.3633 12.0019 17.3437 11.9053 17.3449C11.8086 17.3449 11.7129 17.364 11.6237 17.4012C11.5344 17.4384 11.4535 17.4929 11.3854 17.5615C11.3173 17.6302 11.2636 17.7116 11.2272 17.8012C11.1908 17.8908 11.1725 17.9866 11.1733 18.0833" fill="white"/>
<path d="M18.0254 17.0259H18.4381L19.0185 18.622L19.6441 17.0259H20.0601L18.9057 19.8635H18.4994L18.7961 19.1089L18.0254 17.0259Z" fill="white"/>
<path d="M26.3929 18.0865C26.4064 17.8906 26.3675 17.6947 26.28 17.519C26.2433 17.4598 26.1912 17.4118 26.1293 17.38C26.0674 17.3482 25.998 17.3338 25.9285 17.3384C25.8573 17.3338 25.7861 17.3481 25.7221 17.3798C25.6582 17.4115 25.6037 17.4595 25.5642 17.519C25.4722 17.6876 25.4308 17.8791 25.4449 18.0706V19.1701H25.0771V17.0258H25.4222V17.2804C25.4855 17.1911 25.5682 17.1172 25.664 17.0644C25.7636 17.0132 25.8747 16.9887 25.9865 16.9935C26.1223 16.9885 26.2569 17.0197 26.3767 17.0838C26.4878 17.1497 26.5765 17.2474 26.6314 17.3643C26.688 17.2465 26.7791 17.1487 26.8926 17.0838C27.0171 17.0197 27.1558 16.9887 27.2957 16.9935C27.4037 16.9884 27.5115 17.0069 27.6117 17.0475C27.7119 17.0882 27.8021 17.15 27.8761 17.2289C28.0306 17.407 28.1093 17.6384 28.0954 17.8738V19.1862H27.7085V17.9253C27.7178 17.7735 27.6745 17.6232 27.5859 17.4996C27.5482 17.4502 27.4993 17.4104 27.4433 17.3835C27.3872 17.3566 27.3256 17.3433 27.2634 17.3448C27.1942 17.3388 27.1245 17.3507 27.0612 17.3795C26.998 17.4084 26.9432 17.453 26.9023 17.5093C26.815 17.6769 26.777 17.8659 26.7927 18.0542V19.1764H26.4186L26.3929 18.0865Z" fill="white"/>
<path d="M33.6126 18.2477C33.6385 18.4171 33.7243 18.5716 33.8544 18.6831C33.9656 18.7764 34.1026 18.8337 34.2471 18.8475C34.3916 18.8613 34.5369 18.831 34.6637 18.7604C34.7691 18.697 34.8558 18.6069 34.9153 18.4993H35.3474C35.2648 18.7176 35.1216 18.9078 34.9346 19.0474C34.7533 19.1739 34.5365 19.2394 34.3155 19.2344C34.1663 19.2356 34.0183 19.2071 33.8802 19.1506C33.7444 19.0932 33.6224 19.0075 33.5224 18.8991C33.4216 18.793 33.3427 18.668 33.2902 18.5314C33.233 18.3967 33.2034 18.252 33.2032 18.1057C33.2021 17.9602 33.2283 17.8159 33.2806 17.6801C33.334 17.5476 33.4116 17.4263 33.5095 17.3223C33.61 17.2111 33.7316 17.1212 33.8673 17.0578C34.006 16.999 34.1552 16.9694 34.3058 16.9708C34.4892 16.9687 34.67 17.0131 34.8315 17.1C34.9931 17.1888 35.1313 17.3149 35.2346 17.4677C35.2952 17.5684 35.3419 17.6769 35.3732 17.7902C35.4032 17.9224 35.4173 18.0577 35.4151 18.1933V18.2479L33.6126 18.2477ZM34.9927 17.8995C34.955 17.7402 34.8681 17.5969 34.7442 17.49C34.6207 17.3938 34.4687 17.3415 34.3121 17.3415C34.1556 17.3415 34.0035 17.3938 33.8801 17.49C33.7527 17.5923 33.6631 17.7341 33.6253 17.893L34.9927 17.8995Z" fill="white"/>
<path d="M40.9286 19.1701H40.5449V17.0257H40.9157V17.2805C40.9871 17.1917 41.0774 17.1201 41.1801 17.0709C41.2815 17.0254 41.3915 17.0023 41.5026 17.0032C41.6217 16.9955 41.741 17.0138 41.8523 17.0567C41.9636 17.0996 42.0643 17.1661 42.1475 17.2516C42.3099 17.4497 42.3906 17.7023 42.3732 17.9578V19.1831H41.996V18.0451C42.0087 17.8669 41.9634 17.6893 41.8668 17.5389C41.8198 17.4821 41.7598 17.4375 41.6919 17.4089C41.624 17.3802 41.5501 17.3684 41.4767 17.3744C41.3961 17.368 41.3151 17.3824 41.2417 17.4163C41.1683 17.4501 41.1049 17.5024 41.0575 17.5679C40.9561 17.767 40.9114 17.9901 40.9283 18.2128L40.9286 19.1701Z" fill="white"/>
<path d="M47.7555 19.1699V17.3738H47.4492V17.0256H47.7555V16.3291H48.1392V17.0256H48.4424V17.3738H48.1392V19.1699H47.7555Z" fill="white"/>
<path d="M59.7311 18.2478C59.7487 18.3613 59.7936 18.4688 59.8618 18.5613C59.93 18.6537 60.0196 18.7282 60.1228 18.7786C60.226 18.8289 60.3399 18.8536 60.4548 18.8505C60.5696 18.8473 60.6819 18.8165 60.7823 18.7605C60.8883 18.6979 60.9752 18.6076 61.0338 18.4993H61.4691C61.3843 18.7173 61.2402 18.9071 61.0531 19.0475C60.8718 19.174 60.655 19.2395 60.434 19.2345C60.2858 19.236 60.1389 19.2075 60.0019 19.1507C59.8661 19.0933 59.7441 19.0075 59.6441 18.8992C59.5434 18.7923 59.4636 18.6676 59.4087 18.5314C59.3013 18.2578 59.3013 17.9537 59.4087 17.6801C59.461 17.5478 59.5375 17.4265 59.6344 17.3223C59.8 17.1444 60.0196 17.0262 60.2593 16.9859C60.4989 16.9457 60.7452 16.9857 60.9597 17.0999C61.0924 17.1704 61.2089 17.268 61.3017 17.3863C61.3944 17.5046 61.4614 17.641 61.4982 17.7867C61.5294 17.9188 61.5445 18.0541 61.5434 18.1898V18.2478H59.7311ZM61.1144 17.8996C61.0757 17.74 60.9877 17.5967 60.8629 17.4901C60.743 17.3922 60.5919 17.3407 60.4372 17.345C60.2779 17.3428 60.1227 17.3964 59.9987 17.4965C59.8723 17.5997 59.7829 17.7411 59.744 17.8996L61.1144 17.8996Z" fill="white"/>
<path d="M67.0451 19.1699H66.6582V17.0256H67.029V17.2803C67.0997 17.1906 67.1906 17.1187 67.2941 17.0706C67.3977 17.0224 67.5112 16.9992 67.6254 17.003C67.7444 16.9958 67.8636 17.0142 67.9749 17.0571C68.0861 17.1 68.1869 17.1662 68.2703 17.2515C68.4315 17.4502 68.5121 17.7023 68.496 17.9576V19.183H68.1155V18.045C68.1292 17.8671 68.0851 17.6895 67.9897 17.5387C67.9426 17.4821 67.8825 17.4377 67.8146 17.4091C67.7468 17.3805 67.673 17.3685 67.5996 17.3743C67.5189 17.3675 67.4379 17.3817 67.3644 17.4157C67.291 17.4496 67.2276 17.502 67.1804 17.5677C67.0774 17.7662 67.0326 17.9898 67.0512 18.2126L67.0451 19.1699Z" fill="white"/>
<path d="M73.7716 19.3409H74.1812C74.2375 19.4371 74.3188 19.5162 74.4166 19.5698C74.5159 19.6224 74.6266 19.6501 74.739 19.6504C74.8356 19.6543 74.932 19.6386 75.0223 19.6042C75.1126 19.5699 75.1951 19.5176 75.2647 19.4505C75.3312 19.3827 75.383 19.3019 75.4169 19.2131C75.4507 19.1243 75.4659 19.0295 75.4614 18.9346V18.8926C75.3707 18.991 75.261 19.07 75.1389 19.1248C75.0161 19.1793 74.8831 19.2068 74.7487 19.2054C74.6 19.2093 74.452 19.1827 74.3139 19.1273C74.1758 19.0718 74.0505 18.9887 73.9458 18.8829C73.8402 18.7768 73.7572 18.6503 73.7018 18.5112C73.6464 18.3721 73.6197 18.2232 73.6234 18.0736C73.6221 17.9267 73.6495 17.7811 73.704 17.6447C73.7543 17.5116 73.8323 17.3907 73.9329 17.29C74.0318 17.1832 74.1514 17.0976 74.2844 17.0385C74.4236 16.9822 74.5728 16.9547 74.7229 16.9577C74.8621 16.9566 75.0001 16.9829 75.1292 17.0351C75.2569 17.0899 75.3721 17.1701 75.4677 17.2708V17.0129H75.8546V18.8025C75.8732 19.1202 75.7693 19.4329 75.5644 19.6763C75.4625 19.7849 75.3382 19.87 75.2001 19.9257C75.062 19.9814 74.9134 20.0063 74.7647 19.9988C74.5424 20.0054 74.3233 19.9447 74.1359 19.8249C73.9608 19.7077 73.8302 19.5351 73.7651 19.3347M74.0231 18.0771C74.0209 18.1778 74.0389 18.2779 74.076 18.3715C74.1131 18.465 74.1686 18.5503 74.2391 18.6221C74.3064 18.6937 74.3879 18.7505 74.4784 18.7888C74.5689 18.8271 74.6665 18.8461 74.7647 18.8446C74.8594 18.8443 74.953 18.8245 75.0396 18.7862C75.1262 18.7479 75.2039 18.692 75.2677 18.6221C75.3371 18.5547 75.392 18.474 75.4292 18.3847C75.4663 18.2955 75.4849 18.1996 75.4838 18.1029C75.4857 18.0035 75.4679 17.9048 75.4314 17.8123C75.3948 17.7199 75.3403 17.6356 75.271 17.5644C75.2062 17.4929 75.127 17.4358 75.0387 17.3969C74.9503 17.358 74.8548 17.3382 74.7583 17.3387C74.6613 17.3383 74.5653 17.3571 74.4757 17.3941C74.3861 17.4311 74.3047 17.4855 74.2363 17.5542C74.1679 17.6229 74.1138 17.7045 74.0772 17.7943C74.0406 17.8841 74.0222 17.9802 74.0231 18.0771Z" fill="white"/>
<path d="M81.4814 16.7739H81.0977V16.3291H81.4814V16.7739ZM81.1009 17.0254H81.4814V19.1667H81.1009V17.0254Z" fill="white"/>
<path d="M87.1174 19.1701H86.7305V17.0257H87.1013V17.2805C87.1726 17.1917 87.263 17.1201 87.3657 17.0709C87.467 17.0254 87.577 17.0023 87.6881 17.0032C87.8072 16.9955 87.9265 17.0138 88.0378 17.0567C88.1492 17.0996 88.2499 17.1661 88.333 17.2516C88.4954 17.4497 88.5761 17.7023 88.5588 17.9578V19.1831H88.1718V18.0451C88.1856 17.8671 88.1414 17.6893 88.0459 17.5384C87.9981 17.4818 87.9374 17.4374 87.869 17.4088C87.8006 17.3802 87.7264 17.3683 87.6525 17.374C87.5723 17.3671 87.4917 17.3814 87.4187 17.4153C87.3458 17.4492 87.2829 17.5017 87.2365 17.5675C87.1336 17.766 87.0889 17.9895 87.1076 18.2124L87.1174 19.1701Z" fill="white"/>
<path d="M94.0984 18.2478C94.1229 18.4176 94.2089 18.5725 94.3402 18.6831C94.4508 18.7763 94.5872 18.8337 94.7312 18.8475C94.8752 18.8613 95.02 18.831 95.1463 18.7604C95.2534 18.6992 95.3407 18.6086 95.3978 18.4993H95.846C95.7635 18.7176 95.6203 18.9077 95.4333 19.0474C95.252 19.1739 95.0352 19.2394 94.8142 19.2344C94.665 19.2356 94.517 19.2071 94.3789 19.1506C94.2431 19.0932 94.1211 19.0075 94.0211 18.8991C93.9204 18.7923 93.8405 18.6675 93.7857 18.5314C93.6782 18.2578 93.6782 17.9537 93.7857 17.6801C93.8379 17.5478 93.9145 17.4264 94.0114 17.3223C94.1136 17.2117 94.2363 17.1219 94.3725 17.0578C94.5112 16.999 94.6604 16.9694 94.811 16.9708C94.9944 16.9687 95.1752 17.0131 95.3367 17.1C95.4974 17.1889 95.6345 17.315 95.7365 17.4677C95.8 17.5669 95.8468 17.6759 95.8752 17.7902C95.9079 17.922 95.9231 18.0575 95.9203 18.1933V18.2479L94.0984 18.2478ZM95.4784 17.8995C95.4396 17.7408 95.3528 17.5978 95.23 17.49C95.1065 17.3938 94.9544 17.3416 94.7979 17.3416C94.6414 17.3416 94.4893 17.3938 94.3658 17.49C94.2375 17.592 94.1467 17.7338 94.1079 17.8931L95.4784 17.8995Z" fill="white"/>
<path d="M73.3102 0.0483531H70.0856V12.5371H71.5367V7.62603H73.0071C74.6129 7.62603 75.8468 7.28531 76.7089 6.60385C77.5709 5.9224 78.0009 4.955 77.9987 3.70165C77.9987 1.27248 76.4391 0.0589722 73.3199 0.0611257M75.6319 5.76858C75.058 6.18452 74.1262 6.39091 72.8427 6.39091H71.5333V1.30594H73.1456C74.2903 1.30594 75.1351 1.5091 75.6736 1.91222C75.9494 2.12987 76.1677 2.41176 76.3094 2.73325C76.4511 3.05475 76.5118 3.40606 76.4864 3.75646C76.4864 4.67225 76.1983 5.33866 75.6222 5.7557M83.8222 0L78.8854 12.5371H80.3687L81.8907 8.57407H86.895L88.4492 12.5467H89.9519L85.0443 0H83.8222ZM82.4034 7.25849L83.8738 3.38902C84.0875 2.79894 84.2673 2.19712 84.4123 1.58652C84.5744 2.19699 84.7681 2.79864 84.9927 3.38902L86.4438 7.25849H82.4034ZM98.1779 0.0483531L94.8469 6.2943L91.5418 0.0483531H89.9521L94.1116 7.7615V12.5372H95.582V7.70038L99.7481 0.0549623L98.1779 0.0483531ZM12.2178 7.74535C11.9554 8.7169 11.7509 9.70314 11.6052 10.6989C11.4391 9.68853 11.2075 8.69003 10.9119 7.70972L8.56448 0.0483531H7.02631L4.78843 7.64219C4.48696 8.64322 4.25849 9.6648 4.10483 10.6989C3.95902 9.7097 3.75995 8.72909 3.50848 7.76135L1.53812 0.0483531H0L3.32128 12.5371H4.75623L7.19721 4.22738C7.45096 3.41834 7.65019 2.59321 7.79356 1.75752C7.84937 2.10067 7.92692 2.43993 8.02573 2.77324C8.17407 3.33753 8.30949 3.80512 8.42881 4.17589L10.9474 12.5371H12.3823L15.7197 0.0483531H14.1816L12.2178 7.74535ZM20.8951 0.00646063L15.9583 12.5435H17.4287L18.9668 8.57407H23.9681L25.5223 12.5467H27.0249L22.1172 0.00944222L20.8951 0.00646063ZM19.4763 7.26495L20.9467 3.39548C21.1604 2.80538 21.3402 2.20355 21.4852 1.59293C21.6852 2.30556 21.8754 2.90533 22.0656 3.39543L23.5167 7.2649L19.4763 7.26495ZM31.92 6.29758L28.6148 0.0484031H27.025L31.1845 7.76155V12.5373H32.6452V7.70043L36.8371 0.0485517H35.2667L31.92 6.29758Z" fill="white"/>
<mask id="mask0_478_13424" style="mask-type:luminance" maskUnits="userSpaceOnUse" x="39" y="0" width="30" height="13">
<path d="M51.5926 10.6571V9.55746C51.3487 9.44531 51.1505 9.25317 51.0308 9.0129C50.9111 8.77262 50.8772 8.49866 50.9346 8.23643C50.992 7.97421 51.1373 7.73949 51.3464 7.57119C51.5555 7.4029 51.8159 7.31114 52.0843 7.31114C52.3527 7.31114 52.6131 7.4029 52.8222 7.57119C53.0314 7.73949 53.1767 7.97421 53.2341 8.23643C53.2915 8.49866 53.2575 8.77262 53.1378 9.0129C53.0181 9.25317 52.8199 9.44531 52.576 9.55746V10.657C52.5816 10.725 52.573 10.7933 52.5508 10.8578C52.5286 10.9223 52.4933 10.9814 52.4471 11.0316C52.4009 11.0817 52.3448 11.1217 52.2824 11.1491C52.2199 11.1765 52.1525 11.1906 52.0843 11.1906C52.0161 11.1906 51.9487 11.1765 51.8863 11.1491C51.8238 11.1217 51.7677 11.0817 51.7215 11.0316C51.6753 10.9814 51.64 10.9223 51.6178 10.8578C51.5956 10.7933 51.587 10.725 51.5926 10.6571ZM55.4136 6.31679V6.36514H48.7679V6.31679H47.549V6.36514C47.549 8.31491 47.9488 9.84443 48.7485 10.9537C49.1188 11.4873 49.6174 11.9191 50.1984 12.2093C50.7794 12.4995 51.4241 12.6388 52.0731 12.6144C52.7287 12.6456 53.3817 12.5127 53.9729 12.2278C54.5641 11.9429 55.0749 11.5149 55.4589 10.9827C56.2522 9.89274 56.6488 8.35893 56.6488 6.38129V6.31669L55.4136 6.31679ZM39.1426 0.0418162V12.5272H40.5937V7.19391H45.769V5.90407H40.5936V1.33489H46.1012V0.0450465L39.1426 0.0418162ZM60.6987 1.31874H62.5851C63.6599 1.31874 64.4413 1.50039 64.9293 1.86369C65.4173 2.227 65.6613 2.82246 65.6613 3.65009C65.6858 3.9897 65.6339 4.33048 65.5095 4.64742C65.385 4.96436 65.1912 5.2494 64.9422 5.48161C64.4651 5.88792 63.7127 6.09107 62.685 6.09107H60.6986L60.6987 1.31874ZM59.2476 0.0450465V12.5305H60.6987V7.33897H63.3041L66.3256 12.5305H68.0411L64.6518 6.91989C66.3243 6.33945 67.1616 5.22375 67.1638 3.57281C67.1638 2.3926 66.796 1.5123 66.0642 0.925448C65.3324 0.338596 64.2007 0.0451466 62.6688 0.0451466L59.2476 0.0450465ZM48.7324 1.65731C47.9392 2.744 47.5426 3.91452 47.5426 5.90725V5.97185H48.7679V5.9235C48.7679 4.31123 49.0517 3.41155 49.6224 2.5635C49.8898 2.14875 50.2613 1.81137 50.6998 1.58504C51.1383 1.35871 51.6285 1.25135 52.1214 1.27366C52.6088 1.2483 53.0942 1.35214 53.5285 1.57467C53.9628 1.7972 54.3306 2.13052 54.5947 2.54089C55.1525 3.38571 55.4331 4.2757 55.4331 5.91058V5.95893H56.652V5.91058C56.652 3.97584 56.2521 2.77978 55.4556 1.67351C55.0851 1.13842 54.5857 0.705425 54.0034 0.414593C53.4212 0.123761 52.775 -0.0155113 52.1247 0.00966473C51.4693 -0.0209523 50.8167 0.112551 50.226 0.398064C49.6353 0.683576 49.1252 1.11206 48.7421 1.64464" fill="white"/>
</mask>
<g mask="url(#mask0_478_13424)">
<path d="M68.0313 0.0224609H39.1426V12.6176H68.0313V0.0224609Z" fill="url(#paint0_linear_478_13424)"/>
</g>
</g>
<defs>
<linearGradient id="paint0_linear_478_13424" x1="-117.983" y1="59.2321" x2="-117.637" y2="59.2321" gradientUnits="userSpaceOnUse">
<stop stop-color="#4EC8EC"/>
<stop offset="0.01" stop-color="#4EC8EC"/>
<stop offset="1" stop-color="#4684C5"/>
</linearGradient>
<clipPath id="clip0_478_13424">
<rect width="99.7482" height="20" fill="white"/>
</clipPath>
</defs>
</svg>
