<svg width="176" height="14" viewBox="0 0 176 14" fill="none" xmlns="http://www.w3.org/2000/svg">
<path d="M0 10.5752L1.69979 9.84131C1.86082 10.3861 2.15605 10.8031 2.58547 11.0922C3.01489 11.3757 3.5636 11.5175 4.23158 11.5175C4.86379 11.5175 5.36478 11.3535 5.73456 11.0255C6.1103 10.6975 6.29817 10.2583 6.29817 9.70788C6.29817 8.9907 5.66001 8.35136 4.38367 7.78985C4.20475 7.70645 4.06757 7.6453 3.97214 7.60638C2.52881 6.95036 1.5656 6.35827 1.0825 5.83011C0.605364 5.2964 0.366797 4.64594 0.366797 3.87872C0.366797 2.88357 0.72763 2.07744 1.4493 1.46033C2.17692 0.843226 3.12821 0.534672 4.30315 0.534672C5.26935 0.534672 6.0775 0.709797 6.72759 1.06005C7.37769 1.40474 7.82798 1.90231 8.07848 2.55278L6.41447 3.35335C6.15205 2.96974 5.86279 2.68899 5.54669 2.51108C5.23655 2.33318 4.8787 2.24422 4.47313 2.24422C3.90057 2.24422 3.44431 2.38321 3.10435 2.66119C2.77036 2.93916 2.60336 3.31165 2.60336 3.77865C2.60336 4.51251 3.34292 5.19633 4.82204 5.83011C4.93536 5.88015 5.02482 5.91907 5.09043 5.94686C6.38465 6.50282 7.27331 7.04765 7.75641 7.58136C8.23951 8.10952 8.48106 8.7711 8.48106 9.56611C8.48106 10.7225 8.09041 11.6426 7.3091 12.3264C6.52779 13.0047 5.47213 13.3438 4.14212 13.3438C3.02682 13.3438 2.11132 13.1047 1.39562 12.6266C0.685881 12.1485 0.220675 11.4647 0 10.5752Z" fill="#219499"/>
<path d="M24.7651 6.93924C24.7651 6.32213 24.6428 5.7356 24.3983 5.17965C24.1597 4.6237 23.8138 4.1289 23.3605 3.69526C22.9191 3.26718 22.4062 2.93916 21.8217 2.71122C21.2432 2.47772 20.6319 2.36097 19.9878 2.36097C19.3436 2.36097 18.7293 2.47494 18.1448 2.70288C17.5663 2.93083 17.0504 3.26162 16.5971 3.69526C16.1438 4.12334 15.7979 4.61536 15.5593 5.17131C15.3208 5.72726 15.2015 6.31657 15.2015 6.93924C15.2015 7.55634 15.3208 8.14009 15.5593 8.69049C15.7979 9.24088 16.1438 9.7329 16.5971 10.1665C17.0504 10.6002 17.5663 10.931 18.1448 11.1589C18.7233 11.3869 19.3377 11.5008 19.9878 11.5008C20.6259 11.5008 21.2313 11.3869 21.8038 11.1589C22.3824 10.931 22.9012 10.6002 23.3605 10.1665C23.8138 9.7329 24.1597 9.24088 24.3983 8.69049C24.6428 8.13453 24.7651 7.55079 24.7651 6.93924ZM26.9837 6.93924C26.9837 7.80652 26.8078 8.62655 26.4559 9.39933C26.11 10.1721 25.603 10.8615 24.935 11.4675C24.2611 12.0735 23.5007 12.5377 22.6537 12.8601C21.8068 13.1826 20.9182 13.3438 19.9878 13.3438C19.0454 13.3438 18.1448 13.1826 17.286 12.8601C16.4331 12.5321 15.6786 12.0679 15.0226 11.4675C14.3546 10.8615 13.8476 10.1749 13.5017 9.40767C13.1558 8.64045 12.9828 7.81764 12.9828 6.93924C12.9828 6.06639 13.1558 5.24359 13.5017 4.47081C13.8476 3.69804 14.3546 3.00588 15.0226 2.39433C15.6906 1.78834 16.448 1.3269 17.2949 1.01001C18.1418 0.693118 19.0394 0.534672 19.9878 0.534672C20.9301 0.534672 21.8217 0.693118 22.6627 1.01001C23.5096 1.3269 24.267 1.78834 24.935 2.39433C25.603 3.01144 26.11 3.70916 26.4559 4.48749C26.8078 5.26026 26.9837 6.07751 26.9837 6.93924Z" fill="#219499"/>
<path d="M32.1744 13.0186V0.809868H39.4835V2.4944H34.3036V5.53824H39.4835V7.28115H34.3036V13.0186H32.1744Z" fill="#219499"/>
<path d="M44.5846 13.0186V0.809868H46.7138V13.0186H44.5846Z" fill="#219499"/>
<path d="M52.5575 13.0186V0.809868H54.6867V13.0186H52.5575Z" fill="#219499"/>
<path d="M63.2591 8.22349H66.9091L65.5672 5.43817C65.4897 5.26026 65.4091 5.05734 65.3256 4.8294C65.2421 4.5959 65.1586 4.33738 65.0751 4.05385C65.0036 4.3207 64.926 4.57088 64.8425 4.80438C64.765 5.03232 64.6845 5.24359 64.601 5.43817L63.2591 8.22349ZM69.1457 13.0186L67.6606 9.87467H62.4718L60.9509 13.0186H58.7144L65.0573 0.32619L71.3912 13.0186H69.1457Z" fill="#219499"/>
<path d="M83.0536 5.63735H83.8678C84.8817 5.63735 85.5974 5.50949 86.0149 5.25375C86.4383 4.99245 86.6501 4.55603 86.6501 3.94448C86.6501 3.27734 86.4562 2.81034 86.0685 2.54348C85.6809 2.27106 84.9473 2.13486 83.8678 2.13486H83.0536V5.63735ZM83.0536 11.0329H83.7872C84.5328 11.0329 85.0904 11.0051 85.4602 10.9495C85.83 10.8939 86.1222 10.7966 86.3369 10.6576C86.5994 10.4964 86.8021 10.2796 86.9453 10.0071C87.0884 9.73472 87.16 9.43451 87.16 9.10649C87.16 8.71733 87.0735 8.3782 86.9006 8.0891C86.7276 7.80001 86.4801 7.57485 86.158 7.41362C85.9552 7.31911 85.7226 7.24961 85.4602 7.20514C85.2037 7.16066 84.8608 7.13842 84.4314 7.13842H83.0536V11.0329ZM80.9692 12.6924V0.483678H84.2703C85.2127 0.483678 85.9075 0.530935 86.3548 0.625447C86.8081 0.719959 87.1928 0.875625 87.5089 1.09245C87.9145 1.37042 88.2276 1.73457 88.4482 2.18489C88.6749 2.63521 88.7882 3.13279 88.7882 3.67762C88.7882 4.32809 88.6272 4.87292 88.3051 5.31212C87.983 5.74576 87.5149 6.04876 86.9006 6.2211C87.664 6.33229 88.2634 6.65753 88.6987 7.1968C89.1401 7.73051 89.3608 8.40599 89.3608 9.22324C89.3608 9.71804 89.2683 10.1878 89.0834 10.6326C88.8985 11.0773 88.6361 11.4554 88.2962 11.7667C87.9383 12.1059 87.494 12.3449 86.9632 12.4839C86.4324 12.6229 85.5407 12.6924 84.2882 12.6924H80.9692Z" fill="#219499"/>
<path d="M94.3098 12.6924V0.483678H96.4391V12.6924H94.3098Z" fill="#219499"/>
<path d="M102.247 12.6924V0.483678H104.376V10.9161H109.136V12.6924H102.247Z" fill="#219499"/>
<path d="M113.619 12.6924V0.483678H120.929V2.16821H115.749V5.22873H120.929V6.97164H115.749V10.9161H120.929V12.6924H113.619Z" fill="#219499"/>
<path d="M130.351 2.16821V12.6924H128.222V2.16821H124.741V0.483678H133.813V2.16821H130.351Z" fill="#219499"/>
<path d="M137.438 10.249L139.138 9.51512C139.299 10.06 139.594 10.4769 140.023 10.766C140.453 11.0495 141.002 11.1913 141.67 11.1913C142.302 11.1913 142.803 11.0273 143.173 10.6993C143.548 10.3713 143.736 9.93208 143.736 9.38169C143.736 8.66451 143.098 8.02517 141.822 7.46366C141.643 7.38026 141.506 7.31911 141.41 7.28019C139.967 6.62417 139.004 6.03208 138.521 5.50393C138.043 4.97021 137.805 4.31975 137.805 3.55253C137.805 2.55738 138.166 1.75125 138.887 1.13414C139.615 0.517036 140.566 0.208483 141.741 0.208483C142.707 0.208483 143.516 0.383608 144.166 0.733858C144.816 1.07855 145.266 1.57613 145.516 2.22659L143.852 3.02716C143.59 2.64355 143.301 2.3628 142.985 2.18489C142.675 2.00699 142.317 1.91803 141.911 1.91803C141.339 1.91803 140.882 2.05702 140.542 2.335C140.208 2.61297 140.041 2.98546 140.041 3.45246C140.041 4.18632 140.781 4.87014 142.26 5.50393C142.373 5.55396 142.463 5.59288 142.528 5.62068C143.823 6.17663 144.711 6.72146 145.194 7.25517C145.678 7.78333 145.919 8.44491 145.919 9.23992C145.919 10.3963 145.528 11.3164 144.747 12.0002C143.966 12.6785 142.91 13.0176 141.58 13.0176C140.465 13.0176 139.549 12.7786 138.834 12.3004C138.124 11.8223 137.659 11.1385 137.438 10.249Z" fill="#219499"/>
<path d="M150.993 12.6924V0.483678H153.123V5.53728L157.828 0.483678H160.432L155.243 5.91255L161.049 12.6924H158.302L153.123 6.4546V12.6924H150.993Z" fill="#219499"/>
<path d="M167.868 7.8973H171.518L170.176 5.11198C170.098 4.93408 170.018 4.73115 169.934 4.50321C169.851 4.26971 169.767 4.01119 169.684 3.72766C169.612 3.99451 169.535 4.24469 169.451 4.47819C169.374 4.70613 169.293 4.9174 169.21 5.11198L167.868 7.8973ZM173.754 12.6924L172.269 9.54847H167.081L165.56 12.6924H163.323L169.666 0L176 12.6924H173.754Z" fill="#219499"/>
</svg>
