<svg width="42" height="28" viewBox="0 0 42 28" fill="none" xmlns="http://www.w3.org/2000/svg">
<rect x="0.75" y="0.25" width="40.3333" height="27.5" rx="3.25" fill="white" stroke="#D6D6D6" stroke-width="0.5"/>
<path fill-rule="evenodd" clip-rule="evenodd" d="M21.2085 20.0171C19.8183 21.2167 18.015 21.941 16.0446 21.941C11.6478 21.941 8.0835 18.3353 8.0835 13.8875C8.0835 9.43965 11.6478 5.83398 16.0446 5.83398C18.015 5.83398 19.8183 6.55819 21.2085 7.75783C22.5986 6.55819 24.4019 5.83398 26.3724 5.83398C30.7692 5.83398 34.3335 9.43965 34.3335 13.8875C34.3335 18.3353 30.7692 21.941 26.3724 21.941C24.4019 21.941 22.5986 21.2167 21.2085 20.0171Z" fill="#ED0006"/>
<path fill-rule="evenodd" clip-rule="evenodd" d="M21.2085 20.0171C22.9202 18.5399 24.0057 16.3419 24.0057 13.8875C24.0057 11.433 22.9202 9.23499 21.2085 7.75783C22.5987 6.55819 24.4019 5.83398 26.3724 5.83398C30.7692 5.83398 34.3335 9.43965 34.3335 13.8875C34.3335 18.3353 30.7692 21.941 26.3724 21.941C24.4019 21.941 22.5987 21.2167 21.2085 20.0171Z" fill="#F9A000"/>
<path fill-rule="evenodd" clip-rule="evenodd" d="M21.2082 20.017C22.9199 18.5398 24.0053 16.3418 24.0053 13.8874C24.0053 11.433 22.9199 9.23497 21.2082 7.75781C19.4965 9.23497 18.4111 11.433 18.4111 13.8874C18.4111 16.3418 19.4965 18.5398 21.2082 20.017Z" fill="#FF5E00"/>
</svg>
