<svg width="41" height="28" viewBox="0 0 41 28" fill="none" xmlns="http://www.w3.org/2000/svg">
<rect x="0.416504" y="0.25" width="40.3333" height="27.5" rx="3.25" fill="white" stroke="#D6D6D6" stroke-width="0.5"/>
<path fill-rule="evenodd" clip-rule="evenodd" d="M9.90385 10.4214C10.4522 10.4677 11.0006 10.1439 11.3434 9.73334C11.6804 9.31123 11.9032 8.74456 11.846 8.16632C11.3605 8.18945 10.7607 8.49013 10.418 8.91224C10.1038 9.27653 9.8353 9.86633 9.90385 10.4214ZM16.4274 17.8692V8.85447H19.7691C21.4942 8.85447 22.6995 10.0572 22.6995 11.815C22.6995 13.5729 21.4713 14.7872 19.7234 14.7872H17.8097V17.8692H16.4274ZM11.8403 10.5311C11.3572 10.503 10.9164 10.6782 10.5603 10.8197C10.3312 10.9108 10.1372 10.9879 9.98955 10.9879C9.82389 10.9879 9.62185 10.9067 9.39499 10.8155C9.09774 10.6959 8.75791 10.5593 8.40153 10.5658C7.58467 10.5774 6.82493 11.0458 6.40794 11.7917C5.55109 13.2835 6.18516 15.4924 7.01344 16.7067C7.41901 17.3081 7.90456 17.9672 8.54434 17.9441C8.8258 17.9334 9.02827 17.8464 9.23781 17.7564C9.47904 17.6528 9.72964 17.5451 10.1209 17.5451C10.4987 17.5451 10.7383 17.65 10.9683 17.7506C11.1871 17.8463 11.3971 17.9382 11.709 17.9325C12.3716 17.921 12.7886 17.3312 13.1942 16.7298C13.6318 16.0844 13.8242 15.4545 13.8534 15.3589L13.8568 15.3478C13.8561 15.3471 13.8507 15.3446 13.8412 15.3402L13.8412 15.3402L13.8411 15.3402C13.6948 15.2724 12.5765 14.7542 12.5658 13.3645C12.555 12.1981 13.4528 11.6071 13.5941 11.514C13.6027 11.5084 13.6085 11.5046 13.6112 11.5026C13.0399 10.6468 12.1488 10.5543 11.8403 10.5311ZM25.2244 17.9385C26.0926 17.9385 26.8981 17.4932 27.2637 16.7878H27.2922V17.8691H28.5718V13.382C28.5718 12.0809 27.5436 11.2425 25.9613 11.2425C24.4932 11.2425 23.4079 12.0925 23.3679 13.2605H24.6132C24.716 12.7054 25.2244 12.3411 25.9213 12.3411C26.7667 12.3411 27.2408 12.7401 27.2408 13.4745V13.9718L25.5157 14.0758C23.9105 14.1741 23.0423 14.8391 23.0423 15.9956C23.0423 17.1636 23.9391 17.9385 25.2244 17.9385ZM25.5955 16.869C24.8586 16.869 24.3902 16.5105 24.3902 15.9611C24.3902 15.3945 24.8415 15.0649 25.7041 15.0128L27.2407 14.9145V15.4234C27.2407 16.2676 26.5324 16.869 25.5955 16.869ZM32.816 18.2216C32.2619 19.8002 31.6279 20.3206 30.2798 20.3206C30.1769 20.3206 29.8342 20.3091 29.7542 20.2859V19.2046C29.8399 19.2162 30.0513 19.2278 30.1598 19.2278C30.771 19.2278 31.1138 18.9676 31.3251 18.291L31.4508 17.892L29.1087 11.3291H30.554L32.182 16.6546H32.2105L33.8385 11.3291H35.2438L32.816 18.2216ZM17.8097 10.0342H19.4034C20.603 10.0342 21.2884 10.6819 21.2884 11.821C21.2884 12.9601 20.603 13.6135 19.3977 13.6135H17.8097V10.0342Z" fill="black"/>
</svg>
