<svg width="160" height="50" viewBox="0 0 160 50" fill="none" xmlns="http://www.w3.org/2000/svg">
<path d="M0 17.1204L2.83942 15.8946C3.10842 16.8047 3.60158 17.5012 4.31891 17.9841C5.03624 18.4578 5.95283 18.6946 7.06867 18.6946C8.12474 18.6946 8.96162 18.4206 9.57932 17.8727C10.207 17.3248 10.5208 16.5911 10.5208 15.6717C10.5208 14.4737 9.45478 13.4057 7.32272 12.4677C7.02384 12.3284 6.79469 12.2262 6.63528 12.1612C4.22427 11.0654 2.61526 10.0763 1.80826 9.19405C1.01123 8.30251 0.612718 7.21594 0.612718 5.93434C0.612718 4.27199 1.21547 2.92538 2.42098 1.89453C3.63645 0.863684 5.22553 0.34826 7.18822 0.34826C8.80221 0.34826 10.1522 0.640798 11.2381 1.22587C12.3241 1.80166 13.0763 2.63284 13.4947 3.71941L10.7151 5.05673C10.2767 4.41593 9.79352 3.94694 9.26549 3.64976C8.74742 3.35258 8.14964 3.20399 7.47217 3.20399C6.51573 3.20399 5.75357 3.43616 5.18568 3.90051C4.62776 4.36485 4.3488 4.98708 4.3488 5.76718C4.3488 6.99305 5.5842 8.13535 8.055 9.19405C8.24429 9.27764 8.39373 9.34265 8.50333 9.38908C10.6653 10.3178 12.1497 11.2279 12.9567 12.1194C13.7637 13.0017 14.1672 14.1068 14.1672 15.4349C14.1672 17.3665 13.5147 18.9035 12.2095 20.0458C10.9044 21.1788 9.14095 21.7453 6.91923 21.7453C5.05617 21.7453 3.52686 21.346 2.33132 20.5473C1.14573 19.7486 0.368627 18.6064 0 17.1204Z" fill="#219499"/>
<path d="M41.3689 11.0468C41.3689 10.0159 41.1647 9.03618 40.7562 8.10748C40.3577 7.17879 39.7798 6.35226 39.0226 5.62788C38.2854 4.91278 37.4286 4.36485 36.4522 3.98409C35.4858 3.59404 34.4646 3.39901 33.3886 3.39901C32.3126 3.39901 31.2865 3.5894 30.3101 3.97016C29.3437 4.35092 28.4819 4.9035 27.7247 5.62788C26.9675 6.34297 26.3897 7.16486 25.9912 8.09355C25.5927 9.02225 25.3934 10.0067 25.3934 11.0468C25.3934 12.0776 25.5927 13.0528 25.9912 13.9722C26.3897 14.8916 26.9675 15.7135 27.7247 16.4379C28.4819 17.1622 29.3437 17.7148 30.3101 18.0956C31.2765 18.4763 32.3027 18.6667 33.3886 18.6667C34.4547 18.6667 35.4659 18.4763 36.4223 18.0956C37.3887 17.7148 38.2555 17.1622 39.0226 16.4379C39.7798 15.7135 40.3577 14.8916 40.7562 13.9722C41.1647 13.0435 41.3689 12.0684 41.3689 11.0468ZM45.0751 11.0468C45.0751 12.4956 44.7812 13.8654 44.1934 15.1563C43.6155 16.4471 42.7687 17.5987 41.6528 18.611C40.527 19.6233 39.2568 20.3987 37.842 20.9374C36.4273 21.476 34.9428 21.7453 33.3886 21.7453C31.8145 21.7453 30.3101 21.476 28.8754 20.9374C27.4507 20.3894 26.1904 19.614 25.0945 18.611C23.9787 17.5987 23.1318 16.4518 22.554 15.1702C21.9761 13.8886 21.6872 12.5141 21.6872 11.0468C21.6872 9.58875 21.9761 8.21428 22.554 6.9234C23.1318 5.63252 23.9787 4.4763 25.0945 3.45474C26.2104 2.44246 27.4757 1.67165 28.8904 1.14229C30.3051 0.612937 31.8045 0.34826 33.3886 0.34826C34.9628 0.34826 36.4522 0.612937 37.857 1.14229C39.2717 1.67165 40.537 2.44246 41.6528 3.45474C42.7687 4.48558 43.6155 5.65109 44.1934 6.95126C44.7812 8.24215 45.0751 9.60732 45.0751 11.0468Z" fill="#219499"/>
<path d="M53.7458 21.202V0.807962H65.9553V3.6219H57.3026V8.70649H65.9553V11.6179H57.3026V21.202H53.7458Z" fill="#219499"/>
<path d="M74.4766 21.202V0.807962H78.0333V21.202H74.4766Z" fill="#219499"/>
<path d="M87.795 21.202V0.807962H91.3517V21.202H87.795Z" fill="#219499"/>
<path d="M105.671 13.1921H111.769L109.527 8.53933C109.397 8.24215 109.263 7.90317 109.124 7.52241C108.984 7.13236 108.845 6.70052 108.705 6.22688C108.586 6.67266 108.456 7.09057 108.317 7.48062C108.187 7.86138 108.053 8.21428 107.913 8.53933L105.671 13.1921ZM115.505 21.202L113.024 15.9503H104.356L101.816 21.202H98.0797L108.675 0L119.256 21.202H115.505Z" fill="#219499"/>
<path d="M4.73735 37.6716H6.09729C7.79098 37.6716 8.98653 37.458 9.68393 37.0308C10.3913 36.5943 10.745 35.8653 10.745 34.8437C10.745 33.7293 10.4212 32.9492 9.77359 32.5034C9.12601 32.0484 7.90057 31.8208 6.09729 31.8208H4.73735V37.6716ZM4.73735 46.6846H5.96279C7.20815 46.6846 8.13968 46.6381 8.75738 46.5453C9.37508 46.4524 9.86326 46.2899 10.2219 46.0577C10.6603 45.7884 10.999 45.4262 11.2381 44.9711C11.4772 44.5161 11.5968 44.0146 11.5968 43.4666C11.5968 42.8166 11.4523 42.2501 11.1634 41.7671C10.8745 41.2842 10.461 40.9081 9.92304 40.6388C9.5843 40.4809 9.19575 40.3648 8.75738 40.2905C8.32897 40.2162 7.75611 40.1791 7.03878 40.1791H4.73735V46.6846ZM1.25532 49.4567V29.0626H6.76978C8.34392 29.0626 9.5046 29.1416 10.2518 29.2994C11.009 29.4573 11.6516 29.7174 12.1796 30.0795C12.8571 30.5439 13.3802 31.1522 13.7488 31.9044C14.1274 32.6567 14.3167 33.4879 14.3167 34.398C14.3167 35.4845 14.0477 36.3947 13.5097 37.1283C12.9717 37.8527 12.1896 38.3588 11.1634 38.6467C12.4387 38.8325 13.4399 39.3758 14.1672 40.2766C14.9045 41.1681 15.2731 42.2965 15.2731 43.6617C15.2731 44.4882 15.1187 45.273 14.8098 46.0159C14.501 46.7589 14.0626 47.3904 13.4947 47.9104C12.897 48.4769 12.1547 48.8763 11.268 49.1085C10.3813 49.3406 8.89188 49.4567 6.79967 49.4567H1.25532Z" fill="#219499"/>
<path d="M23.5403 49.4567V29.0626H27.0971V49.4567H23.5403Z" fill="#219499"/>
<path d="M36.7989 49.4567V29.0626H40.3557V46.4895H48.3061V49.4567H36.7989Z" fill="#219499"/>
<path d="M55.7962 49.4567V29.0626H68.0057V31.8766H59.3529V36.989H68.0057V39.9005H59.3529V46.4895H68.0057V49.4567H55.7962Z" fill="#219499"/>
<path d="M83.7451 31.8766V49.4567H80.1883V31.8766H74.375V29.0626H89.5285V31.8766H83.7451Z" fill="#219499"/>
<path d="M95.584 45.3751L98.4234 44.1492C98.6924 45.0594 99.1855 45.7559 99.9029 46.2388C100.62 46.7124 101.537 46.9492 102.653 46.9492C103.709 46.9492 104.546 46.6753 105.163 46.1273C105.791 45.5794 106.105 44.8458 106.105 43.9264C106.105 42.7283 105.039 41.6603 102.907 40.7224C102.608 40.5831 102.379 40.4809 102.219 40.4159C99.8082 39.32 98.1992 38.331 97.3922 37.4487C96.5952 36.5572 96.1967 35.4706 96.1967 34.189C96.1967 32.5266 96.7994 31.18 98.0049 30.1492C99.2204 29.1184 100.809 28.6029 102.772 28.6029C104.386 28.6029 105.736 28.8955 106.822 29.4805C107.908 30.0563 108.66 30.8875 109.079 31.9741L106.299 33.3114C105.861 32.6706 105.377 32.2016 104.849 31.9044C104.331 31.6072 103.734 31.4587 103.056 31.4587C102.1 31.4587 101.338 31.6908 100.77 32.1552C100.212 32.6195 99.9328 33.2417 99.9328 34.0218C99.9328 35.2477 101.168 36.39 103.639 37.4487C103.828 37.5323 103.978 37.5973 104.087 37.6437C106.249 38.5724 107.734 39.4826 108.541 40.3741C109.348 41.2564 109.751 42.3615 109.751 43.6895C109.751 45.6212 109.099 47.1582 107.793 48.3005C106.488 49.4335 104.725 50 102.503 50C100.64 50 99.1108 49.6007 97.9153 48.802C96.7297 48.0033 95.9526 46.861 95.584 45.3751Z" fill="#219499"/>
<path d="M118.228 49.4567V29.0626H121.784V37.5044L129.645 29.0626H133.994L125.326 38.1313L135.025 49.4567H130.437L121.784 39.0368V49.4567H118.228Z" fill="#219499"/>
<path d="M146.416 41.4467H152.513L150.271 36.794C150.142 36.4968 150.007 36.1578 149.868 35.7771C149.728 35.387 149.589 34.9552 149.449 34.4815C149.33 34.9273 149.2 35.3452 149.061 35.7353C148.931 36.116 148.797 36.469 148.657 36.794L146.416 41.4467ZM156.249 49.4567L153.768 44.205H145.1L142.56 49.4567H138.824L149.419 28.2547L160 49.4567H156.249Z" fill="#219499"/>
</svg>
