<svg width="103" height="30" viewBox="0 0 103 30" fill="none" xmlns="http://www.w3.org/2000/svg">
<g clip-path="url(#clip0_179_4376)">
<mask id="mask0_179_4376" style="mask-type:luminance" maskUnits="userSpaceOnUse" x="0" y="0" width="103" height="30">
<path d="M102.355 0.390625H0.5V29.4479H102.355V0.390625Z" fill="white"/>
</mask>
<g mask="url(#mask0_179_4376)">
<path d="M30.8277 17.4871H29.8658C28.9039 17.4871 28.6498 17.0152 28.6498 16.271V13.0586C28.6498 12.3145 28.9039 11.8426 29.8658 11.8426H30.3921C32.8423 11.8426 33.8768 10.9533 33.8768 9.31981C33.8768 7.43227 32.5519 6.97852 30.3921 6.97852H24.9473C24.4209 6.97852 23.9854 7.4141 23.9854 7.94044V21.8611C23.9854 22.3874 24.4209 22.823 24.9473 22.823H31.0636C33.1327 22.823 34.3124 21.97 34.3124 20.0824C34.3487 18.086 32.8604 17.4871 30.8277 17.4871Z" fill="#393939"/>
<path d="M24.3485 0.990234H19.793C18.8311 0.990234 18.3955 1.13543 17.8329 2.27884L17.3428 3.20446L13.0596 11.3536L8.14106 2.27884C7.54213 1.13543 7.14284 0.990234 6.14462 0.990234H1.28056C0.463837 0.990234 0.391239 1.69806 0.609033 2.16995L9.64747 18.3774V27.5973C9.64747 28.5593 10.0831 28.8134 10.8635 28.8134H15.0923C15.8364 28.8134 16.3083 28.5593 16.3083 27.5973V18.3774L17.3428 16.4536L25.0382 2.16995C25.2378 1.71621 25.1652 0.990234 24.3485 0.990234Z" fill="#393939"/>
<path d="M58.2516 19.1209H54.1135C53.1879 19.1209 53.1153 19.7924 52.9701 20.6454C52.6434 22.6782 50.7922 23.5312 48.5235 23.5312C45.7466 23.5312 43.8228 22.0066 43.8228 19.3024V10.4999C43.8228 7.83191 45.7103 6.27105 48.5235 6.27105C50.8103 6.27105 51.9719 6.90628 52.8612 8.30379C53.1879 8.79383 53.2605 9.6287 54.1498 9.6287H58.2153C59.1772 9.6287 59.5402 9.41091 59.5402 8.41269C58.9958 3.0223 53.7869 0.390625 48.5235 0.390625C45.1477 0.390625 41.2274 1.71554 39.0132 4.565C39.8662 5.78102 40.2655 7.19667 40.2655 8.63048C40.2655 12.8049 37.7064 14.1842 37.2345 14.402C37.2345 14.402 37.1982 14.402 37.1982 14.4383C37.1982 14.4383 37.2345 14.4383 37.2345 14.4746C37.7246 14.6924 41.0822 16.3259 41.0822 20.7362C41.0822 22.8052 40.4833 24.4387 39.3762 25.7273C41.663 28.2864 45.3655 29.4661 48.5598 29.4661C53.7869 29.4661 59.5584 26.054 59.5584 20.6091C59.5221 19.5383 59.1772 19.1209 58.2516 19.1209Z" fill="#393939"/>
<path d="M66.9996 5.87213L65.4025 1.80664H66.1829L67.3626 5.0554L68.5423 1.80664H69.3228L67.7256 5.87213V8.64898H66.9815V5.87213H66.9996Z" fill="#393939"/>
<path d="M70.0305 4.49155C70.0305 3.92892 70.5024 3.45703 71.065 3.45703H72.027C72.5896 3.45703 73.0615 3.92892 73.0615 4.49155V7.7403C73.0615 8.30294 72.5896 8.77482 72.027 8.77482H71.065C70.5024 8.77482 70.0305 8.30294 70.0305 7.7403V4.49155ZM71.2102 8.08514H71.8818C72.1722 8.08514 72.3718 7.83105 72.3718 7.59511V4.5823C72.3718 4.32821 72.154 4.09226 71.8818 4.09226H71.2102C70.9561 4.09226 70.7202 4.34635 70.7202 4.5823V7.57696C70.7383 7.83105 70.9561 8.08514 71.2102 8.08514Z" fill="#393939"/>
<path d="M75.2578 3.56641H75.9656V7.55929C75.9656 7.84968 76.1834 8.08562 76.4556 8.08562H76.9275C77.2542 8.08562 77.5265 7.79523 77.5265 7.45039V3.56641H78.2343V8.63011H77.5991L77.5265 8.26712C77.4539 8.37602 77.1635 8.739 76.746 8.739H76.2741C75.6752 8.739 75.2396 8.26712 75.2396 7.70448V3.56641H75.2578Z" fill="#393939"/>
<path d="M80.4301 8.6126V3.56707H81.0653L81.1379 3.89374C81.2105 3.78485 81.5009 3.42188 81.9183 3.42188H82.4083C83.0073 3.42188 83.4429 3.89376 83.4429 4.45639V8.59447H82.735V4.61972C82.735 4.36563 82.5172 4.1297 82.2632 4.1297H81.7368C81.4101 4.1297 81.1379 4.4201 81.1379 4.76494V8.64892H80.4301V8.6126Z" fill="#393939"/>
<path d="M85.4395 9.35609C85.4395 8.9568 85.6209 8.75715 85.9113 8.46676L86.238 8.17637C85.9476 8.06747 85.6754 7.81338 85.6754 7.43224C85.6754 7.21445 85.748 7.03295 85.8932 6.90591C85.6391 6.72441 85.4576 6.41587 85.4576 6.05288V4.63722C85.4576 4.07459 85.9295 3.56641 86.4921 3.56641H88.416V4.02014L87.8896 4.09274C88.0348 4.20164 88.1437 4.41943 88.1437 4.61908V6.03473C88.1437 6.63367 87.6718 7.10555 87.1092 7.10555H86.5829C86.5103 7.10555 86.4377 7.10555 86.3651 7.06925C86.2925 7.17815 86.2199 7.28705 86.2199 7.39594C86.2199 7.68634 86.4377 7.75893 86.6555 7.83153L87.7626 8.23082C88.1982 8.41231 88.4704 8.70271 88.4704 9.15644V10.2999C88.4704 10.8625 87.9985 11.3707 87.4359 11.3707H86.5103C85.9113 11.3707 85.4758 10.8988 85.4758 10.2999L85.4395 9.35609ZM86.5829 10.7173H87.2907C87.5448 10.7173 87.7626 10.4632 87.7626 10.2273V9.26534C87.7626 9.04755 87.6174 8.86605 87.4359 8.79345L86.7281 8.46676L86.3651 8.82975C86.1836 9.01125 86.0747 9.12014 86.0747 9.35609V10.2091C86.0928 10.4632 86.3288 10.7173 86.5829 10.7173ZM86.6192 6.50662H86.9822C87.2363 6.50662 87.454 6.25253 87.454 6.01658V4.72797C87.454 4.47388 87.2363 4.23794 86.9822 4.23794H86.6192C86.3651 4.23794 86.1291 4.45573 86.1291 4.72797V6.01658C86.1473 6.27068 86.3651 6.50662 86.6192 6.50662Z" fill="#393939"/>
<path d="M66.1464 11.5352H68.0702C68.7054 11.5352 69.2136 12.0615 69.2136 12.6786V13.9672C69.2136 14.4391 68.8869 14.7839 68.5421 14.8928C68.9777 14.9654 69.3951 15.3647 69.3951 15.8547V17.2522C69.3951 17.8875 68.8688 18.3957 68.2517 18.3957H66.1464V11.5352ZM67.8524 14.6387C68.1791 14.6387 68.4513 14.3483 68.4513 14.0398V12.8238C68.4513 12.4971 68.1973 12.2248 67.8524 12.2248H66.8905V14.6024H67.8524V14.6387ZM67.9976 17.6515C68.3243 17.6515 68.5965 17.3611 68.5965 17.0526V15.8003C68.5965 15.4736 68.3424 15.2376 67.9976 15.2376H66.8905V17.6515H67.9976Z" fill="#393939"/>
<path d="M71.5189 13.3125H72.2268V17.3054C72.2268 17.5958 72.4445 17.8317 72.7168 17.8317H73.1887C73.5154 17.8317 73.7876 17.5413 73.7876 17.1965V13.3125H74.4954V18.3762H73.8602L73.7876 18.0132C73.715 18.1221 73.4246 18.4851 73.0072 18.4851H72.5534C71.9545 18.4851 71.5189 18.0132 71.5189 17.4506V13.3125Z" fill="#393939"/>
<path d="M76.5826 16.761H77.2541V17.3236C77.2541 17.5777 77.5082 17.7955 77.7441 17.7955H78.2342C78.5246 17.7955 78.7242 17.5777 78.7242 17.3236V16.7247C78.7242 16.5432 78.6153 16.3617 78.4338 16.2891L77.1452 15.8172C76.7822 15.672 76.5463 15.3272 76.5463 14.9279V14.2201C76.5463 13.6574 77.0181 13.1855 77.6171 13.1855H78.3612C78.9238 13.1855 79.3957 13.6574 79.3957 14.2201V14.9097H78.7242V14.3471C78.7242 14.093 78.5064 13.8752 78.2342 13.8752H77.7078C77.4174 13.8752 77.2359 14.093 77.2359 14.3471V14.9097C77.2359 15.0912 77.3448 15.2727 77.5263 15.3453L78.8149 15.8354C79.1779 15.9806 79.4139 16.3254 79.4139 16.7247V17.5051C79.4139 18.0678 78.942 18.5396 78.3794 18.5396H77.6352C77.0363 18.5396 76.5644 18.0678 76.5644 17.5051V16.761H76.5826Z" fill="#393939"/>
<path d="M81.5918 18.3775V13.3138H82.2996V18.3775H81.5918ZM81.5918 12.4971V11.5352H82.2996V12.4608H81.5918V12.4971Z" fill="#393939"/>
<path d="M84.5865 18.3769V13.3132H85.2218L85.2944 13.6399C85.367 13.531 85.6574 13.168 86.0748 13.168H86.5648C87.1638 13.168 87.5994 13.6399 87.5994 14.2025V18.3406H86.8915V14.3477C86.8915 14.0936 86.6737 13.8576 86.4196 13.8576H85.8933C85.5666 13.8576 85.2944 14.148 85.2944 14.4929V18.3769H84.5865Z" fill="#393939"/>
<path d="M89.7953 14.2025C89.7953 13.6399 90.2671 13.168 90.8298 13.168H91.7191C92.2817 13.168 92.7536 13.6399 92.7536 14.2025V15.8722H90.4668V17.2879C90.4668 17.542 90.6846 17.7779 90.9568 17.7779H91.592C91.8461 17.7779 92.0639 17.5238 92.0639 17.2879V16.6527H92.7355V17.3968C92.7355 17.9594 92.2636 18.4313 91.7009 18.4313H90.8116C90.249 18.4313 89.7771 17.9594 89.7771 17.3968L89.7953 14.2025ZM92.1002 15.3459V14.3477C92.1002 14.0936 91.8824 13.8576 91.6102 13.8576H90.975C90.7209 13.8576 90.4849 14.1117 90.4849 14.3477V15.3459H92.1002Z" fill="#393939"/>
<path d="M94.732 16.761H95.4035V17.3236C95.4035 17.5777 95.6576 17.7955 95.8935 17.7955H96.3836C96.674 17.7955 96.8736 17.5777 96.8736 17.3236V16.7247C96.8736 16.5432 96.7647 16.3617 96.5832 16.2891L95.2946 15.8172C94.9316 15.672 94.6957 15.3272 94.6957 14.9279V14.2201C94.6957 13.6574 95.1676 13.1855 95.7665 13.1855H96.5106C97.0733 13.1855 97.5451 13.6574 97.5451 14.2201V14.9097H96.8736V14.3471C96.8736 14.093 96.6558 13.8752 96.3836 13.8752H95.8572C95.5669 13.8752 95.3854 14.093 95.3854 14.3471V14.9097C95.3854 15.0912 95.4943 15.2727 95.6758 15.3453L96.9644 15.8354C97.3274 15.9806 97.5633 16.3254 97.5633 16.7247V17.5051C97.5633 18.0678 97.0914 18.5396 96.5288 18.5396H95.7846C95.1857 18.5396 94.7138 18.0678 94.7138 17.5051V16.761H94.732Z" fill="#393939"/>
<path d="M99.5053 16.761H100.177V17.3236C100.177 17.5777 100.431 17.7955 100.667 17.7955H101.157C101.447 17.7955 101.647 17.5777 101.647 17.3236V16.7247C101.647 16.5432 101.538 16.3617 101.357 16.2891L100.068 15.8172C99.7049 15.672 99.469 15.3272 99.469 14.9279V14.2201C99.469 13.6574 99.9409 13.1855 100.54 13.1855H101.284C101.847 13.1855 102.318 13.6574 102.318 14.2201V14.9097H101.647V14.3471C101.647 14.093 101.429 13.8752 101.157 13.8752H100.631C100.34 13.8752 100.159 14.093 100.159 14.3471V14.9097C100.159 15.0912 100.268 15.2727 100.449 15.3453L101.738 15.8354C102.101 15.9806 102.337 16.3254 102.337 16.7247V17.5051C102.337 18.0678 101.865 18.5396 101.302 18.5396H100.558C99.959 18.5396 99.4872 18.0678 99.4872 17.5051V16.761H99.5053Z" fill="#393939"/>
<path d="M66.0013 22.3164C66.0013 21.6812 66.5277 21.1367 67.1811 21.1367H68.2882C68.9234 21.1367 69.4679 21.6631 69.4679 22.3164V23.351H68.7238V22.4616C68.7238 22.1349 68.4697 21.8627 68.1248 21.8627H67.3807C67.054 21.8627 66.7818 22.1531 66.7818 22.4616V26.9082C66.7818 27.2349 67.0359 27.5072 67.3807 27.5072H68.1248C68.4515 27.5072 68.7238 27.2168 68.7238 26.9082V26.0552H69.4679V27.0534C69.4679 27.6887 68.9416 28.2332 68.2882 28.2332H67.1811C66.5458 28.2332 66.0013 27.7068 66.0013 27.0534V22.3164Z" fill="#393939"/>
<path d="M72.6259 28.0868C72.0633 28.0868 71.5914 27.6149 71.5914 27.0523V20.4277H72.2993V26.9071C72.2993 27.1612 72.5171 27.3971 72.7711 27.3971H73.3701V28.0687H72.6259V28.0868Z" fill="#393939"/>
<path d="M75.0034 23.041H75.7112V27.0339C75.7112 27.3243 75.929 27.5602 76.2012 27.5602H76.6731C76.9998 27.5602 77.2721 27.2698 77.2721 26.925V23.041H77.9799V28.1047H77.3447L77.2721 27.7417C77.1995 27.8506 76.9091 28.2136 76.4916 28.2136H76.0198C75.4208 28.2136 74.9852 27.7417 74.9852 27.1791V23.041H75.0034Z" fill="#393939"/>
<path d="M80.2124 28.0868V20.4277H80.9202V23.3498C81.0291 23.2409 81.2832 22.9142 81.7007 22.9142H82.227C82.7896 22.9142 83.2615 23.3861 83.2615 23.9487V27.1975C83.2615 27.7601 82.7896 28.232 82.227 28.232H81.7007C81.2651 28.232 80.9928 27.9053 80.9202 27.7601L80.8476 28.0868H80.2124ZM81.5192 27.5968H82.0455C82.2996 27.5968 82.5174 27.379 82.5174 27.1067V24.1121C82.5174 23.8217 82.2996 23.622 82.0455 23.622H81.5192C81.1925 23.622 80.9202 23.9124 80.9202 24.2573V26.9978C80.9202 27.2701 81.2106 27.5968 81.5192 27.5968Z" fill="#393939"/>
</g>
</g>
<defs>
<clipPath id="clip0_179_4376">
<rect width="102" height="29.2206" fill="white" transform="translate(0.5 0.390625)"/>
</clipPath>
</defs>
</svg>
