<svg width="133" height="46" viewBox="0 0 133 46" fill="none" xmlns="http://www.w3.org/2000/svg">
<mask id="mask0_179_4429" style="mask-type:luminance" maskUnits="userSpaceOnUse" x="11" y="10" width="110" height="27">
<path d="M120.875 10.625H11.375V36.125H120.875V10.625Z" fill="white"/>
</mask>
<g mask="url(#mask0_179_4429)">
<path fill-rule="evenodd" clip-rule="evenodd" d="M117.171 18.7427C117.171 18.9661 116.992 19.1598 116.754 19.1598C116.531 19.1598 116.337 18.9811 116.337 18.7427V11.0421C116.337 10.8186 116.516 10.625 116.754 10.625C116.977 10.625 117.171 10.8037 117.171 11.0421V18.7427Z" fill="#393939"/>
<path fill-rule="evenodd" clip-rule="evenodd" d="M113.064 11.4435C112.841 11.4435 112.647 11.2648 112.647 11.0264C112.647 10.803 112.826 10.6094 113.064 10.6094H120.459C120.681 10.6094 120.875 10.7882 120.875 11.0264C120.875 11.2499 120.696 11.4435 120.459 11.4435H113.064Z" fill="#393939"/>
<path fill-rule="evenodd" clip-rule="evenodd" d="M46.0103 18.7427C46.0103 18.9661 45.8318 19.1598 45.5938 19.1598C45.3706 19.1598 45.1772 18.9811 45.1772 18.7427V11.0421C45.1772 10.8186 45.3557 10.625 45.5938 10.625H51.0539C51.6936 10.625 52.2739 10.8931 52.7054 11.3102C53.1219 11.7272 53.3897 12.323 53.3897 12.9635C53.3897 13.604 53.1219 14.1998 52.7054 14.6168C52.2887 15.0339 51.6936 15.302 51.0539 15.302H50.1315L53.2856 18.4597C53.4492 18.6235 53.4492 18.8767 53.2856 19.0406C53.1219 19.2045 52.869 19.2045 52.7054 19.0406L48.852 15.1828C48.7776 15.1084 48.733 15.0041 48.733 14.8999C48.733 14.6764 48.9115 14.4977 49.1347 14.4977H51.0539C51.4705 14.4977 51.8573 14.3338 52.1251 14.0509C52.3929 13.7827 52.5714 13.3954 52.5714 12.9784C52.5714 12.5613 52.4078 12.174 52.1251 11.9059C51.8573 11.6379 51.4705 11.4591 51.0539 11.4591H45.9955V18.7427H46.0103Z" fill="#393939"/>
<path fill-rule="evenodd" clip-rule="evenodd" d="M12.1932 18.7427C12.1932 18.9661 12.0147 19.1598 11.7767 19.1598C11.5535 19.1448 11.375 18.9661 11.375 18.7427V14.8849V11.0421C11.375 10.8037 11.5535 10.625 11.7915 10.625C11.7915 10.625 11.8065 10.625 11.8213 10.625H17.2517C17.8914 10.625 18.4717 10.8931 18.9031 11.3102C19.3197 11.7272 19.5875 12.323 19.5875 12.9635C19.5875 13.604 19.3197 14.1849 18.9031 14.6168C18.4866 15.0339 17.8914 15.302 17.2517 15.302H12.1932V18.7427ZM12.1932 11.4442V14.4828H17.2368C17.6534 14.4828 18.0402 14.3189 18.308 14.0359C18.5758 13.7678 18.7543 13.3806 18.7543 12.9635C18.7543 12.5464 18.5907 12.1592 18.308 11.8911C18.0402 11.6229 17.6534 11.4442 17.2368 11.4442H12.1932Z" fill="#393939"/>
<path fill-rule="evenodd" clip-rule="evenodd" d="M79.7383 35.6932C79.7383 35.9166 79.5598 36.1102 79.3213 36.1102C79.0985 36.1102 78.905 35.9314 78.905 35.6932V27.9925C78.905 27.769 79.0835 27.5755 79.3213 27.5755C79.4555 27.5755 79.5598 27.635 79.634 27.7244L86.2993 34.6654V27.9776C86.2993 27.7542 86.4778 27.5605 86.7155 27.5605C86.939 27.5605 87.1325 27.7393 87.1325 27.9776V35.6782C87.1325 35.7825 87.0875 35.8867 87.0133 35.9761C86.8498 36.14 86.597 36.1251 86.4328 35.9613L79.7533 28.9905V35.6932H79.7383Z" fill="#393939"/>
<path fill-rule="evenodd" clip-rule="evenodd" d="M45.1772 27.9912C45.1772 27.7678 45.3557 27.5742 45.5938 27.5742C45.817 27.5742 46.0103 27.7529 46.0103 27.9912V35.2897H53.3004C53.5236 35.2897 53.717 35.4685 53.717 35.7068C53.717 35.9302 53.5385 36.1238 53.3004 36.1238H45.6086C45.3855 36.1238 45.1921 35.9451 45.1921 35.7068V27.9912H45.1772Z" fill="#393939"/>
<path fill-rule="evenodd" clip-rule="evenodd" d="M62.8669 18.7422C62.8669 18.9656 62.6884 19.1593 62.4503 19.1593C62.2271 19.1593 62.0337 18.9805 62.0337 18.7422V11.1905C62.0337 10.9671 62.2123 10.7734 62.4503 10.7734C62.4652 10.7734 62.48 10.7734 62.48 10.7734H69.8445C70.0677 10.7734 70.2462 10.9522 70.2462 11.1756C70.2462 11.399 70.0677 11.5777 69.8445 11.5777H62.8669V14.5418H69.8445C70.0677 14.5418 70.2611 14.7205 70.2611 14.9589C70.2611 15.1823 70.0825 15.376 69.8445 15.376H62.8669V18.7422Z" fill="#393939"/>
<path fill-rule="evenodd" clip-rule="evenodd" d="M36.1167 18.3256C36.3398 18.3256 36.5333 18.5044 36.5333 18.7427C36.5333 18.9661 36.3548 19.1598 36.1167 19.1598H28.7225C28.4993 19.1598 28.3059 18.9811 28.3059 18.7427V14.8849V11.0421C28.3059 10.8186 28.4844 10.625 28.7225 10.625H36.1167C36.3398 10.625 36.5333 10.8037 36.5333 11.0421C36.5333 11.2655 36.3548 11.4591 36.1167 11.4591H29.139V14.4977H36.1167C36.3398 14.4977 36.5333 14.6764 36.5333 14.9147C36.5333 15.1381 36.3548 15.3318 36.1167 15.3318H29.139V18.3703H36.1167V18.3256Z" fill="#393939"/>
<path fill-rule="evenodd" clip-rule="evenodd" d="M86.7305 18.3256C86.954 18.3256 87.1475 18.5044 87.1475 18.7427C87.1475 18.9661 86.969 19.1598 86.7305 19.1598H79.3363C79.1135 19.1598 78.92 18.9811 78.92 18.7427V14.8849V11.0421C78.92 10.8186 79.0985 10.625 79.3363 10.625H86.7305C86.954 10.625 87.1475 10.8037 87.1475 11.0421C87.1475 11.2655 86.969 11.4591 86.7305 11.4591H79.7533V14.4977H86.7305C86.954 14.4977 87.1475 14.6764 87.1475 14.9147C87.1475 15.1381 86.969 15.3318 86.7305 15.3318H79.7533V18.3703H86.7305V18.3256Z" fill="#393939"/>
<path fill-rule="evenodd" clip-rule="evenodd" d="M120.459 35.2761C120.681 35.2761 120.875 35.4548 120.875 35.6932C120.875 35.9166 120.696 36.1102 120.459 36.1102H113.064C112.841 36.1102 112.647 35.9314 112.647 35.6932V31.8354V27.9776C112.647 27.7542 112.826 27.5605 113.064 27.5605H120.459C120.681 27.5605 120.875 27.7393 120.875 27.9776C120.875 28.201 120.696 28.3947 120.459 28.3947H113.481V31.4332H120.459C120.681 31.4332 120.875 31.612 120.875 31.8502C120.875 32.0737 120.696 32.2673 120.459 32.2673H113.481V35.3059H120.459V35.2761Z" fill="#393939"/>
<path fill-rule="evenodd" clip-rule="evenodd" d="M103.022 16.6127C103.14 16.4191 103.379 16.3446 103.572 16.4637C103.766 16.5829 103.84 16.8213 103.721 17.0149C103.334 17.6703 102.798 18.2064 102.159 18.5788C101.519 18.9512 100.79 19.1448 100.031 19.1448C98.8556 19.1448 97.7846 18.6682 97.0256 17.8937C96.2524 17.1192 95.7761 16.0616 95.7761 14.8849C95.7761 13.7082 96.2524 12.6358 97.0256 11.8761C97.8146 11.1016 98.8706 10.625 100.046 10.625C100.805 10.625 101.534 10.8335 102.174 11.191C102.189 11.191 102.189 11.2059 102.204 11.2059C102.828 11.5782 103.364 12.0996 103.736 12.755C103.855 12.9486 103.78 13.2018 103.587 13.3061C103.394 13.4252 103.14 13.3507 103.037 13.1571C102.739 12.6358 102.308 12.2038 101.802 11.9059L101.787 11.8911C101.281 11.5932 100.686 11.4293 100.061 11.4293C99.1091 11.4293 98.2459 11.8166 97.6361 12.4422C97.0114 13.0677 96.6244 13.9317 96.6244 14.87C96.6244 15.8233 97.0114 16.6872 97.6361 17.2979C98.2609 17.9235 99.1234 18.3108 100.061 18.3108C100.671 18.3108 101.266 18.1469 101.787 17.849C102.278 17.566 102.724 17.134 103.022 16.6127Z" fill="#393939"/>
<path fill-rule="evenodd" clip-rule="evenodd" d="M103.022 33.5776C103.14 33.384 103.379 33.3095 103.572 33.4287C103.766 33.5478 103.84 33.7861 103.721 33.9798C103.334 34.6351 102.798 35.1714 102.159 35.5437C101.519 35.9161 100.79 36.1097 100.031 36.1097C98.8556 36.1097 97.7846 35.6331 97.0256 34.8585C96.2524 34.084 95.7761 33.0265 95.7761 31.8498C95.7761 30.6731 96.2524 29.6007 97.0256 28.8411C97.7996 28.0665 98.8556 27.5898 100.031 27.5898C100.79 27.5898 101.519 27.7984 102.159 28.1559C102.174 28.1559 102.174 28.1708 102.189 28.1708C102.813 28.5432 103.349 29.0645 103.721 29.7198C103.84 29.9135 103.766 30.1667 103.572 30.2709C103.379 30.3901 103.126 30.3156 103.022 30.122C102.724 29.6007 102.293 29.1687 101.787 28.8708L101.772 28.8559C101.266 28.558 100.671 28.3942 100.046 28.3942C99.0941 28.3942 98.2309 28.7814 97.6211 29.407C96.9964 30.0326 96.6094 30.8965 96.6094 31.8349C96.6094 32.7882 96.9964 33.6521 97.6211 34.2627C98.2459 34.8883 99.1091 35.2756 100.046 35.2756C100.656 35.2756 101.251 35.1117 101.772 34.8138C102.278 34.5309 102.709 34.0989 103.022 33.5776Z" fill="#393939"/>
<path fill-rule="evenodd" clip-rule="evenodd" d="M62.8072 35.8857C62.7031 36.0943 62.465 36.1687 62.2567 36.0644C62.0485 35.9602 61.9741 35.7219 62.0782 35.5133L63.9974 31.6555L65.9167 27.7978C66.0208 27.5893 66.2588 27.5148 66.4671 27.619C66.5564 27.6637 66.6159 27.7233 66.6457 27.7978L68.5649 31.6555L70.4841 35.5133C70.5883 35.7219 70.499 35.9602 70.3056 36.0644C70.0973 36.1687 69.8593 36.0793 69.7551 35.8857L67.8359 32.0279L66.2737 28.9L64.7116 32.0279L62.8072 35.8857Z" fill="#393939"/>
<path fill-rule="evenodd" clip-rule="evenodd" d="M62.465 26.7266H69.9932C70.2163 26.7266 70.4098 26.9054 70.4098 27.1436C70.4098 27.3671 70.2312 27.5607 69.9932 27.5607H62.465C62.2419 27.5607 62.0485 27.382 62.0485 27.1436C62.0633 26.9054 62.2419 26.7266 62.465 26.7266Z" fill="#393939"/>
<path fill-rule="evenodd" clip-rule="evenodd" d="M29.0795 35.872C28.9753 36.0805 28.7372 36.155 28.529 36.0507C28.3207 35.9465 28.2463 35.7081 28.3505 35.4997L30.2696 31.6419L32.1889 27.7841C32.2931 27.5756 32.5311 27.5011 32.7394 27.6054C32.8286 27.6501 32.8881 27.7096 32.9179 27.7841L34.8371 31.6419L36.7563 35.4997C36.8605 35.7081 36.7712 35.9465 36.5778 36.0507C36.3695 36.155 36.1315 36.0657 36.0273 35.872L34.1081 32.0142L32.546 28.8863L30.9838 32.0142L29.0795 35.872Z" fill="#393939"/>
<path fill-rule="evenodd" clip-rule="evenodd" d="M30.0912 32.4609H34.8223C34.852 32.4609 34.8818 32.4907 34.8818 32.5205V33.2355C34.8818 33.2652 34.852 33.295 34.8223 33.295H30.0912C30.0614 33.295 30.0316 33.2652 30.0316 33.2355V32.5205C30.0316 32.4907 30.0614 32.4609 30.0912 32.4609Z" fill="#393939"/>
<path fill-rule="evenodd" clip-rule="evenodd" d="M11.4493 35.7075V28.0069C11.4493 27.7835 11.6278 27.5898 11.8659 27.5898C11.8808 27.5898 11.8957 27.5898 11.8957 27.5898H17.326C17.9658 27.5898 18.546 27.858 18.9775 28.275C19.4089 28.6921 19.6618 29.2879 19.6618 29.9283C19.6618 30.5688 19.394 31.1646 18.9775 31.5817C18.8733 31.686 18.7692 31.7753 18.6502 31.8498C18.7692 31.9242 18.8733 32.0286 18.9775 32.1179C19.394 32.535 19.6618 33.1308 19.6618 33.7713C19.6618 34.4117 19.394 34.9926 18.9775 35.4246C18.5608 35.8416 17.9658 36.1098 17.326 36.1098H11.851C11.6278 36.1246 11.4493 35.931 11.4493 35.7075ZM12.2676 28.4091V35.2905H17.3111C17.7277 35.2905 18.1145 35.1267 18.3823 34.8437C18.6502 34.5756 18.8287 34.1883 18.8287 33.7713C18.8287 33.3542 18.665 32.9669 18.3823 32.6988C18.1145 32.4307 17.7277 32.252 17.3111 32.252C17.2963 32.252 17.2963 32.252 17.2814 32.252L17.3111 31.8498V31.4328C17.7277 31.4328 18.1145 31.2689 18.3823 30.9859C18.6502 30.7178 18.8287 30.3305 18.8287 29.9135C18.8287 29.4964 18.665 29.1091 18.3823 28.8411C18.1145 28.5729 17.7277 28.3942 17.3111 28.3942H12.2676V28.4091Z" fill="#393939"/>
<path fill-rule="evenodd" clip-rule="evenodd" d="M17.3262 32.2814C17.103 32.2814 16.9095 32.1027 16.9095 31.8643C16.9095 31.6409 17.0881 31.4473 17.3262 31.4473H17.9808C18.204 31.4473 18.3973 31.626 18.3973 31.8643C18.3973 32.0878 18.2188 32.2814 17.9808 32.2814H17.3262Z" fill="#393939"/>
<path fill-rule="evenodd" clip-rule="evenodd" d="M11.9849 31.4473H17.7277C17.7575 31.4473 17.7872 31.477 17.7872 31.5069V32.2218C17.7872 32.2516 17.7575 32.2814 17.7277 32.2814H11.9849C11.9552 32.2814 11.9254 32.2516 11.9254 32.2218V31.5069C11.9403 31.477 11.9552 31.4473 11.9849 31.4473Z" fill="#393939"/>
</g>
</svg>
