<svg width="103" height="20" viewBox="0 0 103 20" fill="none" xmlns="http://www.w3.org/2000/svg">
<path d="M6.94217 19.7656C5.59659 19.7656 4.44509 19.4959 3.48119 18.9617C2.51729 18.4274 1.78111 17.7104 1.27393 16.8144C0.768042 15.9197 0.509277 14.9265 0.509277 13.8373V6.24805H4.05048V13.8321C4.05048 14.3664 4.17986 14.8565 4.43733 15.2935C4.69609 15.7356 5.04543 16.0805 5.48144 16.3398C5.91746 16.5992 6.40653 16.7288 6.93959 16.7288C7.47264 16.7288 7.96171 16.5992 8.39772 16.3398C8.83892 16.0805 9.18308 15.7304 9.44184 15.2935C9.70061 14.8513 9.8287 14.3664 9.8287 13.8321V6.24805H13.3699V13.8321C13.3699 14.9213 13.1176 15.9145 12.6052 16.8092C12.0994 17.7052 11.3671 18.4223 10.4096 18.9565C9.45219 19.4907 8.29422 19.7604 6.93312 19.7604L6.93829 19.7656H6.94217Z" fill="#393939"/>
<path d="M25.3819 10.835C25.3819 9.71335 25.1555 8.79662 24.7091 8.07828C24.2627 7.36123 23.6702 6.82702 22.9379 6.47044C22.2056 6.11516 21.393 5.94141 20.4938 5.94141C19.5946 5.94141 18.7821 6.11905 18.0394 6.47044C17.2968 6.82702 16.7107 7.35994 16.2695 8.07828C15.8283 8.79532 15.6135 9.71205 15.6135 10.835V19.4538H19.1547V10.3163C19.1547 10.057 19.2142 9.83135 19.3372 9.63166C19.4562 9.43198 19.6231 9.27508 19.8275 9.1519C20.0319 9.03261 20.2584 8.96908 20.5003 8.96908C20.7422 8.96908 20.9635 9.02872 21.1731 9.1519C21.3775 9.27119 21.5444 9.43198 21.6634 9.63166C21.7825 9.83135 21.8472 10.0583 21.8472 10.3163V14.5343H25.3884V10.8337H25.3832L25.3819 10.835Z" fill="#393939"/>
<path d="M9.84295 6.25V13.8341C9.84295 14.3683 9.71357 14.8532 9.4561 15.2954C9.19733 15.7324 8.85317 16.0825 8.41198 16.3418C7.97596 16.6011 7.48043 16.7295 6.94867 16.7295C6.4169 16.7295 5.92137 16.5998 5.48535 16.3418C5.04416 16.0825 4.7 15.7324 4.44124 15.2954C4.18247 14.8532 4.05438 14.3683 4.05438 13.8341V6.25H0.513184V13.8341C0.513184 14.9233 0.766774 15.9165 1.27783 16.8112C1.78372 17.7072 2.51602 18.4242 3.47345 18.9584C4.43088 19.4927 5.58886 19.7624 6.94996 19.7624C8.31106 19.7624 9.46904 19.4927 10.4265 18.9584C11.3839 18.4242 12.1162 17.7072 12.6221 16.8112C13.1331 15.9152 13.3867 14.9233 13.3867 13.8341V6.25H9.84554H9.84295Z" fill="#393939"/>
<path d="M25.3922 10.835C25.3922 9.71335 25.1657 8.79662 24.7194 8.07828C24.273 7.36123 23.6804 6.82702 22.9481 6.47044C22.2158 6.11516 21.4033 5.94141 20.5041 5.94141C19.6049 5.94141 18.7924 6.11905 18.0497 6.47044C17.307 6.82702 16.7209 7.35994 16.2797 8.07828C15.8386 8.79532 15.6238 9.71205 15.6238 10.835V19.4538H19.165V10.3163C19.165 10.057 19.2245 9.83135 19.3474 9.63166C19.4664 9.43198 19.6333 9.27508 19.8378 9.1519C20.0422 9.03261 20.2686 8.96908 20.5106 8.96908C20.7525 8.96908 20.9737 9.02872 21.1833 9.1519C21.3878 9.27119 21.5547 9.43198 21.6737 9.63166C21.7927 9.83135 21.8574 10.0583 21.8574 10.3163V14.5343H25.3986V10.8337H25.3934L25.3922 10.835Z" fill="#393939"/>
<path d="M75.7193 4.67473C75.1164 4.67473 74.595 4.45301 74.159 4.01733C73.7229 3.58036 73.5017 3.05781 73.5017 2.45358C73.5017 1.84934 73.7229 1.32679 74.159 0.889821C74.595 0.452851 75.1164 0.232422 75.7193 0.232422C76.3222 0.232422 76.8437 0.454148 77.2797 0.889821C77.7209 1.33198 77.9369 1.84934 77.9369 2.45358C77.9369 3.05781 77.7157 3.58036 77.2797 4.01733C76.8385 4.45949 76.3222 4.67473 75.7193 4.67473ZM73.9377 19.4591V6.25016H77.5009V19.4539H73.9377V19.4591Z" fill="#393939"/>
<path d="M58.8297 19.4538V11.8697C58.8297 10.7805 59.0833 9.78726 59.5944 8.89257C60.1002 7.99789 60.8377 7.27955 61.8003 6.74533C62.7642 6.21111 63.9209 5.94141 65.2613 5.94141C66.6017 5.94141 67.7804 6.21111 68.7378 6.74533C69.6953 7.27955 70.4276 7.99659 70.9334 8.89257C71.4393 9.78726 71.6981 10.7805 71.6981 11.8697V19.4538H68.1569V11.8697C68.1569 11.3355 68.0275 10.8453 67.77 10.4084C67.5113 9.9662 67.1619 9.62129 66.7259 9.36196C66.2847 9.10263 65.8008 8.97297 65.2678 8.97297C64.7347 8.97297 64.2457 9.10263 63.8096 9.36196C63.3684 9.62129 63.0243 9.97138 62.7655 10.4084C62.5068 10.8505 62.3787 11.3355 62.3787 11.8697V19.4538H58.8323H58.8297Z" fill="#393939"/>
<path d="M79.9993 19.4538V16.4222H86.8683C87.0727 16.4222 87.2616 16.3794 87.422 16.2925C87.5837 16.207 87.7131 16.0877 87.8089 15.9308C87.9059 15.7739 87.9486 15.6014 87.9486 15.4134C87.9486 15.2085 87.9007 15.0257 87.8089 14.8688C87.717 14.7119 87.5825 14.5887 87.422 14.4915C87.2603 14.3942 87.0727 14.3514 86.8683 14.3514H84.3867C83.5418 14.3514 82.7824 14.2166 82.0992 13.9521C81.4213 13.6824 80.8779 13.2506 80.4742 12.658C80.0705 12.0655 79.8661 11.2823 79.8661 10.3176C79.8661 9.5733 80.0485 8.89905 80.4211 8.28444C80.7925 7.66983 81.2932 7.1784 81.9168 6.80626C82.5469 6.43412 83.2404 6.25 83.9947 6.25H90.5544V9.28156H84.3285C84.0697 9.28156 83.8446 9.36844 83.6453 9.54089C83.4461 9.71334 83.3491 9.94026 83.3491 10.2151C83.3491 10.49 83.4461 10.7221 83.635 10.8998C83.8239 11.0839 84.0542 11.1695 84.335 11.1695H86.8165C87.7636 11.1695 88.5813 11.3095 89.2709 11.5961C89.9605 11.8813 90.4923 12.3248 90.8752 12.9277C91.2517 13.532 91.4458 14.3242 91.4458 15.3123C91.4458 16.0734 91.2569 16.7684 90.8752 17.3947C90.4936 18.0261 89.9877 18.5279 89.3524 18.8936C88.7171 19.2657 88.0017 19.4499 87.2098 19.4499H80.4393L80.0019 19.455L79.9993 19.4538Z" fill="#393939"/>
<path d="M99.0249 11.1699V15.3879C99.0249 15.6472 98.9602 15.8728 98.8425 16.0725C98.7234 16.2722 98.5565 16.4343 98.3521 16.5523C98.1425 16.6768 97.9213 16.7364 97.6793 16.7364C97.4374 16.7364 97.211 16.6716 97.0065 16.5523C96.8021 16.4278 96.6352 16.2722 96.5162 16.0725C96.4088 15.9001 96.3532 15.7056 96.3389 15.4903V9.21974H102.561V6.18818H96.3389V2.93359H92.7977L92.7913 14.8705C92.7913 15.9921 93.006 16.9089 93.4472 17.6272C93.8884 18.3442 94.4758 18.8785 95.2172 19.235C95.9598 19.5851 96.7724 19.7641 97.6716 19.7641C98.5708 19.7641 99.3833 19.5916 100.116 19.235C100.848 18.8798 101.439 18.3455 101.887 17.6272C102.333 16.9101 102.56 15.9934 102.56 14.8705H102.565V11.1699H99.0236H99.0249Z" fill="#393939"/>
<path d="M49.663 16.738C50.3526 16.738 50.9452 16.5655 51.4459 16.2206C51.9466 15.8757 52.3296 15.4063 52.5987 14.8086C52.8678 14.216 52.9972 13.5521 52.9972 12.8299C52.9972 12.1077 52.8626 11.4554 52.5987 10.8784C52.3296 10.3014 51.9466 9.83852 51.4459 9.49231C50.9452 9.14741 50.3526 8.97495 49.6617 8.97495C48.9708 8.97495 48.3472 9.14741 47.84 9.49231C47.3341 9.83722 46.946 10.3014 46.6769 10.8784C46.4077 11.4554 46.2784 12.1077 46.2784 12.8299C46.2784 13.5521 46.4129 14.2147 46.6769 14.8086C46.946 15.4011 47.3341 15.8757 47.8413 16.2206C48.3472 16.5655 48.9566 16.738 49.663 16.738ZM48.6525 19.7682H48.6577C47.4519 19.7682 46.4026 19.4557 45.5034 18.8359C44.6093 18.2162 43.9158 17.3798 43.4255 16.3399C42.9351 15.2935 42.688 14.146 42.688 12.8843C42.688 11.6227 42.9675 10.4155 43.5277 9.36394C44.0879 8.31236 44.894 7.47732 45.9433 6.8679C46.9925 6.25848 48.2514 5.95117 49.716 5.95117C51.1807 5.95117 52.4447 6.26366 53.4617 6.88346C54.4786 7.50326 55.2536 8.34478 55.7867 9.39506C56.3197 10.4466 56.5888 11.611 56.5888 12.8882V19.4609H53.0489V17.6469H52.9946C52.7371 18.0385 52.4137 18.399 52.0268 18.718C51.64 19.0369 51.1716 19.2924 50.6191 19.4843C50.0706 19.6762 49.4146 19.7669 48.6577 19.7669H48.6629" fill="#393939"/>
<path d="M34.3091 8.979C33.6195 8.979 33.027 9.15145 32.5263 9.49636C32.0255 9.84127 31.6426 10.3107 31.3735 10.9084C31.1043 11.501 30.975 12.1649 30.975 12.8871C30.975 13.6093 31.1095 14.2615 31.3735 14.8385C31.6426 15.4156 32.0255 15.8785 32.5263 16.2247C33.027 16.5696 33.6195 16.742 34.3104 16.742C35.0013 16.742 35.625 16.5696 36.1321 16.2247C36.638 15.8798 37.0262 15.4156 37.2953 14.8385C37.5644 14.2615 37.6938 13.6093 37.6938 12.8871C37.6938 12.1649 37.5592 11.5023 37.2953 10.9084C37.0262 10.3158 36.638 9.84127 36.1308 9.49636C35.625 9.15145 35.0156 8.979 34.3091 8.979ZM35.3196 5.94874H35.3144C36.5203 5.94874 37.5696 6.26123 38.4688 6.88103C39.3628 7.50082 40.0563 8.33716 40.5467 9.37707C41.037 10.4235 41.2841 11.571 41.2841 12.8326C41.2841 14.0943 41.0047 15.3014 40.4445 16.353C39.8842 17.4046 39.0782 18.2396 38.0289 18.8491C36.9796 19.4585 35.7207 19.7658 34.2561 19.7658C32.7928 19.7658 31.5274 19.4533 30.5105 18.8335C29.4935 18.2137 28.7185 17.3722 28.1855 16.3219C27.6524 15.2703 27.3833 14.1059 27.3833 12.8287V0.554688H30.9232V6.25604V8.07005H30.9775C31.235 7.67846 31.5585 7.318 31.9453 6.99902C32.3322 6.68005 32.8005 6.42461 33.353 6.2327C33.9016 6.0408 34.5576 5.95003 35.3144 5.95003H35.3093" fill="#393939"/>
</svg>
