<svg width="124" height="24" viewBox="0 0 124 24" fill="none" xmlns="http://www.w3.org/2000/svg">
<path fill-rule="evenodd" clip-rule="evenodd" d="M-0.162759 5.88947V10.9216L-0.555587 11.3144L-0.948488 11.7072L-1.35045 12.2676L-1.75248 12.8279L-1.89754 13.1427L-2.04253 13.4574L-2.14984 13.7131L-2.25714 13.9687L-2.37459 14.3705L-2.49212 14.7722L-2.56918 15.2554L-2.64624 15.7387L-2.645 16.3145L-2.64368 16.8905L-2.53908 17.5114L-2.43449 18.1322L-2.34881 18.3879L-2.26313 18.6435L-2.17131 18.8627L-2.07949 19.0818L-1.90733 19.4653L-1.73524 19.8487H-1.68732H-1.63948L-1.59361 20.0314L-1.54781 20.214H-1.47615H-1.4045V20.308V20.4021L-0.80189 21.028L-0.199281 21.6537L0.0931857 21.8652L0.385652 22.0766L0.531447 22.1663L0.677242 22.256L1.19622 22.5132L1.71519 22.7705H1.82074H1.92629L1.99568 22.8379L2.06507 22.9053L2.46681 22.9985L2.86855 23.0915L8.99976 23.1145L15.1309 23.1374L15.2048 23.0635L15.2787 22.9896H15.4372H15.5956L16.0438 22.8465L16.492 22.7033L16.9684 22.4662L17.4448 22.2291L17.9585 21.8377L18.4723 21.4462L18.7417 21.1484L19.0112 20.8507L19.1376 20.6966L19.2641 20.5427L19.3389 20.454L19.4137 20.3654L19.5949 20.0984L19.7761 19.8314L19.7355 19.7659L19.6951 19.7004L12.0123 19.7493L4.32942 19.7981L3.58072 19.7057L2.83203 19.6132V19.5542V19.4951L2.6129 19.447L2.39377 19.3989V19.3317V19.2644H2.3178H2.24176L2.01197 19.1001L1.78224 18.9357L1.55844 18.689L1.33463 18.4422L1.13376 18.0681L0.932895 17.694V17.6087V17.5236L0.866643 17.4992L0.800394 17.4748L0.730928 16.8905L0.661464 16.3061L0.723186 15.7976L0.784908 15.289L0.898856 15.0307L1.01288 14.7722L1.08263 14.6627L1.15239 14.5531L1.21893 14.407L1.28555 14.2609L1.65537 13.8774L2.02526 13.494H2.09473H2.16419L2.26185 13.4027L2.35951 13.3114L2.61399 13.1835L2.86855 13.0556L3.23377 12.9643L3.59899 12.8731L11.6899 12.8903L19.7807 12.9073L19.6716 12.6963L19.5624 12.4852L19.1333 11.9487L18.7041 11.4122L18.4924 11.2284L18.2807 11.0447L17.8425 10.7147L17.4042 10.3848L16.966 10.1642L16.5277 9.94353L16.0894 9.81015L15.6512 9.67677L15.4686 9.59497L15.286 9.51309L9.22334 9.49343L3.16072 9.47379L3.14188 5.1656L3.12303 0.857422H1.48014H-0.162759V5.88947ZM117.876 5.16699V9.47656L112.087 9.4819L106.298 9.48723L105.933 9.54888L105.568 9.61053L105.239 9.69095L104.91 9.77137L104.764 9.83908L104.618 9.90686L104.253 10.0662L103.888 10.2256L103.384 10.5507L102.879 10.876L102.359 11.3997L101.84 11.9235L101.684 12.1164L101.529 12.3092L101.48 12.4633L101.431 12.6174H101.371H101.312L101.274 12.7635L101.235 12.9096L109.172 12.8618L117.109 12.8139L117.62 12.9384L118.131 13.0629L118.387 13.1872L118.643 13.3114L118.898 13.4918L119.154 13.6722L119.373 13.8962L119.592 14.1202L119.746 14.3381L119.9 14.5559L119.957 14.7371L120.014 14.9183L120.06 14.9548L120.107 14.9914L120.241 15.5396L120.375 16.0879L120.339 16.4892L120.303 16.8905L120.217 17.2309L120.131 17.5712L120.005 17.8152L119.879 18.0592L119.739 18.2783L119.599 18.4974L119.259 18.8361L118.92 19.1747L118.763 19.2244L118.606 19.2743V19.3423V19.4105L118.515 19.4109L118.423 19.4114L118.222 19.5166L118.02 19.6219L117.418 19.7103L116.817 19.7987L109.061 19.7495L101.305 19.7003L101.267 19.7621L101.228 19.8241L101.493 20.2199L101.757 20.6157L102.274 21.1492L102.79 21.6827L103.443 22.117L104.095 22.5514H104.229H104.363V22.6082V22.665L104.892 22.8227L105.422 22.9804L105.75 23.0606L106.079 23.1408L112.105 23.1161L118.131 23.0915L118.533 22.9985L118.935 22.9053L119.004 22.8379L119.074 22.7705H119.206H119.338L119.975 22.4345L120.612 22.0985L120.906 21.8697L121.199 21.6409L121.602 21.2379L122.005 20.8348L122.26 20.5092L122.514 20.1836L122.613 19.9979L122.712 19.8122L122.918 19.4105L123.124 19.0087L123.243 18.6801L123.362 18.3514L123.504 17.7011L123.646 17.0509V16.2872V15.5235L123.528 15.0018L123.41 14.48L123.277 14.0783L123.145 13.6766L122.908 13.2018L122.672 12.727L122.45 12.3999L122.228 12.0728L122.079 11.8954L121.93 11.7181L121.546 11.35L121.163 10.982V5.91971V0.857422H119.519H117.876V5.16699ZM93.4426 9.29469L92.8582 9.39147L92.5113 9.48284L92.1643 9.57422V9.63492V9.69569H92.0425H91.9208L91.4651 9.94616L91.0096 10.1966L90.966 10.1531L90.9226 10.1096V9.79306V9.47656H89.2909H87.6593L87.6109 12.0085L87.5626 14.5405L87.5627 16.3728L87.5628 18.2053L87.611 20.6705L87.6593 23.1357H89.2501H90.8409L90.8749 23.0806L90.909 23.0255L90.957 19.3737L91.0049 15.7218L91.1597 15.2287L91.3145 14.7357H91.3741H91.4339V14.641V14.5463L91.5617 14.3767L91.6895 14.2071L91.9582 13.9418L92.2269 13.6766L92.3241 13.6035L92.4212 13.5305L92.8954 13.2967L93.3695 13.0629L93.9734 12.9735L94.5772 12.884L94.5577 11.0524L94.5382 9.22091L94.2826 9.20944L94.0269 9.19798L93.4426 9.29469ZM33.1451 9.5247L32.9625 9.55289L32.5242 9.66487L32.086 9.77677L31.8668 9.85617L31.6477 9.93564L31.319 10.0895L30.9903 10.2434L30.9538 10.28L30.9173 10.3166L30.6526 10.4627L30.388 10.6087L30.0738 10.8644L29.7598 11.12L29.462 11.4178L29.1642 11.7156L29.0149 11.8942L28.8655 12.0728L28.6317 12.4127L28.3978 12.7526L28.2916 12.8588L28.1854 12.965L28.1373 13.1564L28.0893 13.3479H28.0299H27.9706L27.9214 13.5719L27.8722 13.796L27.77 13.9919L27.6677 14.1879L27.6673 14.3376L27.6668 14.4874L27.5956 14.5586L27.5242 14.63L27.4488 15.4904L27.3734 16.3508L27.4527 17.2042L27.5322 18.0576L27.5906 18.0949L27.6489 18.1322L27.7008 18.4427L27.7527 18.7531H27.8194H27.886V18.8969V19.0407L28.0478 19.3534L28.2096 19.6661L28.3765 19.848L28.5434 20.0299V20.0932V20.1564L28.7781 20.4591L29.0127 20.7618L29.4537 21.2009L29.8947 21.6399L30.1889 21.8698L30.483 22.0997L31.0615 22.4043L31.64 22.709L31.9498 22.8141L32.2595 22.9193L32.611 23.0058L32.9625 23.0922L38.9886 23.1165L45.0147 23.1408L45.3434 23.0606L45.6721 22.9804L46.2016 22.8227L46.7312 22.665V22.6082V22.5514H46.8684H47.0055L47.0964 22.4418L47.1874 22.3322H47.2738H47.3603L47.8675 21.9738L48.3747 21.6155L48.8528 21.1155L49.331 20.6157L49.76 19.9977L50.1892 19.3797L50.3435 18.9386L50.4978 18.4974L50.5474 18.4177L50.5969 18.3379L50.6773 17.9064L50.7578 17.4748L50.8219 16.8905L50.8862 16.3061L50.8196 15.7218L50.7531 15.1374L50.6775 14.7702L50.6018 14.403L50.4496 14.0033L50.2973 13.6035L50.2185 13.3661L50.1397 13.1287H50.0789H50.0182V13.048V12.9672L49.799 12.6905L49.5799 12.4138V12.3771V12.3403L49.379 12.0954L49.1782 11.8505L48.6941 11.3617L48.2101 10.8731L47.708 10.5494L47.206 10.2256L46.8408 10.0662L46.4756 9.90686L46.3295 9.83908L46.1834 9.77137L45.8547 9.69095L45.526 9.61053L45.1608 9.54888L44.7956 9.48723L39.0616 9.49183L33.3277 9.49643L33.1451 9.5247ZM63.2391 9.5247L63.0564 9.55289L62.6182 9.66399L62.1799 9.77502L61.7051 9.96625L61.2304 10.1574L61.1208 10.2466L61.0112 10.3358L60.8469 10.3859L60.6825 10.436V10.5041V10.5722H60.6018H60.521L60.2183 10.8073L59.9156 11.0423L59.6234 11.3417L59.3312 11.6411L59.0637 11.9649L58.7961 12.2887L58.425 12.8366L58.054 13.3844L58.0535 13.4976L58.053 13.6108L57.9905 13.6802L57.928 13.7496L57.8017 14.1473L57.6755 14.5451L57.5929 14.9508L57.5105 15.3566L57.5111 16.3061L57.5116 17.2557L57.6066 17.767L57.7015 18.2783L57.7677 18.3477L57.8338 18.4171V18.5556V18.694L57.9404 18.8879L58.047 19.0818L58.1904 19.4105L58.334 19.7392L58.4674 19.8853L58.6008 20.0314L58.8199 20.3547L59.0391 20.6782L59.4773 21.1266L59.9156 21.5751L60.2443 21.837L60.573 22.0989L61.1535 22.404L61.7339 22.709L62.0437 22.8141L62.3535 22.9193L62.705 23.006L63.0564 23.0927L71.9469 23.1148L80.8373 23.1369L80.878 21.438L80.9187 19.7392L80.9312 17.767L80.9438 15.7948L80.8543 15.1753L80.7648 14.5557L80.6941 14.485L80.6234 14.4143L80.623 14.2646L80.6226 14.1148L80.5203 13.9189L80.4181 13.723L80.3689 13.4989L80.3196 13.2748H80.2524H80.1852V13.1752V13.0755L79.9672 12.8282L79.7492 12.5809L79.7481 12.5184L79.7469 12.4559L79.5107 12.1532L79.2744 11.8505L78.9811 11.5292L78.6878 11.2078L78.1272 10.7892L77.5666 10.3706L77.068 10.1364L76.5695 9.90204L76.4234 9.83674L76.2773 9.77137L75.9486 9.69095L75.6199 9.61053L75.2547 9.54888L74.8895 9.48723L69.1556 9.49183L63.4217 9.49643L63.2391 9.5247ZM44.7075 12.9861L45.1211 13.0625L45.4331 13.2074L45.7451 13.3523L45.8912 13.4414L46.0373 13.5305L46.4626 13.9546L46.8877 14.3787L46.9627 14.5937L47.0377 14.8087H47.0955H47.1532L47.2045 15.0825L47.256 15.3562L47.3307 15.4024L47.4055 15.4487L47.404 16.2791L47.4026 17.1096L47.2865 17.3287L47.1703 17.5479L47.1699 17.6696L47.1695 17.7913L47.1147 17.8157L47.0599 17.8401L46.9138 18.1281L46.7677 18.416L46.3688 18.8062L45.9699 19.1963L45.8027 19.2383L45.6356 19.2803V19.3453V19.4105L45.5443 19.4109L45.4529 19.4114L45.2338 19.5388L45.0147 19.6661H39.1712H33.3277L32.9625 19.5238L32.5973 19.3815L32.5608 19.3374L32.5242 19.2932L32.2686 19.1373L32.0129 18.9814L31.7309 18.6915L31.449 18.4017L31.353 18.2304L31.257 18.0592L31.1047 17.7379L30.9524 17.4166L30.8718 17.0075L30.7911 16.5983V16.3061V16.014L30.8758 15.5791L30.9604 15.1444L31.0212 15.0678L31.082 14.9914L31.1378 14.8087L31.1936 14.6261L31.5048 14.2211L31.8159 13.816L32.1335 13.6004L32.4512 13.3848L32.4877 13.3466L32.5242 13.3084L32.7434 13.208L32.9625 13.1076L33.3642 13.0161L33.766 12.9246L39.0299 12.9171L44.294 12.9096L44.7075 12.9861ZM74.8344 12.9911L75.3024 13.0726L75.7076 13.2889L76.1128 13.5051L76.1951 13.5737L76.2773 13.6423L76.4622 13.8056L76.647 13.9687L76.8715 14.2974L77.0959 14.6261L77.2136 14.8818L77.3314 15.1374L77.4215 15.4661L77.5116 15.7948L77.5359 17.7512L77.5602 19.7075L70.397 19.6868L63.2337 19.6661L63.1816 19.584L63.1295 19.5019L62.8921 19.4504L62.6547 19.3989V19.3317V19.2644H62.5565H62.4582L62.326 19.1183L62.1938 18.9722H62.1284H62.0629L61.8108 18.6983L61.5587 18.4244L61.5174 18.2966L61.4762 18.1687H61.4138H61.3515L61.3034 17.9496L61.2553 17.7305H61.1889H61.1226L61.0755 17.4367L61.0285 17.1429L60.9651 17.1037L60.9017 17.0645V16.3061V15.5478L60.9665 15.5078L61.0312 15.4677L61.0827 15.1932L61.1342 14.9187L61.1823 14.8819L61.2304 14.8453L61.374 14.5633L61.5177 14.2813L61.8929 13.9059L62.268 13.5305L62.4066 13.4403L62.5451 13.3501L62.8008 13.2302L63.0564 13.1104L63.4582 13.0175L63.8599 12.9246L69.1131 12.9171L74.3662 12.9096L74.8344 12.9911Z" fill="#393939"/>
</svg>
