<svg width="48" height="48" viewBox="0 0 48 48" fill="none" xmlns="http://www.w3.org/2000/svg">
<rect width="48" height="48" rx="24" fill="#006B70"/>
<g clip-path="url(#clip0_4003_6066)">
<path d="M24.0003 14.4165C18.7103 14.4165 14.417 18.7098 14.417 23.9998C14.417 29.2898 18.7103 33.5832 24.0003 33.5832C29.2903 33.5832 33.5837 29.2898 33.5837 23.9998C33.5837 18.7098 29.2903 14.4165 24.0003 14.4165ZM26.5495 25.6578L25.3228 26.3669L24.0962 27.0761C22.5149 27.9865 21.2212 27.239 21.2212 25.4182V23.9998V22.5815C21.2212 20.7511 22.5149 20.0132 24.0962 20.9236L25.3228 21.6328L26.5495 22.3419C28.1307 23.2523 28.1307 24.7473 26.5495 25.6578Z" fill="#F3F3F3"/>
</g>
<defs>
<clipPath id="clip0_4003_6066">
<rect width="20" height="20" fill="white" transform="translate(14 14)"/>
</clipPath>
</defs>
</svg>
