<svg width="21" height="21" viewBox="0 0 21 21" fill="none" xmlns="http://www.w3.org/2000/svg">
<g clip-path="url(#clip0_478_7634)">
<path d="M10.4998 0.916504C5.20984 0.916504 0.916504 5.20984 0.916504 10.4998C0.916504 15.7898 5.20984 20.0832 10.4998 20.0832C15.7898 20.0832 20.0832 15.7898 20.0832 10.4998C20.0832 5.20984 15.7898 0.916504 10.4998 0.916504ZM13.049 12.1578L11.8223 12.8669L10.5957 13.5761C9.01442 14.4865 7.72067 13.739 7.72067 11.9182V10.4998V9.0815C7.72067 7.25109 9.01442 6.51317 10.5957 7.42359L11.8223 8.13275L13.049 8.84192C14.6303 9.75234 14.6303 11.2473 13.049 12.1578Z" fill="#101010"/>
</g>
<defs>
<clipPath id="clip0_478_7634">
<rect width="20" height="20" fill="white" transform="translate(0.5 0.5)"/>
</clipPath>
</defs>
</svg>
