<svg width="88" height="17" viewBox="0 0 88 17" fill="none" xmlns="http://www.w3.org/2000/svg">
<path d="M9.15327 2.83977L10.3266 5.18643C10.4866 5.5131 10.9133 5.82643 11.2733 5.88643L13.3999 6.23977C14.7599 6.46643 15.0799 7.4531 14.0999 8.42643L12.4466 10.0798C12.1666 10.3598 12.0133 10.8998 12.0999 11.2864L12.5733 13.3331C12.9466 14.9531 12.0866 15.5798 10.6533 14.7331L8.65994 13.5531C8.29994 13.3398 7.70661 13.3398 7.33994 13.5531L5.34661 14.7331C3.91994 15.5798 3.05327 14.9464 3.42661 13.3331L3.89994 11.2864C3.98661 10.8998 3.83327 10.3598 3.55327 10.0798L1.89994 8.42643C0.926606 7.4531 1.23994 6.46643 2.59994 6.23977L4.72661 5.88643C5.07994 5.82643 5.50661 5.5131 5.66661 5.18643L6.83994 2.83977C7.47994 1.56643 8.51994 1.56643 9.15327 2.83977Z" fill="#FF831A"/>
<path d="M27.1533 2.83977L28.3266 5.18643C28.4866 5.5131 28.9133 5.82643 29.2733 5.88643L31.3999 6.23977C32.7599 6.46643 33.0799 7.4531 32.0999 8.42643L30.4466 10.0798C30.1666 10.3598 30.0133 10.8998 30.0999 11.2864L30.5733 13.3331C30.9466 14.9531 30.0866 15.5798 28.6533 14.7331L26.6599 13.5531C26.2999 13.3398 25.7066 13.3398 25.3399 13.5531L23.3466 14.7331C21.9199 15.5798 21.0533 14.9464 21.4266 13.3331L21.8999 11.2864C21.9866 10.8998 21.8333 10.3598 21.5533 10.0798L19.8999 8.42643C18.9266 7.4531 19.2399 6.46643 20.5999 6.23977L22.7266 5.88643C23.0799 5.82643 23.5066 5.5131 23.6666 5.18643L24.8399 2.83977C25.4799 1.56643 26.5199 1.56643 27.1533 2.83977Z" fill="#FF831A"/>
<path d="M45.1533 2.83977L46.3266 5.18643C46.4866 5.5131 46.9133 5.82643 47.2733 5.88643L49.3999 6.23977C50.7599 6.46643 51.0799 7.4531 50.0999 8.42643L48.4466 10.0798C48.1666 10.3598 48.0133 10.8998 48.0999 11.2864L48.5733 13.3331C48.9466 14.9531 48.0866 15.5798 46.6533 14.7331L44.6599 13.5531C44.2999 13.3398 43.7066 13.3398 43.3399 13.5531L41.3466 14.7331C39.9199 15.5798 39.0533 14.9464 39.4266 13.3331L39.8999 11.2864C39.9866 10.8998 39.8333 10.3598 39.5533 10.0798L37.8999 8.42643C36.9266 7.4531 37.2399 6.46643 38.5999 6.23977L40.7266 5.88643C41.0799 5.82643 41.5066 5.5131 41.6666 5.18643L42.8399 2.83977C43.4799 1.56643 44.5199 1.56643 45.1533 2.83977Z" fill="#FF831A"/>
<path d="M63.1533 2.83977L64.3266 5.18643C64.4866 5.5131 64.9133 5.82643 65.2733 5.88643L67.3999 6.23977C68.7599 6.46643 69.0799 7.4531 68.0999 8.42643L66.4466 10.0798C66.1666 10.3598 66.0133 10.8998 66.0999 11.2864L66.5733 13.3331C66.9466 14.9531 66.0866 15.5798 64.6533 14.7331L62.6599 13.5531C62.2999 13.3398 61.7066 13.3398 61.3399 13.5531L59.3466 14.7331C57.9199 15.5798 57.0533 14.9464 57.4266 13.3331L57.8999 11.2864C57.9866 10.8998 57.8333 10.3598 57.5533 10.0798L55.8999 8.42643C54.9266 7.4531 55.2399 6.46643 56.5999 6.23977L58.7266 5.88643C59.0799 5.82643 59.5066 5.5131 59.6666 5.18643L60.8399 2.83977C61.4799 1.56643 62.5199 1.56643 63.1533 2.83977Z" fill="#FF831A"/>
<path d="M81.1533 2.83977L82.3266 5.18643C82.4866 5.5131 82.9133 5.82643 83.2733 5.88643L85.3999 6.23977C86.7599 6.46643 87.0799 7.4531 86.0999 8.42643L84.4466 10.0798C84.1666 10.3598 84.0133 10.8998 84.0999 11.2864L84.5733 13.3331C84.9466 14.9531 84.0866 15.5798 82.6533 14.7331L80.6599 13.5531C80.2999 13.3398 79.7066 13.3398 79.3399 13.5531L77.3466 14.7331C75.9199 15.5798 75.0533 14.9464 75.4266 13.3331L75.8999 11.2864C75.9866 10.8998 75.8333 10.3598 75.5533 10.0798L73.8999 8.42643C72.9266 7.4531 73.2399 6.46643 74.5999 6.23977L76.7266 5.88643C77.0799 5.82643 77.5066 5.5131 77.6666 5.18643L78.8399 2.83977C79.4799 1.56643 80.5199 1.56643 81.1533 2.83977Z" fill="#D6D6D6"/>
</svg>
