<svg width="16" height="17" viewBox="0 0 16 17" fill="none" xmlns="http://www.w3.org/2000/svg">
<path fill-rule="evenodd" clip-rule="evenodd" d="M0.833496 8.50004C0.833496 4.55723 4.05735 1.33337 8.00016 1.33337C11.943 1.33337 15.1668 4.55723 15.1668 8.50004C15.1668 12.4429 11.943 15.6667 8.00016 15.6667C4.05735 15.6667 0.833496 12.4429 0.833496 8.50004ZM8.00016 2.33337C4.60964 2.33337 1.8335 5.10952 1.8335 8.50004C1.8335 11.8906 4.60964 14.6667 8.00016 14.6667C11.3907 14.6667 14.1668 11.8906 14.1668 8.50004C14.1668 5.10952 11.3907 2.33337 8.00016 2.33337ZM8.00016 5.33337C8.27631 5.33337 8.50016 5.55723 8.50016 5.83337V8.00004H10.6668C10.943 8.00004 11.1668 8.2239 11.1668 8.50004C11.1668 8.77618 10.943 9.00004 10.6668 9.00004H8.50016V11.1667C8.50016 11.4429 8.27631 11.6667 8.00016 11.6667C7.72402 11.6667 7.50016 11.4429 7.50016 11.1667V9.00004H5.3335C5.05735 9.00004 4.8335 8.77618 4.8335 8.50004C4.8335 8.2239 5.05735 8.00004 5.3335 8.00004H7.50016V5.83337C7.50016 5.55723 7.72402 5.33337 8.00016 5.33337Z" fill="#006B70"/>
</svg>
