<svg width="48" height="48" viewBox="0 0 48 48" fill="none" xmlns="http://www.w3.org/2000/svg">
<path fill-rule="evenodd" clip-rule="evenodd" d="M22.5 4C22.5 3.17157 23.1716 2.5 24 2.5C35.8741 2.5 45.5 12.1259 45.5 24C45.5 35.8741 35.8741 45.5 24 45.5C12.1259 45.5 2.5 35.8741 2.5 24C2.5 23.1716 3.17157 22.5 4 22.5C4.82843 22.5 5.5 23.1716 5.5 24C5.5 34.2173 13.7827 42.5 24 42.5C34.2173 42.5 42.5 34.2173 42.5 24C42.5 13.7827 34.2173 5.5 24 5.5C23.1716 5.5 22.5 4.82843 22.5 4ZM24 16.5C24.8284 16.5 25.5 17.1716 25.5 18V24.5H32C32.8284 24.5 33.5 25.1716 33.5 26C33.5 26.8284 32.8284 27.5 32 27.5H24C23.1716 27.5 22.5 26.8284 22.5 26V18C22.5 17.1716 23.1716 16.5 24 16.5Z" fill="#219499"/>
<path fill-rule="evenodd" clip-rule="evenodd" d="M18.1992 4.79508C18.4975 5.56792 18.1128 6.43629 17.34 6.73462C17.0571 6.84381 16.7776 6.95977 16.5016 7.08229C15.7444 7.41843 14.8581 7.07711 14.522 6.31995C14.1859 5.56278 14.5272 4.67648 15.2843 4.34034C15.6053 4.19783 15.9305 4.06294 16.2596 3.9359C17.0325 3.63757 17.9008 4.02224 18.1992 4.79508ZM11.2954 8.48053C11.8667 9.08043 11.8436 10.0299 11.2437 10.6012C11.0243 10.8101 10.8101 11.0243 10.6012 11.2437C10.0299 11.8436 9.08043 11.8667 8.48053 11.2954C7.88063 10.7241 7.85746 9.77462 8.42879 9.17472C8.67133 8.92005 8.92005 8.67133 9.17472 8.42879C9.77462 7.85746 10.7241 7.88063 11.2954 8.48053ZM6.31995 14.522C7.07711 14.8581 7.41843 15.7444 7.08229 16.5016C6.95977 16.7776 6.84381 17.0571 6.73462 17.34C6.43628 18.1128 5.56792 18.4975 4.79508 18.1992C4.02223 17.9008 3.63757 17.0325 3.9359 16.2596C4.06294 15.9305 4.19783 15.6053 4.34034 15.2843C4.67648 14.5272 5.56278 14.1859 6.31995 14.522Z" fill="#219499"/>
</svg>
