<svg width="48" height="48" viewBox="0 0 48 48" fill="none" xmlns="http://www.w3.org/2000/svg">
<path fill-rule="evenodd" clip-rule="evenodd" d="M24.8446 6.14247C24.0962 6.85306 23.1884 8.00085 21.8418 9.71278L21.1612 10.5781C21.1163 10.6351 21.0718 10.6919 21.0276 10.7484C20.4169 11.5277 19.8534 12.247 19.0617 12.6694C18.2568 13.0989 17.355 13.1488 16.4054 13.2014C16.3367 13.2052 16.2677 13.209 16.1985 13.213L15.1437 13.2737C13.0521 13.394 11.6646 13.4782 10.6975 13.6871C9.7656 13.8884 9.62577 14.1228 9.56602 14.2431C9.49491 14.3863 9.3982 14.689 9.78822 15.6378C10.1854 16.6041 10.9229 17.8583 12.0245 19.7204L12.5816 20.6621C12.6166 20.7212 12.6514 20.7799 12.6861 20.8381C13.1953 21.6957 13.6536 22.4676 13.7742 23.3668C13.8938 24.2589 13.6613 25.1327 13.3993 26.1173C13.3815 26.1842 13.3636 26.2517 13.3456 26.3197L13.0597 27.4008C12.495 29.5363 12.1165 30.9819 11.9892 32.0416C11.8619 33.1016 12.0465 33.3393 12.1202 33.4189C12.1213 33.42 12.1224 33.4213 12.1236 33.4226C12.1723 33.4759 12.3347 33.6537 13.2679 33.546C14.1642 33.4426 15.3704 33.1253 17.1249 32.642C16.5552 32.1676 16.0613 31.7284 15.6765 31.3152C14.9965 30.5851 14.3517 29.6171 14.5298 28.3666C14.7093 27.1068 15.608 26.3656 16.4712 25.8689C17.2981 25.3931 18.4484 24.9427 19.7721 24.4243L20.6147 24.0943C21.0393 23.9281 21.2757 23.8342 21.4469 23.7507C21.5439 23.7034 21.5828 23.6765 21.5943 23.6675C21.6031 23.6559 21.6291 23.6168 21.6744 23.52C21.7549 23.348 21.8445 23.1108 22.0035 22.6842L22.319 21.8374C22.8143 20.508 23.245 19.352 23.7071 18.5181C24.1903 17.6461 24.9168 16.7383 26.1721 16.5371C27.4172 16.3375 28.3966 16.9604 29.1414 17.626C29.8589 18.2671 30.6574 19.2227 31.5807 20.3276L32.1651 21.0268C32.4601 21.3798 32.6273 21.5782 32.764 21.7178C32.8252 21.7803 32.8625 21.8122 32.8833 21.8284C32.8932 21.8361 32.8993 21.8401 32.9021 21.8419L32.9072 21.8449L32.9125 21.8472C32.9154 21.8483 32.9219 21.8506 32.9337 21.8539C32.9583 21.8607 33.0055 21.8714 33.0912 21.8829C33.2831 21.9086 33.54 21.9236 33.9975 21.9484L34.904 21.9975C35.3324 22.0206 35.7436 22.0428 36.1348 22.0678C37.0738 21.2412 37.6998 20.6334 38.0908 20.1227C38.5094 19.5759 38.5138 19.3287 38.4945 19.1851C38.4754 19.0427 38.4111 18.7695 37.5929 18.2693C36.7444 17.7506 35.4585 17.2107 33.5202 16.4041L32.5424 15.9972C32.4787 15.9707 32.4151 15.9444 32.3518 15.9182C31.4693 15.5531 30.6362 15.2084 30.0162 14.5391C29.4067 13.8813 29.1062 13.0192 28.7781 12.0784C28.7545 12.0108 28.7308 11.9428 28.7069 11.8745L28.3408 10.8308C27.6169 8.7669 27.1261 7.37915 26.6454 6.45755C26.1735 5.55261 25.9203 5.5125 25.8727 5.50496C25.8716 5.50478 25.8706 5.50463 25.8697 5.50448C25.8688 5.50432 25.8678 5.50412 25.8665 5.50389C25.822 5.49548 25.5751 5.44885 24.8446 6.14247ZM39.7836 22.7464C40.0405 22.4752 40.2717 22.2092 40.4729 21.9464C41.1595 21.0496 41.6325 20.0141 41.4679 18.7864C41.2715 17.3214 40.2831 16.3978 39.1577 15.7097C38.086 15.0545 36.5797 14.4278 34.79 13.6831L33.695 13.2275C32.4995 12.73 32.3348 12.6275 32.2169 12.5003C32.0879 12.361 31.9842 12.1543 31.5378 10.8815L31.1312 9.72238C30.4583 7.80378 29.8984 6.20734 29.3054 5.07028C28.7029 3.91496 27.8469 2.79805 26.3735 2.54707C24.8958 2.29537 23.722 3.07149 22.779 3.9669C21.8526 4.84648 20.8106 6.17122 19.5602 7.76098L18.8032 8.72337C17.9717 9.78052 17.8106 9.93659 17.6494 10.0226C17.5022 10.1012 17.3182 10.1437 16.0263 10.218L14.9715 10.2786C14.9288 10.2811 14.8863 10.2835 14.8439 10.286C12.9142 10.3968 11.2884 10.4902 10.064 10.7548C8.77744 11.0327 7.5384 11.581 6.87906 12.9089C6.23108 14.2138 6.50658 15.5452 7.01349 16.7784C7.5035 17.9705 8.35674 19.4126 9.38132 21.1444L9.99962 22.1896C10.6737 23.329 10.7716 23.5483 10.8008 23.7655C10.8309 23.9904 10.7908 24.2461 10.4452 25.5528L10.1292 26.748C9.60234 28.7403 9.16593 30.3905 9.01061 31.6839C8.85238 33.0014 8.92541 34.3847 9.91952 35.4577C10.9427 36.5622 12.32 36.6754 13.6119 36.5263C14.8525 36.3831 16.4311 35.9466 18.3057 35.4283L18.5625 35.3573L19.7577 34.7766C19.7886 34.8039 19.8169 34.8296 19.8432 34.8543C19.9069 34.9142 19.9396 34.9508 19.9561 34.9712C19.964 34.9809 19.968 34.9867 19.9698 34.9894L19.9726 34.994L19.9747 34.9985C19.9757 35.0012 19.9781 35.0074 19.9815 35.0188C19.9886 35.0428 20.0001 35.0891 20.0131 35.1741C20.0424 35.3646 20.062 35.62 20.0952 36.0761L20.1609 36.98C20.2643 38.4046 20.3539 39.6397 20.5629 40.5757C20.7813 41.5536 21.2172 42.6216 22.3417 43.1864C23.4704 43.7532 24.5866 43.459 25.4973 43.0434C26.3662 42.6468 27.3996 41.9739 28.5884 41.1997L29.3449 40.7071C29.7263 40.4588 29.9394 40.3214 30.1066 40.2308C30.181 40.1905 30.2234 40.1725 30.2451 40.1643C30.2553 40.1605 30.2608 40.159 30.2626 40.1585L30.2645 40.158L30.2672 40.1578C30.2695 40.1576 30.2759 40.1574 30.2876 40.1579C30.3125 40.1588 30.3603 40.1629 30.4456 40.178C30.6367 40.2119 30.8869 40.2759 31.3314 40.3915L32.2125 40.6207C33.602 40.9823 34.8053 41.2955 35.7588 41.3991C36.748 41.5065 37.9141 41.443 38.8048 40.5381C39.6968 39.6319 39.7396 38.4645 39.6138 37.4779C39.4925 36.5279 39.1567 35.3327 38.7692 33.9539L38.5233 33.0787C38.3993 32.6372 38.3307 32.3892 38.2934 32.1997C38.2768 32.1151 38.2719 32.068 38.2705 32.0439C38.2699 32.0325 38.27 32.0265 38.2701 32.0246C38.2701 32.0244 38.2702 32.0226 38.2704 32.022C38.2708 32.0205 38.2721 32.0153 38.2757 32.0052C38.2833 31.9839 38.3005 31.9416 38.3394 31.8668C38.427 31.6986 38.5608 31.4838 38.8027 31.0988L39.2829 30.3349C40.037 29.1353 40.6929 28.0921 41.0747 27.2178C41.475 26.3012 41.751 25.1787 41.1605 24.0595C40.8252 23.424 40.3298 23.0163 39.7836 22.7464ZM26.6037 19.4977C26.6033 19.4964 26.6106 19.4962 26.6271 19.5012C26.6124 19.5015 26.6042 19.499 26.6037 19.4977ZM26.6522 19.5101C26.7227 19.5386 26.875 19.6239 27.1424 19.8629C27.676 20.3398 28.334 21.121 29.3526 22.3398L29.8632 22.9507C29.8994 22.994 29.9357 23.0377 29.9722 23.0817C30.4179 23.6181 30.8937 24.1908 31.5609 24.5259C32.2297 24.8617 32.9727 24.8997 33.666 24.9352C33.7228 24.9381 33.7793 24.941 33.8354 24.944L34.6265 24.9868C36.2056 25.0723 37.2188 25.1311 37.9163 25.2729C38.2492 25.3406 38.4127 25.4101 38.4855 25.4521C38.491 25.4553 38.4958 25.4582 38.4998 25.4608C38.4997 25.463 38.4995 25.4655 38.4993 25.4681C38.493 25.5445 38.459 25.7114 38.3255 26.0171C38.0451 26.6591 37.5154 27.5095 36.6807 28.8376L36.2628 29.5023C36.233 29.5497 36.2028 29.5975 36.1723 29.6456C35.8056 30.2249 35.4061 30.8561 35.3001 31.5998C35.1947 32.3401 35.3992 33.0597 35.5884 33.7252C35.6042 33.7806 35.6198 33.8355 35.6351 33.8901L35.8495 34.6532C36.2776 36.1769 36.5482 37.155 36.6379 37.8576C36.6787 38.1776 36.6685 38.3446 36.6547 38.4225C36.5767 38.4381 36.4083 38.452 36.0828 38.4166C35.376 38.3398 34.39 38.0874 32.8555 37.6882L32.0868 37.4882C32.0319 37.4739 31.9767 37.4593 31.9211 37.4447C31.2501 37.2679 30.5273 37.0776 29.7896 37.1958C29.0482 37.3147 28.4241 37.7238 27.8496 38.1004C27.8021 38.1316 27.7549 38.1625 27.708 38.1931L27.0494 38.6219C25.7337 39.4785 24.8906 40.0226 24.2518 40.3142C23.9475 40.4531 23.7798 40.4904 23.7017 40.4983C23.6972 40.4987 23.6932 40.4991 23.6896 40.4993C23.6868 40.4951 23.6835 40.49 23.6799 40.484C23.6369 40.4128 23.5646 40.252 23.4908 39.9218C23.3362 39.2295 23.2589 38.2209 23.1446 36.647L23.0873 35.8587C23.0832 35.8028 23.0793 35.7465 23.0754 35.6898C23.0273 34.9991 22.9755 34.2567 22.626 33.5941C22.2777 32.9339 21.6949 32.4696 21.1495 32.0351C21.1047 31.9994 21.0601 31.9639 21.016 31.9285L20.3945 31.4304C19.1545 30.4365 18.3595 29.7943 17.8719 29.2707C17.6335 29.0146 17.5441 28.8657 17.5126 28.7948C17.5634 28.7385 17.6873 28.6303 17.9673 28.4692C18.5754 28.1193 19.5104 27.7487 20.9754 27.175L21.7087 26.8877C21.7612 26.8672 21.8143 26.8466 21.8678 26.8258C22.5079 26.5775 23.2062 26.3065 23.7323 25.772C24.2589 25.2371 24.5181 24.5346 24.7554 23.8915C24.7753 23.8378 24.7949 23.7845 24.8146 23.7318L25.0891 22.9951C25.6377 21.5232 25.9919 20.5845 26.3312 19.9721C26.4903 19.6851 26.5974 19.5602 26.6522 19.5101ZM17.4973 28.7434C17.4987 28.7438 17.5014 28.752 17.5015 28.7667C17.4961 28.7503 17.496 28.743 17.4973 28.7434ZM17.4934 28.8179C17.4883 28.8332 17.4826 28.8409 17.481 28.8409C17.4794 28.8409 17.482 28.8333 17.4934 28.8179ZM36.6365 38.4808C36.6356 38.4796 36.6381 38.4709 36.6467 38.458C36.6416 38.4755 36.6373 38.4819 36.6365 38.4808ZM36.69 38.4137C36.7025 38.4051 36.711 38.4024 36.7121 38.4032C36.7133 38.404 36.7071 38.4084 36.69 38.4137ZM26.6724 19.4931C26.6878 19.4814 26.6955 19.4788 26.6955 19.4804C26.6955 19.482 26.6878 19.4879 26.6724 19.4931Z" fill="#219499"/>
</svg>
