<svg width="48" height="48" viewBox="0 0 48 48" fill="none" xmlns="http://www.w3.org/2000/svg">
<path fill-rule="evenodd" clip-rule="evenodd" d="M24 5.5C13.7827 5.5 5.5 13.7827 5.5 24C5.5 34.2173 13.7827 42.5 24 42.5C34.2173 42.5 42.5 34.2173 42.5 24C42.5 13.7827 34.2173 5.5 24 5.5ZM2.5 24C2.5 12.1259 12.1259 2.5 24 2.5C35.8741 2.5 45.5 12.1259 45.5 24C45.5 35.8741 35.8741 45.5 24 45.5C12.1259 45.5 2.5 35.8741 2.5 24ZM16.7949 31.1068C17.2883 30.4412 18.2277 30.3016 18.8932 30.7949C20.3499 31.8747 22.1082 32.5 24 32.5C25.8918 32.5 27.6501 31.8747 29.1068 30.7949C29.7723 30.3016 30.7117 30.4412 31.2051 31.1068C31.6984 31.7723 31.5588 32.7117 30.8932 33.2051C28.9484 34.6466 26.5699 35.5 24 35.5C21.4301 35.5 19.0516 34.6466 17.1068 33.2051C16.4412 32.7117 16.3016 31.7723 16.7949 31.1068Z" fill="#219499"/>
<path d="M32 21C32 22.6569 31.1046 24 30 24C28.8954 24 28 22.6569 28 21C28 19.3431 28.8954 18 30 18C31.1046 18 32 19.3431 32 21Z" fill="#219499"/>
<path d="M20 21C20 22.6569 19.1046 24 18 24C16.8954 24 16 22.6569 16 21C16 19.3431 16.8954 18 18 18C19.1046 18 20 19.3431 20 21Z" fill="#219499"/>
</svg>
