<svg width="1319" height="100" viewBox="0 0 1319 100" fill="none" xmlns="http://www.w3.org/2000/svg">
<path d="M0 79.2515L12.7384 73.7519C13.9452 77.8349 16.1577 80.9597 19.3758 83.1262C22.5939 85.2511 26.706 86.3135 31.712 86.3135C36.4498 86.3135 40.2043 85.0844 42.9754 82.6263C45.7913 80.1681 47.1992 76.8767 47.1992 72.752C47.1992 67.3773 42.4167 62.586 32.8517 58.378C31.5108 57.753 30.4828 57.2947 29.7677 57.0031C18.9512 52.0868 11.7328 47.6496 8.11237 43.6915C4.53667 39.6918 2.74882 34.8172 2.74882 29.0676C2.74882 21.6098 5.45294 15.5686 10.8612 10.9439C16.3141 6.31923 23.4432 4.00689 32.2483 4.00689C39.4891 4.00689 45.5455 5.3193 50.4174 7.94411C55.2892 10.5273 58.6638 14.2562 60.5411 19.1308L48.0708 25.1304C46.1042 22.2556 43.9364 20.1516 41.5675 18.8183C39.2433 17.4851 36.5615 16.8185 33.5222 16.8185C29.2313 16.8185 25.8121 17.8601 23.2644 19.9432C20.7614 22.0264 19.5099 24.8179 19.5099 28.3176C19.5099 33.8173 25.0522 38.9419 36.1369 43.6915C36.9861 44.0665 37.6566 44.3582 38.1482 44.5665C47.8473 48.7328 54.5071 52.8159 58.1275 56.8156C61.7479 60.7737 63.558 65.7316 63.558 71.6895C63.558 80.3556 60.6304 87.2509 54.7752 92.3755C48.92 97.4585 41.0088 100 31.0415 100C22.6833 100 15.8225 98.2085 10.4589 94.6254C5.14007 91.0423 1.65376 85.9177 0 79.2515Z" fill="#1B1B1B"/>
<path d="M185.592 52.0034C185.592 47.3788 184.676 42.9833 182.843 38.8169C181.056 34.6505 178.463 30.9425 175.066 27.6927C171.759 24.4846 167.915 22.0264 163.535 20.3182C159.199 18.5683 154.618 17.6934 149.791 17.6934C144.963 17.6934 140.36 18.5475 135.979 20.2557C131.644 21.9639 127.778 24.4429 124.381 27.6927C120.984 30.9008 118.391 34.588 116.604 38.7544C114.816 42.9208 113.922 47.3371 113.922 52.0034C113.922 56.6281 114.816 61.0028 116.604 65.1275C118.391 69.2522 120.984 72.9394 124.381 76.1892C127.778 79.439 131.644 81.918 135.979 83.6262C140.315 85.3344 144.919 86.1885 149.791 86.1885C154.573 86.1885 159.11 85.3344 163.401 83.6262C167.736 81.918 171.625 79.439 175.066 76.1892C178.463 72.9394 181.056 69.2522 182.843 65.1275C184.676 60.9611 185.592 56.5865 185.592 52.0034ZM202.219 52.0034C202.219 58.503 200.901 64.6484 198.264 70.4396C195.671 76.2309 191.872 81.3972 186.866 85.9385C181.815 90.4799 176.117 93.9588 169.77 96.3753C163.423 98.7918 156.763 100 149.791 100C142.728 100 135.979 98.7918 129.543 96.3753C123.152 93.9171 117.497 90.4382 112.581 85.9385C107.575 81.3972 103.776 76.2517 101.183 70.5021C98.591 64.7525 97.2948 58.5863 97.2948 52.0034C97.2948 45.4622 98.591 39.296 101.183 33.5048C103.776 27.7135 107.575 22.5264 112.581 17.9434C117.587 13.4021 123.263 9.94397 129.61 7.56914C135.957 5.19431 142.684 4.00689 149.791 4.00689C156.853 4.00689 163.535 5.19431 169.837 7.56914C176.184 9.94397 181.86 13.4021 186.866 17.9434C191.872 22.5681 195.671 27.7969 198.264 33.6298C200.901 39.421 202.219 45.5456 202.219 52.0034Z" fill="#1B1B1B"/>
<path d="M241.118 97.5627V6.06925H295.894V18.6933H257.075V41.5042H295.894V54.5658H257.075V97.5627H241.118Z" fill="#1B1B1B"/>
<path d="M334.122 97.5627V6.06925H350.079V97.5627H334.122Z" fill="#1B1B1B"/>
<path d="M393.872 97.5627V6.06925H409.829V97.5627H393.872Z" fill="#1B1B1B"/>
<path d="M474.071 61.6278H501.425L491.368 40.7543C490.787 39.421 490.184 37.9003 489.558 36.1921C488.932 34.4422 488.306 32.5048 487.681 30.38C487.144 32.3799 486.563 34.2547 485.937 36.0046C485.356 37.7128 484.753 39.296 484.127 40.7543L474.071 61.6278ZM518.186 97.5627L507.056 74.0019H468.171L456.773 97.5627H440.012L487.547 2.44451L535.014 97.5627H518.186Z" fill="#1B1B1B"/>
<path d="M622.414 42.247H628.515C636.113 42.247 641.477 41.2887 644.605 39.3722C647.779 37.414 649.365 34.1434 649.365 29.5604C649.365 24.5607 647.913 21.061 645.008 19.0611C642.102 17.0196 636.605 15.9989 628.515 15.9989H622.414V42.247ZM622.414 82.6816H627.911C633.498 82.6816 637.677 82.4733 640.449 82.0566C643.22 81.64 645.41 80.9109 647.019 79.8693C648.986 78.661 650.505 77.0361 651.578 74.9946C652.651 72.9531 653.187 70.7033 653.187 68.2451C653.187 65.3286 652.539 62.7872 651.243 60.6207C649.947 58.4542 648.092 56.7668 645.678 55.5585C644.158 54.8502 642.415 54.3294 640.449 53.9961C638.527 53.6628 635.957 53.4962 632.738 53.4962H622.414V82.6816ZM606.792 95.1182V3.62474H631.532C638.594 3.62474 643.801 3.97889 647.153 4.68717C650.55 5.39545 653.433 6.56204 655.802 8.18692C658.841 10.2701 661.188 12.9991 662.841 16.3738C664.54 19.7486 665.389 23.4775 665.389 27.5605C665.389 32.4352 664.182 36.5182 661.769 39.8096C659.355 43.0594 655.846 45.3301 651.243 46.6217C656.964 47.4549 661.456 49.8923 664.719 53.9336C668.026 57.9334 669.68 62.9955 669.68 69.12C669.68 72.8281 668.987 76.3487 667.601 79.6818C666.216 83.0149 664.249 85.848 661.702 88.1812C659.02 90.7226 655.69 92.5142 651.712 93.5558C647.734 94.5974 641.052 95.1182 631.666 95.1182H606.792Z" fill="#1B1B1B"/>
<path d="M706.769 95.1182V3.62474H722.725V95.1182H706.769Z" fill="#1B1B1B"/>
<path d="M766.251 95.1182V3.62474H782.207V81.8066H817.875V95.1182H766.251Z" fill="#1B1B1B"/>
<path d="M851.477 95.1182V3.62474H906.253V16.2488H867.434V39.1847H906.253V52.2463H867.434V81.8066H906.253V95.1182H851.477Z" fill="#1B1B1B"/>
<path d="M976.864 16.2488V95.1182H960.907V16.2488H934.827V3.62474H1002.81V16.2488H976.864Z" fill="#1B1B1B"/>
<path d="M1029.98 76.807L1042.71 71.3074C1043.92 75.3904 1046.13 78.5152 1049.35 80.6817C1052.57 82.8066 1056.68 83.869 1061.69 83.869C1066.43 83.869 1070.18 82.6399 1072.95 80.1817C1075.77 77.7236 1077.18 74.4322 1077.18 70.3075C1077.18 64.9329 1072.39 60.1415 1062.83 55.9335C1061.49 55.3085 1060.46 54.8502 1059.74 54.5586C1048.93 49.6423 1041.71 45.2051 1038.09 41.2471C1034.51 37.2473 1032.73 32.3727 1032.73 26.6231C1032.73 19.1653 1035.43 13.1241 1040.84 8.49939C1046.29 3.87472 1053.42 1.56239 1062.22 1.56239C1069.47 1.56239 1075.52 2.8748 1080.39 5.49961C1085.27 8.08276 1088.64 11.8117 1090.52 16.6863L1078.05 22.6859C1076.08 19.8111 1073.91 17.7071 1071.54 16.3738C1069.22 15.0406 1066.54 14.374 1063.5 14.374C1059.21 14.374 1055.79 15.4156 1053.24 17.4987C1050.74 19.5819 1049.49 22.3734 1049.49 25.8731C1049.49 31.3728 1055.03 36.4974 1066.11 41.2471C1066.96 41.622 1067.63 41.9137 1068.12 42.122C1077.82 46.2884 1084.48 50.3714 1088.1 54.3711C1091.72 58.3292 1093.53 63.2871 1093.53 69.245C1093.53 77.9111 1090.61 84.8064 1084.75 89.931C1078.9 95.014 1070.99 97.5555 1061.02 97.5555C1052.66 97.5555 1045.8 95.764 1040.44 92.1809C1035.12 88.5978 1031.63 83.4732 1029.98 76.807Z" fill="#1B1B1B"/>
<path d="M1131.56 95.1182V3.62474H1147.52V41.497L1182.78 3.62474H1202.29L1163.41 44.3093L1206.92 95.1182H1186.34L1147.52 48.3715V95.1182H1131.56Z" fill="#1B1B1B"/>
<path d="M1258.02 59.1833H1285.37L1275.32 38.3098C1274.74 36.9765 1274.13 35.4558 1273.51 33.7476C1272.88 31.9977 1272.26 30.0603 1271.63 27.9355C1271.09 29.9354 1270.51 31.8102 1269.89 33.5601C1269.31 35.2683 1268.7 36.8515 1268.08 38.3098L1258.02 59.1833ZM1302.14 95.1182L1291.01 71.5574H1252.12L1240.72 95.1182H1223.96L1271.5 0L1318.96 95.1182H1302.14Z" fill="#1B1B1B"/>
</svg>
