<svg width="75" height="19" viewBox="0 0 75 19" fill="none" xmlns="http://www.w3.org/2000/svg">
<path d="M72.0266 14.8915C71.9271 14.8915 71.8465 14.8109 71.8465 14.7115V0.180092C71.8465 0.0806301 71.9271 0 72.0266 0H74.0249C74.1244 0 74.205 0.0806295 74.205 0.180091V14.7115C74.205 14.8109 74.1244 14.8915 74.0249 14.8915H72.0266Z" fill="#F3F3F3"/>
<path d="M55.4205 14.9045C55.3475 14.9045 55.2818 14.8606 55.254 14.7932L51.4265 5.09574C51.3775 4.97718 51.4647 4.84691 51.5929 4.84691H53.7156C53.7895 4.84691 53.856 4.8921 53.8831 4.96087L55.3 8.97912C55.7068 10.0253 56.0752 11.0329 56.4433 12.0404C56.4473 12.0514 56.4578 12.0588 56.4696 12.0588C56.4812 12.0588 56.4917 12.0516 56.4958 12.0407C56.8834 11.0134 57.2711 9.96703 57.6974 8.92064L59.114 4.95996C59.1414 4.89167 59.2075 4.84691 59.2811 4.84691H61.2686C61.3967 4.84691 61.4838 4.97693 61.4351 5.09545L57.6264 14.7929C57.5986 14.8605 57.5328 14.9045 57.4598 14.9045H55.4205Z" fill="#F3F3F3"/>
<path d="M46.1638 14.9045C43.1816 14.9045 40.9596 12.702 40.9596 9.87573C40.9596 7.02996 43.1816 4.84691 46.1638 4.84691C49.146 4.84691 51.3681 7.02996 51.3681 9.87573C51.3681 12.702 49.146 14.9045 46.1638 14.9045ZM46.1638 12.819C47.7816 12.819 49.0096 11.5325 49.0096 9.87573C49.0096 8.21895 47.7816 6.91301 46.1638 6.91301C44.5265 6.91301 43.3181 8.21895 43.3181 9.87573C43.3181 11.5325 44.5265 12.819 46.1638 12.819Z" fill="#F3F3F3"/>
<path fill-rule="evenodd" clip-rule="evenodd" d="M30.6585 19C30.559 19 30.4784 18.9194 30.4784 18.8199V5.04871C30.4784 4.94925 30.559 4.86862 30.6585 4.86862H35.4682C37.9631 4.86862 40.0292 6.81778 40.0292 9.78049C40.0292 12.7822 37.8852 14.9263 35.0394 14.9263C34.2093 14.9263 33.494 14.7351 32.8933 14.4284C32.8823 14.4228 32.8693 14.4228 32.8582 14.4283C32.8451 14.4348 32.8369 14.4482 32.8369 14.4629V18.8199C32.8369 18.9194 32.7562 19 32.6568 19H30.6585ZM34.786 12.9381C34.0866 12.9381 33.4219 12.7296 32.9233 12.4437C32.8691 12.4126 32.8369 12.3543 32.8369 12.2917V7.07583C32.8369 6.97637 32.9175 6.89574 33.017 6.89574C33.6275 6.89574 34.1387 6.89574 34.903 6.89574C36.6182 6.89574 37.6513 8.22117 37.6513 9.89744C37.6513 11.6322 36.5987 12.9381 34.786 12.9381Z" fill="#F3F3F3"/>
<path d="M9.79346 14.8915C9.694 14.8915 9.61337 14.8109 9.61337 14.7115V0.180092C9.61337 0.0806301 9.694 0 9.79346 0H11.7918C11.8912 0 11.9719 0.0806295 11.9719 0.180091V6.17726C11.9719 6.19016 11.9791 6.20196 11.9907 6.20773C12.0029 6.21384 12.0175 6.2121 12.028 6.2033C12.8065 5.54771 13.8913 5.04831 15.149 5.04831C16.2015 5.04831 17.0397 5.37967 17.6634 6.04238C18.2676 6.7051 18.5015 7.56273 18.5015 8.84917V14.7115C18.5015 14.8109 18.4209 14.8915 18.3214 14.8915H16.3231C16.2237 14.8915 16.143 14.8109 16.143 14.7115V9.14154C16.143 8.45934 16.0456 7.95256 15.7142 7.6212C15.3829 7.28984 14.9151 7.13391 14.3888 7.13391C13.5182 7.13391 12.6292 7.5566 12.0252 8.13431C11.9907 8.16733 11.9719 8.21329 11.9719 8.26105V14.7115C11.9719 14.8109 11.8912 14.8915 11.7918 14.8915H9.79346Z" fill="#F3F3F3"/>
<path d="M3.93729 14.9263C2.74414 14.9263 1.27494 14.687 0.209178 14.1192C0.151808 14.0886 0.116949 14.0284 0.116949 13.9634V12.2161C0.116949 12.0735 0.275648 11.9862 0.399753 12.0565C1.56099 12.7139 2.96816 12.9966 3.97628 12.9966C5.04831 12.9966 5.73052 12.6847 5.73052 12.0025C5.73052 11.5152 5.43814 11.2619 4.6195 11.0669C3.80085 10.872 2.3 10.6576 1.3839 10.2288C0.448306 9.79998 0 9.05931 0 7.94829C0 5.92117 1.65678 4.86862 3.97628 4.86862C5.1249 4.86862 6.47362 5.12329 7.42495 5.57991C7.48597 5.6092 7.52374 5.6714 7.52374 5.73909V7.39475C7.52374 7.5307 7.37851 7.6182 7.25595 7.55936C6.15058 7.02871 4.91631 6.77879 4.01526 6.77879C3.02119 6.77879 2.35848 7.07117 2.35848 7.73388C2.35848 8.24066 2.72882 8.47456 3.56696 8.66948C4.40509 8.8449 5.80848 9.03981 6.7051 9.44914C7.6212 9.87795 8.089 10.5991 8.089 11.7881C8.089 13.9322 6.21781 14.9263 3.93729 14.9263Z" fill="#F3F3F3"/>
<path fill-rule="evenodd" clip-rule="evenodd" d="M27.9357 14.9068H23.2815C21.3713 14.9068 19.9289 13.8737 19.9289 12.022C19.9289 9.97541 21.5077 9.03981 23.9052 9.03981C24.4899 9.03981 25.1721 9.09829 25.7959 9.19575V8.611C25.7959 7.42202 24.9967 6.89574 23.4764 6.89574C22.4969 6.89574 21.6345 7.14448 21.0032 7.45179C20.8786 7.51243 20.7281 7.42448 20.7281 7.28594V5.71274C20.7281 5.64869 20.7618 5.58927 20.818 5.55858C21.5244 5.17295 22.6179 4.86862 23.9442 4.86862C26.556 4.86862 28.1154 6.01862 28.1154 8.31863V9.58649L29.1168 9.7552C29.2035 9.7698 29.267 9.84487 29.267 9.93278V11.1237C29.267 11.2355 29.1662 11.3203 29.0561 11.3012L28.1154 11.138V12.0805V14.7267C28.1154 14.8262 28.0352 14.9068 27.9357 14.9068ZM25.6159 13.0941H23.8467C22.9501 13.0941 22.2484 12.7237 22.2484 11.8661C22.2484 10.911 23.1645 10.5991 24.256 10.5991C24.7238 10.5991 25.3476 10.6576 25.7959 10.7356V12.914C25.7959 13.0134 25.7154 13.0941 25.6159 13.0941Z" fill="#F3F3F3"/>
<path fill-rule="evenodd" clip-rule="evenodd" d="M69.6558 14.9068H65.0015C63.0914 14.9068 61.649 13.8737 61.649 12.022C61.649 9.97541 63.2278 9.03982 65.6253 9.03982C66.21 9.03982 66.8922 9.09829 67.516 9.19575V8.611C67.516 7.42202 66.7168 6.89574 65.1965 6.89574C64.217 6.89574 63.3546 7.14448 62.7233 7.45179C62.5987 7.51243 62.4482 7.42448 62.4482 7.28594V5.71274C62.4482 5.64869 62.4818 5.58927 62.5381 5.55858C63.2445 5.17295 64.338 4.86862 65.6643 4.86862C68.2761 4.86862 69.8355 6.01862 69.8355 8.31863V9.58649L70.8369 9.7552C70.9236 9.7698 70.9871 9.84487 70.9871 9.93278V11.1237C70.9871 11.2355 70.8863 11.3203 70.7762 11.3012L69.8355 11.138V12.0805V14.7267C69.8355 14.8262 69.7552 14.9068 69.6558 14.9068ZM67.336 13.0941H65.5668C64.6702 13.0941 63.9685 12.7237 63.9685 11.8661C63.9685 10.911 64.8846 10.5991 65.9761 10.5991C66.4439 10.5991 67.0676 10.6576 67.516 10.7356V12.914C67.516 13.0134 67.4355 13.0941 67.336 13.0941Z" fill="#F3F3F3"/>
</svg>
