<svg width="149" height="38" viewBox="0 0 149 38" fill="none" xmlns="http://www.w3.org/2000/svg">
<path d="M144.053 29.7831C143.854 29.7831 143.693 29.6218 143.693 29.4229V0.360183C143.693 0.16126 143.854 0 144.053 0H148.05C148.249 0 148.41 0.161259 148.41 0.360182V29.4229C148.41 29.6218 148.249 29.7831 148.05 29.7831H144.053Z" fill="#F3F3F3"/>
<path d="M110.841 29.8091C110.695 29.8091 110.564 29.7212 110.508 29.5864L102.853 10.1915C102.755 9.95437 102.929 9.69381 103.186 9.69381H107.431C107.579 9.69381 107.712 9.7842 107.766 9.92175L110.6 17.9582C111.414 20.0506 112.15 22.0659 112.887 24.0807C112.895 24.1029 112.916 24.1176 112.939 24.1176C112.962 24.1176 112.983 24.1031 112.992 24.0813C113.767 22.0268 114.542 19.9341 115.395 17.8413L118.228 9.91992C118.283 9.78334 118.415 9.69381 118.562 9.69381H122.537C122.793 9.69381 122.968 9.95387 122.87 10.1909L115.253 29.5858C115.197 29.7209 115.066 29.8091 114.92 29.8091H110.841Z" fill="#F3F3F3"/>
<path d="M92.3277 29.8091C86.3632 29.8091 81.9192 25.404 81.9192 19.7515C81.9192 14.0599 86.3632 9.69381 92.3277 9.69381C98.2921 9.69381 102.736 14.0599 102.736 19.7515C102.736 25.404 98.2921 29.8091 92.3277 29.8091ZM92.3277 25.6379C95.5632 25.6379 98.0192 23.065 98.0192 19.7515C98.0192 16.4379 95.5632 13.826 92.3277 13.826C89.0531 13.826 86.6361 16.4379 86.6361 19.7515C86.6361 23.065 89.0531 25.6379 92.3277 25.6379Z" fill="#F3F3F3"/>
<path fill-rule="evenodd" clip-rule="evenodd" d="M61.3169 38C61.118 38 60.9568 37.8387 60.9568 37.6398V10.0974C60.9568 9.8985 61.118 9.73724 61.3169 9.73724H70.9364C75.9263 9.73724 80.0585 13.6356 80.0585 19.561C80.0585 25.5644 75.7703 29.8525 70.0788 29.8525C68.4187 29.8525 66.9879 29.4702 65.7866 28.8569C65.7646 28.8457 65.7386 28.8455 65.7165 28.8566C65.6903 28.8697 65.6737 28.8965 65.6737 28.9258V37.6398C65.6737 37.8387 65.5125 38 65.3135 38H61.3169ZM69.572 25.8763C68.1732 25.8763 66.8438 25.4591 65.8466 24.8874C65.7381 24.8252 65.6737 24.7085 65.6737 24.5835V14.1517C65.6737 13.9527 65.8351 13.7915 66.034 13.7915C67.255 13.7915 68.2774 13.7915 69.8059 13.7915C73.2364 13.7915 75.3025 16.4423 75.3025 19.7949C75.3025 23.2644 73.1974 25.8763 69.572 25.8763Z" fill="#F3F3F3"/>
<path d="M19.5869 29.7831C19.388 29.7831 19.2267 29.6218 19.2267 29.4229V0.360183C19.2267 0.16126 19.388 0 19.5869 0H23.5835C23.7824 0 23.9437 0.161259 23.9437 0.360182V12.3545C23.9437 12.3803 23.9583 12.4039 23.9814 12.4155C24.0058 12.4277 24.0351 12.4242 24.056 12.4066C25.6129 11.0954 27.7826 10.0966 30.2979 10.0966C32.403 10.0966 34.0793 10.7593 35.3268 12.0848C36.5352 13.4102 37.003 15.1255 37.003 17.6983V29.4229C37.003 29.6218 36.8418 29.7831 36.6429 29.7831H32.6463C32.4473 29.7831 32.2861 29.6218 32.2861 29.4229V18.2831C32.2861 16.9187 32.0912 15.9051 31.4285 15.2424C30.7657 14.5797 29.8301 14.2678 28.7776 14.2678C27.0364 14.2678 25.2584 15.1132 24.0503 16.2686C23.9813 16.3347 23.9437 16.4266 23.9437 16.5221V29.4229C23.9437 29.6218 23.7824 29.7831 23.5835 29.7831H19.5869Z" fill="#F3F3F3"/>
<path d="M7.87459 29.8525C5.48827 29.8525 2.54989 29.3741 0.418357 28.2384C0.303615 28.1772 0.233899 28.0568 0.233899 27.9268V24.4322C0.233899 24.1469 0.551296 23.9725 0.799505 24.113C3.12199 25.4279 5.93631 25.9932 7.95256 25.9932C10.0966 25.9932 11.461 25.3695 11.461 24.0051C11.461 23.0305 10.8763 22.5237 9.239 22.1339C7.60171 21.744 4.60001 21.3152 2.7678 20.4576C0.896612 19.6 0 18.1186 0 15.8966C0 11.8423 3.31356 9.73724 7.95256 9.73724C10.2498 9.73724 12.9472 10.2466 14.8499 11.1598C14.9719 11.2184 15.0475 11.3428 15.0475 11.4782V14.7895C15.0475 15.0614 14.757 15.2364 14.5119 15.1187C12.3012 14.0574 9.83261 13.5576 8.03052 13.5576C6.04238 13.5576 4.71696 14.1423 4.71696 15.4678C4.71696 16.4813 5.45764 16.9491 7.13391 17.339C8.81019 17.6898 11.617 18.0796 13.4102 18.8983C15.2424 19.7559 16.178 21.1983 16.178 23.5763C16.178 27.8644 12.4356 29.8525 7.87459 29.8525Z" fill="#F3F3F3"/>
<path fill-rule="evenodd" clip-rule="evenodd" d="M55.8714 29.8135H46.5629C42.7426 29.8135 39.8578 27.7474 39.8578 24.044C39.8578 19.9508 43.0155 18.0796 47.8104 18.0796C48.9799 18.0796 50.3443 18.1966 51.5918 18.3915V17.222C51.5918 14.844 49.9935 13.7915 46.9528 13.7915C44.9938 13.7915 43.269 14.289 42.0064 14.9036C41.7573 15.0249 41.4561 14.849 41.4561 14.5719V11.4255C41.4561 11.2974 41.5235 11.1785 41.636 11.1172C43.0488 10.3459 45.2358 9.73724 47.8884 9.73724C53.1121 9.73724 56.2307 12.0372 56.2307 16.6373V19.173L58.2336 19.5104C58.407 19.5396 58.534 19.6897 58.534 19.8656V22.2475C58.534 22.471 58.3325 22.6406 58.1122 22.6023L56.2307 22.2759V24.161V29.4534C56.2307 29.6523 56.0703 29.8135 55.8714 29.8135ZM51.2318 26.1881H47.6934C45.9002 26.1881 44.4968 25.4474 44.4968 23.7322C44.4968 21.822 46.329 21.1983 48.5121 21.1983C49.4477 21.1983 50.6951 21.3152 51.5918 21.4712V25.8279C51.5918 26.0269 51.4307 26.1881 51.2318 26.1881Z" fill="#F3F3F3"/>
<path fill-rule="evenodd" clip-rule="evenodd" d="M139.312 29.8136H130.003C126.183 29.8136 123.298 27.7474 123.298 24.044C123.298 19.9508 126.456 18.0796 131.251 18.0796C132.42 18.0796 133.784 18.1966 135.032 18.3915V17.222C135.032 14.844 133.434 13.7915 130.393 13.7915C128.434 13.7915 126.709 14.289 125.447 14.9036C125.197 15.0249 124.896 14.849 124.896 14.5719V11.4255C124.896 11.2974 124.964 11.1785 125.076 11.1172C126.489 10.3459 128.676 9.73724 131.329 9.73724C136.552 9.73724 139.671 12.0372 139.671 16.6373V19.173L141.674 19.5104C141.847 19.5396 141.974 19.6897 141.974 19.8656V22.2475C141.974 22.471 141.773 22.6406 141.552 22.6023L139.671 22.2759V24.161V29.4534C139.671 29.6523 139.51 29.8136 139.312 29.8136ZM134.672 26.1881H131.134C129.34 26.1881 127.937 25.4474 127.937 23.7322C127.937 21.822 129.769 21.1983 131.952 21.1983C132.888 21.1983 134.135 21.3152 135.032 21.4712V25.8279C135.032 26.0269 134.871 26.1881 134.672 26.1881Z" fill="#F3F3F3"/>
</svg>
