<svg width="68" height="13" viewBox="0 0 68 13" fill="none" xmlns="http://www.w3.org/2000/svg">
<path d="M6.86495 2.25531L7.74495 4.01531C7.86495 4.26031 8.18495 4.49531 8.45495 4.54031L10.05 4.80531C11.07 4.97531 11.31 5.71531 10.575 6.44531L9.33495 7.68531C9.12495 7.89531 9.00995 8.30031 9.07495 8.59031L9.42995 10.1253C9.70995 11.3403 9.06495 11.8103 7.98995 11.1753L6.49495 10.2903C6.22495 10.1303 5.77995 10.1303 5.50495 10.2903L4.00995 11.1753C2.93995 11.8103 2.28995 11.3353 2.56995 10.1253L2.92495 8.59031C2.98995 8.30031 2.87495 7.89531 2.66495 7.68531L1.42495 6.44531C0.694954 5.71531 0.929955 4.97531 1.94995 4.80531L3.54495 4.54031C3.80995 4.49531 4.12995 4.26031 4.24995 4.01531L5.12995 2.25531C5.60995 1.30031 6.38995 1.30031 6.86495 2.25531Z" fill="#FF831A"/>
<path d="M20.865 2.25531L21.745 4.01531C21.865 4.26031 22.185 4.49531 22.455 4.54031L24.05 4.80531C25.07 4.97531 25.31 5.71531 24.575 6.44531L23.335 7.68531C23.125 7.89531 23.01 8.30031 23.075 8.59031L23.43 10.1253C23.71 11.3403 23.065 11.8103 21.99 11.1753L20.495 10.2903C20.225 10.1303 19.78 10.1303 19.505 10.2903L18.01 11.1753C16.94 11.8103 16.29 11.3353 16.57 10.1253L16.925 8.59031C16.99 8.30031 16.875 7.89531 16.665 7.68531L15.425 6.44531C14.695 5.71531 14.93 4.97531 15.95 4.80531L17.545 4.54031C17.81 4.49531 18.13 4.26031 18.25 4.01531L19.13 2.25531C19.61 1.30031 20.39 1.30031 20.865 2.25531Z" fill="#FF831A"/>
<path d="M34.865 2.25531L35.745 4.01531C35.865 4.26031 36.185 4.49531 36.455 4.54031L38.05 4.80531C39.07 4.97531 39.31 5.71531 38.575 6.44531L37.335 7.68531C37.125 7.89531 37.01 8.30031 37.075 8.59031L37.43 10.1253C37.71 11.3403 37.065 11.8103 35.99 11.1753L34.495 10.2903C34.225 10.1303 33.78 10.1303 33.505 10.2903L32.01 11.1753C30.94 11.8103 30.29 11.3353 30.57 10.1253L30.925 8.59031C30.99 8.30031 30.875 7.89531 30.665 7.68531L29.425 6.44531C28.695 5.71531 28.93 4.97531 29.95 4.80531L31.545 4.54031C31.81 4.49531 32.13 4.26031 32.25 4.01531L33.13 2.25531C33.61 1.30031 34.39 1.30031 34.865 2.25531Z" fill="#FF831A"/>
<path d="M48.865 2.25531L49.745 4.01531C49.865 4.26031 50.185 4.49531 50.455 4.54031L52.05 4.80531C53.07 4.97531 53.31 5.71531 52.575 6.44531L51.335 7.68531C51.125 7.89531 51.01 8.30031 51.075 8.59031L51.43 10.1253C51.71 11.3403 51.065 11.8103 49.99 11.1753L48.495 10.2903C48.225 10.1303 47.78 10.1303 47.505 10.2903L46.01 11.1753C44.94 11.8103 44.29 11.3353 44.57 10.1253L44.925 8.59031C44.99 8.30031 44.875 7.89531 44.665 7.68531L43.425 6.44531C42.695 5.71531 42.93 4.97531 43.95 4.80531L45.545 4.54031C45.81 4.49531 46.13 4.26031 46.25 4.01531L47.13 2.25531C47.61 1.30031 48.39 1.30031 48.865 2.25531Z" fill="#FF831A"/>
<path d="M62.865 2.25531L63.745 4.01531C63.865 4.26031 64.185 4.49531 64.455 4.54031L66.05 4.80531C67.07 4.97531 67.31 5.71531 66.575 6.44531L65.335 7.68531C65.125 7.89531 65.01 8.30031 65.075 8.59031L65.43 10.1253C65.71 11.3403 65.065 11.8103 63.99 11.1753L62.495 10.2903C62.225 10.1303 61.78 10.1303 61.505 10.2903L60.01 11.1753C58.94 11.8103 58.29 11.3353 58.57 10.1253L58.925 8.59031C58.99 8.30031 58.875 7.89531 58.665 7.68531L57.425 6.44531C56.695 5.71531 56.93 4.97531 57.95 4.80531L59.545 4.54031C59.81 4.49531 60.13 4.26031 60.25 4.01531L61.13 2.25531C61.61 1.30031 62.39 1.30031 62.865 2.25531Z" fill="#FF831A"/>
</svg>
