<?xml version="1.0"?>
<svg width="532" height="115" xmlns="http://www.w3.org/2000/svg" xmlns:svg="http://www.w3.org/2000/svg">
 <g class="layer">
  <title>Layer 1</title>
  <path d="m0.1,113l0,-110.77l22.63,0l0,50.49l0.29,0.15l36.86,-50.64l26.62,0l-39.85,52.94l42.28,57.83l-27.76,0l-38.15,-54.16l-0.29,0.15l0,54.01l-22.63,0zm95.91,0l0,-110.77l36.72,0c11.82,0 20.92,1.99 28.47,7.96c7.55,5.97 12.67,15.6 12.67,28.15c0,12.54 -5.13,22.18 -12.67,28.15c-7.55,5.97 -16.65,8.11 -28.47,8.11l-14.09,0l0,38.4l-22.64,0zm22.64,-58.9l13.23,0c6.41,0 10.68,-0.77 13.96,-3.22c3.27,-2.44 5.41,-7.03 5.41,-12.23c0,-5.36 -2.14,-9.95 -5.41,-12.4c-3.27,-2.45 -7.55,-3.21 -13.96,-3.21l-13.23,0l0,31.06zm117.53,60.58c-30.61,0 -53.8,-24.78 -53.8,-57.06c0,-32.29 23.19,-57.07 53.8,-57.07c30.6,0 53.8,24.78 53.8,57.07c0,32.28 -23.2,57.06 -53.8,57.06zm0,-21.72c17.79,0 31.17,-15.61 31.17,-35.34c0,-19.74 -13.38,-35.35 -31.17,-35.35c-17.8,0 -31.18,15.61 -31.18,35.35c0,19.73 13.38,35.34 31.18,35.34zm68.07,20.04l0,-110.77l22.64,0l0,50.49l0.28,0.15l36.87,-50.64l26.62,0l-39.86,52.94l42.28,57.83l-27.75,0l-38.16,-54.16l-0.28,0.15l0,54.01l-22.64,0zm95.91,0l0,-110.77l22.5,0l0,40.24c0,10.56 -0.15,21.11 -0.29,31.67l0.29,0c6.4,-9.49 12.66,-18.51 19.35,-28l30.75,-43.91l21.92,0l0,110.77l-22.49,0l0,-41.61c0,-10.87 0.14,-21.73 0.28,-32.59l-0.28,0c-6.55,9.79 -13.1,19.28 -19.93,28.91l-31.75,45.29l-20.36,0z" fill="#393939" fill-opacity="0.15" id="svg_1"/>
 </g>
</svg>