<svg width="2220" height="1626" viewBox="0 0 2220 1626" fill="none" xmlns="http://www.w3.org/2000/svg">
<path d="M950.693 1431.97C925.36 1446.59 886.52 1456.87 831.665 1439.86C794.549 1427.07 759.149 1409.91 726.218 1388.74C656.674 1346.45 574.601 1285.62 487.71 1221.29C450.828 1193.99 405.039 1160.04 359.127 1127.53C393.967 1166.86 429.388 1205.08 456.483 1234.32C604.781 1394.59 655.746 1453.38 649.555 1520.97C648.342 1535.4 644.084 1549.46 637.057 1562.21C630.029 1574.97 620.392 1586.14 608.772 1595C569.627 1625.01 505.935 1645.76 306.355 1594.11C202.152 1566.64 100.077 1531.98 0.871704 1490.39L77.3558 1318.56C171.141 1358.15 267.878 1390.63 366.745 1415.71C349.824 1397.13 332.707 1378.67 317.129 1361.82C250.087 1289.39 174.038 1207.25 120.984 1136.22C85.0522 1088.05 -10.0822 960.757 73.1402 868.771C155.492 778.148 287.381 857.078 343.796 890.845C420.531 936.831 512.427 1004.99 601.391 1070.8C636.022 1096.46 679.383 1128.64 722.288 1159.26C716.541 1151.12 711.018 1143.37 705.933 1136.22C665.945 1079.96 624.605 1021.81 597.039 971.649C578.696 938.215 522.781 836.529 592.403 763.164C641.722 711.17 714.026 710.176 807.605 760.996C858.485 788.654 915.723 829.441 970.935 868.985L991.702 883.789C951.421 782.123 919.673 687.075 980.535 617.734C1006.92 587.853 1066.08 547.755 1171.06 612.583C1208.11 635.477 1249.61 668.976 1293.86 704.341C1316.75 722.828 1351.8 751.183 1385.63 775.762C1351.12 719.011 1302.97 651.181 1268.08 602.4C1216.46 529.767 1163.05 454.638 1128.41 390.72C1107.08 351.347 1041.84 231.093 1123.84 150.752C1159.48 115.876 1238.87 69.8657 1370.76 153.623C1429.67 191.115 1491.72 248.25 1546.44 298.587C1556.72 308.075 1568.46 318.875 1580.5 329.756C1574.23 310.889 1567.29 292.668 1562.18 279.424C1533 202.882 1496.68 107.629 1563.08 37.1552C1647.17 -51.9713 1779.38 42.6269 1850.47 93.5057C1931.97 151.819 2027.92 232.287 2105.37 297.502C2151.84 336.577 2191.98 370.267 2219.89 391.712L2103.67 540.225C2072.45 516.381 2030.96 481.406 1982.83 440.965C1930.3 396.853 1834.6 316.503 1755.54 257.729C1785.82 344.492 1809.91 454.992 1729.69 542.055C1719.33 553.285 1706.84 562.379 1692.97 568.81C1679.09 575.24 1664.09 578.878 1648.85 579.51C1576.44 582.892 1513.21 524.628 1417.82 436.345C1395.52 415.875 1362.18 385.33 1329.22 357.576C1359.33 404.122 1395.51 454.998 1422.62 493.191C1477.35 570.146 1533.98 649.793 1570.53 719.15C1592.85 760.974 1660.61 888.472 1572.15 972.285C1532.63 1009.66 1460.72 1040.06 1342.12 972.67C1290.35 943.462 1237.39 901.323 1185.64 859.609C1199.17 892.111 1210.58 925.463 1219.81 959.46C1242.9 1052.96 1209.66 1101.36 1177.72 1125.4C1093.86 1188.63 995.746 1118.46 859.915 1021.22C857.525 1019.5 855.097 1017.71 852.464 1015.87C855.245 1019.78 857.913 1023.49 860.404 1027.05C901.306 1084.59 943.598 1144.09 972.181 1196.16C987.935 1223.34 999.893 1252.54 1007.73 1282.99C1021.72 1344.26 1001.23 1384.35 981.58 1407.16C972.737 1417.07 962.295 1425.46 950.693 1431.97Z" fill="url(#paint0_linear_152_1817)"/>
<defs>
<linearGradient id="paint0_linear_152_1817" x1="769.005" y1="349.768" x2="1283.04" y2="1240.1" gradientUnits="userSpaceOnUse">
<stop stop-color="#5B5AFF"/>
<stop offset="1" stop-color="#FF831A"/>
</linearGradient>
</defs>
</svg>
