<svg width="20" height="20" viewBox="0 0 20 20" fill="none" xmlns="http://www.w3.org/2000/svg">
<path d="M17.7504 18.3335C17.6004 18.3335 17.4504 18.2751 17.342 18.1668L15.792 16.6168C15.567 16.3918 15.567 16.0251 15.792 15.7918C16.017 15.5668 16.3837 15.5668 16.617 15.7918L18.167 17.3418C18.392 17.5668 18.392 17.9335 18.167 18.1668C18.0504 18.2751 17.9004 18.3335 17.7504 18.3335Z" fill="#F3F3F3"/>
<path d="M9.58366 1.66675C5.21699 1.66675 1.66699 5.21675 1.66699 9.58342C1.66699 13.9501 5.21699 17.5001 9.58366 17.5001C13.9503 17.5001 17.5003 13.9501 17.5003 9.58342C17.5003 5.21675 13.9503 1.66675 9.58366 1.66675ZM11.8337 10.3751H10.3753V11.8334C10.3753 12.1751 10.092 12.4584 9.75033 12.4584C9.40866 12.4584 9.12533 12.1751 9.12533 11.8334V10.3751H7.66699C7.32533 10.3751 7.04199 10.0917 7.04199 9.75008C7.04199 9.40841 7.32533 9.12508 7.66699 9.12508H9.12533V7.66675C9.12533 7.32508 9.40866 7.04175 9.75033 7.04175C10.092 7.04175 10.3753 7.32508 10.3753 7.66675V9.12508H11.8337C12.1753 9.12508 12.4587 9.40841 12.4587 9.75008C12.4587 10.0917 12.1753 10.3751 11.8337 10.3751Z" fill="#F3F3F3"/>
</svg>
