<svg width="986" height="780" viewBox="0 0 986 780" fill="none" xmlns="http://www.w3.org/2000/svg">
<path d="M950.693 924.966C925.36 939.591 886.52 949.869 831.665 932.863C794.549 920.071 759.149 902.91 726.218 881.744C656.674 839.446 574.601 778.623 487.71 714.292C450.828 686.995 405.039 653.038 359.127 620.53C393.967 659.861 429.388 698.082 456.483 727.324C604.781 887.585 655.746 946.381 649.555 1013.97C648.342 1028.4 644.084 1042.46 637.056 1055.21C630.029 1067.97 620.392 1079.14 608.772 1088C569.627 1118.01 505.935 1138.76 306.355 1087.11C202.152 1059.64 100.077 1024.98 0.871708 983.392L77.3558 811.556C171.141 851.15 267.879 883.626 366.745 908.708C349.824 890.133 332.707 871.671 317.129 854.819C250.087 782.388 174.038 700.253 120.984 629.222C85.0522 581.045 -10.0822 453.757 73.1402 361.771C155.492 271.148 287.381 350.078 343.796 383.845C420.531 429.831 512.427 497.992 601.39 563.797C636.022 589.464 679.383 621.635 722.288 652.26C716.541 644.12 711.018 636.367 705.933 629.223C665.945 572.963 624.605 514.813 597.039 464.649C578.696 431.215 522.781 329.529 592.403 256.164C641.722 204.17 714.026 203.176 807.605 253.996C858.485 281.654 915.723 322.44 970.935 361.985L991.702 376.789C951.421 275.123 919.673 180.075 980.535 110.734C1006.92 80.8526 1066.08 40.7553 1171.06 105.583C1208.11 128.477 1249.61 161.976 1293.86 197.341C1316.75 215.828 1351.8 244.183 1385.63 268.762C1351.12 212.011 1302.97 144.181 1268.08 95.3995C1216.46 22.7675 1163.05 -52.3621 1128.41 -116.28C1107.08 -155.653 1041.84 -275.907 1123.84 -356.248C1159.48 -391.124 1238.87 -437.134 1370.76 -353.377C1429.67 -315.885 1491.72 -258.75 1546.44 -208.413C1556.72 -198.925 1568.46 -188.125 1580.5 -177.244C1574.23 -196.111 1567.29 -214.332 1562.18 -227.576C1533 -304.118 1496.68 -399.371 1563.08 -469.845C1647.17 -558.971 1779.38 -464.373 1850.47 -413.494C1931.97 -355.181 2027.92 -274.713 2105.37 -209.498C2151.84 -170.423 2191.98 -136.733 2219.89 -115.288L2103.67 33.2254C2072.45 9.38122 2030.96 -25.5937 1982.83 -66.0354C1930.3 -110.147 1834.6 -190.497 1755.54 -249.271C1785.82 -162.508 1809.91 -52.0083 1729.69 35.0554C1719.33 46.2852 1706.84 55.3795 1692.97 61.8098C1679.09 68.2402 1664.09 71.8776 1648.85 72.5104C1576.44 75.8919 1513.21 17.6277 1417.82 -70.6547C1395.52 -91.1255 1362.18 -121.67 1329.22 -149.424C1359.33 -102.878 1395.51 -52.0017 1422.62 -13.8095C1477.35 63.1457 1533.98 142.793 1570.53 212.15C1592.85 253.974 1660.61 381.472 1572.15 465.285C1532.63 502.66 1460.72 533.063 1342.12 465.671C1290.35 436.462 1237.39 394.323 1185.64 352.609C1199.17 385.111 1210.58 418.462 1219.81 452.46C1242.9 545.961 1209.66 594.359 1177.72 618.4C1093.86 681.631 995.746 611.461 859.915 514.217C857.525 512.495 855.097 510.709 852.464 508.869C855.245 512.778 857.913 516.492 860.404 520.051C901.306 577.592 943.598 637.088 972.181 689.164C987.935 716.336 999.893 745.542 1007.73 775.986C1021.72 837.261 1001.23 877.351 981.58 900.155C972.737 910.07 962.295 918.457 950.693 924.966V924.966Z" fill="url(#paint0_linear_2079_10344)"/>
<defs>
<linearGradient id="paint0_linear_2079_10344" x1="769.005" y1="-157.232" x2="1283.04" y2="733.097" gradientUnits="userSpaceOnUse">
<stop stop-color="#5B5AFF"/>
<stop offset="1" stop-color="#FF831A"/>
</linearGradient>
</defs>
</svg>
